<?xml version="1.0" standalone="no"?>
<!DOCTYPE svg PUBLIC "-//W3C//DTD SVG 1.1//EN" "http://www.w3.org/Graphics/SVG/1.1/DTD/svg11.dtd" >
<svg xmlns="http://www.w3.org/2000/svg" xmlns:xlink="http://www.w3.org/1999/xlink" version="1.1">
<metadata></metadata>
<defs>
<font id="fablabelectronics" horiz-adv-x="1703" >
<font-face units-per-em="2048" ascent="1638" descent="-410" />
<missing-glyph horiz-adv-x="1050" />
<glyph horiz-adv-x="0" />
<glyph unicode="&#xd;" horiz-adv-x="681" />
<glyph unicode=" "  horiz-adv-x="1050" />
<glyph unicode="&#x09;" horiz-adv-x="1050" />
<glyph unicode="&#xa0;" horiz-adv-x="1050" />
<glyph unicode="!" d="M647 172q0 6 4 12v2l70 140q8 14 24 14h209q18 0 27 -14l70 -140q6 -14 0 -26l-70 -140q-8 -16 -27 -16h-209q-16 0 -24 16l-70 140q-4 6 -4 12zM649 1212q0 4 2 11l39 145q4 12 15 16l135 68q12 6 26 0l140 -70q10 -6 14 -18l35 -145q2 -4 2 -11l-72 -690q0 -12 -12 -20 l-105 -74q-6 -6 -15 -6t-17 6l-105 74q-10 8 -12 20zM709 172l55 -111h174l55 111l-55 111h-174zM709 1212l67 -675l76 -54l78 54l67 673l-30 127l-115 58l-109 -56z" />
<glyph unicode="&#x22;" d="M365 1446l4 207q0 18 14 24l139 70q14 8 27 0l139 -70q8 -4 12 -12l70 -139q6 -12 0 -25l-70 -139q-2 -4 -6 -8l-209 -209q-8 -8 -20 -8t-19 8l-69 69q-16 14 -6 35l106 189l-76 -21h-2h-6h-6q-23 0 -22 29zM424 1483l104 26q10 4 19 -2q12 -4 16 -16t-2 -23l-129 -229 l35 -33l184 185l62 122l-60 117l-116 60l-113 -56v-151zM930 1446l4 207q0 18 14 24l139 70q14 8 27 0l139 -70q8 -4 13 -12l69 -139q6 -12 0 -25l-69 -139q-2 -4 -6 -8l-209 -209q-2 -4 -7.5 -6t-9.5 -2t-8 1t-8 3t-6 4l-70 69q-16 14 -6 35l106 189l-75 -21h-2h-7h-6 q-23 0 -22 29zM989 1483l105 26q10 4 18 -2q12 -4 16.5 -16t-2.5 -23l-129 -229l35 -33l185 185l61 122l-59 117l-117 60l-113 -56v-151z" />
<glyph unicode="#" d="M129 451l70 139q6 16 24 16h72q4 0 8 -2l172 -57v33q0 6 4 12l68 133l-98 -33q-13 -4 -23 2q-8 4 -12 11l-74 137q-8 14 -2 26l70 140q8 16 24 16h70q4 0 8 -2l174 -57v28q0 6 2 13l139 280q8 16 27 17h137q12 0 20.5 -8.5t8.5 -20.5v-133q0 -8 -2 -13l-62 -131l64 25 q14 6 26 -2l58 -39v8q0 6 2 12l141 285q8 16 27 17h133q12 0 20.5 -8.5t8.5 -18.5l4 -139q0 -8 -2 -15l-68 -133l102 33q23 8 35 -14l70 -140q6 -12 0 -24l-74 -139q-8 -16 -24 -17h-68q-4 0 -8 2l-172 58v-29q0 -8 -2 -12l-68 -136l103 33q23 8 34 -14l70 -139q6 -12 0 -25 l-63 -139q-8 -16 -27 -17h-76q-4 0 -8 2l-172 58v-31q0 -6 -2 -12l-141 -279q-6 -16 -25 -16h-139q-12 0 -20.5 9t-8.5 19v146q0 6 4 12l60 117l-58 -23q-12 -6 -26 2l-62 41l-2 -18q0 -4 -2 -10l-137 -277q-8 -16 -27 -14l-139 4q-12 0 -20.5 9t-8.5 20l2 129q0 6 4 12 l64 135l-96 -31q-23 -8 -35 13l-74 137q-8 14 -2 27zM188 438l56 -102l180 59q16 6 29 -4q10 -8 10 -20.5t-8 -22.5l-68 -67l-61 -129l-2 -97l94 -2l127 254l2 62q0 6 4 10q6 12 18.5 15t22.5 -3l92 -59l158 63q16 6 28 -4q10 -8 10.5 -21.5t-8.5 -21.5l-67 -67l-64 -123 v-109h93l129 256v64v6q4 12 15 18t21 2l205 -67h53l52 110l-54 105l-186 -62q-14 -6 -27 4q-10 8 -10 21.5t8 21.5l68 68l63 129v61v7q4 12 15.5 18t23.5 2l203 -68h45l58 111l-52 105l-184 -60q-14 -6 -27 4q-10 8 -10 21.5t8 21.5l66 66l63 127l-2 104h-90l-129 -262v-57 q0 -8 -4 -15q-6 -10 -18.5 -13t-22.5 5l-90 60l-162 -64q-16 -6 -28 4q-10 8 -10.5 21.5t7.5 21.5l70 72l60 129v98h-91l-129 -258v-61v-6q-4 -12 -15 -18.5t-21 -2.5l-207 68h-47l-54 -111l56 -102l182 59q14 6 27 -4q10 -8 10 -21.5t-8 -21.5l-64 -61l-68 -134v-63v-6 q-4 -12 -15 -18.5t-21 -2.5l-207 68h-47zM616 500q-6 16 7 28l65 66l64 127l2 65q0 12 9 21.5t21 7.5q8 0 15 -4l88 -61l164 63q12 4 23 -1t13 -17q6 -16 -6 -29l-65 -66l-66 -129v-63q0 -12 -9 -20.5t-21 -8.5q-8 0 -15 4l-94 62l-158 -64q-10 -4 -22.5 1t-14.5 18z M748 582l55 22q14 6 26 -2l64 -41v17q0 6 4 12l61 125l-63 -25q-14 -6 -27 4l-59 39v-6q4 -14 0 -22z" />
<glyph unicode="%" d="M197 1079l4 76q0 6 2 10l65 135q2 4 6 7l70 71l8 4l140 70q6 4 12 4t12 -4l141 -72q4 -2 9 -6l67 -65q2 -4 6 -9l70 -143q2 -4 2 -12v-66q0 -8 -2 -14l-72 -139l-4 -8l-74 -72l-8 -4l-135 -68q-14 -6 -27 0l-137 70q-4 2 -8 6l-70 70q-4 2 -6 6l-69 139q-2 8 -2 14z M254 1085l63 -129l64 -63l121 -62l121 60l67 65l64 129v54l-66 131l-61 61l-123 64l-123 -62l-64 -63l-59 -123zM266 33v139q0 6 1 10t5 8l975 1254q8 12 23 12h139q10 0 19.5 -8t9.5 -21v-139q0 -10 -6 -18l-975 -1254q-8 -12 -23 -12h-139q-10 0 -19.5 8t-9.5 21zM324 61 h96l960 1235v103h-96l-960 -1235v-103zM406 1079v70q0 10 8 18l69 70q6 6 14.5 8t15.5 0t11 -8l70 -70q8 -8 8 -18v-70q0 -12 -8 -20l-70 -70q-10 -10 -21 -9t-20 9l-69 70q-8 8 -8 20zM463 1090l41 -41l41 41v47l-41 41l-41 -41v-47zM893 313l2 72q0 6 4 12l66 138q4 4 6 8 l78 71q2 4 6 7l133 65q6 2 12 2q8 0 12 -2l140 -70q4 -2 8 -6l70 -69q4 -2 6 -6l69 -144q2 -6 2 -12v-68q0 -6 -2 -12l-69 -139q-2 -4 -6 -8l-74 -72l-8 -4l-136 -68q-12 -6 -24 0l-139 70q-4 2 -9 4l-69 70l-4 8l-72 139q-2 6 -2 14zM950 319l66 -129l61 -63l123 -61 l119 59l67 65l64 129v54l-64 131l-63 63l-123 62l-117 -60l-69 -65l-62 -127zM1102 311v70q0 12 8 20l70 70q8 8 19 8t22 -8l69 -70q8 -8 8 -20v-70q0 -10 -8 -20l-69 -70q-20 -18 -41 0l-70 70q-8 10 -8 20zM1159 324l41 -41l41 41v47l-41 41l-41 -41v-47z" />
<glyph unicode="&#x26;" d="M129 416q-2 10 0 18l80 209q4 10 14 14l189 95q4 2 8 2l90 14l-53 10q-10 2 -17 8l-98 99q-4 6 -6 14l-35 152q-2 6 0 14l49 141q2 6 6 13l131 127q4 4 11 6l204 67q4 2 11 2l141 -4h8l207 -67q18 -8 18 -29v-68q0 -12 -8 -20l-145 -139q-8 -8 -19 -9l-192 -2l-53 -53 v-43l123 -123h127q4 0 8 -2l157 -51l-49 156q-2 2 -2 6q0 12 8.5 21.5t20.5 9.5l344 -7h6q12 -4 18.5 -15t2.5 -21l-50 -152l154 47q4 2 6 2q12 0 22.5 -8t10.5 -21v-272q0 -4 -2 -6q-2 -12 -13.5 -18.5t-23.5 -2.5l-156 52l43 -146q11 -10 9 -26q0 -12 -7 -21l-61 -188 q-4 -12 -14 -19l-279 -139q-4 0 -6 -2l-279 -70q-8 -2 -14 0l-282 72q-4 2 -7 2l-274 137q-10 6 -14 19zM186 424l62 -195l260 -131l272 -69l271 67l264 133l59 183l-63 206q-4 12 3 22.5t19 14.5q6 0 15 -2l172 -57v195l-172 -52q-12 -4 -23.5 2.5t-13.5 18.5q-2 8 0 14 l57 166l-266 6l55 -172q4 -12 -2 -22.5t-18 -14.5q-8 -2 -17 2l-205 68h-135q-10 0 -18 8l-141 139q-8 8 -9 21v65q0 12 9 21l69 72q8 8 21 8l192 2l127 123v34l-182 60l-133 4l-193 -64l-121 -118l-43 -127l31 -135l86 -86l207 -41q12 -2 19.5 -12.5t3.5 -22.5 q-4 -18 -23 -21l-250 -39l-174 -86zM506 399q-8 14 0 29l41 74q6 8 16 12l209 70q4 2 8 2h135l205 67q11 4 19 0q2 0 4 -2q23 -6 14 -35l-70 -208q-2 -6 -8 -11l-67 -69q-6 -6 -15 -9l-213 -45q-6 -2 -12 0l-207 45q-10 2 -18 13zM528 764q0 20 8.5 37.5t20.5 31t30.5 20.5 t37.5 7q39 0 67.5 -27.5t28.5 -67.5t-28.5 -67.5t-67.5 -27.5q-27 0 -48.5 12t-35 34.5t-13.5 47.5zM565 414l25 -41l188 -41l199 43l57 57l49 150l-153 -52q-4 -2 -8 -2h-136l-194 -65zM1004 588q0 41 28.5 68.5t67.5 27.5q27 0 48 -13.5t34.5 -35t13.5 -47.5 q0 -39 -28.5 -66.5t-67.5 -27.5q-27 0 -48.5 12t-34.5 34.5t-13 47.5zM1004 803q0 41 28.5 68.5t67.5 27.5q27 0 48 -13.5t34.5 -35t13.5 -47.5q0 -39 -28.5 -66.5t-67.5 -27.5q-27 0 -48.5 12t-34.5 34.5t-13 47.5zM1266 589q0 40 28.5 67.5t67.5 27.5t67.5 -27.5 t28.5 -67.5t-28.5 -67.5t-67.5 -27.5t-67.5 27.5t-28.5 67.5zM1266 804q0 40 28.5 67.5t67.5 27.5t67.5 -27.5t28.5 -67.5t-28.5 -67.5t-67.5 -27.5t-67.5 27.5t-28.5 67.5z" />
<glyph unicode="'" d="M647 1446l4 207q0 18 15 24l139 70q14 8 26 0l140 -70q8 -4 12 -12l70 -139q6 -12 0 -25l-70 -139q-2 -4 -6 -8l-209 -209q-4 -6 -12 -7t-15.5 1t-11.5 6l-70 69q-16 14 -6 35l107 189l-76 -21h-2h-6h-6q-23 0 -23 29zM707 1483l104 26q10 4 18 -2q12 -4 16.5 -16 t-1.5 -23l-129 -229l35 -33l184 185l61 122l-59 117l-117 60l-112 -56v-151z" />
<glyph unicode="(" d="M545 725v5v7l69 348q2 4 4 11l140 209l8 8l209 139q8 4 16 4h139q8 0 15.5 -5t10.5 -11t3 -13v-139q0 -16 -12 -24l-199 -131l-67 -402l67 -399l199 -135q12 -8 12 -23v-139q0 -8 -4 -15.5t-11 -10.5t-14 -3h-139q-8 0 -16 4l-209 140l-8 8l-140 209q-2 4 -4 10zM602 731 l68 -338l133 -198l196 -132h103v95l-197 133q-10 6 -12 18l-70 418v8l70 418q2 12 12 21l197 129v96h-103l-196 -131l-133 -201z" />
<glyph unicode=")" d="M545 35q0 -8 4 -15.5t11 -10.5t13 -3h140q8 0 16 4l209 140l8 8l139 209l5 10l69 348v5v7l-69 348q-2 4 -5 11l-139 209l-8 8l-209 139q-8 4 -16 4h-140q-8 0 -15 -5t-10 -11t-3 -13v-139q0 -16 12 -24l199 -131l67 -402l-67 -399l-199 -135q-12 -8 -12 -23v-139zM602 63 v95l197 133q10 6 12 18l70 418v8l-70 418q-2 12 -12 21l-197 129v96h103l196 -131l133 -201l68 -336l-68 -338l-133 -198l-196 -132h-103z" />
<glyph unicode="*" horiz-adv-x="2048" d="M508 848v137q0 18 18 27l131 45l-127 43q-20 6 -20 26l-2 140q0 18 16 26l140 70q12 6 24 0l141 -72q4 -2 9 -4l51 -51l-31 92q-2 4 -2 8v140q0 8 4 14t12 10l140 72q12 6 24 0l140 -72q16 -8 16 -24v-140q0 -4 -2 -8l-31 -94l58 55q2 4 6 6l135 68q14 6 26 0l140 -70 q16 -8 16 -26v-140q0 -20 -18 -26l-129 -43l127 -41q20 -6 20 -27v-141q0 -16 -16 -25l-140 -69q-12 -6 -24 0l-139 69q-6 2 -9 6l-53 52l31 -93q2 -4 2 -10v-143q0 -18 -16 -25l-140 -65q-12 -6 -24 0l-140 65q-16 6 -16 25v139q0 4 2 8l31 103l-55 -58q-4 -4 -9 -6 l-137 -67q-12 -6 -24 0l-140 69q-16 8 -16 25zM565 866l111 -55l121 59l137 140q10 10 27 6q12 -2 18 -13.5t2 -23.5l-68 -209v-117l111 -51l111 51v121l-68 205q-6 14 4 27q8 10 21.5 11t21.5 -9l135 -136l123 -61l111 55v103l-189 61q-12 4 -18 17q-4 12 1 23t17 15 l189 64v100l-111 56l-119 -60l-139 -139q-12 -10 -27 -6q-12 2 -18 13t-2 24l68 204v115l-111 57l-111 -57v-115l68 -204q6 -16 -4 -29q-8 -8 -21.5 -9t-21.5 9l-133 133l-125 64l-111 -56l2 -102l187 -62q12 -4 17 -15t0 -23.5t-15 -16.5l-191 -65v-99z" />
<glyph unicode="+" d="M270 682q-6 12 0 27l68 135q8 16 24 16h211q6 0 11 -2l151 -51l-47 141q-4 10 -4 19v213q0 16 14 24l140 70q14 6 26 0l140 -70q16 -8 16 -24v-211q0 -4 -2 -11l-51 -151l157 51q4 2 9 2h206q16 0 25 -16l70 -139q6 -12 0 -27l-70 -139q-8 -14 -25 -15h-211h-10l-151 51 l51 -157q2 -6 2 -10v-205q0 -16 -16 -25l-140 -69q-12 -6 -26 0l-140 69q-14 8 -14 25v207v10l51 155l-151 -51h-11h-211q-16 0 -24 15zM328 694l53 -112h188l203 67q12 4 23.5 -2t13.5 -18q2 -8 0 -17l-68 -206v-185l111 -55l111 55v182l-70 209v8.5v8.5t2 7t5 6t6 5t7 2 q8 2 17 0l203 -67h188l55 110l-55 111h-184l-207 -70q-8 -2 -15.5 0t-13.5 8.5t-8 13.5t2 15l68 203v188l-111 56l-111 -56v-186l68 -205q4 -12 -2 -23.5t-19 -13.5q-8 -2 -16 0l-203 70h-188zM647 590q0 18 7.5 36.5t20.5 31t30.5 19.5t37.5 7q39 0 67 -27.5t28 -66.5 q0 -27 -12.5 -48.5t-35 -34.5t-48 -13t-48 13t-35 34.5t-12.5 48.5zM647 795q0 18 7.5 36.5t20.5 30.5t30.5 19.5t37.5 7.5q39 0 67 -27.5t28 -67.5t-28 -68t-67 -28q-27 0 -49 13.5t-34.5 35t-12.5 48.5zM860 588q0 25 12.5 47t35 34.5t48.5 12.5q39 0 67 -27.5t28 -66.5 q0 -27 -12.5 -48.5t-35 -34.5t-47.5 -13q-41 0 -68.5 27.5t-27.5 68.5zM860 795q0 18 7 36.5t20.5 30.5t31 19.5t37.5 7.5q39 0 67 -27.5t28 -67.5t-28 -68t-67 -28q-27 0 -49 13.5t-34.5 35t-12.5 48.5z" />
<glyph unicode="," d="M647 41l4 207q0 16 15 24l139 70q14 6 26 0l140 -70q8 -4 12 -12l70 -139q6 -12 0 -27l-70 -139q-2 -4 -6 -6l-209 -209q-8 -8 -20.5 -8t-18.5 8l-70 70q-16 14 -6 32l107 191l-76 -21h-2h-6h-6q-23 0 -23 29zM707 78l104 26q10 2 18 -2q12 -4 16.5 -16t-1.5 -23 l-129 -229l35 -35l184 187l61 123l-59 116l-117 60l-112 -56v-151z" />
<glyph unicode="-" d="M408 885q-6 12 0 24l69 140q4 8 11.5 12t15.5 4h696q18 0 27 -16l69 -140q6 -12 0 -24l-69 -140q-8 -16 -27 -16h-696q-18 0 -27 16zM467 897l55 -111h660l55 111l-55 111h-660z" />
<glyph unicode="." d="M649 172q0 6 2 12l70 140q8 16 27 16h208q18 0 27 -16l70 -140q6 -12 0 -24l-70 -140q-8 -16 -27 -16h-208q-18 0 -27 16l-70 140q-2 6 -2 12zM711 172l55 -111h172l55 111l-55 111h-172z" />
<glyph unicode="/" d="M127 35v139q0 12 8 21l1254 1253q8 8 20 8h139q10 0 19.5 -8t9.5 -21v-139q0 -12 -8 -20l-1254 -1254q-8 -8 -20 -8h-139q-10 0 -19.5 8.5t-9.5 20.5zM184 63h99l1237 1237v99h-99l-1237 -1237v-99z" />
<glyph unicode="0" d="M127 707v6v8l70 278q2 4 4 9l139 233l8 8l209 140q4 2 10 4l279 69q6 2 14 0l279 -69l8 -4l209 -140l8 -8l139 -233q2 -4 4 -9l70 -278q2 -8 0 -14l-70 -279q-2 -6 -4 -10l-139 -234l-8 -8l-209 -139l-8 -4l-279 -70h-14l-279 70q-6 2 -10 4l-209 139l-8 8l-139 234 q-2 4 -4 10zM184 713l68 -267l133 -225l201 -133l266 -68l268 68l199 133l133 225l68 267l-68 266l-133 225l-199 133l-268 68l-266 -68l-201 -133l-133 -225zM485 556q0 40 28 67.5t68 27.5t67.5 -27.5t27.5 -67.5t-27.5 -67.5t-67.5 -27.5t-68 27.5t-28 67.5zM512 717v8 l33 201q2 10 8 16l145 166q2 2 7 4l135 70q4 2 10 2h12l209 -70q10 -4 16.5 -16.5t-0.5 -22.5q-4 -10 -12 -14l-123 -66l-282 -354l-70 -149q-6 -10 -18.5 -14.5t-22.5 1.5q-12 6 -14 21zM569 721l19 -119l33 68q0 4 4 6l286 360q4 4 9 8l69 35l-135 45l-119 -61l-135 -156z M604 348q0 39 27.5 67.5t67.5 28.5t68 -28.5t28 -67.5t-28 -67.5t-68 -28.5t-67.5 28.5t-27.5 67.5zM614 344q0 2 2 4q2 10 11 17h2l129 71l282 357l66 141q4 12 18 16q10 2 21.5 -4t13.5 -18l39 -209q2 -6 0 -12l-41 -142q0 -4 -2 -8l-139 -233q-4 -6 -12 -11l-140 -67 q-10 -6 -20 -2l-209 69q-29 8 -21 31zM715 346l135 -45l121 61l133 224l37 129l-21 112l-30 -63q0 -2 -5 -6l-288 -363q-2 -4 -9 -8zM909 1073q0 20 8.5 37.5t20.5 30t29.5 20.5t38.5 8q39 0 67.5 -28.5t28.5 -67.5t-29 -67.5t-68.5 -28.5t-67.5 28.5t-28 67.5zM1028 857 q0 40 27.5 67.5t66.5 27.5q27 0 49.5 -12t35 -34.5t12.5 -47.5q0 -41 -28 -68.5t-68 -27.5t-67.5 27.5t-27.5 67.5z" />
<glyph unicode="1" d="M127 18v70q0 8 2 14l70 140q4 8 14 12l137 70q6 2 15 2h172h8l157 -52l-51 152q-2 4 -2 10l-2 348q0 4 2 9l39 157l-92 -112q-6 -6 -14 -11l-211 -69q-2 0 -2 -1t-2 -1h-3.5h-3.5h-135q-18 0 -26 16l-68 143q-6 12 0 25l72 139q4 8 14 13l270 108l207 166q2 0 6 2l138 70 q14 6 26 -2l144 -80q12 -6 14 -19l33 -123v-8l2 -770q0 -6 -2 -10l-51 -154l157 54h8h166q8 0 13 -2l143 -70q10 -4 14 -12l70 -140q2 -6 2 -14v-70q0 -10 -8 -19t-21 -9h-1392q-10 0 -19.5 8t-9.5 20zM184 47h1336v35l-62 125l-129 61h-153l-209 -67q-12 -4 -22.5 2 t-14.5 18q-2 8 0 15l69 204l-2 762l-26 109l-121 67l-121 -59l-209 -166q-2 -2 -6 -4l-266 -107l-60 -116l56 -113h112l201 68l168 202q8 10 20.5 11.5t22.5 -9.5q10 -10 6 -26l-69 -277l2 -342l67 -200q4 -12 -2 -22.5t-16 -14.5q-8 -2 -17 0l-207 65h-161l-125 -61 l-62 -125v-35zM637 247q0 40 27.5 67.5t67.5 27.5t67.5 -27.5t27.5 -68.5q0 -18 -7 -37t-19.5 -31t-30.5 -19t-37 -7q-41 0 -68.5 27.5t-27.5 67.5zM639 1055q0 39 27.5 67.5t67.5 28.5t67.5 -28.5t27.5 -67.5t-27.5 -68t-67.5 -29t-67.5 29t-27.5 68zM872 247q0 40 28 67.5 t68 27.5t67.5 -27.5t27.5 -68.5q0 -14 -4 -29.5t-13.5 -27t-20.5 -20.5t-26.5 -13t-29.5 -4q-41 0 -69 27.5t-28 67.5z" />
<glyph unicode="2" d="M127 864v140q0 8 4 14l139 211q4 4 9 6l208 139q4 4 11 4l348 70l6 2l6 -2l350 -70q6 -2 11 -4l206 -139q4 -2 9 -8l139 -209q4 -6 4 -14v-140q0 -8 -2 -14l-70 -139q-4 -6 -10 -11l-575 -366h2h415q6 0 13 -2l141 -70q10 -4 14 -12l70 -139q2 -6 2 -15v-69 q0 -10 -8 -19.5t-21 -9.5h-1306q-16 0 -25 12l-86 142q-8 14 -2 28l70 139q4 6 10 11l926 579l-33 76l-250 125l-256 -129l-55 -123q-4 -10 -13 -14l-149 -76q-6 -2 -12 -2h-142q-12 0 -20 8l-70 70q-8 8 -8 20zM184 874l54 -51h120l136 68l53 123q4 10 14 14l279 139 q12 6 24 0l273 -135q8 -6 12 -14l47 -107q10 -23 -10 -37l-938 -587l-60 -119l70 -113h1262v35l-62 125l-127 61h-405l-205 -67q-10 -4 -21.5 2t-15.5 18q-4 20 12 31l760 483l64 127v123l-131 199l-197 131l-340 68l-338 -66l-199 -133l-131 -199v-119zM651 259 q0 40 28 67.5t67.5 27.5t67.5 -27.5t28 -68.5q0 -18 -7.5 -36.5t-19.5 -31t-30.5 -19.5t-36.5 -7q-41 0 -69 27.5t-28 67.5zM1071 903q0 39 28.5 67.5t67.5 28.5t68 -28.5t29 -67.5t-29 -67.5t-68 -28.5q-27 0 -48 13.5t-34.5 34.5t-13.5 48z" />
<glyph unicode="3" d="M127 440l2 64q0 10 6 18l68 74q8 8 22 8l209 -2q12 0 21 -8l131 -131l266 -135l258 129l25 47l-23 39l-399 2q-18 0 -25 16l-70 141q-6 12 0 25l70 139q6 14 25 15h401l23 41l-29 49l-256 129l-264 -135l-131 -131q-10 -8 -21 -9h-213q-12 0 -20 9l-68 75q-8 8 -8 21 l4 69q0 8 6 17l137 201q4 4 9 6l206 141q4 4 11 4l346 70q6 2 7 2t5 -2l350 -72q6 0 11 -4l208 -139l9 -9l137 -206q4 -6 4 -17v-139q0 -10 -8 -18l-68 -74q-6 -6 -12 -8l-127 -39l125 -43q8 -2 12 -8l72 -80q6 -8 6 -19v-129q0 -8 -4 -16l-141 -207q-4 -4 -9 -8l-206 -140 q-4 -4 -11 -6l-350 -67q-6 -2 -10 0l-352 71q-6 0 -11 5l-207 139l-8 8l-137 211q-4 8 -4 16zM184 449l129 -199l197 -133l340 -70l340 66l196 135l134 196v109l-58 65l-200 68q-12 4 -17.5 15.5t-1.5 23.5q6 12 19 16l202 64l56 59v119l-129 195l-199 135l-340 67l-336 -67 l-197 -133l-131 -191l-2 -51l52 -55h186l127 127q2 2 6 4l283 143q12 6 24 0l277 -139q8 -4 12 -10l41 -72q8 -14 0 -29l-39 -67q-8 -16 -25 -17h-399l-55 -108l55 -113l397 -2q16 0 25 -14l39 -68q8 -14 0 -29l-35 -67q-6 -8 -14 -12l-279 -140q-12 -6 -24 0l-283 144l-8 4 l-127 127l-184 2l-52 -55zM1083 919.5q0 38.5 28 67.5t68 29t67.5 -29t27.5 -67.5t-27.5 -67.5t-67.5 -29t-68 29t-28 67.5zM1085 514q0 39 28 67.5t67 28.5q27 0 48 -13t34.5 -34.5t13.5 -48.5q0 -39 -27.5 -67.5t-68.5 -28.5q-25 0 -47.5 13t-35 34.5t-12.5 48.5z M1223 715q0 39 27.5 67.5t66.5 28.5q27 0 48 -13.5t34.5 -35t13.5 -47.5q0 -39 -27.5 -68t-68.5 -29q-18 0 -36.5 8.5t-31 20.5t-19.5 30t-7 38z" />
<glyph unicode="4" d="M131 479q-6 14 0 27l68 139q4 6 8 10l344 277l229 399q6 8 17 12l211 82q10 4 20 0l182 -69q18 -6 19 -27v-557q0 -4 -2 -8l-51 -156l157 51q4 2 8 3h140q16 0 24 -17l68 -141q6 -12 0 -25l-70 -137q-6 -16 -24 -16h-142q-4 0 -10 2l-151 51l51 -156q2 -4 2 -8v-139 q0 -18 -17 -27l-139 -67q-12 -8 -24 0l-142 71q-8 4 -12 13l-66 145q-4 10 -2 22l50 146l-156 -51q-4 -2 -8 -2h-488q-8 0 -15 4t-11 12zM188 494l56 -111h463l206 68q6 2 11.5 2t10.5 -3.5t9 -8.5t6 -11q2 -8 -2 -14l-61 -191l55 -127l119 -59l110 53v119l-67 205 q-4 10 2 21.5t18 15.5q8 2 17 -2l200 -68h119l56 109l-54 112h-114l-207 -67q-12 -4 -23.5 2t-13.5 18q-2 8 0 14l67 205v535l-153 57l-193 -76l-227 -395q-2 -4 -6 -8l-344 -275zM545 636.5q2 12.5 12 20.5l203 136l137 270q8 20 29 16q12 -2 19 -12t5 -23l-67 -270 l65 -203q10 -27 -12 -34h-4q-10 -4 -19 0l-204 67h-136q-14 0 -22 10t-6 22.5zM668 662h45q6 0 10 -3l154 -51l-52 156q-2 8 0 14l6 27l-22 -45q-4 -6 -10 -12zM807 392q0 40 27.5 67.5t67.5 27.5t67.5 -27.5t27.5 -67.5t-27.5 -67.5t-67.5 -27.5t-67.5 27.5t-27.5 67.5z M809 593q0 40 27.5 67.5t67.5 27.5t67.5 -27.5t27.5 -67.5t-27.5 -67.5t-67.5 -27.5t-67.5 27.5t-27.5 67.5zM1061 594q0 39 27.5 66.5t67.5 27.5t67.5 -27.5t27.5 -67.5t-27.5 -67.5t-68.5 -27.5q-25 0 -47.5 13t-34.5 34.5t-12 48.5zM1065 395q0 39 27.5 66.5t66.5 27.5 q27 0 48.5 -12t34.5 -34.5t13 -47.5q0 -41 -27.5 -68.5t-68.5 -27.5q-25 0 -47 13.5t-34.5 34.5t-12.5 48z" />
<glyph unicode="5" d="M127 713v137v8l72 283q0 2 2 4l137 276q8 16 27 17h1183q12 0 20.5 -8.5t8.5 -20.5v-70q0 -6 -2 -12l-70 -139q-4 -10 -14 -14l-139 -70q-6 -2 -13 -2l-749 -2l-135 -223l102 69q4 2 10 2l281 70q6 2 12 0l346 -68q6 -2 11 -6l210 -141q6 -4 9 -10l139 -277q6 -12 0 -27 l-141 -278q-4 -6 -11 -10l-209 -140q-4 -4 -10 -4l-342 -69h-10l-426 59q-4 2 -10 4l-275 148q-25 14 -12 39l70 139q6 12 20 14l143 33q6 2 13 0l477 -100l223 63l74 117l-72 112l-225 43l-268 -45l-203 -135q-14 -8 -31 -2l-139 74q-10 4 -14 12l-68 137q-2 6 -2 13z M184 719l60 -121l118 -61l195 129q6 4 12 6l279 45h10l242 -45q12 -2 18 -13l90 -141q8 -14 0 -31l-90 -141q-6 -10 -16 -12l-242 -68q-8 -2 -14 0l-475 101l-127 -27l-51 -102l247 -134l416 -59l332 68l198 131l130 260l-127 256l-199 135l-334 66l-270 -66l-205 -137 q-14 -8 -29 -2q-12 6 -15 18t3 23l209 346q8 14 24 14l758 2l127 62l62 125v34h-1137l-129 -258l-70 -276v-127zM305 829.5q0 38.5 28.5 67.5t67.5 29t68 -29t29 -67.5t-29 -67.5t-68 -29t-67.5 29t-28.5 67.5z" />
<glyph unicode="6" d="M129 647q-2 8 2 17l135 407q2 8 10 12l355 281q4 4 12 6l342 68q4 2 10 0l346 -70q14 -2 21 -14l70 -137q10 -18 -5 -33l-139 -142q-10 -12 -26 -8l-265 64l-270 -72l-127 -117l-74 -71l-18 -60l82 96q4 8 14 11l240 65q6 2 12 0l344 -61q4 0 8 -2l246 -113q12 -4 16 -16 l103 -264q4 -10 0 -21l-94 -248q-4 -10 -13 -14l-254 -150l-8 -4l-350 -67q-6 -2 -10 0l-348 67q-4 2 -11 4l-229 154q-8 6 -10 16zM188 653l109 -395l217 -145l334 -66l340 66l242 141l86 229l-95 244l-233 107l-336 59l-225 -62l-172 -206q-18 -20 -39 -4h-2q-12 12 -8 28 v2v2l69 209q2 6 6 10l78 78l133 123q6 4 13 6l284 76q6 2 15 0l256 -61l112 114l-55 107l-328 65l-327 -65l-345 -271zM358 692q0 39 29 67.5t68 28.5t67.5 -28.5t28.5 -67.5t-28.5 -67.5t-67.5 -28.5t-68 28.5t-29 67.5zM434 471q0 18 7.5 36.5t20.5 31t30.5 19.5t37.5 7 q39 0 67 -27.5t28 -67.5t-28 -67.5t-67 -27.5q-27 0 -48 13t-34.5 34.5t-13.5 48.5zM484.5 469.5q0.5 13.5 11.5 22.5l127 104q4 4 10 4l209 57q8 2 16 0l209 -55q6 -2 10 -6l123 -100q12 -8 11 -21.5t-9 -21.5l-123 -109q-4 -4 -10 -6l-192 -55q-14 -23 -35 -15l-209 70 q-6 2 -10 4l-127 104q-12 10 -11.5 23.5zM559 469l96 -78l129 -37l66 -20l197 57l92 82l-92 76l-197 51l-197 -53zM1075 472q0 40 27.5 67.5t67.5 27.5t68 -27.5t28 -67.5t-28 -67.5t-68 -27.5t-67.5 27.5t-27.5 67.5z" />
<glyph unicode="7" d="M127 1339v70q0 10 8 19.5t21 9.5q6 0 14 -4h1378q10 0 19.5 -8.5t9.5 -20.5v-205q0 -6 -2 -10l-72 -209q-2 -8 -10 -12l-477 -348l-66 -261v-276q0 -16 -16 -25l-139 -69q-12 -6 -25 0l-139 69q-8 4 -15 13l-69 139q-2 6 -2 12v135v9l69 278q2 6 4 10l140 211l8 8 l338 238l-31 -10h-8l-700 2q-6 0 -13 4l-139 66q-10 4 -14 12l-70 139q-2 6 -2 14zM184 1346l62 -125l125 -60l690 -2l203 64q12 4 23 -2.5t13 -18.5q4 -18 -10 -28l-487 -343l-133 -204l-68 -271v-125l62 -125l118 -59l111 55v260v9l70 272q4 10 12 16l477 351l68 194v172 h-1336v-30zM1153 1174q0 39 27.5 67.5t66.5 28.5q16 0 30.5 -5t27 -14.5t20.5 -20.5t13 -25.5t5 -30.5q0 -39 -27.5 -68t-68.5 -29q-25 0 -47 13.5t-34.5 35t-12.5 48.5z" />
<glyph unicode="8" d="M127 440v135q0 12 8 21l70 70q6 6 12 8l184 45l-116 39q-6 2 -11 6l-69 70q-8 8 -8 20v139q0 8 4 17l139 209l8 8l209 139q4 2 10 4l279 70h14l277 -70q6 -2 10 -4l209 -139l8 -8l139 -209q4 -8 4 -17l-2 -143q0 -12 -8 -21l-67 -65q-4 -4 -11 -6l-116 -39l184 -47 q6 -2 12 -6l70 -70q8 -8 8 -21l-2 -139q0 -8 -6 -14l-139 -213q-4 -6 -9 -8l-204 -138q-4 -2 -11 -4l-348 -69q-6 -2 -12 0l-352 71q-4 2 -11 5l-204 139q-6 2 -9 8l-139 211q-4 6 -4 16zM184 449l131 -199l197 -133l340 -70l338 68l194 129l134 202l2 117l-56 55l-270 68 q-14 4 -20 16q-4 12 1 23.5t17 15.5l203 68l53 53l2 123l-131 197l-201 133l-266 67l-266 -67l-201 -133l-131 -197v-119l55 -57l203 -68q29 -8 20 -32l-2 -2q-4 -16 -20 -21l-270 -68l-56 -55v-114zM389 717q0 39 28.5 67.5t67.5 28.5t68 -28.5t29 -67.5t-29 -67.5 t-68 -28.5q-27 0 -48 13t-34.5 34.5t-13.5 48.5zM475 506q0 6 4 14t13 10l139 70q2 2 5 3t7 1h418q6 0 12 -4l139 -70q10 -4 14.5 -15t0.5 -21l-70 -140q-6 -12 -20 -16l-279 -70q-6 -2 -12 0l-279 70q-14 4 -20 16l-70 140q-2 6 -2 12zM543 494l51 -103l258 -65l258 65 l51 103l-106 53h-406zM547 936l69 139q6 10 19 15l209 69q4 2 8 2t8 -2l209 -69q12 -4 18 -15l70 -139q8 -18 -6 -33l-70 -69q-8 -8 -20 -9h-418q-12 0 -20 9l-70 69q-14 14 -6 33zM608 930l47 -47h394l47 47l-56 110l-188 62l-188 -62zM1120 715q0 27 13.5 48t35 34.5 t48.5 13.5q39 0 66.5 -27.5t27.5 -67.5t-28 -67.5t-67.5 -27.5t-67.5 27.5t-28 66.5zM1243 696q-4 10 0 21q4 12 17 16q2 0 2 -13v-28l-2 -12q-11 4 -17 16z" />
<glyph unicode="9" d="M129 936q-4 10 0 20l96 252q2 8 13 15l251 157q4 2 9 2l350 70q6 2 10 0l356 -76q6 0 11 -4l221 -160q8 -6 10 -16l117 -414v-8v-6v-2l-137 -408q-2 -8 -11 -14l-354 -281q-6 -4 -12 -4l-342 -69h-10l-349 69q-14 4 -20 17l-70 139q-10 18 6 33l140 139q10 12 26 8 l265 -65l235 63l135 133q0 2 2 2l15 13l-240 -43h-8l-342 41q-4 0 -8 2l-248 112q-10 6 -15 17zM186 946l95 -244l233 -106l334 -41l229 41l180 76q18 8 33 -6q8 -10 7 -22.5t-11 -20.5l-172 -138l-137 -139q-6 -4 -14 -6l-250 -68q-8 -2 -15 0l-256 64l-112 -115l53 -108 l330 -66l327 66l344 272l132 391l-111 395l-207 150l-346 74l-338 -68l-240 -149zM430 950q0 39 28.5 68t67.5 29t68 -29t29 -68t-29 -67.5t-68 -28.5t-67.5 28.5t-28.5 67.5zM475 952.5q0 14.5 10 22.5l140 110q4 4 10 7l207 49q6 2 14 0l176 -49q6 -2 10 -5l140 -104 q0 -2 2 -2q2 -2 4 -6l4 -4q12 -16 -10 -35l-140 -105q-6 -4 -12 -6l-188 -24q-2 -2 -6 0l-197 24q-8 2 -14 6l-138 99q-12 8 -12 22.5zM551 954l102 -71l185 -25l176 25l102 75l-104 80l-164 45l-193 -47zM1055 965q0 39 28.5 66.5t67.5 27.5q20 0 37.5 -7.5t30 -20.5 t20.5 -30.5t8 -35.5q0 -41 -28.5 -69t-67.5 -28q-27 0 -48.5 12.5t-34.5 35t-13 49.5zM1122 619.5q0 39.5 28 67.5t67.5 28t68.5 -28t29 -69q0 -18 -8.5 -35.5t-20.5 -30.5t-30.5 -20.5t-36.5 -7.5q-41 0 -69 28t-28 67.5z" />
<glyph unicode=":" d="M649 172q0 6 2 12l70 140q8 16 27 16h208q18 0 27 -16l70 -140q6 -12 0 -24l-70 -140q-8 -16 -27 -16h-208q-18 0 -27 16l-70 140q-2 6 -2 12zM649 1007.5q0 6.5 2 12.5l70 139q8 16 27 17h208q18 0 27 -17l70 -139q6 -12 0 -25l-70 -139q-8 -16 -27 -16h-208 q-18 0 -27 16l-70 139q-2 6 -2 12.5zM711 172l55 -111h172l55 111l-55 111h-172zM711 1008l55 -111h172l55 111l-55 110h-172z" />
<glyph unicode=";" d="M647 43l4 207q0 16 15 24l139 70q14 6 26 0l140 -70q8 -4 12 -12l70 -139q6 -14 0 -27l-70 -139q-2 -4 -6 -8l-209 -209q-4 -4 -12 -6t-15.5 0t-11.5 6l-70 70q-16 16 -6 34l107 191l-76 -21h-2q-4 -2 -6 0q-4 -2 -6 0q-23 0 -23 29zM651 1015q0 7 2 11v2l70 139 q8 16 27 17h208q16 0 25 -17l70 -139q6 -12 0 -27l-70 -139q-8 -14 -25 -14h-208q-18 0 -27 14l-70 139v3q-2 4 -2 11zM707 80l104 26q10 2 18 -2q12 -6 16.5 -17t-1.5 -24l-129 -227l35 -35l184 187l61 121l-59 118l-117 60l-112 -56v-151zM711 1016l55 -111h174l55 111 l-55 110h-174z" />
<glyph unicode="&#x3c;" d="M371 715l69 -72q4 -2 9 -4l696 -348q6 -4 12 -4h139q10 0 19.5 8t9.5 20v140v2q0 6 -4 13t-12 11l-449 209h-4l-145 43l131 33q4 2 6 2l461 219q16 8 16 25v141q0 4 -2 9t-5 9.5t-9 7.5t-13 3h-139q-6 0 -12 -4l-696 -349q-4 -2 -9 -6l-69 -69q-20 -20 0 -39zM432 733 l45 47l686 344h105v-94l-443 -209l-233 -59q-10 -4 -16.5 -14.5t-2.5 -22.5q4 -14 19 -18l246 -70l430 -201v-92h-105l-686 344zM563 733q0 -39 27.5 -67.5t68.5 -28.5q18 0 37 8t31 20.5t19.5 30t7.5 38t-7.5 37.5t-19.5 29.5t-30.5 20.5t-37.5 8q-41 0 -68.5 -28.5 t-27.5 -67.5z" />
<glyph unicode="=" d="M408 373q-6 12 0 24l69 140q4 8 11.5 12t15.5 4h696q18 0 27 -16l69 -140q6 -12 0 -24l-69 -140q-8 -16 -27 -16h-696q-18 0 -27 16zM408 997q-6 12 0 25l69 139q4 8 11.5 12.5t15.5 4.5h696q18 0 27 -17l69 -139q6 -12 0 -25l-69 -139q-8 -16 -27 -16h-696q-18 0 -27 16 zM467 385l55 -111h660l55 111l-55 111h-660zM467 1010l55 -111h660l55 111l-55 110h-660z" />
<glyph unicode="&#x3e;" d="M371 315v138q0 18 16 26l418 209q2 2 4 2l127 43l-127 43h-4l-418 211q-16 6 -16 25v139q0 12 9 20.5t19 8.5h140q6 0 12 -2l698 -351q4 -2 6 -4l70 -69q8 -10 8 -21.5t-8 -19.5l-72 -70q-2 -4 -6 -6l-698 -348q-6 -2 -12 -2h-138q-12 0 -20 9t-8 19zM428 344h102 l687 342l47 47l-45 45l-687 344h-104v-92l399 -201l209 -69q12 -4 17 -17q4 -10 -1 -21t-16 -15l-209 -70l-399 -201v-92zM879 733q0 39 27.5 67.5t68.5 28.5q25 0 47 -13t34.5 -34.5t12.5 -48.5q0 -39 -27.5 -67.5t-67.5 -28.5t-67.5 28.5t-27.5 67.5z" />
<glyph unicode="?" d="M299 1079v95q0 12 8 20l174 184q6 6 15 8l350 68q6 2 10 0l344 -68q8 -2 14 -8l179 -180q8 -8 8 -18v-99q0 -6 -2 -10l-70 -211q-2 -6 -8 -12l-248 -205l-94 -137l-8 -8l-107 -70q-16 -10 -33 0l-100 70q-8 6 -10 14l-41 109q-2 10 2 20l39 100q4 8 10 15l262 200l2 109 l-145 117l-145 -117v-125q0 -18 -17 -27l-137 -67q-12 -6 -25 0l-141 67q-4 2 -8 6.5t-6 8.5l-70 137q-2 6 -2 14zM356 1085l62 -124l121 -58l108 53v123q0 14 10 23l174 139q18 14 37 0l174 -139q10 -8 11 -23l-2 -139q0 -12 -11 -22l-268 -203l-33 -86l31 -88l78 -54 l86 56l94 137q4 2 6 4l244 203l65 198v82l-163 164l-328 66l-336 -66l-160 -168v-78zM647 160q-6 14 0 26l70 140q4 6 10 11t14 5h209q18 0 27 -16l70 -140q6 -12 0 -26l-70 -140q-8 -16 -27 -16h-209q-16 0 -24 16zM707 174l55 -113h174l55 113l-55 111h-174zM754 1186 q0 39 27.5 67.5t67.5 28.5t67.5 -28.5t27.5 -67.5t-27.5 -67.5t-67.5 -28.5t-67.5 28.5t-27.5 67.5z" />
<glyph unicode="@" d="M127 702q-2 6 0 13l70 274q0 4 4 8l139 215q4 4 8 9l209 139q4 2 10 4l279 70q6 2 12 0l283 -72q4 0 8 -4l203 -135q6 -4 8 -9l143 -210q2 -4 4 -11l70 -278q4 -20 -14 -31l-488 -278q-8 -4 -15 -4.5t-14.5 4t-9.5 12.5l-53 102l-111 -108q-12 -14 -30 -9l-172 66 q-8 4 -15 10l-69 107q-2 2 -4 6l-33 108l-2 5q-2 12 6 26l20 96q2 8 11 15l145 133q4 4 12 6l174 35q23 4 33 -17l43 -88l45 88q6 16 25 17h69q12 0 20.5 -9.5t8.5 -19.5v-266l141 70l-120 243l-330 129l-322 -127l-96 -327l98 -326l322 -131l338 135q4 2 10 2h139 q12 0 20.5 -9t8.5 -20v-139q0 -16 -12 -24l-209 -140q-4 -2 -10 -4l-279 -69q-6 -2 -12 0l-279 69q-6 2 -10 4l-207 140q-6 4 -8 8l-139 205q-2 4 -4 10zM184 709l70 -271l133 -196l199 -133l266 -68l266 68l193 127v96h-105l-344 -137q-10 -4 -20 0l-348 139q-14 6 -17 22 l-102 346v13l100 348q4 14 19 20l344 138q12 6 22 2l350 -140q10 -4 17 -14l137 -278q6 -8 2 -20.5t-14 -18.5l-209 -103q-4 -2 -10 -2q-12 -2 -21.5 7.5t-9.5 21.5v282h-23l-63 -122q-4 -8 -10 -13q-10 -6 -22.5 -2t-18.5 15l-60 118l-143 -28l-133 -121l-23 -98l29 -95 l63 -92l148 -55l125 125q4 2 6 4q10 6 22.5 3t18.5 -15l55 -113l443 254l-64 252l-135 203l-195 131l-270 67l-266 -67l-201 -133l-135 -205zM762 688q-20 20 0 41l69 70q8 6 19.5 7t21.5 -7l2 -2l3 -2l2 -2l2 -2l2 -3l2 -2l2 -2l2 -2l2 -2l2 -2l2 -2l2 -2l2 -2l2 -2l2 -2 l2 -2l2 -2l2 -2l2 -2l2 -2l2 -2l3 -2l2 -2l2 -2l2 -2l2 -3l2 -2l2 -2l2 -2l2 -2l2 -2l2 -2l2 -2l2 -2q8 -8 8 -20.5t-8 -20.5l-70 -70q-8 -6 -19 -7t-22 7zM823 709l29 -29l29 29l-29 28z" />
<glyph unicode="A" d="M129 197q-6 12 0 24l557 1202q4 8 11.5 12.5t15.5 4.5h278q18 0 27 -17l557 -1202q6 -12 0 -24l-68 -136q-4 -8 -12 -12l-141 -74q-14 -8 -27 0l-135 68q-10 4 -14 12l-144 291q-2 6 -2 12v168l-170 -57q-10 -4 -18 0l-172 57v-170q0 -6 -2 -12l-140 -283q-4 -8 -12 -12 l-141 -74q-12 -8 -25 0l-139 70q-10 4 -14 12zM186 209l60 -117l119 -59l118 61l131 271v200v8q4 10 15.5 16.5t21.5 4.5l201 -68l201 68h6q12 2 21.5 -7t9.5 -22v-200l135 -275l114 -57l121 63l58 113l-545 1173h-242zM582 546q0 40 28.5 67.5t67.5 27.5t67.5 -27.5 t28.5 -67.5t-28.5 -67.5t-67.5 -27.5t-67.5 27.5t-28.5 67.5zM616 704.5q0 38.5 29 67.5t68 29t67.5 -29t28.5 -67q0 -27 -13.5 -48.5t-35 -35t-47.5 -13.5q-39 0 -68 29t-29 67.5zM686 715l115 358l22 133q2 12 12.5 19.5t22.5 5.5q18 -6 23 -25l20 -131l117 -360 q4 -12 -2 -23.5t-19 -13.5q-6 -2 -14 0l-131 35l-131 -35h-2q-8 -2 -17 0q-2 2 -4 2q-23 6 -12 35zM756 1141q0 27 13 48t34.5 34.5t48.5 13.5q39 0 67.5 -28.5t28.5 -67.5t-28.5 -68t-67.5 -29t-67.5 29t-28.5 68zM758 748l86 22q8 2 16 0l86 -22l-94 294zM895 705 q0 39 28.5 67.5t67.5 28.5t67.5 -29t28.5 -67.5t-28.5 -67.5t-67.5 -29q-20 0 -37.5 8.5t-30 20.5t-20.5 30t-8 38zM926 549q0 27 12 49.5t34.5 34.5t48.5 12t48.5 -12t34.5 -35t12 -49q0 -39 -27.5 -66.5t-67.5 -27.5t-67.5 27.5t-27.5 66.5z" />
<glyph unicode="B" d="M127 16v1393q0 8 4 15.5t11.5 10.5t13.5 3h905h6l281 -70q6 -2 12 -8l139 -139q4 -2 6 -7l70 -139q6 -14 0 -26l-70 -140q-2 -4 -6 -8l-139 -139q-6 -4 -12 -6l-168 -43l168 -41q6 -2 12 -8l139 -140q4 -4 6 -8l70 -139q6 -12 0 -25l-70 -139q-2 -4 -6 -8l-139 -139 q-6 -6 -12 -9l-281 -69h-6h-905q-12 0 -20.5 8t-8.5 20zM184 45h873l268 68l131 129l62 123l-62 122l-131 129l-270 70q-16 2 -21 19q-4 10 2 21t19 15l270 68l131 129l62 123l-62 123l-131 131l-268 65h-873v-1335zM377 1171.5q0 38.5 27.5 66.5t66.5 28t67.5 -28 t28.5 -66.5t-28.5 -67.5t-67.5 -29t-66.5 29t-27.5 67.5zM381 823q0 27 12.5 48.5t35 35t48.5 13.5q39 0 66.5 -29t27.5 -68t-27.5 -67.5t-67.5 -28.5t-67.5 28.5t-27.5 67.5zM383 279.5q0 39.5 28.5 67.5t68.5 28t67.5 -28t27.5 -67.5t-27.5 -67.5t-67.5 -28t-68.5 28 t-28.5 67.5zM383 606q0 39 28.5 66.5t67.5 27.5t66.5 -27.5t27.5 -66.5t-27.5 -66.5t-66.5 -27.5t-67.5 27.5t-28.5 66.5zM406 219q-2 8 2 17l77 200l-77 197q-4 10 0 20v4q8 23 34 13l205 -68h275q6 0 12 -2l147 -76q6 -2 9 -6l61 -63q20 -20 0 -41l-70 -70l-8 -4l-139 -70 q-6 -4 -12 -4h-277l-203 -67q-10 -4 -21 2t-15 18zM406 1208q4 10 15 16.5t21 4.5l209 -70l273 -4q6 0 10 -2l139 -66q4 -2 8 -6l70 -69q20 -20 0 -41l-70 -70l-8 -4l-139 -70q-6 -4 -12 -4h-275l-205 -67q-6 -2 -14 0q-12 2 -18.5 13t-1.5 22l63 206l-63 195q-4 8 -2 16z M479 827l154 52q2 2 3 2h3q0 2 1 1t3 -1h272l129 65l46 45l-46 47l-129 60l-270 4q-4 0 -8 2l-158 51l49 -149q4 -8 0 -17zM483 272l150 50q4 2 8 2h274l129 65l48 45l-39 41l-138 70h-272q-4 0 -8 2l-152 49l60 -150q4 -10 0 -20zM541 436v8v-4v-4zM541 993v8v-4v-4z M1051 438q0 27 13 48.5t34.5 35t48.5 13.5q39 0 67.5 -28t28.5 -68t-28.5 -68.5t-67.5 -28.5t-67.5 28.5t-28.5 67.5zM1057 995q0 27 13 49.5t34.5 35t48.5 12.5q41 0 68.5 -28t27.5 -68t-27.5 -68.5t-67.5 -28.5t-68.5 28.5t-28.5 67.5z" />
<glyph unicode="C" d="M106 729q0 4 3 6l77 273q0 4 2 8l146 215q4 4 8 6l231 166q4 4 11 4l305 74q6 2 12 0l287 -68q6 -2 8 -4h2l238 -168q8 -4 10 -12l145 -279q4 -8 3 -16t-6 -14.5t-11 -8.5l-184 -75q-12 -6 -23 0l-162 71q-4 2 -6 4l-166 168l-164 45l-155 -43l-131 -223l-2 -264 l129 -223l159 -49l172 49l158 166q2 4 6 6l174 67q10 4 23 0l174 -67q12 -6 16 -18.5t-2 -22.5l-139 -279q-4 -8 -10 -12l-238 -166v-2q-4 0 -8 -2l-262 -72h-2q-6 -2 -12 0l-295 66q-4 0 -9 2l-262 162q-6 2 -10 8l-153 219q-2 4 -5 8l-79 289q-3 2 -3 6zM166 729l78 -274 l145 -211l254 -154l285 -63l252 69l227 160l121 244l-135 53l-158 -64l-160 -167q-6 -4 -10 -5l-184 -53q-8 -2 -15 0l-178 55q-10 2 -16 13l-142 237q-4 8 -4 17l2 282q0 8 4 15l144 239q6 10 16 13l174 47q6 2 13 0l178 -49q6 0 10 -5l168 -170l147 -65l144 59l-127 244 l-228 162l-276 65l-293 -69l-223 -160l-139 -205zM688 319zM692 1135zM770 287q0 27 13.5 49t35 34.5t47.5 12.5q39 0 68 -27.5t29 -67.5t-29 -67.5t-68 -27.5t-67.5 27.5t-28.5 66.5zM774 1157q0 27 13.5 49.5t35 34.5t47.5 12q39 0 68 -27.5t29 -67.5t-29 -67.5t-68 -27.5 t-67.5 27.5t-28.5 66.5z" />
<glyph unicode="D" d="M127 25v1392q0 12 9 20.5t20 8.5h835q6 0 13 -4l278 -139q8 -2 12 -9l207 -295q4 -4 4 -10l72 -262q2 -6 0 -14l-70 -279q-2 -6 -6 -10l-209 -279q-4 -4 -10 -8l-278 -139q-6 -2 -13 -2h-835q-12 0 -20.5 8t-8.5 21zM184 53h801l266 133l201 269l68 266l-68 250l-201 284 l-266 134h-801v-1336zM354 264q0 39 29 67.5t69 28.5t67.5 -28.5t27.5 -67.5t-27.5 -67.5t-67.5 -28.5t-69 28.5t-29 67.5zM358 1177q0 40 28 67.5t68 27.5t67.5 -27.5t27.5 -68.5q0 -25 -12.5 -47.5t-35 -35t-46.5 -12.5q-41 0 -69 28t-28 68zM406 225q-2 8 2 17l67 204 l-2 549l-65 203q-4 11 0 21v4q8 23 36 12l203 -72l195 4q10 0 16 -6l219 -137q6 -6 10 -14l109 -279q4 -10 0 -20l-109 -279q-4 -10 -10 -14l-209 -139q-8 -4 -16 -5h-205l-205 -69q-6 -2 -11 -1t-10 4t-9 7t-6 10zM479 279l156 51q4 2 8 2h201l194 129l101 260l-101 258 l-202 131l-193 -4q-4 0 -10 2l-154 53l49 -151q2 -4 2 -9l2 -559q0 -6 -2 -10z" />
<glyph unicode="E" d="M127 18v1395q0 10 8 19.5t21 9.5h1392q12 0 20.5 -9.5t8.5 -19.5v-70q0 -8 -2 -14l-70 -139q-4 -8 -12 -12l-137 -70q-6 -2 -13 -2h-702q-4 0 -8 2l-154 51l51 -155q4 -8 0 -19l-51 -154l156 56q4 2 10 2l483 -2q18 -2 27 -17l72 -141q6 -12 0 -27l-70 -139 q-8 -14 -27 -14h-487h-8l-156 51l53 -154q4 -8 0 -18l-53 -156l152 47q4 2 8 3l704 4q6 0 13 -2l135 -70q10 -4 14 -12l70 -140q2 -6 2 -14v-70q0 -12 -9 -20t-20 -8h-1392q-12 0 -20.5 9t-8.5 19zM184 47h1336v35l-62 125l-121 61l-694 -4l-201 -63q-8 -2 -16 0q-4 2 -9 5 t-8 8t-3 11t2 13l67 200l-67 199q-4 8 -2 16q4 12 15 18.5t21 2.5l205 -68h465l55 111l-55 112l-463 2l-205 -73q-8 -2 -16 0q-12 2 -18.5 13t-1.5 24l65 200l-65 199q-4 8 -2 16q4 12 15 18.5t21 2.5l205 -68h690l121 62l62 125v34h-1336v-1337zM354 817q0 39 29 67.5 t68 28.5q27 0 48 -13t34.5 -34.5t13.5 -48.5q0 -39 -29 -67.5t-67.5 -28.5t-67.5 28.5t-29 67.5zM356 1165q0 39 29 68t69 29t67.5 -29t27.5 -68t-27.5 -67.5t-67.5 -28.5t-69 28.5t-29 67.5zM358 266q0 20 7.5 38t20.5 30t30.5 20t38.5 8q39 0 66.5 -28.5t27.5 -67.5 t-27.5 -67.5t-67.5 -28.5t-68 28.5t-28 67.5zM358 610q0 27 13.5 48.5t35 35t48.5 13.5q39 0 66.5 -29t27.5 -68t-27.5 -67.5t-67.5 -28.5t-68 28.5t-28 67.5z" />
<glyph unicode="F" d="M139 203v1208q0 12 8.5 20.5t20.5 8.5h1395q8 0 14 -5t10 -11.5t4 -12.5v-70q0 -6 -4 -12l-69 -139q-4 -10 -13 -14l-145 -68q-6 -4 -12 -4h-689q-4 0 -8 2l-155 51l47 -151q4 -8 0 -17l-51 -160l151 52q4 2 10 2h482q16 0 24 -15l76 -133q6 -12 0 -24l-64 -146 q-8 -16 -26 -16l-488 -2q-4 0 -8 2l-157 45l51 -145q2 -4 2 -9v-377q0 -18 -17 -26l-139 -64q-12 -6 -24 0l-140 68q-8 4 -12 12l-70 135q-4 6 -4 15zM197 209l63 -121l119 -57l108 51v352l-67 195q-2 8 -2 16q4 12 14 18.5t23 2.5l207 -62l464 2l52 115l-60 104h-461 l-200 -69q-8 -2 -17 0q-12 2 -18 13t-2 24l65 204l-61 195q-2 8 0 16q4 12 14.5 18.5t22.5 2.5l203 -68h675l131 64l64 123v34h-1337v-1173zM371 831.5q0 26.5 13 48t34.5 35t48.5 13.5t48.5 -13.5t34.5 -35t13 -48.5q0 -39 -28.5 -67.5t-67.5 -28.5q-27 0 -48.5 13.5 t-34.5 35t-13 48zM373 596q0 39 27.5 67.5t67.5 28.5t67.5 -28.5t27.5 -67.5t-27.5 -67.5t-67.5 -28.5t-67.5 28.5t-27.5 67.5zM373 1154q0 40 28.5 67.5t67.5 27.5t67.5 -27.5t28.5 -67.5t-28.5 -67.5t-67.5 -27.5t-67.5 27.5t-28.5 67.5z" />
<glyph unicode="G" d="M119 702q-2 6 0 15l65 278q2 4 4 11l162 217q2 4 8 8l209 164q4 2 11 4l317 65q6 2 14 0l279 -71l8 -4l240 -170q8 -4 12 -13l63 -131q8 -16 -2 -28l-100 -152q-10 -14 -27 -12l-170 8q-12 0 -18 8l-139 152l-166 65l-178 -59l-144 -219v-256l142 -209l194 -70l197 64 l92 159l-180 -49q-8 -2 -19 0l-151 55q-12 6 -17 17l-61 153q-2 4 -2 11v69q0 6 3 12.5t10 11.5t16 5l768 -2q10 0 19 -8t9 -21l-4 -274q0 -6 -4 -12l-137 -277q-2 -6 -10 -10l-207 -170l-8 -4l-299 -78q-6 -2 -15 0l-323 72q-4 0 -11 4l-211 166l-8 8l-157 211q-4 4 -5 8z M176 711l66 -267l153 -202l203 -160l311 -70l289 74l197 164l131 264l4 238l-711 2v-35l55 -135l130 -49l241 65q10 4 21.5 -2t15.5 -18q2 -8 -2 -17l-131 -229q-4 -14 -19 -19l-219 -69q-8 -2 -18 0l-213 76q-8 2 -12 10l-152 223q-6 8 -6 16v277q0 8 6 14l152 234 q6 8 16 12l197 66h9h9h-18h9h9l2 -3l180 -69q6 -2 11 -6l133 -148l145 -8l84 125l-53 109l-232 163l-268 80l-307 -74l-201 -157l-153 -209zM791 1145q0 27 13 49.5t34.5 34.5t48.5 12q39 0 67.5 -27.5t28.5 -67.5t-28.5 -67.5t-67.5 -27.5t-67.5 27.5t-28.5 66.5zM807 302 q0 40 28.5 67.5t67.5 27.5t67.5 -27.5t28.5 -67.5t-28.5 -67.5t-67.5 -27.5t-67.5 27.5t-28.5 67.5zM1130 552q0 40 28 67.5t69 27.5q25 0 47 -12t34.5 -34.5t12.5 -47.5q0 -41 -27.5 -68.5t-67.5 -27.5t-68 27.5t-28 67.5zM1292 580z" />
<glyph unicode="H" d="M127 209v1014v8l4 6l70 137q4 10 12 15l139 69q12 6 25 0l139 -69q16 -8 16 -27v-367q0 -4 -2 -8l-51 -153l150 51q4 2 8 2h426q4 0 8 -2l154 -51l-51 151q-2 6 -3 10v367q0 18 17 27l139 69q12 6 27 0l139 -69q8 -4 12 -15l70 -137q2 -6 2 -14v-1008q0 -6 -2 -12 l-70 -146q-4 -10 -12 -14l-139 -70q-14 -6 -27 0l-139 70q-16 8 -17 27v370q0 4 3 9l51 155l-156 -51q-4 -2 -8 -2h-420q-6 0 -10 2l-152 51l51 -162q2 -4 2 -8v-364q0 -18 -16 -27l-139 -70q-12 -6 -25 0l-139 70q-8 4 -12 14l-70 140q-4 6 -4 12zM184 217l64 -127l117 -59 l110 55v344l-67 211q-2 6 0 14q2 12 13 18.5t23 2.5l201 -68h412l205 68q8 2 16 2q12 -4 17 -15.5t3 -21.5l-69 -207v-348l110 -55l119 59l62 131v996l-62 124l-119 58l-110 -56v-344l69 -202q2 -6 0 -15q-4 -12 -14 -18t-22 -2l-205 67h-414l-199 -67q-8 -4 -16 -2 q-12 4 -18.5 15t-1.5 22l67 204v342l-110 56l-119 -58l-62 -124v-1000zM350 619.5q0 39.5 29 67.5t67.5 28t67.5 -28t29 -67.5t-29 -68.5t-67.5 -29t-67.5 29t-29 68.5zM354 815q0 27 12.5 48.5t35 34.5t48 13t48 -13t35 -34.5t12.5 -48.5q0 -20 -7.5 -37.5t-20.5 -30 t-30.5 -20.5t-35.5 -8q-41 0 -69 28.5t-28 67.5zM1135 622q0 40 27.5 67.5t67.5 27.5t67.5 -27.5t27.5 -67.5t-27.5 -68t-67.5 -28t-67.5 28t-27.5 68zM1135 820q0 40 28.5 67.5t67.5 27.5t67.5 -27.5t28.5 -67.5t-28.5 -67.5t-67.5 -27.5t-67.5 27.5t-28.5 67.5z" />
<glyph unicode="I" d="M127 18v70q0 6 2 12l70 140q4 10 14 14l141 68q6 2 13 2l170 2q4 0 8 -2l160 -52l-56 156q-2 4 -2 10l2 557q0 6 2 11l51 151l-153 -51q-4 -2 -10 -2l-172 2q-8 0 -13 2l-141 70q-10 4 -14 12l-70 139q-2 6 -2 12v68q0 23 23 29h6l1392 2q12 0 20.5 -9.5t8.5 -19.5v-70 q0 -6 -2 -12l-70 -139q-4 -8 -14 -12l-137 -68q-6 -2 -13 -2l-167 -2q-4 -2 -11 0l-162 51l56 -158q2 -4 2 -10v-555q0 -4 -2 -8l-53 -154l151 52q4 2 10 2h174q8 0 15 -2l137 -70q10 -6 14 -14l70 -140q2 -6 2 -12v-70q0 -12 -9 -20t-20 -8h-1392q-12 0 -20.5 9t-8.5 19z M184 47h1336v35l-62 125l-125 61h-164l-202 -67q-8 -4 -17 0q-12 2 -18 13t-2 24l71 202v545l-71 207q-4 8 -2 16q4 12 15 18.5t22 2.5l213 -66l157 2l123 60l62 125v32l-1336 -2v-30l62 -125l127 -62l162 -2l206 68q8 4 17 2q10 -4 16 -15.5t2 -23.5l-69 -201l-2 -549 l73 -204q2 -8 0 -17q-2 -12 -13 -18t-24 -2l-209 67l-159 -2l-127 -59l-62 -125v-35zM631 230q0 40 27.5 68t67.5 28t67.5 -28t27.5 -68t-27.5 -67.5t-67.5 -27.5t-67.5 27.5t-27.5 67.5zM631 1190q0 27 12 49.5t34.5 34.5t49.5 12q39 0 66.5 -27.5t27.5 -67.5t-27.5 -67.5 t-67.5 -27.5t-67.5 27.5t-27.5 66.5zM889 230q0 40 27.5 68t67.5 28t67.5 -28t27.5 -68t-27.5 -67.5t-67.5 -27.5t-67.5 27.5t-27.5 67.5zM893 1190q0 39 27.5 67.5t67.5 28.5t67.5 -28.5t27.5 -67.5t-27.5 -67.5t-66.5 -28.5q-20 0 -37.5 8t-31 20.5t-20.5 31t-7 36.5z" />
<glyph unicode="J" d="M127 713v67q0 8 2 15l70 139q4 8 14 12l139 70q12 6 25 0l139 -70q16 -8 16 -26l-6 -304l136 -200l192 -66l193 62l122 194l2 381q0 4 3 10l51 158l-156 -51h-8h-692q-6 0 -13 2l-143 70q-10 4 -14 12l-70 139q-2 6 -2 14v70q0 10 8 19.5t21 9.5h1392q6 0 13.5 -4 t11.5 -10.5t4 -14.5v-698v-6l-68 -273q-2 -6 -4 -10l-135 -205q-2 -4 -6 -8l-211 -156q-4 -4 -10 -4l-281 -84q-6 -2 -14 0l-277 78l-8 4l-215 152q-4 2 -8 8l-137 205q-2 4 -4 10l-70 283q-2 2 -2 6zM184 717l70 -275l131 -198l205 -144l266 -75l268 79l201 150l129 199 l66 264v665h-1336v-34l62 -125l129 -62h682l205 68q10 4 21 -2t15 -19q2 -8 -2 -16l-67 -209l-4 -387q0 -8 -4 -14l-131 -209q-6 -8 -17 -13l-211 -67q-8 -2 -16 0l-213 72q-8 4 -15 12l-145 217q-4 6 -4 16l6 293l-110 55l-119 -59l-62 -125v-57zM1161 1182q0 39 28 67.5 t67.5 28.5t67.5 -28.5t28 -67.5t-28 -68t-69 -29q-25 0 -47 13.5t-34.5 35t-12.5 48.5z" />
<glyph unicode="K" d="M127 209v993q0 8 4 15l70 139q4 8 12 12l135 68q12 8 25 2l141 -70q16 -6 16 -25l2 -348q0 -6 -2 -10l-38 -123l690 502q2 2 4 2l141 72q6 4 12 4h140q18 0 26 -17l68 -141q10 -20 -8 -35l-416 -346q-6 -6 -16 -8h-21l31 -14q8 -2 12 -11l348 -565l2 -2l70 -139 q6 -12 0 -25l-70 -141q-8 -16 -26 -16h-140q-6 0 -12 4l-139 69q-6 2 -12 11l-375 608l-162 -119q-12 -10 -27 -4l-131 47l49 -156q2 -4 2 -8v-364q0 -16 -16 -25l-139 -70q-12 -6 -25 0l-139 70q-8 4 -12 12l-70 140q-4 6 -4 12zM184 217l64 -125l117 -59l110 55v342 l-65 207q-2 8 0 16q4 12 15 17.5t21 1.5l170 -62l177 129q4 2 10 4t11 1t10 -5l10 -8l387 -629l127 -63h114l54 113l-62 122l-344 560l-133 61q-14 6 -16 23q-2 12 6 21t20 9l133 4l391 328l-51 104h-112l-134 -67l-761 -553q-10 -8 -25 -6q-12 4 -18.5 15t-1.5 22l67 204 v326l-115 53l-112 -57l-64 -125v-979zM350 825q0 41 29 69t67 28q27 0 48.5 -12.5t35 -35t13.5 -49.5q0 -39 -29 -66.5t-68 -27.5q-27 0 -48 12.5t-34.5 34.5t-13.5 47zM352 610q0 27 13.5 48.5t35 35t48 13.5t48 -13.5t35 -35t13.5 -48.5q0 -39 -28 -67.5t-67.5 -28.5 t-68.5 28.5t-29 67.5zM936 912q0 40 28.5 68t67.5 28q27 0 48.5 -12.5t34.5 -35t13 -49.5q0 -14 -5 -28.5t-14 -26.5t-20.5 -21.5t-25.5 -13.5t-31 -4q-39 0 -67.5 27.5t-28.5 67.5z" />
<glyph unicode="L" d="M127 18v1190q0 6 2 13l70 143q4 8 14 12l139 70q12 6 25 0l139 -70q16 -8 16 -24v-914q0 -6 -2 -10l-51 -158l152 47q4 2 8 2l700 5q6 0 13 -2l139 -70q10 -4 14 -12l70 -140q2 -6 2 -14v-70q0 -12 -9 -20t-20 -8l-1392 2q-12 0 -20.5 9t-8.5 19zM184 47l1336 -2v35 l-62 125l-125 61l-690 -4l-201 -63q-27 -8 -34 14v4q-4 8 -2 16q2 0 2 3l67 206v891l-110 56l-119 -60l-62 -127v-1155zM356 248q0 41 28 68.5t67 27.5q27 0 49 -12.5t34.5 -35t12.5 -48.5q0 -39 -27.5 -66.5t-68.5 -27.5q-25 0 -47.5 12t-35 34.5t-12.5 47.5z" />
<glyph unicode="M" d="M127 209l70 1065q0 6 2 10l69 139q4 7 11.5 12t15.5 5h139q8 0 15 -4l137 -70q6 -2 10 -8l209 -279l4 -8l43 -125l41 123q2 6 6 8l209 281q4 6 10 8l139 70q6 4 13 4h139q18 0 27 -17l69 -143q2 -4 2 -10l70 -1061q0 -8 -2 -16l-70 -138q-4 -8 -12 -12l-135 -70 q-12 -6 -25 0l-145 68q-14 6 -17 22l-55 531q-2 6 2 14l76 199l-322 -322q-20 -20 -41 0l-321 322l78 -201q2 -6 2 -12l-58 -531q-2 -16 -16 -22l-145 -68q-12 -6 -25 0l-133 68q-8 4 -14 12l-70 140q-2 8 -2 16zM184 211l62 -123l114 -57l117 55l53 508l-122 319 q-6 14 4 29q8 8 21 9t22 -7l397 -399l397 399q12 12 29 6q12 -4 17 -15t1 -22l-122 -319l53 -508l116 -55l115 59l62 121l-70 1049l-59 122h-115l-127 -63l-203 -272l-65 -199q-4 -12 -17 -17q-8 -4 -15 -3t-13.5 6.5t-10.5 13.5l-69 201l-201 270l-127 63h-117l-57 -118z M354 898q0 40 28 67.5t67.5 27.5t67.5 -27.5t28 -67.5t-28 -67.5t-67.5 -27.5t-67.5 27.5t-28 67.5zM756 865q0 40 28.5 68t67.5 28q18 0 36.5 -7.5t31 -19.5t20.5 -30.5t8 -38t-8 -37t-20.5 -31t-31 -20.5t-36.5 -7q-39 0 -67.5 27.5t-28.5 67.5zM1153 892q0 40 28.5 67.5 t67.5 27.5t68 -27.5t29 -68.5q0 -25 -13.5 -47.5t-35 -34.5t-48.5 -12q-39 0 -67.5 27.5t-28.5 67.5z" />
<glyph unicode="N" d="M127 215l2 1196q0 12 8 20.5t19 8.5l346 2q8 0 16 -6l209 -140q4 -2 8 -6l416 -555q2 -2 4 -6l43 -106l-27 157v6v568q0 16 17 24l139 70q12 6 25 0l139 -70q8 -4 12 -12l70 -135q4 -6 4 -12v-1149q0 -16 -14 -25l-136 -72q-14 -6 -26 0l-152 76q-2 2 -4 2l-201 135 q-4 2 -8 7l-487 718l-2 2l-43 86l26 -131v-6l2 -790q0 -18 -16 -27l-139 -70q-12 -6 -27 0l-139 70q-8 4 -12 12l-70 146q-2 6 -2 12zM184 221l62 -129l119 -59l110 55l-2 772l-67 338q-4 20 12 31q8 4 16 4t14.5 -4t10.5 -12l137 -275l485 -711l195 -131l137 -69l107 57 v1122l-62 121l-119 60l-110 -56v-547l69 -415q2 -20 -16 -31q-10 -6 -22.5 -1t-16.5 15l-139 349l-412 546l-198 133l-308 -2zM350 1149q0 18 8.5 36.5t20.5 31t29.5 19.5t37.5 7q39 0 68 -27.5t29 -67.5t-29 -67.5t-67.5 -27.5t-67.5 27.5t-29 68.5zM1165 389q0 39 28 67.5 t67.5 28.5t67.5 -28.5t28 -67.5t-28 -67.5t-67.5 -28.5t-67.5 28.5t-28 67.5z" />
<glyph unicode="O" d="M82 717v7v7l80 279q2 4 4 10l149 209q4 4 9 6l233 160q4 4 8 4l279 80h2q6 2 12 0h2l279 -80q4 0 8 -4l233 -160q4 -2 9 -6l149 -209q2 -6 4 -10l80 -279q2 -6 0 -14l-80 -279l-4 -8l-149 -209q-4 -6 -9 -8l-233 -160l-8 -4l-279 -90h-2q-6 -2 -12 0h-2l-279 90l-8 4 l-233 160q-4 2 -9 8l-149 209l-4 8zM139 725l78 -268l143 -199l226 -156l266 -86l266 86l225 156l144 199l78 268l-78 266l-144 201l-225 154l-266 75l-266 -75l-226 -154l-143 -201zM475 719v10l35 209q2 8 8 14l154 181q4 6 12 8l160 67q8 2 18 0l156 -65q6 -2 12 -8 l156 -181q6 -6 8 -16l39 -207v-12l-39 -209q-2 -8 -8 -14l-150 -179q-6 -4 -14 -6l-160 -67q-8 -2 -16 0l-162 63q-6 2 -12 8l-154 181q-6 6 -8 14zM532 725l33 -197l142 -168l145 -59l147 64l140 163l37 197l-37 195l-144 170l-141 61l-147 -64l-142 -167zM756 274 q0 25 13 47.5t34.5 35t47.5 12.5t48.5 -12.5t34.5 -35t12 -47.5q0 -41 -27.5 -68.5t-67.5 -27.5t-67.5 27.5t-27.5 68.5zM760 1176q0 14 4 29.5t13 26.5t20.5 20.5t27 13.5t29.5 4q27 0 49.5 -12.5t34.5 -35t12 -46.5q0 -10 -1 -18.5t-4 -15.5t-7 -14.5t-10 -13.5t-12.5 -12 t-13.5 -10.5t-14 -7.5t-15.5 -4t-18.5 -1q-39 0 -66.5 28t-27.5 69z" />
<glyph unicode="P" d="M127 205v1204q0 6 3 12t7 9.5t9.5 5.5t9.5 2h829h6l78 -19l203 -51q6 0 10 -4l207 -137q10 -6 12 -17l76 -280q2 -8 0 -15l-68 -272q-4 -10 -12 -16l-205 -144l-8 -4l-278 -71h-9l-354 -2q-4 0 -8 2l-156 51l51 -174q2 -4 2 -9v-208q0 -18 -16 -27l-135 -68q-14 -6 -27 0 l-139 68q-8 4 -14 12l-70 137q-4 6 -4 15zM184 211l64 -123l119 -57l108 53v188l-67 222q-4 8 -2 16q4 12 15 18.5t21 1.5l205 -67l348 2l269 70l192 133l64 254l-70 262v2l-197 129l-198 47l-74 18l-797 -2v-1167zM358 1170q0 40 28 68t68 28t68.5 -28t28.5 -68 t-28.5 -67.5t-68.5 -27.5t-68 27.5t-28 67.5zM360 473q0 12 4.5 24.5t10.5 22.5t14 19.5t19.5 15.5t23.5 9t25 3q20 0 37.5 -7t30 -19.5t20.5 -30.5t8 -37q0 -41 -28.5 -68.5t-67.5 -27.5q-27 0 -48.5 13t-35 34.5t-13.5 48.5zM360 683q0 40 28 67.5t68 27.5t67.5 -27.5 t27.5 -67.5t-27.5 -67.5t-67.5 -27.5t-68 27.5t-28 67.5zM406 637q-2 8 2 14l65 203l2 133l-67 205q-2 0 -2 2q-2 8 2 16v4q8 23 34 13l211 -68h314q6 0 12 -2l164 -70q8 -4 12 -12l74 -137q8 -12 0 -27l-70 -135q-4 -8 -12 -12l-174 -76q-6 -4 -12 -4h-314l-205 -68 q-10 -4 -21 2.5t-15 18.5zM479 688l154 51q4 2 8 2h313l160 72l57 111l-61 114l-149 64h-312q-4 0 -8 2l-162 51l51 -156q2 -4 2 -8l-2 -143v-8z" />
<glyph unicode="Q" d="M100 721v6v6l72 262l4 9l154 223q4 6 8 8l219 160q4 4 8 4l279 80q8 2 14 0l279 -80q6 0 10 -4l219 -160q2 0 4 -2l4 -4l150 -209l4 -10l78 -277v-12l-78 -277q0 -2 -2 -6l-66 -116l29 -15q4 0 8 -3t6 -7l70 -115q4 -6 4 -14v-139q0 -8 -4 -14.5t-10.5 -10.5t-12.5 -4 l-135 -6q-8 0 -16 4l-123 72q-10 6 -14 18l-11 37l-106 -74h-2q-2 -2 -6 -2l-277 -90h-8h-6h-2l-273 88q-6 2 -10 4l-219 160q-168 -104 -173 -104t165 112l-154 209q-89 -212 -91 -212t87 222zM158 727l73 -270l146 -201l213 -154l262 -86l268 88l135 89h2q8 6 21.5 0.5 t17.5 -19.5l19 -59l106 -64l99 4v105l-60 98l-51 23q-6 2 -11 8t-6 14t1 16l82 144l73 264l-75 264l-144 201l-211 154l-266 75l-266 -75l-211 -154l-148 -215zM485 717v10l39 213q2 8 8 14l140 160q4 4 10 6l160 86q10 2 18 0l160 -86q6 -2 12 -6l139 -160q6 -6 9 -16 l39 -209q0 -2 2 -4q0 -2 -1 -3t-1 -3l-39 -209q-2 -8 -9 -14l-139 -170q-6 -6 -12 -9l-162 -75q-10 -2 -18 0l-158 75q-6 2 -10 9l-140 170q-6 6 -8 14zM543 723l37 -193l127 -159l141 -72l147 72l129 159l37 195l-37 195l-129 149l-143 80l-145 -80l-127 -149zM750 276 q0 25 13 47.5t34.5 35t48 12.5t48 -12.5t35 -35t13.5 -47.5q0 -41 -28.5 -68.5t-67.5 -27.5t-67.5 27.5t-28.5 68.5zM756 1179q0 40 28.5 67.5t67.5 27.5q20 0 37.5 -7t31 -19.5t20.5 -31t7 -36.5q0 -41 -27.5 -69t-67.5 -28t-68.5 28t-28.5 68zM1155 154q0 39 28.5 67.5 t67.5 28.5t68 -28.5t29 -67.5t-29 -68t-68 -29t-67.5 29t-28.5 68zM1331 322.5q0 39.5 27.5 67.5t67.5 28t68 -28t28 -67.5t-28 -67.5t-68 -28t-67.5 28t-27.5 67.5zM1409 279v2v-2z" />
<glyph unicode="R" d="M127 209v1200q0 8 4 14.5t10 10.5t15 4h839h6l273 -68q6 0 10 -4l207 -137q10 -6 12 -17l72 -276q2 -8 2 -14l-68 -277q-2 -10 -12 -16l-211 -146q-4 -4 -8 -4l-229 -59l174 -184q4 -4 6 -9l67 -133q8 -18 -6 -33l-67 -73q-8 -8 -21 -8h-141q-6 0 -12 2l-140 69 q-6 4 -10 8l-270 353l-158 51l59 -154q2 -4 2 -24v-6v-209q0 -18 -16 -27l-137 -68q-12 -6 -25 0l-141 68q-8 6 -12 14l-70 140q-4 6 -4 12zM184 215l64 -123l119 -59l108 55v186l-80 224q-2 8 -1 16t6.5 14.5t13.5 8.5t16 0l223 -74q8 -2 15 -8l272 -355l129 -63h121l45 49 l-55 113l-207 215q-8 10 -8 22.5t10 20.5q6 4 12 6l270 69l199 138l62 258l-68 260l-195 129l-264 63h-807v-1165zM358 1170q0 40 28 68t68 28t68.5 -28t28.5 -68t-28.5 -67.5t-68.5 -27.5t-68 27.5t-28 67.5zM360 473q0 18 8.5 36.5t20.5 31t29.5 19.5t38.5 7 q39 0 67.5 -27.5t28.5 -67.5t-28.5 -67.5t-67.5 -27.5q-27 0 -48.5 13t-35 34.5t-13.5 48.5zM360 683q0 40 28 67.5t68 27.5t67.5 -27.5t27.5 -67.5t-27.5 -67.5t-67.5 -27.5t-68 27.5t-28 67.5zM406 637q-2 8 2 14l65 203l2 133l-67 205q-2 0 -2 2q-2 8 2 16v4q8 23 34 13 l211 -68h314q6 0 12 -2l164 -70q8 -4 12 -12l74 -137q8 -12 0 -27l-70 -135q-4 -8 -12 -12l-174 -76q-6 -4 -12 -4h-314l-205 -68q-10 -4 -21 2.5t-15 18.5zM479 688l154 51q4 2 8 2h313l160 72l57 111l-61 114l-149 64h-312q-4 0 -8 2l-162 51l51 -156q2 -4 2 -8l-2 -143 v-8zM909 435q0 40 28 67.5t67 27.5q20 0 37.5 -7t30.5 -20.5t20.5 -30.5t7.5 -38q0 -39 -28 -66.5t-67.5 -27.5t-67.5 27.5t-28 67.5z" />
<glyph unicode="S" d="M129 997q0 4 2 9l64 200q4 10 14 17l283 166q2 2 6 2l346 79h12l344 -79q2 0 6 -2l277 -154q10 -6 14 -16l74 -201q6 -16 -4 -29l-64 -80q-8 -10 -22 -10l-142 -2q-8 0 -14 4l-207 148l-266 79l-266 -75l-88 -58l80 -39l622 -71q6 0 12 -4l279 -209q8 -4 10 -13l72 -204 q4 -8 0 -19l-66 -209q-2 -10 -14 -16l-272 -162q-2 -2 -7 -4l-356 -92h-12l-348 88q-2 2 -6 2l-281 160q-10 6 -14 18l-66 199q-6 16 6 29l68 73q8 8 20 8l133 7q10 0 17 -5l209 -153l268 -76l274 80l74 53l-78 39l-620 74q-8 2 -15 6l-292 215q-8 6 -11 14l-53 205 q-2 4 -2 8zM188 995l50 -186l278 -205l619 -72q6 -2 10 -4l131 -67q8 -4 12 -12q6 -10 2 -22.5t-14 -16.5l-127 -78q-2 -2 -6 -2l-285 -84h-14l-279 78l-8 4l-205 151l-112 -6l-50 -51l58 -172l266 -154l338 -86l346 92l258 154l60 188l-66 187l-264 198l-621 70l-8 4 l-137 68q-6 2 -10 10q-6 10 -3 22.5t15 18.5l141 84q4 2 6 2l275 78q8 2 14 0l279 -82l8 -4l203 -146l118 2l45 58l-63 174l-264 147l-334 78l-336 -78l-268 -157zM354 1001q0 27 12.5 48.5t35 35t48 13.5t48 -13.5t35 -35t12.5 -48.5q0 -39 -28 -67.5t-66 -28.5 q-20 0 -38 8.5t-31 20.5t-20.5 30.5t-7.5 36.5zM1159 441q0 40 27.5 68t68.5 28q25 0 47.5 -13.5t35 -35t12.5 -48.5q0 -39 -28 -67.5t-68 -28.5t-67.5 28.5t-27.5 68.5z" />
<glyph unicode="T" d="M127 1339v70q0 12 8 20.5t21 8.5h1392q6 0 13.5 -3t11.5 -10.5t4 -15.5v-70q0 -6 -2 -12l-70 -139q-4 -10 -14 -14l-139 -68q-6 -4 -13 -4l-172 -4q-4 0 -10 2l-162 55l60 -227v-8l2 -717v-6l-35 -131q-4 -12 -14 -17l-142 -78q-14 -6 -26 0l-131 66q-10 4 -15 16 l-43 146v8l-2 782q0 4 2 8l54 160l-160 -51q-4 -2 -8 -2l-172 -2q-6 0 -13 2l-139 70q-10 4 -14 14l-70 139q-2 6 -2 12zM184 1346l62 -125l125 -62l159 2l211 68q8 2 15.5 0t13.5 -8.5t7 -13.5t-1 -15l-69 -209l2 -772l36 -129l107 -53l117 63l30 115l-2 711l-71 274 q-2 12 5 22.5t19 12.5q6 2 15 0l206 -72l160 4l127 62l62 125v34h-1336v-34zM637 1169q0 20 8 38t20.5 31t30 20.5t37.5 7.5q39 0 67.5 -28t28.5 -68t-28.5 -67.5t-67.5 -27.5q-27 0 -48 12.5t-34.5 34.5t-13.5 47zM735 1190q4 2 8 0q13 -2 15 -12q2 -8 2 -13zM877 1169 q0 41 28.5 69t67.5 28t67.5 -28t28.5 -68t-28.5 -68.5t-67.5 -28.5q-20 0 -37.5 8.5t-30 20.5t-20.5 30.5t-8 36.5z" />
<glyph unicode="U" d="M125 510v715q0 6 2 12l70 139q4 10 14 15l139 69q12 6 25 0l139 -69q16 -8 16 -27v-578q0 -4 -2 -8l-63 -190l170 -174l215 -107l223 101l162 180l-64 192q-2 4 -2 8v576q0 18 17 27l139 69q12 6 25 0l139 -69q10 -4 14 -15l70 -139q2 -6 2 -12v-713q0 -8 -2 -14 l-139 -279q-4 -8 -13 -12l-280 -162q-2 -2 -4 -2l-281 -84q-6 -2 -14 0l-277 80q-4 2 -6 2l-276 162q-8 6 -13 14l-143 281q-2 6 -2 12zM182 516l135 -266l265 -156l268 -78l268 82l268 156l132 264v699l-62 126l-119 60l-110 -55v-555l67 -205q6 -16 -6 -29l-178 -197 q-4 -4 -10 -6l-240 -106q-10 -4 -22 0l-232 112q-4 2 -8 7l-186 190q-12 12 -6 29l67 205v555l-111 55l-118 -60l-62 -126v-701zM350 546q0 40 28 68.5t67.5 28.5t67.5 -28.5t28 -68.5t-28 -67.5t-67.5 -27.5t-67.5 27.5t-28 67.5zM1165 552q0 40 28 68.5t67 28.5 q27 0 49 -13t34.5 -35.5t12.5 -47.5q0 -41 -28 -68.5t-67.5 -27.5t-67.5 27.5t-28 67.5z" />
<glyph unicode="V" d="M131 1206q-6 12 0 25l68 133q4 8 12 14l135 72q12 6 25 0l145 -66q6 -2 10 -6t6 -10l279 -713v-4l43 -235l39 229q0 2 2 4l281 719q4 10 14 16l135 68q12 6 25 0l137 -66q8 -4 14 -12l72 -137q8 -14 2 -27l-522 -1157q-4 -8 -15 -14l-176 -76q-12 -4 -22 0l-172 78 q-10 4 -15 14zM188 1219l512 -1129l150 -70l156 68l510 1135l-62 116l-117 56l-112 -58l-275 -706l-67 -385q-4 -16 -21 -23q-12 -2 -22.5 4t-14.5 19l-69 391l-273 700l-123 56l-114 -62zM748 313q0 43 30.5 74t74.5 31t74.5 -31t30.5 -74q0 -29 -14 -52t-38.5 -37.5 t-52.5 -14.5t-52.5 14.5t-38.5 37.5t-14 52z" />
<glyph unicode="W" d="M127 1204q0 8 2 17l70 135q4 10 12 14l135 70q12 6 25 0l145 -68q14 -6 16 -22l56 -531q2 -8 -2 -14l-76 -199l321 322q20 20 41 0l322 -322l-78 199q-2 8 -2 14l57 531q2 16 17 22l145 68q12 6 25 0l133 -68q8 -4 14 -12l70 -139q2 -8 2 -17l-70 -1065q0 -6 -2 -10 l-69 -139q-4 -6 -11.5 -11.5t-15.5 -5.5h-139q-8 0 -15 4l-137 70q-6 2 -10 8l-209 279q-2 2 -4 8l-43 125l-41 -125q-2 -4 -6 -8l-209 -279q-4 -6 -10 -8l-140 -70q-6 -4 -12 -4h-139q-18 0 -27 17l-69 143q-2 4 -2 10zM184 1200l70 -1046l59 -123h115l127 63l203 271 l65 200q4 12 15.5 17.5t23.5 0.5t17 -18l69 -200l201 -271l127 -63h117l57 119l70 1050l-62 125l-115 57l-116 -55l-53 -508l122 -319q6 -16 -4 -29q-8 -10 -21.5 -10t-21.5 8l-397 397l-397 -397q-12 -12 -29 -6q-8 2 -13 8t-6 13.5t1 15.5l122 319l-53 508l-117 55 l-114 -59zM358 520q0 27 13.5 49.5t35 34.5t48.5 12q39 0 67.5 -27.5t28.5 -67.5t-28.5 -67.5t-67.5 -27.5t-68 27.5t-29 66.5zM756 547q0 20 8 37.5t20.5 30t31 20.5t37.5 8t36.5 -8t30 -20.5t20.5 -30t8 -37.5q0 -27 -13 -48.5t-34.5 -34.5t-48.5 -13q-39 0 -67.5 28.5 t-28.5 67.5zM1159 514q0 27 12.5 48.5t35 34.5t46.5 13q41 0 69 -28.5t28 -67.5t-28 -67.5t-68 -28.5t-67.5 28.5t-27.5 67.5z" />
<glyph unicode="X" d="M129 1231l68 133q4 8 12 12l145 76q6 2 12.5 2t12.5 -2l133 -68q6 -2 8 -8l285 -358q2 -4 4 -10l43 -127l43 127q2 6 4 8l277 356l8 8l143 72q12 8 25 0l139 -70q10 -4 14 -12l68 -135q6 -12 0 -25l-66 -139q-2 -4 -8 -8l-348 -291l-8 -4l-131 -47l125 -41q4 -2 8 -6 l348 -297l8 -8l74 -144q6 -12 0 -26l-66 -131q-4 -8 -12 -13l-143 -78q-14 -6 -27 0l-139 70q-6 2 -10 8l-279 369l-4 8l-43 127l-43 -127l-4 -8l-285 -369q-4 -6 -10 -8l-150 -63q-12 -4 -24 2l-123 61q-10 4 -14 12l-68 138q-6 12 0 26l66 137q4 6 8 11l352 295q2 2 6 4 l131 49l-125 41q-6 2 -10 4l-342 295q-4 4 -6 8l-80 137q-8 12 -2 27zM188 211l58 -117l104 -51l129 53l279 359l67 204q4 12 17 19q4 2 10 1t11 -3t9.5 -6t6.5 -11l69 -204l271 -359l120 -61l123 67l54 109l-64 125l-340 291l-199 67q-10 4 -15 15.5t0 22.5t15 16l205 73 l340 281l58 119l-58 114l-119 60l-122 -64l-269 -346l-69 -205q-4 -12 -17 -16q-10 -6 -21.5 0t-15.5 16l-67 205l-277 350l-114 60l-123 -64l-56 -112l70 -119l334 -287l196 -65q12 -4 17.5 -15.5t1.5 -24t-16 -16.5l-203 -76l-342 -286zM608 713q0 39 29 67.5t67.5 28.5 t67.5 -28.5t29 -67.5t-29 -68t-67.5 -29t-67.5 29t-29 68zM754 569q0 25 13 47.5t34.5 35t48.5 12.5q39 0 67.5 -28t28.5 -68t-28.5 -67.5t-67.5 -27.5t-67.5 27.5t-28.5 68.5zM756 855q0 40 27.5 67.5t66.5 27.5q27 0 49.5 -12t34.5 -34.5t12 -47.5q0 -41 -27.5 -68.5 t-67.5 -27.5t-67.5 27.5t-27.5 67.5zM903 714q0 40 27.5 67.5t67.5 27.5t68 -27.5t28 -67.5t-28 -68t-68 -28t-67.5 28t-27.5 68z" />
<glyph unicode="Y" d="M133 1214q-6 12 0 25l70 141q4 8 12 13l139 69h2q6 2 12.5 2t12.5 -2l137 -69q6 -2 10 -11l281 -428q2 -4 4 -6l43 -139l41 137l4 8l277 422q4 6 10 10l137 72q12 8 25 2l141 -65q8 -4 14 -13l68 -133q6 -12 0 -24l-64 -148q-2 -6 -6 -8l-442 -504v-372v-9l-39 -137 q-2 -12 -14 -18l-140 -70q-12 -6 -26 0l-140 70q-10 6 -14 20l-35 139v7l-2 374l-444 500q-2 2 -4 6zM190 1227l62 -123l450 -504q6 -8 7 -20l2 -381l30 -123l115 -58l115 58l33 121v378q0 12 8 21l446 508l58 131l-58 111l-119 55l-118 -62l-271 -413l-67 -215 q-4 -12 -17 -19q-10 -4 -22.5 1t-16.5 18l-67 215l-275 420l-116 59l-119 -59zM762 711q0 27 12 49t34.5 34.5t47.5 12.5q41 0 68.5 -27.5t27.5 -68.5q0 -25 -12 -47.5t-34.5 -35t-49.5 -12.5q-39 0 -66.5 28t-27.5 67zM883 709z" />
<glyph unicode="Z" d="M127 1339v70q0 8 4 15.5t10 10.5t15 3h1319q18 0 26 -15l72 -137q6 -12 2 -24l-57 -144q-2 -6 -7 -10l-708 -762q-2 -4 -4 -6l-74 -49l121 31h6l483 2q8 0 13 -5l143 -67q10 -4 14 -14l70 -140q2 -6 2 -12v-70q0 -12 -9 -20t-20 -8h-1317q-16 0 -24 14l-76 141 q-8 12 -2 27l70 137q2 4 4 6l698 768l4 4l72 48l-119 -29q-2 -2 -6 -2h-485q-8 0 -13 2l-141 72q-10 4 -14 12l-70 139q-2 6 -2 12zM184 1348l62 -125l127 -64h475l276 70q16 4 29 -10q8 -10 6 -22.5t-12 -18.5l-207 -138l-692 -761l-60 -121l62 -113h1270v35l-62 125 l-129 61l-473 -2l-276 -67q-18 -4 -29 10q-8 10 -6 22.5t12 20.5l207 137l702 756l50 129l-58 108h-1274v-32zM504 260q0 39 28.5 67.5t68.5 28.5t67.5 -28.5t27.5 -67.5t-27.5 -67.5t-67.5 -28.5t-68.5 28.5t-28.5 67.5zM997 1184q0 39 28 67.5t68 28.5t67.5 -28.5 t27.5 -67.5q0 -27 -12.5 -48.5t-35 -35t-46.5 -13.5q-41 0 -69 29t-28 68z" />
<glyph unicode="[" d="M475 20v1393q0 23 23 27q2 2 6 2l696 2q6 0 11.5 -3t9.5 -7t6 -9.5t2 -9.5v-69q0 -6 -2 -13l-70 -139q-6 -10 -14 -14l-139 -70q-10 -4 -21 0l-156 51l52 -155q2 -4 2 -11v-559q0 -6 -2 -10l-50 -150l142 52q12 4 22 -2l150 -70q8 -4 14 -12l70 -140q2 -6 2 -12v-69 q0 -6 -2 -12.5t-6 -9.5t-9.5 -5t-11.5 -2l-696 -2q-8 0 -15.5 5t-10.5 11t-3 12zM532 49l639 2v33l-61 125l-131 61l-186 -67q-8 -2 -17 0q-12 4 -18 14t-2 23l67 200v551l-67 205q-4 8 -2 16q4 12 15 18.5t22 2.5l198 -66l121 60l61 125v34l-639 -2v-1335zM700 241 q0 40 28 67.5t69 27.5q25 0 47 -12.5t34.5 -35t12.5 -46.5q0 -41 -27.5 -69t-67.5 -28t-68 28t-28 68zM700 1200q0 25 13.5 47.5t35 34.5t48.5 12q39 0 66.5 -27.5t27.5 -67.5t-27.5 -67.5t-67.5 -27.5t-68 27.5t-28 68.5z" />
<glyph unicode="\" d="M127 1288q0 -12 8 -20l1254 -1254q8 -8 20 -8h139q10 0 19.5 8.5t9.5 20.5v139q0 12 -8 21l-1254 1253q-8 8 -20 8h-139q-10 0 -19.5 -8t-9.5 -21v-139zM184 1300v99h99l1237 -1237v-99h-99z" />
<glyph unicode="]" d="M475 23q0 -12 8.5 -20.5t20.5 -8.5l696 -2q8 0 15.5 5t10.5 11t3 12v1393q0 23 -23 27q-2 2 -6 2l-696 2q-8 0 -15.5 -5t-10.5 -11.5t-3 -12.5v-69q0 -6 2 -13l70 -139q6 -10 14 -14l139 -70q10 -4 21 0l156 51l-52 -155q-2 -4 -2 -11v-559q0 -6 2 -10l49 -150l-141 52 q-12 4 -22 -2l-150 -70q-8 -4 -14 -12l-70 -140q-2 -6 -2 -12v-69zM532 51v33l62 125l131 61l186 -67q8 -2 17 0q12 4 18 14t2 23l-67 200v551l67 205q4 8 2 16q-4 12 -15 18.5t-22 2.5l-198 -66l-121 60l-62 125v34l639 -2v-1335zM813 242q0 -41 27.5 -69t67.5 -28t68 28 t28 68t-28 67.5t-69 27.5q-25 0 -47 -12.5t-34.5 -35t-12.5 -46.5zM813 1199q0 -40 27.5 -67.5t67.5 -27.5t68 27.5t28 68.5q0 25 -13.5 47.5t-35 34.5t-48.5 12q-39 0 -66.5 -27.5t-27.5 -67.5z" />
<glyph unicode="^" d="M197 1184v69q0 9 4 17q6 10 18 12l627 139q6 2 12 0l627 -139q23 -4 22 -29v-69q0 -10 -8 -19.5t-20 -9.5h-70q-2 0 -4 2l-553 103l-553 -103q-2 -2 -4 -2h-70q-10 0 -19 8t-9 21zM254 1212h39l553 105q6 2 12 0l553 -105h39v19l-598 133l-598 -133v-19z" />
<glyph unicode="_" d="M127 -67.5q0 6.5 2 12.5l70 139q8 16 26 16h1254q18 0 26 -16l70 -139q6 -12 0 -25l-70 -139q-8 -16 -26 -17h-1254q-18 0 -26 17l-70 139q-2 6 -2 12.5zM188 -68l56 -110h1218l56 110l-56 111h-1218z" />
<glyph unicode="`" d="M197 1661q0 -10 7 -18.5t17 -10.5l1184 -139h4h70q8 0 14 4t10 11.5t4 13.5v69q0 12 -7 20.5t-17 8.5l-1184 139h-4h-70q-8 0 -15 -4t-10 -11t-3 -13v-70zM254 1688v14h39l1157 -135v-17h-39z" />
<glyph unicode="a" d="M129 197q-6 12 0 24l557 1202q4 8 11.5 12.5t15.5 4.5h278q18 0 27 -17l557 -1202q6 -12 0 -24l-68 -136q-4 -8 -12 -12l-141 -74q-14 -8 -27 0l-135 68q-10 4 -14 12l-144 291q-2 6 -2 12v168l-170 -57q-10 -4 -18 0l-172 57v-170q0 -6 -2 -12l-140 -283q-4 -8 -12 -12 l-141 -74q-12 -8 -25 0l-139 70q-10 4 -14 12zM186 209l60 -117l119 -59l118 61l131 271v200v8q4 10 15.5 16.5t21.5 4.5l201 -68l201 68h6q12 2 21.5 -7t9.5 -22v-200l135 -275l114 -57l121 63l58 113l-545 1173h-242zM582 546q0 40 28.5 67.5t67.5 27.5t67.5 -27.5 t28.5 -67.5t-28.5 -67.5t-67.5 -27.5t-67.5 27.5t-28.5 67.5zM616 704.5q0 38.5 29 67.5t68 29t67.5 -29t28.5 -67q0 -27 -13.5 -48.5t-35 -35t-47.5 -13.5q-39 0 -68 29t-29 67.5zM686 715l115 358l22 133q2 12 12.5 19.5t22.5 5.5q18 -6 23 -25l20 -131l117 -360 q4 -12 -2 -23.5t-19 -13.5q-6 -2 -14 0l-131 35l-131 -35h-2q-8 -2 -17 0q-2 2 -4 2q-23 6 -12 35zM756 1141q0 27 13 48t34.5 34.5t48.5 13.5q39 0 67.5 -28.5t28.5 -67.5t-28.5 -68t-67.5 -29t-67.5 29t-28.5 68zM758 748l86 22q8 2 16 0l86 -22l-94 294zM895 705 q0 39 28.5 67.5t67.5 28.5t67.5 -29t28.5 -67.5t-28.5 -67.5t-67.5 -29q-20 0 -37.5 8.5t-30 20.5t-20.5 30t-8 38zM926 549q0 27 12 49.5t34.5 34.5t48.5 12t48.5 -12t34.5 -35t12 -49q0 -39 -27.5 -66.5t-67.5 -27.5t-67.5 27.5t-27.5 66.5z" />
<glyph unicode="b" d="M127 16v1393q0 8 4 15.5t11.5 10.5t13.5 3h905h6l281 -70q6 -2 12 -8l139 -139q4 -2 6 -7l70 -139q6 -14 0 -26l-70 -140q-2 -4 -6 -8l-139 -139q-6 -4 -12 -6l-168 -43l168 -41q6 -2 12 -8l139 -140q4 -4 6 -8l70 -139q6 -12 0 -25l-70 -139q-2 -4 -6 -8l-139 -139 q-6 -6 -12 -9l-281 -69h-6h-905q-12 0 -20.5 8t-8.5 20zM184 45h873l268 68l131 129l62 123l-62 122l-131 129l-270 70q-16 2 -21 19q-4 10 2 21t19 15l270 68l131 129l62 123l-62 123l-131 131l-268 65h-873v-1335zM377 1171.5q0 38.5 27.5 66.5t66.5 28t67.5 -28 t28.5 -66.5t-28.5 -67.5t-67.5 -29t-66.5 29t-27.5 67.5zM381 823q0 27 12.5 48.5t35 35t48.5 13.5q39 0 66.5 -29t27.5 -68t-27.5 -67.5t-67.5 -28.5t-67.5 28.5t-27.5 67.5zM383 279.5q0 39.5 28.5 67.5t68.5 28t67.5 -28t27.5 -67.5t-27.5 -67.5t-67.5 -28t-68.5 28 t-28.5 67.5zM383 606q0 39 28.5 66.5t67.5 27.5t66.5 -27.5t27.5 -66.5t-27.5 -66.5t-66.5 -27.5t-67.5 27.5t-28.5 66.5zM406 219q-2 8 2 17l77 200l-77 197q-4 10 0 20v4q8 23 34 13l205 -68h275q6 0 12 -2l147 -76q6 -2 9 -6l61 -63q20 -20 0 -41l-70 -70l-8 -4l-139 -70 q-6 -4 -12 -4h-277l-203 -67q-10 -4 -21 2t-15 18zM406 1208q4 10 15 16.5t21 4.5l209 -70l273 -4q6 0 10 -2l139 -66q4 -2 8 -6l70 -69q20 -20 0 -41l-70 -70l-8 -4l-139 -70q-6 -4 -12 -4h-275l-205 -67q-6 -2 -14 0q-12 2 -18.5 13t-1.5 22l63 206l-63 195q-4 8 -2 16z M479 827l154 52q2 2 3 2h3q0 2 1 1t3 -1h272l129 65l46 45l-46 47l-129 60l-270 4q-4 0 -8 2l-158 51l49 -149q4 -8 0 -17zM483 272l150 50q4 2 8 2h274l129 65l48 45l-39 41l-138 70h-272q-4 0 -8 2l-152 49l60 -150q4 -10 0 -20zM541 436v8v-4v-4zM541 993v8v-4v-4z M1051 438q0 27 13 48.5t34.5 35t48.5 13.5q39 0 67.5 -28t28.5 -68t-28.5 -68.5t-67.5 -28.5t-67.5 28.5t-28.5 67.5zM1057 995q0 27 13 49.5t34.5 35t48.5 12.5q41 0 68.5 -28t27.5 -68t-27.5 -68.5t-67.5 -28.5t-68.5 28.5t-28.5 67.5z" />
<glyph unicode="c" d="M106 729q0 4 3 6l77 273q0 4 2 8l146 215q4 4 8 6l231 166q4 4 11 4l305 74q6 2 12 0l287 -68q6 -2 8 -4h2l238 -168q8 -4 10 -12l145 -279q4 -8 3 -16t-6 -14.5t-11 -8.5l-184 -75q-12 -6 -23 0l-162 71q-4 2 -6 4l-166 168l-164 45l-155 -43l-131 -223l-2 -264 l129 -223l159 -49l172 49l158 166q2 4 6 6l174 67q10 4 23 0l174 -67q12 -6 16 -18.5t-2 -22.5l-139 -279q-4 -8 -10 -12l-238 -166v-2q-4 0 -8 -2l-262 -72h-2q-6 -2 -12 0l-295 66q-4 0 -9 2l-262 162q-6 2 -10 8l-153 219q-2 4 -5 8l-79 289q-3 2 -3 6zM166 729l78 -274 l145 -211l254 -154l285 -63l252 69l227 160l121 244l-135 53l-158 -64l-160 -167q-6 -4 -10 -5l-184 -53q-8 -2 -15 0l-178 55q-10 2 -16 13l-142 237q-4 8 -4 17l2 282q0 8 4 15l144 239q6 10 16 13l174 47q6 2 13 0l178 -49q6 0 10 -5l168 -170l147 -65l144 59l-127 244 l-228 162l-276 65l-293 -69l-223 -160l-139 -205zM688 319zM692 1135zM770 287q0 27 13.5 49t35 34.5t47.5 12.5q39 0 68 -27.5t29 -67.5t-29 -67.5t-68 -27.5t-67.5 27.5t-28.5 66.5zM774 1157q0 27 13.5 49.5t35 34.5t47.5 12q39 0 68 -27.5t29 -67.5t-29 -67.5t-68 -27.5 t-67.5 27.5t-28.5 66.5z" />
<glyph unicode="d" d="M127 20v1393q0 12 9 20.5t20 8.5h835q6 0 13 -4l278 -140q8 -2 12 -8l207 -295q4 -4 4 -10l72 -262q2 -6 0 -14l-70 -279q-2 -6 -6 -10l-209 -279q-4 -4 -10 -8l-278 -139q-6 -2 -13 -2h-835q-12 0 -20.5 8t-8.5 20zM184 49h801l266 133l201 269l68 266l-68 250l-201 284 l-266 133h-801v-1335zM354 260q0 39 29 67.5t69 28.5t67.5 -28.5t27.5 -67.5t-27.5 -67.5t-67.5 -28.5t-69 28.5t-29 67.5zM358 1172.5q0 39.5 28 67.5t68 28t67.5 -28t27.5 -69q0 -25 -12.5 -47t-35 -34.5t-46.5 -12.5q-41 0 -69 28t-28 67.5zM406 221q-2 8 2 17l67 204 l-2 549l-65 203q-4 10 0 20v5q8 23 36 12l203 -72l195 4q10 0 16 -6l219 -137q6 -6 10 -14l109 -279q4 -10 0 -20l-109 -279q-4 -10 -10 -14l-209 -140q-8 -4 -16 -4h-205l-205 -69q-10 -4 -21 2t-15 18zM479 274l156 52q4 2 8 2h201l194 129l101 260l-101 258l-202 131 l-193 -4q-4 0 -10 2l-154 53l49 -151q2 -4 2 -9l2 -559q0 -6 -2 -10z" />
<glyph unicode="e" d="M127 18v1395q0 10 8 19.5t21 9.5h1392q12 0 20.5 -9.5t8.5 -19.5v-70q0 -8 -2 -14l-70 -139q-4 -8 -12 -12l-137 -70q-6 -2 -13 -2h-702q-4 0 -8 2l-154 51l51 -155q4 -8 0 -19l-51 -154l156 56q4 2 10 2l483 -2q18 -2 27 -17l72 -141q6 -12 0 -27l-70 -139 q-8 -14 -27 -14h-487h-8l-156 51l53 -154q4 -8 0 -18l-53 -156l152 47q4 2 8 3l704 4q6 0 13 -2l135 -70q10 -4 14 -12l70 -140q2 -6 2 -14v-70q0 -12 -9 -20t-20 -8h-1392q-12 0 -20.5 9t-8.5 19zM184 47h1336v35l-62 125l-121 61l-694 -4l-201 -63q-8 -2 -16 0q-4 2 -9 5 t-8 8t-3 11t2 13l67 200l-67 199q-4 8 -2 16q4 12 15 18.5t21 2.5l205 -68h465l55 111l-55 112l-463 2l-205 -73q-8 -2 -16 0q-12 2 -18.5 13t-1.5 24l65 200l-65 199q-4 8 -2 16q4 12 15 18.5t21 2.5l205 -68h690l121 62l62 125v34h-1336v-1337zM354 817q0 39 29 67.5 t68 28.5q27 0 48 -13t34.5 -34.5t13.5 -48.5q0 -39 -29 -67.5t-67.5 -28.5t-67.5 28.5t-29 67.5zM356 1165q0 39 29 68t69 29t67.5 -29t27.5 -68t-27.5 -67.5t-67.5 -28.5t-69 28.5t-29 67.5zM358 266q0 20 7.5 38t20.5 30t30.5 20t38.5 8q39 0 66.5 -28.5t27.5 -67.5 t-27.5 -67.5t-67.5 -28.5t-68 28.5t-28 67.5zM358 610q0 27 13.5 48.5t35 35t48.5 13.5q39 0 66.5 -29t27.5 -68t-27.5 -67.5t-67.5 -28.5t-68 28.5t-28 67.5z" />
<glyph unicode="f" d="M139 203v1208q0 12 8.5 20.5t20.5 8.5h1395q8 0 14 -5t10 -11.5t4 -12.5v-70q0 -6 -4 -12l-69 -139q-4 -10 -13 -14l-145 -68q-6 -4 -12 -4h-689q-4 0 -8 2l-155 51l47 -151q4 -8 0 -17l-51 -160l151 52q4 2 10 2h482q16 0 24 -15l76 -133q6 -12 0 -24l-64 -146 q-8 -16 -26 -16l-488 -2q-4 0 -8 2l-157 45l51 -145q2 -4 2 -9v-377q0 -18 -17 -26l-139 -64q-12 -6 -24 0l-140 68q-8 4 -12 12l-70 135q-4 6 -4 15zM197 209l63 -121l119 -57l108 51v352l-67 195q-2 8 -2 16q4 12 14 18.5t23 2.5l207 -62l464 2l52 115l-60 104h-461 l-200 -69q-8 -2 -17 0q-12 2 -18 13t-2 24l65 204l-61 195q-2 8 0 16q4 12 14.5 18.5t22.5 2.5l203 -68h675l131 64l64 123v34h-1337v-1173zM371 831.5q0 26.5 13 48t34.5 35t48.5 13.5t48.5 -13.5t34.5 -35t13 -48.5q0 -39 -28.5 -67.5t-67.5 -28.5q-27 0 -48.5 13.5 t-34.5 35t-13 48zM373 596q0 39 27.5 67.5t67.5 28.5t67.5 -28.5t27.5 -67.5t-27.5 -67.5t-67.5 -28.5t-67.5 28.5t-27.5 67.5zM373 1154q0 40 28.5 67.5t67.5 27.5t67.5 -27.5t28.5 -67.5t-28.5 -67.5t-67.5 -27.5t-67.5 27.5t-28.5 67.5z" />
<glyph unicode="g" d="M119 702q-2 6 0 15l65 278q2 4 4 11l162 217q2 4 8 8l209 164q4 2 11 4l317 65q6 2 14 0l279 -71l8 -4l240 -170q8 -4 12 -13l63 -131q8 -16 -2 -28l-100 -152q-10 -14 -27 -12l-170 8q-12 0 -18 8l-139 152l-166 65l-178 -59l-144 -219v-256l142 -209l194 -70l197 64 l92 159l-180 -49q-8 -2 -19 0l-151 55q-12 6 -17 17l-61 153q-2 4 -2 11v69q0 6 3 12.5t10 11.5t16 5l768 -2q10 0 19 -8t9 -21l-4 -274q0 -6 -4 -12l-137 -277q-2 -6 -10 -10l-207 -170l-8 -4l-299 -78q-6 -2 -15 0l-323 72q-4 0 -11 4l-211 166l-8 8l-157 211q-4 4 -5 8z M176 711l66 -267l153 -202l203 -160l311 -70l289 74l197 164l131 264l4 238l-711 2v-35l55 -135l130 -49l241 65q10 4 21.5 -2t15.5 -18q2 -8 -2 -17l-131 -229q-4 -14 -19 -19l-219 -69q-8 -2 -18 0l-213 76q-8 2 -12 10l-152 223q-6 8 -6 16v277q0 8 6 14l152 234 q6 8 16 12l197 66h9h9h-18h9h9l2 -3l180 -69q6 -2 11 -6l133 -148l145 -8l84 125l-53 109l-232 163l-268 80l-307 -74l-201 -157l-153 -209zM791 1145q0 27 13 49.5t34.5 34.5t48.5 12q39 0 67.5 -27.5t28.5 -67.5t-28.5 -67.5t-67.5 -27.5t-67.5 27.5t-28.5 66.5zM807 302 q0 40 28.5 67.5t67.5 27.5t67.5 -27.5t28.5 -67.5t-28.5 -67.5t-67.5 -27.5t-67.5 27.5t-28.5 67.5zM1130 552q0 40 28 67.5t69 27.5q25 0 47 -12t34.5 -34.5t12.5 -47.5q0 -41 -27.5 -68.5t-67.5 -27.5t-68 27.5t-28 67.5zM1292 580z" />
<glyph unicode="h" d="M127 209v1014v8l4 6l70 137q4 10 12 15l139 69q12 6 25 0l139 -69q16 -8 16 -27v-367q0 -4 -2 -8l-51 -153l150 51q4 2 8 2h426q4 0 8 -2l154 -51l-51 151q-2 6 -3 10v367q0 18 17 27l139 69q12 6 27 0l139 -69q8 -4 12 -15l70 -137q2 -6 2 -14v-1008q0 -6 -2 -12 l-70 -146q-4 -10 -12 -14l-139 -70q-14 -6 -27 0l-139 70q-16 8 -17 27v370q0 4 3 9l51 155l-156 -51q-4 -2 -8 -2h-420q-6 0 -10 2l-152 51l51 -162q2 -4 2 -8v-364q0 -18 -16 -27l-139 -70q-12 -6 -25 0l-139 70q-8 4 -12 14l-70 140q-4 6 -4 12zM184 217l64 -127l117 -59 l110 55v344l-67 211q-2 6 0 14q2 12 13 18.5t23 2.5l201 -68h412l205 68q8 2 16 2q12 -4 17 -15.5t3 -21.5l-69 -207v-348l110 -55l119 59l62 131v996l-62 124l-119 58l-110 -56v-344l69 -202q2 -6 0 -15q-4 -12 -14 -18t-22 -2l-205 67h-414l-199 -67q-8 -4 -16 -2 q-12 4 -18.5 15t-1.5 22l67 204v342l-110 56l-119 -58l-62 -124v-1000zM350 619.5q0 39.5 29 67.5t67.5 28t67.5 -28t29 -67.5t-29 -68.5t-67.5 -29t-67.5 29t-29 68.5zM354 815q0 27 12.5 48.5t35 34.5t48 13t48 -13t35 -34.5t12.5 -48.5q0 -20 -7.5 -37.5t-20.5 -30 t-30.5 -20.5t-35.5 -8q-41 0 -69 28.5t-28 67.5zM1135 622q0 40 27.5 67.5t67.5 27.5t67.5 -27.5t27.5 -67.5t-27.5 -68t-67.5 -28t-67.5 28t-27.5 68zM1135 820q0 40 28.5 67.5t67.5 27.5t67.5 -27.5t28.5 -67.5t-28.5 -67.5t-67.5 -27.5t-67.5 27.5t-28.5 67.5z" />
<glyph unicode="i" d="M127 18v70q0 6 2 12l70 140q4 10 14 14l141 68q6 2 13 2l170 2q4 0 8 -2l160 -52l-56 156q-2 4 -2 10l2 557q0 6 2 11l51 151l-153 -51q-4 -2 -10 -2l-172 2q-8 0 -13 2l-141 70q-10 4 -14 12l-70 139q-2 6 -2 12v68q0 23 23 29h6l1392 2q12 0 20.5 -9.5t8.5 -19.5v-70 q0 -6 -2 -12l-70 -139q-4 -8 -14 -12l-137 -68q-6 -2 -13 -2l-167 -2q-4 -2 -11 0l-162 51l56 -158q2 -4 2 -10v-555q0 -4 -2 -8l-53 -154l151 52q4 2 10 2h174q8 0 15 -2l137 -70q10 -6 14 -14l70 -140q2 -6 2 -12v-70q0 -12 -9 -20t-20 -8h-1392q-12 0 -20.5 9t-8.5 19z M184 47h1336v35l-62 125l-125 61h-164l-202 -67q-8 -4 -17 0q-12 2 -18 13t-2 24l71 202v545l-71 207q-4 8 -2 16q4 12 15 18.5t22 2.5l213 -66l157 2l123 60l62 125v32l-1336 -2v-30l62 -125l127 -62l162 -2l206 68q8 4 17 2q10 -4 16 -15.5t2 -23.5l-69 -201l-2 -549 l73 -204q2 -8 0 -17q-2 -12 -13 -18t-24 -2l-209 67l-159 -2l-127 -59l-62 -125v-35zM631 230q0 40 27.5 68t67.5 28t67.5 -28t27.5 -68t-27.5 -67.5t-67.5 -27.5t-67.5 27.5t-27.5 67.5zM631 1190q0 27 12 49.5t34.5 34.5t49.5 12q39 0 66.5 -27.5t27.5 -67.5t-27.5 -67.5 t-67.5 -27.5t-67.5 27.5t-27.5 66.5zM889 230q0 40 27.5 68t67.5 28t67.5 -28t27.5 -68t-27.5 -67.5t-67.5 -27.5t-67.5 27.5t-27.5 67.5zM893 1190q0 39 27.5 67.5t67.5 28.5t67.5 -28.5t27.5 -67.5t-27.5 -67.5t-66.5 -28.5q-20 0 -37.5 8t-31 20.5t-20.5 31t-7 36.5z" />
<glyph unicode="j" d="M127 713v67q0 8 2 15l70 139q4 8 14 12l139 70q12 6 25 0l139 -70q16 -8 16 -26l-6 -304l136 -200l192 -66l193 62l122 194l2 381q0 4 3 10l51 158l-156 -51h-8h-692q-6 0 -13 2l-143 70q-10 4 -14 12l-70 139q-2 6 -2 14v70q0 10 8 19.5t21 9.5h1392q6 0 13.5 -4 t11.5 -10.5t4 -14.5v-698v-6l-68 -273q-2 -6 -4 -10l-135 -205q-2 -4 -6 -8l-211 -156q-4 -4 -10 -4l-281 -84q-6 -2 -14 0l-277 78l-8 4l-215 152q-4 2 -8 8l-137 205q-2 4 -4 10l-70 283q-2 2 -2 6zM184 717l70 -275l131 -198l205 -144l266 -75l268 79l201 150l129 199 l66 264v665h-1336v-34l62 -125l129 -62h682l205 68q10 4 21 -2t15 -19q2 -8 -2 -16l-67 -209l-4 -387q0 -8 -4 -14l-131 -209q-6 -8 -17 -13l-211 -67q-8 -2 -16 0l-213 72q-8 4 -15 12l-145 217q-4 6 -4 16l6 293l-110 55l-119 -59l-62 -125v-57zM1161 1182q0 39 28 67.5 t67.5 28.5t67.5 -28.5t28 -67.5t-28 -68t-69 -29q-25 0 -47 13.5t-34.5 35t-12.5 48.5z" />
<glyph unicode="k" d="M127 209v993q0 8 4 15l70 139q4 8 12 12l135 68q12 8 25 2l141 -70q16 -6 16 -25l2 -348q0 -6 -2 -10l-38 -123l690 502q2 2 4 2l141 72q6 4 12 4h140q18 0 26 -17l68 -141q10 -20 -8 -35l-416 -346q-6 -6 -16 -8h-21l31 -14q8 -2 12 -11l348 -565l2 -2l70 -139 q6 -12 0 -25l-70 -141q-8 -16 -26 -16h-140q-6 0 -12 4l-139 69q-6 2 -12 11l-375 608l-162 -119q-12 -10 -27 -4l-131 47l49 -156q2 -4 2 -8v-364q0 -16 -16 -25l-139 -70q-12 -6 -25 0l-139 70q-8 4 -12 12l-70 140q-4 6 -4 12zM184 217l64 -125l117 -59l110 55v342 l-65 207q-2 8 0 16q4 12 15 17.5t21 1.5l170 -62l177 129q4 2 10 4t11 1t10 -5l10 -8l387 -629l127 -63h114l54 113l-62 122l-344 560l-133 61q-14 6 -16 23q-2 12 6 21t20 9l133 4l391 328l-51 104h-112l-134 -67l-761 -553q-10 -8 -25 -6q-12 4 -18.5 15t-1.5 22l67 204 v326l-115 53l-112 -57l-64 -125v-979zM350 825q0 41 29 69t67 28q27 0 48.5 -12.5t35 -35t13.5 -49.5q0 -39 -29 -66.5t-68 -27.5q-27 0 -48 12.5t-34.5 34.5t-13.5 47zM352 610q0 27 13.5 48.5t35 35t48 13.5t48 -13.5t35 -35t13.5 -48.5q0 -39 -28 -67.5t-67.5 -28.5 t-68.5 28.5t-29 67.5zM936 912q0 40 28.5 68t67.5 28q27 0 48.5 -12.5t34.5 -35t13 -49.5q0 -14 -5 -28.5t-14 -26.5t-20.5 -21.5t-25.5 -13.5t-31 -4q-39 0 -67.5 27.5t-28.5 67.5z" />
<glyph unicode="l" d="M127 18v1190q0 6 2 13l70 143q4 8 14 12l139 70q12 6 25 0l139 -70q16 -8 16 -24v-914q0 -6 -2 -10l-51 -158l152 47q4 2 8 2l700 5q6 0 13 -2l139 -70q10 -4 14 -12l70 -140q2 -6 2 -14v-70q0 -12 -9 -20t-20 -8l-1392 2q-12 0 -20.5 9t-8.5 19zM184 47l1336 -2v35 l-62 125l-125 61l-690 -4l-201 -63q-27 -8 -34 14v4q-4 8 -2 16q2 0 2 3l67 206v891l-110 56l-119 -60l-62 -127v-1155zM356 248q0 41 28 68.5t67 27.5q27 0 49 -12.5t34.5 -35t12.5 -48.5q0 -39 -27.5 -66.5t-68.5 -27.5q-25 0 -47.5 12t-35 34.5t-12.5 47.5z" />
<glyph unicode="m" d="M127 209l70 1065q0 6 2 10l69 139q4 7 11.5 12t15.5 5h139q8 0 15 -4l137 -70q6 -2 10 -8l209 -279l4 -8l43 -125l41 123q2 6 6 8l209 281q4 6 10 8l139 70q6 4 13 4h139q18 0 27 -17l69 -143q2 -4 2 -10l70 -1061q0 -8 -2 -16l-70 -138q-4 -8 -12 -12l-135 -70 q-12 -6 -25 0l-145 68q-14 6 -17 22l-55 531q-2 6 2 14l76 199l-322 -322q-20 -20 -41 0l-321 322l78 -201q2 -6 2 -12l-58 -531q-2 -16 -16 -22l-145 -68q-12 -6 -25 0l-133 68q-8 4 -14 12l-70 140q-2 8 -2 16zM184 211l62 -123l114 -57l117 55l53 508l-122 319 q-6 14 4 29q8 8 21 9t22 -7l397 -399l397 399q12 12 29 6q12 -4 17 -15t1 -22l-122 -319l53 -508l116 -55l115 59l62 121l-70 1049l-59 122h-115l-127 -63l-203 -272l-65 -199q-4 -12 -17 -17q-8 -4 -15 -3t-13.5 6.5t-10.5 13.5l-69 201l-201 270l-127 63h-117l-57 -118z M354 898q0 40 28 67.5t67.5 27.5t67.5 -27.5t28 -67.5t-28 -67.5t-67.5 -27.5t-67.5 27.5t-28 67.5zM756 865q0 40 28.5 68t67.5 28q18 0 36.5 -7.5t31 -19.5t20.5 -30.5t8 -38t-8 -37t-20.5 -31t-31 -20.5t-36.5 -7q-39 0 -67.5 27.5t-28.5 67.5zM1153 892q0 40 28.5 67.5 t67.5 27.5t68 -27.5t29 -68.5q0 -25 -13.5 -47.5t-35 -34.5t-48.5 -12q-39 0 -67.5 27.5t-28.5 67.5z" />
<glyph unicode="n" d="M127 215l2 1196q0 12 8 20.5t19 8.5l346 2q8 0 16 -6l209 -140q4 -2 8 -6l416 -555q2 -2 4 -6l43 -106l-27 157v6v568q0 16 17 24l139 70q12 6 25 0l139 -70q8 -4 12 -12l70 -135q4 -6 4 -12v-1149q0 -16 -14 -25l-136 -72q-14 -6 -26 0l-152 76q-2 2 -4 2l-201 135 q-4 2 -8 7l-487 718l-2 2l-43 86l26 -131v-6l2 -790q0 -18 -16 -27l-139 -70q-12 -6 -27 0l-139 70q-8 4 -12 12l-70 146q-2 6 -2 12zM184 221l62 -129l119 -59l110 55l-2 772l-67 338q-4 20 12 31q8 4 16 4t14.5 -4t10.5 -12l137 -275l485 -711l195 -131l137 -69l107 57 v1122l-62 121l-119 60l-110 -56v-547l69 -415q2 -20 -16 -31q-10 -6 -22.5 -1t-16.5 15l-139 349l-412 546l-198 133l-308 -2zM350 1149q0 18 8.5 36.5t20.5 31t29.5 19.5t37.5 7q39 0 68 -27.5t29 -67.5t-29 -67.5t-67.5 -27.5t-67.5 27.5t-29 68.5zM1165 389q0 39 28 67.5 t67.5 28.5t67.5 -28.5t28 -67.5t-28 -67.5t-67.5 -28.5t-67.5 28.5t-28 67.5z" />
<glyph unicode="o" d="M82 717v7v7l80 279q2 4 4 10l149 209q4 4 9 6l233 160q4 4 8 4l279 80h2q6 2 12 0h2l279 -80q4 0 8 -4l233 -160q4 -2 9 -6l149 -209q2 -6 4 -10l80 -279q2 -6 0 -14l-80 -279l-4 -8l-149 -209q-4 -6 -9 -8l-233 -160l-8 -4l-279 -90h-2q-6 -2 -12 0h-2l-279 90l-8 4 l-233 160q-4 2 -9 8l-149 209l-4 8zM139 725l78 -268l143 -199l226 -156l266 -86l266 86l225 156l144 199l78 268l-78 266l-144 201l-225 154l-266 75l-266 -75l-226 -154l-143 -201zM475 719v10l35 209q2 8 8 14l154 181q4 6 12 8l160 67q8 2 18 0l156 -65q6 -2 12 -8 l156 -181q6 -6 8 -16l39 -207v-12l-39 -209q-2 -8 -8 -14l-150 -179q-6 -4 -14 -6l-160 -67q-8 -2 -16 0l-162 63q-6 2 -12 8l-154 181q-6 6 -8 14zM532 725l33 -197l142 -168l145 -59l147 64l140 163l37 197l-37 195l-144 170l-141 61l-147 -64l-142 -167zM756 274 q0 25 13 47.5t34.5 35t47.5 12.5t48.5 -12.5t34.5 -35t12 -47.5q0 -41 -27.5 -68.5t-67.5 -27.5t-67.5 27.5t-27.5 68.5zM760 1176q0 14 4 29.5t13 26.5t20.5 20.5t27 13.5t29.5 4q27 0 49.5 -12.5t34.5 -35t12 -46.5q0 -10 -1 -18.5t-4 -15.5t-7 -14.5t-10 -13.5t-12.5 -12 t-13.5 -10.5t-14 -7.5t-15.5 -4t-18.5 -1q-39 0 -66.5 28t-27.5 69z" />
<glyph unicode="p" d="M127 205v1204q0 6 3 12t7 9.5t9.5 5.5t9.5 2h829h6l78 -19l203 -51q6 0 10 -4l207 -137q10 -6 12 -17l76 -280q2 -8 0 -15l-68 -272q-4 -10 -12 -16l-205 -144l-8 -4l-278 -71h-9l-354 -2q-4 0 -8 2l-156 51l51 -174q2 -4 2 -9v-208q0 -18 -16 -27l-135 -68q-14 -6 -27 0 l-139 68q-8 4 -14 12l-70 137q-4 6 -4 15zM184 211l64 -123l119 -57l108 53v188l-67 222q-4 8 -2 16q4 12 15 18.5t21 1.5l205 -67l348 2l269 70l192 133l64 254l-70 262v2l-197 129l-198 47l-74 18l-797 -2v-1167zM358 1170q0 40 28 68t68 28t68.5 -28t28.5 -68 t-28.5 -67.5t-68.5 -27.5t-68 27.5t-28 67.5zM360 473q0 12 4.5 24.5t10.5 22.5t14 19.5t19.5 15.5t23.5 9t25 3q20 0 37.5 -7t30 -19.5t20.5 -30.5t8 -37q0 -41 -28.5 -68.5t-67.5 -27.5q-27 0 -48.5 13t-35 34.5t-13.5 48.5zM360 683q0 40 28 67.5t68 27.5t67.5 -27.5 t27.5 -67.5t-27.5 -67.5t-67.5 -27.5t-68 27.5t-28 67.5zM406 637q-2 8 2 14l65 203l2 133l-67 205q-2 0 -2 2q-2 8 2 16v4q8 23 34 13l211 -68h314q6 0 12 -2l164 -70q8 -4 12 -12l74 -137q8 -12 0 -27l-70 -135q-4 -8 -12 -12l-174 -76q-6 -4 -12 -4h-314l-205 -68 q-10 -4 -21 2.5t-15 18.5zM479 688l154 51q4 2 8 2h313l160 72l57 111l-61 114l-149 64h-312q-4 0 -8 2l-162 51l51 -156q2 -4 2 -8l-2 -143v-8z" />
<glyph unicode="q" d="M100 721v6v6l72 262l4 9l154 223q4 6 8 8l219 160q4 4 8 4l279 80q8 2 14 0l279 -80q6 0 10 -4l219 -160q2 0 4 -2l4 -4l150 -209l4 -10l78 -277v-12l-78 -277q0 -2 -2 -6l-66 -116l29 -15q4 0 8 -3t6 -7l70 -115q4 -6 4 -14v-139q0 -8 -4 -14.5t-10.5 -10.5t-12.5 -4 l-135 -6q-8 0 -16 4l-123 72q-10 6 -14 18l-11 37l-106 -74h-2q-2 -2 -6 -2l-277 -90h-8h-6h-2l-273 88q-6 2 -10 4l-219 160q-168 -104 -173 -104t165 112l-154 209q-89 -212 -91 -212t87 222zM158 727l73 -270l146 -201l213 -154l262 -86l268 88l135 89h2q8 6 21.5 0.5 t17.5 -19.5l19 -59l106 -64l99 4v105l-60 98l-51 23q-6 2 -11 8t-6 14t1 16l82 144l73 264l-75 264l-144 201l-211 154l-266 75l-266 -75l-211 -154l-148 -215zM485 717v10l39 213q2 8 8 14l140 160q4 4 10 6l160 86q10 2 18 0l160 -86q6 -2 12 -6l139 -160q6 -6 9 -16 l39 -209q0 -2 2 -4q0 -2 -1 -3t-1 -3l-39 -209q-2 -8 -9 -14l-139 -170q-6 -6 -12 -9l-162 -75q-10 -2 -18 0l-158 75q-6 2 -10 9l-140 170q-6 6 -8 14zM543 723l37 -193l127 -159l141 -72l147 72l129 159l37 195l-37 195l-129 149l-143 80l-145 -80l-127 -149zM750 276 q0 25 13 47.5t34.5 35t48 12.5t48 -12.5t35 -35t13.5 -47.5q0 -41 -28.5 -68.5t-67.5 -27.5t-67.5 27.5t-28.5 68.5zM756 1179q0 40 28.5 67.5t67.5 27.5q20 0 37.5 -7t31 -19.5t20.5 -31t7 -36.5q0 -41 -27.5 -69t-67.5 -28t-68.5 28t-28.5 68zM1155 154q0 39 28.5 67.5 t67.5 28.5t68 -28.5t29 -67.5t-29 -68t-68 -29t-67.5 29t-28.5 68zM1331 322.5q0 39.5 27.5 67.5t67.5 28t68 -28t28 -67.5t-28 -67.5t-68 -28t-67.5 28t-27.5 67.5zM1409 279v2v-2z" />
<glyph unicode="r" d="M127 209v1200q0 8 4 14.5t10 10.5t15 4h839h6l273 -68q6 0 10 -4l207 -137q10 -6 12 -17l72 -276q2 -8 2 -14l-68 -277q-2 -10 -12 -16l-211 -146q-4 -4 -8 -4l-229 -59l174 -184q4 -4 6 -9l67 -133q8 -18 -6 -33l-67 -73q-8 -8 -21 -8h-141q-6 0 -12 2l-140 69 q-6 4 -10 8l-270 353l-158 51l59 -154q2 -4 2 -24v-6v-209q0 -18 -16 -27l-137 -68q-12 -6 -25 0l-141 68q-8 6 -12 14l-70 140q-4 6 -4 12zM184 215l64 -123l119 -59l108 55v186l-80 224q-2 8 -1 16t6.5 14.5t13.5 8.5t16 0l223 -74q8 -2 15 -8l272 -355l129 -63h121l45 49 l-55 113l-207 215q-8 10 -8 22.5t10 20.5q6 4 12 6l270 69l199 138l62 258l-68 260l-195 129l-264 63h-807v-1165zM358 1170q0 40 28 68t68 28t68.5 -28t28.5 -68t-28.5 -67.5t-68.5 -27.5t-68 27.5t-28 67.5zM360 473q0 18 8.5 36.5t20.5 31t29.5 19.5t38.5 7 q39 0 67.5 -27.5t28.5 -67.5t-28.5 -67.5t-67.5 -27.5q-27 0 -48.5 13t-35 34.5t-13.5 48.5zM360 683q0 40 28 67.5t68 27.5t67.5 -27.5t27.5 -67.5t-27.5 -67.5t-67.5 -27.5t-68 27.5t-28 67.5zM406 637q-2 8 2 14l65 203l2 133l-67 205q-2 0 -2 2q-2 8 2 16v4q8 23 34 13 l211 -68h314q6 0 12 -2l164 -70q8 -4 12 -12l74 -137q8 -12 0 -27l-70 -135q-4 -8 -12 -12l-174 -76q-6 -4 -12 -4h-314l-205 -68q-10 -4 -21 2.5t-15 18.5zM479 688l154 51q4 2 8 2h313l160 72l57 111l-61 114l-149 64h-312q-4 0 -8 2l-162 51l51 -156q2 -4 2 -8l-2 -143 v-8zM909 435q0 40 28 67.5t67 27.5q20 0 37.5 -7t30.5 -20.5t20.5 -30.5t7.5 -38q0 -39 -28 -66.5t-67.5 -27.5t-67.5 27.5t-28 67.5z" />
<glyph unicode="s" d="M129 997q0 4 2 9l64 200q4 10 14 17l283 166q2 2 6 2l346 79h12l344 -79q2 0 6 -2l277 -154q10 -6 14 -16l74 -201q6 -16 -4 -29l-64 -80q-8 -10 -22 -10l-142 -2q-8 0 -14 4l-207 148l-266 79l-266 -75l-88 -58l80 -39l622 -71q6 0 12 -4l279 -209q8 -4 10 -13l72 -204 q4 -8 0 -19l-66 -209q-2 -10 -14 -16l-272 -162q-2 -2 -7 -4l-356 -92h-12l-348 88q-2 2 -6 2l-281 160q-10 6 -14 18l-66 199q-6 16 6 29l68 73q8 8 20 8l133 7q10 0 17 -5l209 -153l268 -76l274 80l74 53l-78 39l-620 74q-8 2 -15 6l-292 215q-8 6 -11 14l-53 205 q-2 4 -2 8zM188 995l50 -186l278 -205l619 -72q6 -2 10 -4l131 -67q8 -4 12 -12q6 -10 2 -22.5t-14 -16.5l-127 -78q-2 -2 -6 -2l-285 -84h-14l-279 78l-8 4l-205 151l-112 -6l-50 -51l58 -172l266 -154l338 -86l346 92l258 154l60 188l-66 187l-264 198l-621 70l-8 4 l-137 68q-6 2 -10 10q-6 10 -3 22.5t15 18.5l141 84q4 2 6 2l275 78q8 2 14 0l279 -82l8 -4l203 -146l118 2l45 58l-63 174l-264 147l-334 78l-336 -78l-268 -157zM354 1001q0 27 12.5 48.5t35 35t48 13.5t48 -13.5t35 -35t12.5 -48.5q0 -39 -28 -67.5t-66 -28.5 q-20 0 -38 8.5t-31 20.5t-20.5 30.5t-7.5 36.5zM1159 441q0 40 27.5 68t68.5 28q25 0 47.5 -13.5t35 -35t12.5 -48.5q0 -39 -28 -67.5t-68 -28.5t-67.5 28.5t-27.5 68.5z" />
<glyph unicode="t" d="M127 1339v70q0 12 8 20.5t21 8.5h1392q6 0 13.5 -3t11.5 -10.5t4 -15.5v-70q0 -6 -2 -12l-70 -139q-4 -10 -14 -14l-139 -68q-6 -4 -13 -4l-172 -4q-4 0 -10 2l-162 55l60 -227v-8l2 -717v-6l-35 -131q-4 -12 -14 -17l-142 -78q-14 -6 -26 0l-131 66q-10 4 -15 16 l-43 146v8l-2 782q0 4 2 8l54 160l-160 -51q-4 -2 -8 -2l-172 -2q-6 0 -13 2l-139 70q-10 4 -14 14l-70 139q-2 6 -2 12zM184 1346l62 -125l125 -62l159 2l211 68q8 2 15.5 0t13.5 -8.5t7 -13.5t-1 -15l-69 -209l2 -772l36 -129l107 -53l117 63l30 115l-2 711l-71 274 q-2 12 5 22.5t19 12.5q6 2 15 0l206 -72l160 4l127 62l62 125v34h-1336v-34zM637 1169q0 20 8 38t20.5 31t30 20.5t37.5 7.5q39 0 67.5 -28t28.5 -68t-28.5 -67.5t-67.5 -27.5q-27 0 -48 12.5t-34.5 34.5t-13.5 47zM735 1190q4 2 8 0q13 -2 15 -12q2 -8 2 -13zM877 1169 q0 41 28.5 69t67.5 28t67.5 -28t28.5 -68t-28.5 -68.5t-67.5 -28.5q-20 0 -37.5 8.5t-30 20.5t-20.5 30.5t-8 36.5z" />
<glyph unicode="u" d="M125 506v719q0 6 2 12l70 139q4 10 14 15l139 69q12 6 25 0l139 -69q16 -8 16 -27v-582q0 -4 -2 -8l-63 -190l170 -174l215 -107l223 100l162 181l-64 192q-2 4 -2 8v580q0 18 17 27l139 69q12 6 25 0l139 -69q10 -4 14 -15l70 -139q2 -6 2 -12v-717q0 -8 -2 -14 l-139 -279q-4 -8 -13 -12l-280 -162q-2 -2 -4 -2l-281 -84q-6 -2 -14 0l-277 80q-4 2 -6 2l-276 162q-8 6 -13 14l-143 281q-2 6 -2 12zM182 512l135 -266l265 -156l268 -78l268 82l268 156l132 264v703l-62 126l-119 60l-110 -55v-560l67 -204q6 -16 -6 -29l-178 -197 q-4 -4 -10 -6l-240 -106q-10 -4 -22 0l-232 112q-4 2 -8 7l-186 190q-12 12 -6 29l67 204v560l-111 55l-118 -60l-62 -126v-705zM350 542q0 40 28 68.5t67.5 28.5t67.5 -28.5t28 -68.5t-28 -68t-67.5 -28t-67.5 28t-28 68zM1165 548q0 40 28 68.5t67 28.5q27 0 49 -13.5 t34.5 -36t12.5 -46.5q0 -41 -28 -68.5t-67.5 -27.5t-67.5 27.5t-28 67.5z" />
<glyph unicode="v" d="M131 1206q-6 12 0 25l68 133q4 8 12 14l135 72q12 6 25 0l145 -66q6 -2 10 -6t6 -10l279 -713v-4l43 -235l39 229q0 2 2 4l281 719q4 10 14 16l135 68q12 6 25 0l137 -66q8 -4 14 -12l72 -137q8 -14 2 -27l-522 -1157q-4 -8 -15 -14l-176 -76q-12 -4 -22 0l-172 78 q-10 4 -15 14zM188 1219l512 -1129l150 -70l156 68l510 1135l-62 116l-117 56l-112 -58l-275 -706l-67 -385q-4 -16 -21 -23q-12 -2 -22.5 4t-14.5 19l-69 391l-273 700l-123 56l-114 -62zM748 313q0 43 30.5 74t74.5 31t74.5 -31t30.5 -74q0 -29 -14 -52t-38.5 -37.5 t-52.5 -14.5t-52.5 14.5t-38.5 37.5t-14 52z" />
<glyph unicode="w" d="M127 1204q0 8 2 17l70 135q4 10 12 14l135 70q12 6 25 0l145 -68q14 -6 16 -22l56 -531q2 -8 -2 -14l-76 -199l321 322q20 20 41 0l322 -322l-78 199q-2 8 -2 14l57 531q2 16 17 22l145 68q12 6 25 0l133 -68q8 -4 14 -12l70 -139q2 -8 2 -17l-70 -1065q0 -6 -2 -10 l-69 -139q-4 -6 -11.5 -11.5t-15.5 -5.5h-139q-8 0 -15 4l-137 70q-6 2 -10 8l-209 279q-2 2 -4 8l-43 125l-41 -125q-2 -4 -6 -8l-209 -279q-4 -6 -10 -8l-140 -70q-6 -4 -12 -4h-139q-18 0 -27 17l-69 143q-2 4 -2 10zM184 1200l70 -1046l59 -123h115l127 63l203 271 l65 200q4 12 15.5 17.5t23.5 0.5t17 -18l69 -200l201 -271l127 -63h117l57 119l70 1050l-62 125l-115 57l-116 -55l-53 -508l122 -319q6 -16 -4 -29q-8 -10 -21.5 -10t-21.5 8l-397 397l-397 -397q-12 -12 -29 -6q-8 2 -13 8t-6 13.5t1 15.5l122 319l-53 508l-117 55 l-114 -59zM358 520q0 27 13.5 49.5t35 34.5t48.5 12q39 0 67.5 -27.5t28.5 -67.5t-28.5 -67.5t-67.5 -27.5t-68 27.5t-29 66.5zM756 547q0 20 8 37.5t20.5 30t31 20.5t37.5 8t36.5 -8t30 -20.5t20.5 -30t8 -37.5q0 -27 -13 -48.5t-34.5 -34.5t-48.5 -13q-39 0 -67.5 28.5 t-28.5 67.5zM1159 514q0 27 12.5 48.5t35 34.5t46.5 13q41 0 69 -28.5t28 -67.5t-28 -67.5t-68 -28.5t-67.5 28.5t-27.5 67.5z" />
<glyph unicode="x" d="M129 1231l68 133q4 8 12 12l145 76q6 2 12.5 2t12.5 -2l133 -68q6 -2 8 -8l285 -358q2 -4 4 -10l43 -127l43 127q2 6 4 8l277 356l8 8l143 72q12 8 25 0l139 -70q10 -4 14 -12l68 -135q6 -12 0 -25l-66 -139q-2 -4 -8 -8l-348 -291l-8 -4l-131 -47l125 -41q4 -2 8 -6 l348 -297l8 -8l74 -144q6 -12 0 -26l-66 -131q-4 -8 -12 -13l-143 -78q-14 -6 -27 0l-139 70q-6 2 -10 8l-279 369l-4 8l-43 127l-43 -127l-4 -8l-285 -369q-4 -6 -10 -8l-150 -63q-12 -4 -24 2l-123 61q-10 4 -14 12l-68 138q-6 12 0 26l66 137q4 6 8 11l352 295q2 2 6 4 l131 49l-125 41q-6 2 -10 4l-342 295q-4 4 -6 8l-80 137q-8 12 -2 27zM188 211l58 -117l104 -51l129 53l279 359l67 204q4 12 17 19q4 2 10 1t11 -3t9.5 -6t6.5 -11l69 -204l271 -359l120 -61l123 67l54 109l-64 125l-340 291l-199 67q-10 4 -15 15.5t0 22.5t15 16l205 73 l340 281l58 119l-58 114l-119 60l-122 -64l-269 -346l-69 -205q-4 -12 -17 -16q-10 -6 -21.5 0t-15.5 16l-67 205l-277 350l-114 60l-123 -64l-56 -112l70 -119l334 -287l196 -65q12 -4 17.5 -15.5t1.5 -24t-16 -16.5l-203 -76l-342 -286zM608 713q0 39 29 67.5t67.5 28.5 t67.5 -28.5t29 -67.5t-29 -68t-67.5 -29t-67.5 29t-29 68zM754 569q0 25 13 47.5t34.5 35t48.5 12.5q39 0 67.5 -28t28.5 -68t-28.5 -67.5t-67.5 -27.5t-67.5 27.5t-28.5 68.5zM756 855q0 40 27.5 67.5t66.5 27.5q27 0 49.5 -12t34.5 -34.5t12 -47.5q0 -41 -27.5 -68.5 t-67.5 -27.5t-67.5 27.5t-27.5 67.5zM903 714q0 40 27.5 67.5t67.5 27.5t68 -27.5t28 -67.5t-28 -68t-68 -28t-67.5 28t-27.5 68z" />
<glyph unicode="y" d="M133 1214q-6 12 0 25l70 141q4 8 12 13l139 69h2q6 2 12.5 2t12.5 -2l137 -69q6 -2 10 -11l281 -428q2 -4 4 -6l43 -139l41 137l4 8l277 422q4 6 10 10l137 72q12 8 25 2l141 -65q8 -4 14 -13l68 -133q6 -12 0 -24l-64 -148q-2 -6 -6 -8l-442 -504v-372v-9l-39 -137 q-2 -12 -14 -18l-140 -70q-12 -6 -26 0l-140 70q-10 6 -14 20l-35 139v7l-2 374l-444 500q-2 2 -4 6zM190 1227l62 -123l450 -504q6 -8 7 -20l2 -381l30 -123l115 -58l115 58l33 121v378q0 12 8 21l446 508l58 131l-58 111l-119 55l-118 -62l-271 -413l-67 -215 q-4 -12 -17 -19q-10 -4 -22.5 1t-16.5 18l-67 215l-275 420l-116 59l-119 -59zM762 711q0 27 12 49t34.5 34.5t47.5 12.5q41 0 68.5 -27.5t27.5 -68.5q0 -25 -12 -47.5t-34.5 -35t-49.5 -12.5q-39 0 -66.5 28t-27.5 67zM883 709z" />
<glyph unicode="z" d="M127 1339v70q0 8 4 15.5t10 10.5t15 3h1319q18 0 26 -15l72 -137q6 -12 2 -24l-57 -144q-2 -6 -7 -10l-708 -762q-2 -4 -4 -6l-74 -49l121 31h6l483 2q8 0 13 -5l143 -67q10 -4 14 -14l70 -140q2 -6 2 -12v-70q0 -12 -9 -20t-20 -8h-1317q-16 0 -24 14l-76 141 q-8 12 -2 27l70 137q2 4 4 6l698 768l4 4l72 48l-119 -29q-2 -2 -6 -2h-485q-8 0 -13 2l-141 72q-10 4 -14 12l-70 139q-2 6 -2 12zM184 1348l62 -125l127 -64h475l276 70q16 4 29 -10q8 -10 6 -22.5t-12 -18.5l-207 -138l-692 -761l-60 -121l62 -113h1270v35l-62 125 l-129 61l-473 -2l-276 -67q-18 -4 -29 10q-8 10 -6 22.5t12 20.5l207 137l702 756l50 129l-58 108h-1274v-32zM504 260q0 39 28.5 67.5t68.5 28.5t67.5 -28.5t27.5 -67.5t-27.5 -67.5t-67.5 -28.5t-68.5 28.5t-28.5 67.5zM997 1184q0 39 28 67.5t68 28.5t67.5 -28.5 t27.5 -67.5q0 -27 -12.5 -48.5t-35 -35t-46.5 -13.5q-41 0 -69 29t-28 68z" />
<glyph unicode="{" d="M506 718.5q0 14.5 10 20.5l162 125l-127 260q-6 10 -2 21l74 209q4 12 20 18l129 66q6 4 12 4h277q10 0 18 -8.5t11 -20.5l2 -70q0 -6 -2 -14l-70 -137q-4 -8 -12 -12l-115 -58l127 -221q2 -2 2 -4l33 -102q6 -20 -11 -33l-69 -45l72 -49q20 -12 12 -33l-41 -107v-4 l-125 -215l113 -55q8 -4 14 -12l70 -140q2 -6 2 -14v-70q0 -12 -9.5 -20t-19.5 -8h-279q-8 0 -14 4l-139 74q-12 6 -15 16l-67 211q-2 10 2 20l127 254l-162 125q-10 10 -10 24.5zM582 717l149 -117q20 -14 8 -35l-131 -264l60 -188l123 -66h243v35l-61 125l-131 65 q-8 2 -12.5 9.5t-4.5 15.5t4 14l138 240l30 82l-90 59q-4 2 -6 6q-8 8 -6 21.5t12 19.5l86 60l-24 78l-140 243q-6 8 -3 20.5t16 18.5l131 68l61 123l-2 34h-241l-119 -61l-66 -184l133 -271q12 -23 -8 -37zM768 294q0 40 28.5 67.5t67.5 27.5t68 -27.5t29 -66.5 q0 -27 -13.5 -48.5t-35 -34.5t-48.5 -13q-39 0 -67.5 27.5t-28.5 67.5zM768 1142q0 40 28.5 67.5t67.5 27.5q27 0 48.5 -12.5t35 -34.5t13.5 -47q0 -41 -29 -68.5t-68 -27.5t-67.5 27.5t-28.5 67.5z" />
<glyph unicode="|" d="M725 -154v1774q0 12 8 20l98 99q4 2 9.5 4t10.5 3t11 -1t10 -6l99 -99q8 -8 8 -20v-1774q0 -12 -8 -20l-99 -98q-8 -8 -19 -8.5t-22 8.5l-98 98q-8 8 -8 20zM782 -141l70 -70l70 70v1749l-70 69l-70 -69v-1749z" />
<glyph unicode="}" d="M516 18q0 -12 9.5 -20t19.5 -8h278q8 0 15 4l141 74q10 6 12 16l68 211q2 10 -2 20l-127 254l162 125q12 10 11 24.5t-11 20.5l-162 125l127 260q6 10 2 21l-72 209q-6 12 -22 18l-127 66q-6 4 -15 4h-276q-6 0 -13.5 -4t-10.5 -10.5t-5 -14.5l-2 -70q0 -6 4 -14l68 -137 q4 -8 12 -12l115 -58l-127 -221q-2 -2 -2 -4l-33 -102q-6 -20 10 -33l70 -45l-72 -49q-20 -12 -12 -33l41 -107q0 -2 2 -4l123 -215l-113 -55q-8 -4 -12 -12l-70 -140q-4 -6 -4 -14v-70zM573 47v35l64 125l129 65q8 2 12 9.5t4 15.5t-4 14l-137 240l-29 82l88 59q4 2 7 6 q6 6 6 14.5t-3 15.5t-10 11l-86 60l25 78l139 243q6 8 3 20.5t-13 18.5l-133 68l-62 123l2 34h242l119 -61l65 -184l-133 -271q-10 -23 9 -37l149 -114l-149 -117q-20 -14 -9 -35l131 -264l-59 -188l-123 -66h-244zM647 294q0 -40 29 -67.5t67.5 -27.5t67.5 27.5t29 67.5 t-29 67.5t-67.5 27.5t-67.5 -27.5t-29 -67.5zM647 1142q0 -40 29 -67.5t67.5 -27.5t67.5 27.5t29 68.5q0 18 -8.5 36.5t-20.5 31t-29.5 19.5t-38.5 7q-39 0 -67.5 -27.5t-28.5 -67.5z" />
<glyph unicode="~" d="M336 1593l35 109q2 10 12 16l106 68q12 10 27 2l133 -66l479 68q6 2 11 0l141 -41q4 0 8 -4l70 -55q16 -12 10 -31l-31 -115q-4 -10 -12 -16l-108 -68q-14 -10 -29 -2l-131 66l-479 -68q-4 -2 -11 0l-139 33q-8 2 -14 8l-70 68q-14 12 -8 28zM395 1593l54 -49l126 -31 l482 68q10 2 18 -2l125 -61l84 53l25 86l-52 39l-127 37l-483 -68q-4 -2 -8 -1t-6 3l14 -2q-4 -2 -8 -1t-6 3h-2l-125 62l-84 -54z" />
<glyph unicode="&#xa1;" d="M647 -55l72 690q0 14 12 20l105 74q6 6 15 6t17 -6l105 -74q10 -6 12 -20l70 -692q0 -6 -2 -11l-39 -145q-4 -12 -15 -18l-135 -68q-12 -6 -26 0l-140 70q-10 6 -14 20l-35 143q-2 6 -2 11zM653 969q-6 12 0 24l70 140q8 16 27 16h208q16 0 25 -16l70 -140q4 -6 4 -12 t-4 -12l-70 -140q-8 -16 -25 -16h-208q-18 0 -27 16zM707 -55l30 -129l115 -58l109 56l34 129l-67 673l-76 56l-78 -56zM711 981l55 -111h174l55 111l-55 111h-174z" />
<glyph unicode="&#xa8;" d="M197 1591v70q0 18 16 27l139 69q6 2 13 2h278q6 0 12 -2l140 -69q16 -8 16 -27v-70q0 -16 -16 -24l-140 -70q-6 -4 -12 -4h-278q-6 0 -13 4l-139 70q-8 4 -12 10t-4 14zM254 1610l117 -60h266l117 60v35l-117 57h-203h-63l-117 -57v-35zM893 1591v70q0 18 16 27l140 69 q2 2 5 2h7h278q6 0 13 -2l139 -69q16 -8 16 -27v-70q0 -16 -16 -24l-139 -70q-6 -4 -13 -4h-278q-6 0 -12 4l-140 70q-16 8 -16 24zM950 1610l117 -60h266l117 60v35l-117 57h-266l-117 -57v-35z" />
<glyph unicode="&#xab;" d="M258 734q0 11 8 22l70 69l2 2l348 279q8 6 19 6h139q10 0 19 -8t9 -21v-139q0 -12 -10 -22l-209 -164q-4 -4 -10 -4l-47 -17l45 -12q6 -2 10 -6l211 -170q10 -8 10 -23v-139q0 -10 -8 -19.5t-20 -9.5q-11 1 -19 7l-118 -7q-12 0 -21 7l-348 278q0 2 -2 2l-70 70 q-8 8 -8 19zM328 735l47 -47l340 -270l100 4v92l-197 158l-131 37q-12 2 -17 14t-1 22q4 14 18 19l134 43l194 151v97h-100l-340 -271zM426 739q0 39 28.5 68t67.5 29t67.5 -29t28.5 -68q0 -27 -13 -48t-34.5 -34.5t-48.5 -13.5q-39 0 -67.5 28.5t-28.5 67.5zM816 734 q-1 11 7 22l70 69l2 2l348 279q8 6 19 6h139q10 0 19.5 -8t9.5 -21v-139q0 -6 -3.5 -12t-7.5 -10l-209 -162l-8 -4l-51 -17l43 -12q6 -2 10 -6l215 -172q10 -8 11 -23v-139q0 -10 -8.5 -19.5t-20.5 -9.5h-139q-10 0 -19 7l-348 278q0 2 -2 2l-70 70q-6 8 -7 19zM885 735 l47 -47l340 -272h100v98l-198 160l-130 35q-10 2 -16 13t-2 23t18 19l136 45l192 149v97h-100l-340 -271zM979 739q0 39 28.5 68t67.5 29q27 0 48.5 -13.5t34.5 -35t13 -48.5q0 -39 -28.5 -67.5t-67.5 -28.5t-67.5 28.5t-28.5 67.5z" />
<glyph unicode="&#xad;" d="M408 885q-6 12 0 24l69 140q4 8 11.5 12t15.5 4h696q18 0 27 -16l69 -140q6 -12 0 -24l-69 -140q-8 -16 -27 -16h-696q-18 0 -27 16zM467 897l55 -111h660l55 111l-55 111h-660z" />
<glyph unicode="&#xb0;" d="M616 1403q-6 14 0 27l70 139q6 8 14 12l140 70q6 4 12 4t12 -4l140 -70q8 -4 14 -12l69 -139q6 -12 0 -27l-69 -139q-6 -8 -14 -13l-140 -69q-12 -6 -24 0l-140 69q-8 4 -14 13zM676 1417l57 -119l119 -59l119 59l57 119l-57 117l-119 59l-119 -59z" />
<glyph unicode="&#xb4;" d="M197 1522v69q0 12 7 20.5t17 8.5l1184 139h4h70q8 0 15 -4t10 -11t3 -13v-70q0 -10 -7 -18.5t-17 -10.5l-1184 -139h-4h-70q-6 0 -11 3t-9 6t-6 8.5t-2 11.5zM254 1550h39l1157 138v14h-39l-1157 -135v-17z" />
<glyph unicode="&#xb5;" d="M127 709q-2 6 0 14l70 276q0 4 4 9l139 211l8 8l209 139l8 4l279 70q8 2 14 0h690q12 0 20.5 -9.5t8.5 -19.5v-70q0 -6 -2 -12l-68 -133q-4 -8 -12 -12l-143 -76q-6 -4 -13 -4h-139q-4 0 -10 2l-154 51l51 -151q2 -10 0 -19l-51 -158l154 52q4 2 8 2h139q18 0 27 -15 l70 -139q8 -14 0 -27l-70 -139q-6 -16 -25 -16h-139q-4 0 -8 2l-154 51l49 -156q4 -8 0 -16l-51 -154l152 50q4 2 8 2h143q6 0 13 -2l139 -70q8 -4 12 -14l72 -140q2 -6 2 -12v-68q0 -12 -9 -20t-20 -8l-696 -2h-8l-281 71q-4 2 -8 5l-209 135q-6 4 -8 8l-137 215q-4 4 -4 8 zM184 715l66 -264l133 -205l201 -129l272 -70l664 2v33l-62 125l-125 61h-131l-203 -65q-6 -4 -14 -2q-12 4 -18 15t-2 22l65 198l-63 199q-2 8 0 16q2 12 13 18.5t24 2.5l202 -68h115l55 111l-55 110h-119l-203 -67q-8 -2 -14 0q-12 2 -18 13t-2 24l65 200l-65 199 q-4 8 -2 16q4 12 15 18.5t21 2.5l205 -70h127l129 68l60 121v32h-668l-266 -67l-201 -133l-135 -201zM512 715v10l33 199q0 6 4 12l211 285q12 16 31 10l2 -2q27 -8 16 -35l-68 -205v-547l78 -213q4 -12 -2 -23t-18 -13q-14 -6 -27 6l-149 147q-4 4 -7 8l-67 138l-4 8z M569 719l33 -207l64 -129l55 -53l-35 96q-2 6 -2 10v557q0 6 2 11l12 36l-98 -133zM664 1165q0 39 28.5 68t68.5 29t67.5 -29t27.5 -68t-27.5 -67.5t-67.5 -28.5t-68.5 28.5t-28.5 67.5zM666 266q0 16 5 30.5t13 26t20.5 20.5t26.5 14t31 5q39 0 66.5 -28.5t27.5 -67.5 t-27.5 -67.5t-67.5 -28.5t-67.5 28.5t-27.5 67.5zM920 817q0 27 13 48.5t34.5 34.5t48.5 13q39 0 67.5 -28.5t28.5 -67.5t-28.5 -67.5t-67.5 -28.5t-67.5 28.5t-28.5 67.5zM922 1165q0 39 28.5 68t68.5 29t67.5 -29t27.5 -68t-27.5 -67.5t-67.5 -28.5t-68.5 28.5t-28.5 67.5 zM924 266q0 16 5 30.5t13 26t20.5 20.5t27 14t30.5 5q39 0 66.5 -28.5t27.5 -67.5q0 -27 -12 -48t-35 -34.5t-47 -13.5q-41 0 -68.5 28.5t-27.5 67.5zM924 610q0 27 13 48.5t34.5 35t48.5 13.5q39 0 66.5 -29t27.5 -68t-27.5 -67.5t-67.5 -28.5t-67.5 28.5t-27.5 67.5z" />
<glyph unicode="&#xb7;" d="M649 712.5q0 6.5 2 12.5l70 139q8 16 27 17h208q18 0 27 -17l70 -139q6 -12 0 -25l-70 -139q-8 -16 -27 -16h-208q-18 0 -27 16l-70 139q-2 6 -2 12.5zM711 713l55 -111h172l55 111l-55 110h-172z" />
<glyph unicode="&#xbb;" d="M266 387v139q0 8 3 13.5t7 9.5l209 164q4 2 9 4l51 16l-43 12q-6 2 -10 5l-216 172q-10 10 -10 22v139q0 10 8.5 19.5t20.5 9.5h139q10 0 19 -6l348 -279l2 -2l69 -69q8 -6 8.5 -18.5t-8.5 -22.5l-69 -70q-2 0 -2 -2l-348 -278q-8 -6 -19 -7h-139q-10 0 -19.5 8.5 t-9.5 20.5zM324 416h100l340 272l47 47l-47 49l-340 271h-100v-97l198 -159l129 -35q12 -4 17.5 -15.5t1.5 -21.5q-4 -14 -19 -18l-135 -45l-192 -152v-96zM524 732.5q0 25.5 13.5 48t35 34.5t48.5 12q39 0 67.5 -27.5t28.5 -67.5t-29 -67.5t-67 -27.5q-27 0 -48.5 13.5 t-35 35t-13.5 47zM823 387v139q0 14 11 23l208 166q4 2 11 4l49 16l-47 13q-4 2 -11 4l-210 170q-10 10 -11 22v139q0 12 8.5 20.5t20.5 8.5q10 0 18 -6l119 6q12 2 21 -6l348 -279q2 0 2 -2l70 -69q8 -6 8 -18.5t-8 -22.5l-70 -70l-2 -2l-348 -278q-8 -6 -19 -7h-139 q-10 0 -19.5 8.5t-9.5 20.5zM881 416h100l340 272l47 47l-47 49l-338 271l-102 -6v-91l196 -157l131 -37q12 -4 17.5 -15.5t1.5 -23.5t-19 -16l-133 -43l-194 -154v-96zM1077 733q0 18 8.5 36.5t20.5 31t29.5 19.5t38.5 7q39 0 67.5 -27.5t28.5 -67.5t-29 -67.5t-67.5 -27.5 t-67.5 27.5t-29 68.5z" />
<glyph unicode="&#xbf;" d="M299 -27v99q0 4 2 8l70 211q2 8 8 14l248 205l94 137l8 8l107 68q16 12 32 0l101 -70q8 -4 10 -12l41 -109q2 -10 -2 -20l-39 -102q-4 -6 -10 -13l-262 -200l-2 -111l145 -115l145 117v125q0 16 17 25l137 69q12 6 25 0l141 -69q4 -2 8 -5.5t6 -7.5l70 -139q2 -6 2 -12 v-97q0 -10 -8 -20l-174 -182q-6 -6 -15 -8l-350 -70q-6 0 -10 2l-344 68q-8 2 -15 8l-178 178q-8 8 -8 20zM356 -14l164 -164l328 -66l336 64l159 170v78l-61 122l-121 60l-108 -55v-121q0 -14 -11 -23l-174 -139q-18 -14 -37 0l-174 139q-10 8 -10 23l2 137q0 14 10 22 l269 205l33 84l-31 90l-78 54l-86 -56l-94 -137q-4 -2 -6 -6l-244 -201l-66 -198v-82zM653 967q-6 12 0 24l70 139q8 16 27 17h208q16 0 25 -17l70 -139q6 -12 0 -24l-70 -140q-4 -8 -10 -12t-15 -4h-208q-18 0 -27 16zM709 979l55 -111h174l55 111l-55 111h-174zM756 -33 q0 25 12 47.5t34.5 34.5t47.5 12q41 0 68.5 -27.5t27.5 -67.5t-27.5 -67.5t-67.5 -27.5t-67.5 27.5t-27.5 68.5z" />
<glyph unicode="&#xc0;" d="M133 193q-8 12 0 26l488 922q8 16 24 16h418h2q6 0 12 -4t10 -10v-2l486 -920q8 -12 2 -24l-68 -140q-4 -8 -12 -14l-139 -74q-14 -6 -27 0l-139 70q-4 2 -8 6l-70 70q-8 8 -8 20v103l-244 -62q-6 -2 -12 0l-244 62v-103q0 -12 -8 -20l-68 -68l-8 -4l-141 -74 q-12 -6 -27 0l-135 72q-8 4 -12 10zM190 205l62 -119l115 -59l125 65l55 53v129v5q2 12 12 19t23 3l272 -68l272 68q2 0 4 2q12 0 21.5 -8t9.5 -21v-129l58 -57l122 -61l119 63l56 117l-469 893h-385zM197 1319q0 -10 7 -18.5t17 -10.5l1184 -139h4h70q8 0 14 4t10 11.5 t4 13.5v69q0 4 -1 9.5t-4 8.5t-6 5l-6 4t-7 2l-1184 139h-4h-70q-8 0 -15 -4t-10 -11t-3 -13v-70zM254 1346v14h39l1157 -135v-17h-39zM479 272q0 18 7.5 37t20.5 31t30.5 19.5t37.5 7.5q39 0 67 -28t28 -68t-28 -67.5t-67 -27.5q-27 0 -49 13.5t-34.5 34.5t-12.5 48z M594 463q0 39 27.5 67.5t67.5 28.5t67.5 -28.5t27.5 -67.5t-27.5 -67.5t-67.5 -28.5t-67.5 28.5t-27.5 67.5zM618 399v4q-4 13 0 23l140 276l67 293q4 16 21 21q10 4 21.5 -2t15.5 -19l67 -293l140 -276q4 -10 2 -20q-4 -12 -15.5 -18.5t-21.5 -2.5l-201 68l-201 -68 q-27 -8 -35 14zM702 463l144 47q8 2 16 0l144 -47l-109 215q0 4 -2 6l-41 186l-41 -186q-2 -2 -2 -6zM756 917.5q0 38.5 27.5 67.5t68.5 29q25 0 47.5 -13.5t34.5 -35t12 -47.5q0 -39 -27.5 -68t-67.5 -29t-67.5 29t-27.5 67.5zM920 463q0 39 27.5 67.5t67.5 28.5 t67.5 -28.5t27.5 -67.5q0 -27 -12.5 -48.5t-35 -34.5t-46.5 -13q-41 0 -68.5 28.5t-27.5 67.5zM1047 265q0 40 27.5 67.5t67.5 27.5t67.5 -27.5t27.5 -67.5t-27.5 -67.5t-67.5 -27.5t-67.5 27.5t-27.5 67.5z" />
<glyph unicode="&#xc1;" d="M133 193q-8 12 0 26l488 922q8 16 24 16h418h2q6 0 12 -4t10 -10v-2l486 -920q8 -12 2 -24l-68 -140q-4 -8 -12 -14l-139 -74q-14 -6 -27 0l-139 70q-4 2 -8 6l-70 70q-8 8 -8 20v103l-244 -62q-6 -2 -12 0l-244 62v-103q0 -12 -8 -20l-68 -68l-8 -4l-141 -74 q-12 -6 -27 0l-135 72q-8 4 -12 10zM190 205l62 -119l115 -59l125 65l55 53v129v5q2 12 12 19t23 3l272 -68l272 68q2 0 4 2q12 0 21.5 -8t9.5 -21v-129l58 -57l122 -61l119 63l56 117l-469 893h-385zM197 1180v69q0 4 1 9.5t4 8.5t6 5l6 4t7 2l1184 139h4h70q8 0 15 -4 t10 -11t3 -13v-70q0 -10 -7 -18.5t-17 -10.5l-1184 -139h-4h-70q-6 0 -11 3t-9 6t-6 8.5t-2 11.5zM254 1208h39l1157 138v14h-39l-1157 -135v-17zM479 272q0 18 7.5 37t20.5 31t30.5 19.5t37.5 7.5q39 0 67 -28t28 -68t-28 -67.5t-67 -27.5q-27 0 -49 13.5t-34.5 34.5 t-12.5 48zM594 463q0 39 27.5 67.5t67.5 28.5t67.5 -28.5t27.5 -67.5t-27.5 -67.5t-67.5 -28.5t-67.5 28.5t-27.5 67.5zM618 399v4q-4 13 0 23l140 276l67 293q4 16 21 21q10 4 21.5 -2t15.5 -19l67 -293l140 -276q4 -10 2 -20q-4 -12 -15.5 -18.5t-21.5 -2.5l-201 68 l-201 -68q-27 -8 -35 14zM702 463l144 47q8 2 16 0l144 -47l-109 215q0 4 -2 6l-41 186l-41 -186q-2 -2 -2 -6zM756 917.5q0 38.5 27.5 67.5t68.5 29q25 0 47.5 -13.5t34.5 -35t12 -47.5q0 -39 -27.5 -68t-67.5 -29t-67.5 29t-27.5 67.5zM920 463q0 39 27.5 67.5t67.5 28.5 t67.5 -28.5t27.5 -67.5q0 -27 -12.5 -48.5t-35 -34.5t-46.5 -13q-41 0 -68.5 28.5t-27.5 67.5zM1047 265q0 40 27.5 67.5t67.5 27.5t67.5 -27.5t27.5 -67.5t-27.5 -67.5t-67.5 -27.5t-67.5 27.5t-27.5 67.5z" />
<glyph unicode="&#xc2;" d="M133 193q-8 12 0 26l488 922q8 16 24 16h418h2q6 0 12 -4t10 -10v-2l486 -920q8 -12 2 -24l-68 -140q-4 -8 -12 -14l-139 -74q-14 -6 -27 0l-139 70q-4 2 -8 6l-70 70q-8 8 -8 20v103l-244 -62q-6 -2 -12 0l-244 62v-103q0 -12 -8 -20l-68 -68l-8 -4l-141 -74 q-12 -6 -27 0l-135 72q-8 4 -12 10zM190 205l62 -119l115 -59l125 65l55 53v129v5q2 12 12 19t23 3l272 -68l272 68q2 0 4 2q12 0 21.5 -8t9.5 -21v-129l58 -57l122 -61l119 63l56 117l-469 893h-385zM197 1184v69q0 9 4 17q6 10 18 12l627 139q6 2 12 0l627 -139 q23 -4 22 -29v-69q0 -10 -8 -19.5t-20 -9.5h-70q-2 0 -4 2l-553 103l-553 -103q-2 -2 -4 -2h-70q-10 0 -19 8t-9 21zM254 1212h39l553 105q6 2 12 0l553 -105h39v19l-598 133l-598 -133v-19zM479 272q0 18 7.5 37t20.5 31t30.5 19.5t37.5 7.5q39 0 67 -28t28 -68t-28 -67.5 t-67 -27.5q-27 0 -49 13.5t-34.5 34.5t-12.5 48zM594 463q0 39 27.5 67.5t67.5 28.5t67.5 -28.5t27.5 -67.5t-27.5 -67.5t-67.5 -28.5t-67.5 28.5t-27.5 67.5zM618 399v4q-4 13 0 23l140 276l67 293q4 16 21 21q10 4 21.5 -2t15.5 -19l67 -293l140 -276q4 -10 2 -20 q-4 -12 -15.5 -18.5t-21.5 -2.5l-201 68l-201 -68q-27 -8 -35 14zM702 463l144 47q8 2 16 0l144 -47l-109 215q0 4 -2 6l-41 186l-41 -186q-2 -2 -2 -6zM756 917.5q0 38.5 27.5 67.5t68.5 29q25 0 47.5 -13.5t34.5 -35t12 -47.5q0 -39 -27.5 -68t-67.5 -29t-67.5 29 t-27.5 67.5zM920 463q0 39 27.5 67.5t67.5 28.5t67.5 -28.5t27.5 -67.5q0 -27 -12.5 -48.5t-35 -34.5t-46.5 -13q-41 0 -68.5 28.5t-27.5 67.5zM1047 265q0 40 27.5 67.5t67.5 27.5t67.5 -27.5t27.5 -67.5t-27.5 -67.5t-67.5 -27.5t-67.5 27.5t-27.5 67.5z" />
<glyph unicode="&#xc3;" d="M133 193q-8 12 0 26l488 922q8 16 24 16h418h2q6 0 12 -4t10 -10v-2l486 -920q8 -12 2 -24l-68 -140q-4 -8 -12 -14l-139 -74q-14 -6 -27 0l-139 70q-4 2 -8 6l-70 70q-8 8 -8 20v103l-244 -62q-6 -2 -12 0l-244 62v-103q0 -12 -8 -20l-68 -68l-8 -4l-141 -74 q-12 -6 -27 0l-135 72q-8 4 -12 10zM190 205l62 -119l115 -59l125 65l55 53v129v5q2 12 12 19t23 3l272 -68l272 68q2 0 4 2q12 0 21.5 -8t9.5 -21v-129l58 -57l122 -61l119 63l56 117l-469 893h-385zM336 1264l35 108q2 10 12 17l106 67q12 10 27 2l133 -65l479 67 q6 2 11 0l141 -41q4 0 8 -4l70 -55q16 -12 10 -31l-31 -115q-4 -10 -12 -16l-108 -68q-14 -10 -29 -2l-131 66l-479 -68q-4 -2 -11 0l-139 33q-8 2 -14 8l-70 68q-14 12 -8 29zM395 1264l54 -50l126 -30l482 67q10 2 18 -2l125 -61l84 53l25 86l-52 39l-127 37l-483 -68 q-4 -2 -8 -1t-6 3l14 -2q-4 -2 -8 -1t-6 3h-2l-125 62l-84 -53zM479 272q0 18 7.5 37t20.5 31t30.5 19.5t37.5 7.5q39 0 67 -28t28 -68t-28 -67.5t-67 -27.5q-27 0 -49 13.5t-34.5 34.5t-12.5 48zM594 463q0 39 27.5 67.5t67.5 28.5t67.5 -28.5t27.5 -67.5t-27.5 -67.5 t-67.5 -28.5t-67.5 28.5t-27.5 67.5zM618 399v4q-4 13 0 23l140 276l67 293q4 16 21 21q10 4 21.5 -2t15.5 -19l67 -293l140 -276q4 -10 2 -20q-4 -12 -15.5 -18.5t-21.5 -2.5l-201 68l-201 -68q-27 -8 -35 14zM702 463l144 47q8 2 16 0l144 -47l-109 215q0 4 -2 6l-41 186 l-41 -186q-2 -2 -2 -6zM756 917.5q0 38.5 27.5 67.5t68.5 29q25 0 47.5 -13.5t34.5 -35t12 -47.5q0 -39 -27.5 -68t-67.5 -29t-67.5 29t-27.5 67.5zM920 463q0 39 27.5 67.5t67.5 28.5t67.5 -28.5t27.5 -67.5q0 -27 -12.5 -48.5t-35 -34.5t-46.5 -13q-41 0 -68.5 28.5 t-27.5 67.5zM1047 265q0 40 27.5 67.5t67.5 27.5t67.5 -27.5t27.5 -67.5t-27.5 -67.5t-67.5 -27.5t-67.5 27.5t-27.5 67.5z" />
<glyph unicode="&#xc4;" d="M133 193q-8 12 0 26l488 922q8 16 24 16h418h2q6 0 12 -4t10 -10v-2l486 -920q8 -12 2 -24l-68 -140q-4 -8 -12 -14l-139 -74q-14 -6 -27 0l-139 70q-4 2 -8 6l-70 70q-8 8 -8 20v103l-244 -62q-6 -2 -12 0l-244 62v-103q0 -12 -8 -20l-68 -68l-8 -4l-141 -74 q-12 -6 -27 0l-135 72q-8 4 -12 10zM190 205l62 -119l115 -59l125 65l55 53v129v5q2 12 12 19t23 3l272 -68l272 68q2 0 4 2q12 0 21.5 -8t9.5 -21v-129l58 -57l122 -61l119 63l56 117l-469 893h-385zM197 1249v70q0 18 16 27l139 69q6 2 13 2h278q6 0 12 -2l140 -69 q16 -8 16 -27v-70q0 -16 -16 -24l-140 -70q-6 -4 -12 -4h-278q-6 0 -13 4l-139 70q-8 4 -12 10t-4 14zM254 1268l117 -60h266l117 60v35l-117 57h-203h-63l-117 -57v-35zM479 272q0 18 7.5 37t20.5 31t30.5 19.5t37.5 7.5q39 0 67 -28t28 -68t-28 -67.5t-67 -27.5 q-27 0 -49 13.5t-34.5 34.5t-12.5 48zM594 463q0 39 27.5 67.5t67.5 28.5t67.5 -28.5t27.5 -67.5t-27.5 -67.5t-67.5 -28.5t-67.5 28.5t-27.5 67.5zM618 399v4q-4 13 0 23l140 276l67 293q4 16 21 21q10 4 21.5 -2t15.5 -19l67 -293l140 -276q4 -10 2 -20 q-4 -12 -15.5 -18.5t-21.5 -2.5l-201 68l-201 -68q-27 -8 -35 14zM702 463l144 47q8 2 16 0l144 -47l-109 215q0 4 -2 6l-41 186l-41 -186q-2 -2 -2 -6zM756 917.5q0 38.5 27.5 67.5t68.5 29q25 0 47.5 -13.5t34.5 -35t12 -47.5q0 -39 -27.5 -68t-67.5 -29t-67.5 29 t-27.5 67.5zM893 1249v70q0 18 16 27l140 69q2 2 5 2h7h278q6 0 13 -2l139 -69q16 -8 16 -27v-70q0 -16 -16 -24l-139 -70q-6 -4 -13 -4h-278q-6 0 -12 4l-140 70q-16 8 -16 24zM920 463q0 39 27.5 67.5t67.5 28.5t67.5 -28.5t27.5 -67.5q0 -27 -12.5 -48.5t-35 -34.5 t-46.5 -13q-41 0 -68.5 28.5t-27.5 67.5zM950 1268l117 -60h266l117 60v35l-117 57h-266l-117 -57v-35zM1047 265q0 40 27.5 67.5t67.5 27.5t67.5 -27.5t27.5 -67.5t-27.5 -67.5t-67.5 -27.5t-67.5 27.5t-27.5 67.5z" />
<glyph unicode="&#xc5;" d="M133 193q-8 12 0 26l488 922q8 16 24 16h418h2q6 0 12 -4t10 -10v-2l486 -920q8 -12 2 -24l-68 -140q-4 -8 -12 -14l-139 -74q-14 -6 -27 0l-139 70q-4 2 -8 6l-70 70q-8 8 -8 20v103l-244 -62q-6 -2 -12 0l-244 62v-103q0 -12 -8 -20l-68 -68l-8 -4l-141 -74 q-12 -6 -27 0l-135 72q-8 4 -12 10zM190 205l62 -119l115 -59l125 65l55 53v129v5q2 12 12 19t23 3l272 -68l272 68q2 0 4 2q12 0 21.5 -8t9.5 -21v-129l58 -57l122 -61l119 63l56 117l-469 893h-385zM479 272q0 18 7.5 37t20.5 31t30.5 19.5t37.5 7.5q39 0 67 -28t28 -68 t-28 -67.5t-67 -27.5q-27 0 -49 13.5t-34.5 34.5t-12.5 48zM545 1249v70q0 18 16 27l139 69q6 2 13 2h278q6 0 13 -2l139 -69q16 -8 16 -27v-70q0 -16 -16 -24l-139 -70q-6 -4 -13 -4h-278q-6 0 -13 4l-139 70q-8 4 -12 10t-4 14zM594 463q0 39 27.5 67.5t67.5 28.5 t67.5 -28.5t27.5 -67.5t-27.5 -67.5t-67.5 -28.5t-67.5 28.5t-27.5 67.5zM602 1268l117 -60h266l117 60v35l-117 57h-203h-63l-117 -57v-35zM618 399v4q-4 13 0 23l140 276l67 293q4 16 21 21q10 4 21.5 -2t15.5 -19l67 -293l140 -276q4 -10 2 -20q-4 -12 -15.5 -18.5 t-21.5 -2.5l-201 68l-201 -68q-27 -8 -35 14zM702 463l144 47q8 2 16 0l144 -47l-109 215q0 4 -2 6l-41 186l-41 -186q-2 -2 -2 -6zM756 917.5q0 38.5 27.5 67.5t68.5 29q25 0 47.5 -13.5t34.5 -35t12 -47.5q0 -39 -27.5 -68t-67.5 -29t-67.5 29t-27.5 67.5zM920 463 q0 39 27.5 67.5t67.5 28.5t67.5 -28.5t27.5 -67.5q0 -27 -12.5 -48.5t-35 -34.5t-46.5 -13q-41 0 -68.5 28.5t-27.5 67.5zM1047 265q0 40 27.5 67.5t67.5 27.5t67.5 -27.5t27.5 -67.5t-27.5 -67.5t-67.5 -27.5t-67.5 27.5t-27.5 67.5z" />
<glyph unicode="&#xc6;" d="M129 203q-6 12 0 24l557 1196q2 6 9 11.5t16 5.5l837 2q10 0 19.5 -8.5t9.5 -18.5v-69q0 -8 -2 -15l-70 -137q-4 -8 -12 -12l-141 -72q-6 -4 -13 -4h-69q-4 0 -8 2l-156 51l51 -153q4 -10 0 -19l-51 -153l149 49q4 2 11 2h73q18 0 27 -17l70 -139q6 -12 0 -24l-70 -140 q-8 -16 -27 -16h-67q-4 0 -8 2l-158 51l51 -153q4 -10 0 -19l-51 -156l151 52q6 2 11 2h71q6 0 13 -2l137 -70q10 -4 14 -12l72 -142q2 -6 2 -12v-70q0 -6 -4 -13t-10.5 -11t-14.5 -4h-766q-12 0 -20 9t-8 19v459h-90l-132 -409q-4 -10 -14 -17l-139 -71q-12 -6 -27 0 l-135 65q-8 4 -12 12zM186 215l64 -121l115 -55l116 61l135 418q6 18 27 19h139q10 0 19.5 -8.5t9.5 -20.5v-459h709v35l-64 125l-123 61h-61l-203 -67q-6 -2 -14 0q-12 2 -18.5 13t-2.5 24l66 198l-66 201q-4 8 -2 16q4 10 15.5 16.5t21.5 2.5l207 -68h45l55 111l-55 110 h-51l-199 -67q-8 -2 -16 0q-12 2 -18.5 13t-2.5 24l66 198l-66 201q-4 8 -2 16q4 12 15.5 18.5t21.5 2.5l205 -70h59l125 66l62 123v32l-791 -2zM616 729l70 139l70 207q4 10 15 16.5t22 0.5q18 -6 18 -27v-348q0 -12 -9 -20.5t-20 -8.5h-139h-2q-6 0 -12 4q-2 0 -4 2 q-20 10 -9 35zM690 745h64v144l-15 -41q0 -2 -2 -4zM985 817q0 39 28.5 67.5t67.5 28.5q27 0 48.5 -13t35 -34.5t13.5 -48.5q0 -39 -29 -67.5t-68 -28.5t-67.5 28.5t-28.5 67.5zM987 1165q0 39 28.5 68t68.5 29t68 -29t28 -68t-28 -67.5t-68 -28.5t-68.5 28.5t-28.5 67.5z M989 266q0 20 7.5 38t20.5 30t30.5 20t37.5 8q39 0 67 -28.5t28 -67.5q0 -27 -12.5 -48t-35 -34.5t-47.5 -13.5q-41 0 -68.5 28.5t-27.5 67.5zM989 610q0 27 13.5 48.5t35 35t47.5 13.5q39 0 67 -29t28 -68t-28 -67.5t-68 -28.5t-67.5 28.5t-27.5 67.5z" />
<glyph unicode="&#xc7;" d="M129 696q-2 8 0 15l68 276q0 6 2 10l141 215q4 4 8 9l205 149q4 4 10 4l303 70q6 2 13 0l286 -62q4 -2 9 -4l241 -153q8 -4 12 -11l144 -276q4 -10 0 -22.5t-15 -16.5l-165 -78q-12 -4 -23 0l-176 68q-6 4 -10 8l-135 147l-164 66l-181 -59l-124 -209l-5 -273l119 -202 l199 -66l151 61l134 154q4 4 10 6l172 72q10 4 22 0l179 -68q12 -4 16 -17t-2 -22l-137 -276q-4 -8 -13 -12l-264 -166h-2l-2 -2l-174 -60l37 -108q4 -10 -2 -21l-68 -143q-4 -8 -14 -12l-139 -70q-12 -6 -25 0l-139 70q-8 4 -15 12l-69 139q-4 12 1 24.5t17 16.5l189 64v32 l-154 60q-2 0 -4 2l-248 172q-4 2 -8 8l-135 193q-4 4 -6 10zM186 705l68 -267l129 -184l242 -166l168 -68q18 -6 18 -26v-72q0 -23 -20 -28l-177 -60l50 -100l118 -60l119 60l60 123l-41 123q-4 10 1 20t15 14l199 70l254 160l118 239l-137 54l-158 -66l-135 -154 q-2 -4 -8 -6l-168 -67q-8 -4 -18 0l-217 71q-10 4 -15 13l-129 217q-6 8 -6 16l4 291q0 8 4 14l138 224q4 8 14 12l198 65q10 4 21 0l178 -71q6 -2 10 -6l136 -148l157 -63l129 59l-125 242l-231 147l-277 59l-290 -67l-197 -143l-135 -207zM664 -26q0 40 28.5 68t67.5 28 t67.5 -28t28.5 -69q0 -25 -13.5 -47t-35 -34.5t-47.5 -12.5q-39 0 -67.5 27.5t-28.5 67.5zM788 1157q0 27 13.5 49.5t35 34.5t48.5 12q39 0 67.5 -27.5t28.5 -67.5t-28.5 -67.5t-67.5 -27.5t-68 27.5t-29 66.5zM793 287q0 27 13 49t34.5 34.5t48.5 12.5q39 0 67.5 -27.5 t28.5 -67.5t-28.5 -67.5t-67.5 -27.5t-67.5 27.5t-28.5 66.5zM870 -26q0 40 29 68t68 28t67.5 -28t28.5 -69q0 -25 -13.5 -47t-35 -34.5t-47.5 -12.5q-39 0 -68 27.5t-29 67.5z" />
<glyph unicode="&#xc8;" d="M127 4v1114q0 12 8 20.5t21 8.5l1392 2q12 0 20.5 -9.5t8.5 -19.5v-69q0 -8 -2 -15l-70 -139q-4 -8 -14 -12l-139 -70q-6 -2 -13 -2l-694 4h-10l-146 45l39 -78q8 -12 0 -26l-36 -76l143 47q4 2 8 2h487q18 0 27 -16l70 -140q6 -12 0 -26l-70 -139q-8 -16 -27 -17h-487 q-4 0 -8 2l-143 49l36 -77q8 -14 0 -27l-36 -78l143 49h8h696q6 0 13 -2l137 -67q8 -4 12 -13l74 -141q2 -6 2 -14v-66q0 -12 -8 -20t-21 -8l-1392 -5q-12 0 -20.5 9.5t-8.5 19.5zM184 33l1336 4v31l-66 127l-123 59h-684l-205 -68q-10 -2 -18 0q-12 6 -16.5 17.5t0.5 23.5 l63 125l-63 127q-4 10 -2 21q4 12 15 18t21 2l205 -69h465l55 112l-55 111h-465l-205 -70q-10 -2 -18 2q-12 4 -16.5 15.5t0.5 23.5l63 127l-63 125q-4 10 -2 21q4 12 14 18t22 2l207 -64l684 -4l125 62l62 125v35l-1336 -2v-1057zM201 1323q0 -10 8 -18.5t16 -10.5 l1186 -139h2h70q12 0 20 9.5t8 19.5v69q0 12 -7 20.5t-17 8.5l-1184 139h-4h-70q-8 0 -15 -4t-10 -11t-3 -13v-70zM258 1350v14h39l1157 -135v-17h-39zM373 672q0 39 28.5 67.5t67.5 28.5q27 0 48.5 -13.5t34.5 -35t13 -47.5q0 -39 -27.5 -68t-67.5 -29t-68.5 29t-28.5 68z M377 246q0 39 28.5 67.5t67.5 28.5t67.5 -28.5t28.5 -67.5t-28.5 -67.5t-67.5 -28.5t-67.5 28.5t-28.5 67.5zM377 459q0 27 13 48t34.5 34.5t48.5 13.5q39 0 67.5 -28.5t28.5 -67.5t-28.5 -68t-67.5 -29t-67.5 29t-28.5 68zM377 883q0 39 27.5 67.5t66.5 28.5 q27 0 49.5 -13.5t34.5 -35t12 -47.5q0 -39 -27.5 -68t-67.5 -29t-67.5 29t-27.5 68z" />
<glyph unicode="&#xc9;" d="M127 4v1114q0 12 8 20.5t21 8.5l1392 2q12 0 20.5 -9.5t8.5 -19.5v-69q0 -8 -2 -15l-70 -139q-4 -8 -14 -12l-139 -70q-6 -2 -13 -2l-694 4h-10l-146 45l39 -78q8 -12 0 -26l-36 -76l143 47q4 2 8 2h487q18 0 27 -16l70 -140q6 -12 0 -26l-70 -139q-8 -16 -27 -17h-487 q-4 0 -8 2l-143 49l36 -77q8 -14 0 -27l-36 -78l143 49h8h696q6 0 13 -2l137 -67q8 -4 12 -13l74 -141q2 -6 2 -14v-66q0 -12 -8 -20t-21 -8l-1392 -5q-12 0 -20.5 9.5t-8.5 19.5zM184 33l1336 4v31l-66 127l-123 59h-684l-205 -68q-10 -2 -18 0q-12 6 -16.5 17.5t0.5 23.5 l63 125l-63 127q-4 10 -2 21q4 12 15 18t21 2l205 -69h465l55 112l-55 111h-465l-205 -70q-10 -2 -18 2q-12 4 -16.5 15.5t0.5 23.5l63 127l-63 125q-4 10 -2 21q4 12 14 18t22 2l207 -64l684 -4l125 62l62 125v35l-1336 -2v-1057zM197 1180v69q0 4 1 9.5t4 8.5t6 5l6 4t7 2 l1184 139h4h70q8 0 15 -4t10 -11t3 -13v-70q0 -10 -7 -18.5t-17 -10.5l-1184 -139h-4h-70q-6 0 -11 3t-9 6t-6 8.5t-2 11.5zM254 1208h39l1157 138v14h-39l-1157 -135v-17zM373 672q0 39 28.5 67.5t67.5 28.5q27 0 48.5 -13.5t34.5 -35t13 -47.5q0 -39 -27.5 -68t-67.5 -29 t-68.5 29t-28.5 68zM377 246q0 39 28.5 67.5t67.5 28.5t67.5 -28.5t28.5 -67.5t-28.5 -67.5t-67.5 -28.5t-67.5 28.5t-28.5 67.5zM377 459q0 27 13 48t34.5 34.5t48.5 13.5q39 0 67.5 -28.5t28.5 -67.5t-28.5 -68t-67.5 -29t-67.5 29t-28.5 68zM377 883q0 39 27.5 67.5 t66.5 28.5q27 0 49.5 -13.5t34.5 -35t12 -47.5q0 -39 -27.5 -68t-67.5 -29t-67.5 29t-27.5 68z" />
<glyph unicode="&#xca;" d="M127 4v1114q0 12 8 20.5t21 8.5l1392 2q12 0 20.5 -9.5t8.5 -19.5v-69q0 -8 -2 -15l-70 -139q-4 -8 -14 -12l-139 -70q-6 -2 -13 -2l-694 4h-10l-146 45l39 -78q8 -12 0 -26l-36 -76l143 47q4 2 8 2h487q18 0 27 -16l70 -140q6 -12 0 -26l-70 -139q-8 -16 -27 -17h-487 q-4 0 -8 2l-143 49l36 -77q8 -14 0 -27l-36 -78l143 49h8h696q6 0 13 -2l137 -67q8 -4 12 -13l74 -141q2 -6 2 -14v-66q0 -12 -8 -20t-21 -8l-1392 -5q-12 0 -20.5 9.5t-8.5 19.5zM184 33l1336 4v31l-66 127l-123 59h-684l-205 -68q-10 -2 -18 0q-12 6 -16.5 17.5t0.5 23.5 l63 125l-63 127q-4 10 -2 21q4 12 15 18t21 2l205 -69h465l55 112l-55 111h-465l-205 -70q-10 -2 -18 2q-12 4 -16.5 15.5t0.5 23.5l63 127l-63 125q-4 10 -2 21q4 12 14 18t22 2l207 -64l684 -4l125 62l62 125v35l-1336 -2v-1057zM197 1184v69q0 9 4 17q6 10 18 12l627 139 q6 2 12 0l627 -139q23 -4 22 -29v-69q0 -10 -8 -19.5t-20 -9.5h-70q-2 0 -4 2l-553 103l-553 -103q-2 -2 -4 -2h-70q-10 0 -19 8t-9 21zM254 1212h39l553 105q6 2 12 0l553 -105h39v19l-598 133l-598 -133v-19zM373 672q0 39 28.5 67.5t67.5 28.5q27 0 48.5 -13.5t34.5 -35 t13 -47.5q0 -39 -27.5 -68t-67.5 -29t-68.5 29t-28.5 68zM377 246q0 39 28.5 67.5t67.5 28.5t67.5 -28.5t28.5 -67.5t-28.5 -67.5t-67.5 -28.5t-67.5 28.5t-28.5 67.5zM377 459q0 27 13 48t34.5 34.5t48.5 13.5q39 0 67.5 -28.5t28.5 -67.5t-28.5 -68t-67.5 -29t-67.5 29 t-28.5 68zM377 883q0 39 27.5 67.5t66.5 28.5q27 0 49.5 -13.5t34.5 -35t12 -47.5q0 -39 -27.5 -68t-67.5 -29t-67.5 29t-27.5 68z" />
<glyph unicode="&#xcb;" d="M127 4v1114q0 12 8 20.5t21 8.5l1392 2q12 0 20.5 -9.5t8.5 -19.5v-69q0 -8 -2 -15l-70 -139q-4 -8 -14 -12l-139 -70q-6 -2 -13 -2l-694 4h-10l-146 45l39 -78q8 -12 0 -26l-36 -76l143 47q4 2 8 2h487q18 0 27 -16l70 -140q6 -12 0 -26l-70 -139q-8 -16 -27 -17h-487 q-4 0 -8 2l-143 49l36 -77q8 -14 0 -27l-36 -78l143 49h8h696q6 0 13 -2l137 -67q8 -4 12 -13l74 -141q2 -6 2 -14v-66q0 -12 -8 -20t-21 -8l-1392 -5q-12 0 -20.5 9.5t-8.5 19.5zM184 33l1336 4v31l-66 127l-123 59h-684l-205 -68q-10 -2 -18 0q-12 6 -16.5 17.5t0.5 23.5 l63 125l-63 127q-4 10 -2 21q4 12 15 18t21 2l205 -69h465l55 112l-55 111h-465l-205 -70q-10 -2 -18 2q-12 4 -16.5 15.5t0.5 23.5l63 127l-63 125q-4 10 -2 21q4 12 14 18t22 2l207 -64l684 -4l125 62l62 125v35l-1336 -2v-1057zM197 1249v70q0 18 16 27l139 69q6 2 13 2 h278q6 0 12 -2l140 -69q16 -8 16 -27v-70q0 -16 -16 -24l-140 -70q-6 -4 -12 -4h-278q-6 0 -13 4l-139 70q-8 4 -12 10t-4 14zM254 1268l117 -60h266l117 60v35l-117 57h-203h-63l-117 -57v-35zM373 672q0 39 28.5 67.5t67.5 28.5q27 0 48.5 -13.5t34.5 -35t13 -47.5 q0 -39 -27.5 -68t-67.5 -29t-68.5 29t-28.5 68zM377 246q0 39 28.5 67.5t67.5 28.5t67.5 -28.5t28.5 -67.5t-28.5 -67.5t-67.5 -28.5t-67.5 28.5t-28.5 67.5zM377 459q0 27 13 48t34.5 34.5t48.5 13.5q39 0 67.5 -28.5t28.5 -67.5t-28.5 -68t-67.5 -29t-67.5 29t-28.5 68z M377 883q0 39 27.5 67.5t66.5 28.5q27 0 49.5 -13.5t34.5 -35t12 -47.5q0 -39 -27.5 -68t-67.5 -29t-67.5 29t-27.5 68zM893 1249v70q0 18 16 27l140 69q2 2 5 2h7h278q6 0 13 -2l139 -69q16 -8 16 -27v-70q0 -16 -16 -24l-139 -70q-6 -4 -13 -4h-278q-6 0 -12 4l-140 70 q-16 8 -16 24zM950 1268l117 -60h266l117 60v35l-117 57h-266l-117 -57v-35z" />
<glyph unicode="&#xcc;" d="M127 18v70q0 6 2 12l70 140q4 10 14 14l141 68q6 2 13 2l170 2q4 0 8 -2l160 -52l-56 156q-2 4 -2 10l2 267q0 6 2 10l51 151l-153 -51q-4 -2 -10 -2l-172 2q-8 0 -13 2l-141 70q-10 4 -14 12l-70 139q-2 6 -2 13v67q0 23 23 29h6l1392 2q12 0 20.5 -9.5t8.5 -19.5v-69 q0 -6 -2 -13l-70 -139q-4 -8 -14 -12l-137 -68q-6 -2 -13 -2l-167 -2q-4 -2 -11 0l-162 51l56 -157q2 -4 2 -11v-264q0 -4 -2 -8l-53 -154l151 52q4 2 10 2h174q8 0 15 -2l137 -70q10 -6 14 -14l70 -140q2 -6 2 -12v-70q0 -12 -9 -20t-20 -8h-1392q-12 0 -20.5 9t-8.5 19z M184 47h1336v35l-62 125l-125 61h-164l-202 -67q-8 -4 -17 0q-12 2 -18 13t-2 24l71 202v254l-71 207q-4 8 -2 17q4 12 15 18t22 2l213 -66l157 2l123 60l62 125v33l-1336 -2v-31l62 -125l127 -62l162 -2l206 68q8 4 17 2q10 -4 16 -15.5t2 -23.5l-69 -201l-2 -258l73 -204 q2 -8 0 -17q-2 -12 -13 -18t-24 -2l-209 67l-159 -2l-127 -59l-62 -125v-35zM197 1329q0 -10 7 -18t17 -11l1184 -139h4h70q8 0 14 4t10 11.5t4 13.5v70q0 8 -3 14t-9 10t-12 4l-1184 139h-4h-70q-8 0 -15 -4t-10 -11t-3 -13v-70zM254 1356v14h39l1157 -135v-16h-39z M631 230q0 40 27.5 68t67.5 28t67.5 -28t27.5 -68t-27.5 -67.5t-67.5 -27.5t-67.5 27.5t-27.5 67.5zM631 900q0 40 27.5 67.5t67.5 27.5t67.5 -27.5t27.5 -67.5t-27.5 -67.5t-67.5 -27.5t-67.5 27.5t-27.5 67.5zM889 230q0 40 27.5 68t67.5 28t67.5 -28t27.5 -68 t-27.5 -67.5t-67.5 -27.5t-67.5 27.5t-27.5 67.5zM893 899q0 39 27.5 67.5t67.5 28.5t67.5 -28.5t27.5 -67.5t-27.5 -67.5t-66.5 -28.5q-20 0 -37.5 8t-31 20.5t-20.5 31t-7 36.5z" />
<glyph unicode="&#xcd;" d="M127 18v70q0 6 2 12l70 140q4 10 14 14l141 68q6 2 13 2l170 2q4 0 8 -2l160 -52l-56 156q-2 4 -2 10l2 267q0 6 2 10l51 151l-153 -51q-4 -2 -10 -2l-172 2q-8 0 -13 2l-141 70q-10 4 -14 12l-70 139q-2 6 -2 13v67q0 23 23 29h6l1392 2q12 0 20.5 -9.5t8.5 -19.5v-69 q0 -6 -2 -13l-70 -139q-4 -8 -14 -12l-137 -68q-6 -2 -13 -2l-167 -2q-4 -2 -11 0l-162 51l56 -157q2 -4 2 -11v-264q0 -4 -2 -8l-53 -154l151 52q4 2 10 2h174q8 0 15 -2l137 -70q10 -6 14 -14l70 -140q2 -6 2 -12v-70q0 -12 -9 -20t-20 -8h-1392q-12 0 -20.5 9t-8.5 19z M184 47h1336v35l-62 125l-125 61h-164l-202 -67q-8 -4 -17 0q-12 2 -18 13t-2 24l71 202v254l-71 207q-4 8 -2 17q4 12 15 18t22 2l213 -66l157 2l123 60l62 125v33l-1336 -2v-31l62 -125l127 -62l162 -2l206 68q8 4 17 2q10 -4 16 -15.5t2 -23.5l-69 -201l-2 -258l73 -204 q2 -8 0 -17q-2 -12 -13 -18t-24 -2l-209 67l-159 -2l-127 -59l-62 -125v-35zM197 1180v69q0 4 1 9.5t4 8.5t6 5l6 4t7 2l1184 139h4h70q8 0 15 -4t10 -11t3 -13v-70q0 -10 -7 -18.5t-17 -10.5l-1184 -139h-4h-70q-6 0 -11 3t-9 6t-6 8.5t-2 11.5zM254 1208h39l1157 138v14 h-39l-1157 -135v-17zM631 230q0 40 27.5 68t67.5 28t67.5 -28t27.5 -68t-27.5 -67.5t-67.5 -27.5t-67.5 27.5t-27.5 67.5zM631 900q0 40 27.5 67.5t67.5 27.5t67.5 -27.5t27.5 -67.5t-27.5 -67.5t-67.5 -27.5t-67.5 27.5t-27.5 67.5zM889 230q0 40 27.5 68t67.5 28t67.5 -28 t27.5 -68t-27.5 -67.5t-67.5 -27.5t-67.5 27.5t-27.5 67.5zM893 899q0 39 27.5 67.5t67.5 28.5t67.5 -28.5t27.5 -67.5t-27.5 -67.5t-66.5 -28.5q-20 0 -37.5 8t-31 20.5t-20.5 31t-7 36.5z" />
<glyph unicode="&#xce;" d="M127 18v70q0 6 2 12l70 140q4 10 14 14l141 68q6 2 13 2l170 2q4 0 8 -2l160 -52l-56 156q-2 4 -2 10l2 267q0 6 2 10l51 151l-153 -51q-4 -2 -10 -2l-172 2q-8 0 -13 2l-141 70q-10 4 -14 12l-70 139q-2 6 -2 13v67q0 23 23 29h6l1392 2q12 0 20.5 -9.5t8.5 -19.5v-69 q0 -6 -2 -13l-70 -139q-4 -8 -14 -12l-137 -68q-6 -2 -13 -2l-167 -2q-4 -2 -11 0l-162 51l56 -157q2 -4 2 -11v-264q0 -4 -2 -8l-53 -154l151 52q4 2 10 2h174q8 0 15 -2l137 -70q10 -6 14 -14l70 -140q2 -6 2 -12v-70q0 -12 -9 -20t-20 -8h-1392q-12 0 -20.5 9t-8.5 19z M184 47h1336v35l-62 125l-125 61h-164l-202 -67q-8 -4 -17 0q-12 2 -18 13t-2 24l71 202v254l-71 207q-4 8 -2 17q4 12 15 18t22 2l213 -66l157 2l123 60l62 125v33l-1336 -2v-31l62 -125l127 -62l162 -2l206 68q8 4 17 2q10 -4 16 -15.5t2 -23.5l-69 -201l-2 -258l73 -204 q2 -8 0 -17q-2 -12 -13 -18t-24 -2l-209 67l-159 -2l-127 -59l-62 -125v-35zM197 1184v69q0 9 4 17q6 10 18 12l627 139q6 2 12 0l627 -139q23 -4 22 -29v-69q0 -10 -8 -19.5t-20 -9.5h-70q-2 0 -4 2l-553 103l-553 -103q-2 -2 -4 -2h-70q-10 0 -19 8t-9 21zM254 1212h39 l553 105q6 2 12 0l553 -105h39v19l-598 133l-598 -133v-19zM631 230q0 40 27.5 68t67.5 28t67.5 -28t27.5 -68t-27.5 -67.5t-67.5 -27.5t-67.5 27.5t-27.5 67.5zM631 900q0 40 27.5 67.5t67.5 27.5t67.5 -27.5t27.5 -67.5t-27.5 -67.5t-67.5 -27.5t-67.5 27.5t-27.5 67.5z M889 230q0 40 27.5 68t67.5 28t67.5 -28t27.5 -68t-27.5 -67.5t-67.5 -27.5t-67.5 27.5t-27.5 67.5zM893 899q0 39 27.5 67.5t67.5 28.5t67.5 -28.5t27.5 -67.5t-27.5 -67.5t-66.5 -28.5q-20 0 -37.5 8t-31 20.5t-20.5 31t-7 36.5z" />
<glyph unicode="&#xcf;" d="M127 18v70q0 6 2 12l70 140q4 10 14 14l141 68q6 2 13 2l170 2q4 0 8 -2l160 -52l-56 156q-2 4 -2 10l2 267q0 6 2 10l51 151l-153 -51q-4 -2 -10 -2l-172 2q-8 0 -13 2l-141 70q-10 4 -14 12l-70 139q-2 6 -2 13v67q0 23 23 29h6l1392 2q12 0 20.5 -9.5t8.5 -19.5v-69 q0 -6 -2 -13l-70 -139q-4 -8 -14 -12l-137 -68q-6 -2 -13 -2l-167 -2q-4 -2 -11 0l-162 51l56 -157q2 -4 2 -11v-264q0 -4 -2 -8l-53 -154l151 52q4 2 10 2h174q8 0 15 -2l137 -70q10 -6 14 -14l70 -140q2 -6 2 -12v-70q0 -12 -9 -20t-20 -8h-1392q-12 0 -20.5 9t-8.5 19z M184 47h1336v35l-62 125l-125 61h-164l-202 -67q-8 -4 -17 0q-12 2 -18 13t-2 24l71 202v254l-71 207q-4 8 -2 17q4 12 15 18t22 2l213 -66l157 2l123 60l62 125v33l-1336 -2v-31l62 -125l127 -62l162 -2l206 68q8 4 17 2q10 -4 16 -15.5t2 -23.5l-69 -201l-2 -258l73 -204 q2 -8 0 -17q-2 -12 -13 -18t-24 -2l-209 67l-159 -2l-127 -59l-62 -125v-35zM197 1249v70q0 18 16 27l139 69q6 2 13 2h278q6 0 12 -2l140 -69q16 -8 16 -27v-70q0 -16 -16 -24l-140 -70q-6 -4 -12 -4h-278q-6 0 -13 4l-139 70q-8 4 -12 10t-4 14zM254 1268l117 -60h266 l117 60v35l-117 57h-203h-63l-117 -57v-35zM631 230q0 40 27.5 68t67.5 28t67.5 -28t27.5 -68t-27.5 -67.5t-67.5 -27.5t-67.5 27.5t-27.5 67.5zM631 900q0 40 27.5 67.5t67.5 27.5t67.5 -27.5t27.5 -67.5t-27.5 -67.5t-67.5 -27.5t-67.5 27.5t-27.5 67.5zM889 230 q0 40 27.5 68t67.5 28t67.5 -28t27.5 -68t-27.5 -67.5t-67.5 -27.5t-67.5 27.5t-27.5 67.5zM893 899q0 39 27.5 67.5t67.5 28.5t67.5 -28.5t27.5 -67.5t-27.5 -67.5t-66.5 -28.5q-20 0 -37.5 8t-31 20.5t-20.5 31t-7 36.5zM893 1249v70q0 18 16 27l140 69q2 2 5 2h7h278 q6 0 13 -2l139 -69q16 -8 16 -27v-70q0 -16 -16 -24l-139 -70q-6 -4 -13 -4h-278q-6 0 -12 4l-140 70q-16 8 -16 24zM950 1268l117 -60h266l117 60v35l-117 57h-266l-117 -57v-35z" />
<glyph unicode="&#xd1;" d="M127 207v909q0 8 5 15.5t11.5 10.5t12.5 3l348 4q8 0 14 -4l209 -139q4 -2 6 -5l418 -417q2 -2 2 -4l49 -72l-31 119v6v432q0 18 15 27l139 71q14 6 27 0l139 -69q8 -4 12 -13l70 -137q4 -6 4 -12v-871q0 -16 -14 -24l-136 -72q-14 -8 -26 0l-141 70q-2 2 -3 2l-213 153 q-2 2 -4 5l-487 487q-2 2 -4 6l-49 74l30 -125v-6l2 -570q0 -8 -5 -14t-11 -10l-139 -70q-12 -8 -27 0l-139 70q-8 4 -12 12l-70 146q-2 4 -2 12zM184 213l62 -129l119 -59l110 55l-2 547l-67 278q-4 18 10 29q10 8 22.5 6t18.5 -12l139 -207l483 -483l207 -152l127 -63 l107 57v844l-62 123l-119 59l-110 -57v-412l67 -275q6 -18 -8 -30q-8 -4 -15 -5t-15.5 2t-12.5 9l-137 207l-414 413l-198 134l-312 -2v-877zM336 1264l35 108q2 10 12 17l106 67q12 10 27 2l133 -65l479 67q6 2 11 0l141 -41q4 0 8 -4l70 -55q16 -12 10 -31l-31 -115 q-4 -10 -12 -16l-108 -68q-14 -10 -29 -2l-131 66l-479 -68q-4 -2 -11 0l-139 33q-8 2 -14 8l-70 68q-14 12 -8 29zM395 1264l54 -50l126 -30l482 67q10 2 18 -2l125 -61l84 53l25 86l-52 39l-127 37l-483 -68q-4 -2 -8 -1t-6 3l14 -2q-4 -2 -8 -1t-6 3h-2l-125 62l-84 -53z " />
<glyph unicode="&#xd2;" d="M127 571q-2 8 0 15l70 278q2 10 10 17l280 219q4 4 11 6l348 70h6h6l348 -70q6 -2 11 -6l280 -219q8 -6 10 -17l70 -278v-13l-57 -292q-2 -12 -13 -19l-290 -205q-4 -2 -11 -4l-348 -69q-6 -2 -12 0l-348 69q-6 2 -11 4l-280 222q-8 6 -10 14zM184 580l66 -263l266 -208 l336 -68l338 68l276 194l54 275l-66 264l-266 209l-336 67l-336 -67l-266 -209zM197 1325q0 -10 7 -18.5t17 -10.5l1184 -139h4h70q8 0 14 4t10 11.5t4 13.5v69q0 12 -7 20.5t-17 8.5l-1184 139h-4h-70q-8 0 -15 -4t-10 -11t-3 -13v-70zM254 1352v14h39l1157 -135v-17h-39z M535 549q-8 14 0 31l120 241q6 10 17 15l172 49q8 2 14 0l180 -47q10 -4 17 -15l123 -243q6 -14 0 -29l-95 -203q-6 -12 -18 -14l-203 -60q-8 -2 -16 0l-170 45q-10 2 -17 13zM594 567l106 -194l152 -41l186 53l80 180l-106 219l-160 43l-152 -45zM756 297q0 25 13 47.5 t34.5 34.5t47.5 12t48.5 -12t34.5 -34.5t12 -47.5q0 -41 -27.5 -68.5t-67.5 -27.5t-67.5 27.5t-27.5 68.5zM758 867q0 40 27.5 68t66.5 28q20 0 37.5 -7.5t31 -20.5t20.5 -30.5t7 -36.5q0 -41 -27.5 -68.5t-67.5 -27.5t-67.5 27.5t-27.5 67.5z" />
<glyph unicode="&#xd3;" d="M127 571q-2 8 0 15l70 278q2 10 10 17l280 219q4 4 11 6l348 70h6h6l348 -70q6 -2 11 -6l280 -219q8 -6 10 -17l70 -278v-13l-57 -292q-2 -12 -13 -19l-290 -205q-4 -2 -11 -4l-348 -69q-6 -2 -12 0l-348 69q-6 2 -11 4l-280 222q-8 6 -10 14zM184 580l66 -263l266 -208 l336 -68l338 68l276 194l54 275l-66 264l-266 209l-336 67l-336 -67l-266 -209zM197 1180v69q0 4 1 9.5t4 8.5t6 5l6 4t7 2l1184 139h4h70q8 0 15 -4t10 -11t3 -13v-70q0 -10 -7 -18.5t-17 -10.5l-1184 -139h-4h-70q-6 0 -11 3t-9 6t-6 8.5t-2 11.5zM254 1208h39l1157 138 v14h-39l-1157 -135v-17zM535 549q-8 14 0 31l120 241q6 10 17 15l172 49q8 2 14 0l180 -47q10 -4 17 -15l123 -243q6 -14 0 -29l-95 -203q-6 -12 -18 -14l-203 -60q-8 -2 -16 0l-170 45q-10 2 -17 13zM594 567l106 -194l152 -41l186 53l80 180l-106 219l-160 43l-152 -45z M756 297q0 25 13 47.5t34.5 34.5t47.5 12t48.5 -12t34.5 -34.5t12 -47.5q0 -41 -27.5 -68.5t-67.5 -27.5t-67.5 27.5t-27.5 68.5zM758 867q0 40 27.5 68t66.5 28q20 0 37.5 -7.5t31 -20.5t20.5 -30.5t7 -36.5q0 -41 -27.5 -68.5t-67.5 -27.5t-67.5 27.5t-27.5 67.5z" />
<glyph unicode="&#xd4;" d="M127 571q-2 8 0 15l70 278q2 10 10 17l280 209q4 4 11 6l348 69h6h6l348 -69q6 -2 11 -6l280 -209q8 -6 10 -17l70 -278v-13l-57 -292q-2 -12 -13 -19l-290 -194q-4 -2 -11 -5l-348 -69q-6 -2 -12 0l-348 69q-6 2 -11 5l-280 211q-8 6 -10 14zM184 580l66 -263l266 -198 l336 -68l338 68l276 184l54 275l-66 264l-266 198l-336 68l-336 -68l-266 -198zM197 1184v69q0 9 4 17q6 10 18 12l627 139q6 2 12 0l627 -139q23 -4 22 -29v-69q0 -10 -8 -19.5t-20 -9.5h-70q-2 0 -4 2l-553 103l-553 -103q-2 -2 -4 -2h-70q-10 0 -19 8t-9 21zM254 1212h39 l553 105q6 2 12 0l553 -105h39v19l-598 133l-598 -133v-19zM535 549q-8 14 0 31l120 241q6 10 17 15l172 49q8 2 14 0l180 -47q10 -4 17 -15l123 -243q6 -14 0 -29l-95 -203q-6 -12 -18 -14l-203 -60q-8 -2 -16 0l-170 45q-10 2 -17 13zM594 567l106 -194l152 -41l186 53 l80 180l-106 219l-160 43l-152 -45zM756 297q0 25 13 47.5t34.5 34.5t47.5 12t48.5 -12t34.5 -34.5t12 -47.5q0 -41 -27.5 -68.5t-67.5 -27.5t-67.5 27.5t-27.5 68.5zM758 867q0 40 27.5 68t66.5 28q20 0 37.5 -7.5t31 -20.5t20.5 -30.5t7 -36.5q0 -41 -27.5 -68.5 t-67.5 -27.5t-67.5 27.5t-27.5 67.5z" />
<glyph unicode="&#xd5;" d="M127 571q-2 8 0 15l70 278q2 10 10 17l280 209q4 4 11 6l348 69h6h6l348 -69q6 -2 11 -6l280 -209q8 -6 10 -17l70 -278v-13l-57 -292q-2 -12 -13 -19l-290 -194q-4 -2 -11 -5l-348 -69q-6 -2 -12 0l-348 69q-6 2 -11 5l-280 211q-8 6 -10 14zM184 580l66 -263l266 -198 l336 -68l338 68l276 184l54 275l-66 264l-266 198l-336 68l-336 -68l-266 -198zM336 1264l35 108q2 10 12 17l106 67q12 10 27 2l133 -65l479 67q6 2 11 0l141 -41q4 0 8 -4l70 -55q16 -12 10 -31l-31 -115q-4 -10 -12 -16l-108 -68q-14 -10 -29 -2l-131 66l-479 -68 q-4 -2 -11 0l-139 33q-8 2 -14 8l-70 68q-14 12 -8 29zM395 1264l54 -50l126 -30l482 67q10 2 18 -2l125 -61l84 53l25 86l-52 39l-127 37l-483 -68q-4 -2 -8 -1t-6 3l14 -2q-4 -2 -8 -1t-6 3h-2l-125 62l-84 -53zM535 549q-8 14 0 31l120 241q6 10 17 15l172 49q8 2 14 0 l180 -47q10 -4 17 -15l123 -243q6 -14 0 -29l-95 -203q-6 -12 -18 -14l-203 -60q-8 -2 -16 0l-170 45q-10 2 -17 13zM594 567l106 -194l152 -41l186 53l80 180l-106 219l-160 43l-152 -45zM756 297q0 25 13 47.5t34.5 34.5t47.5 12t48.5 -12t34.5 -34.5t12 -47.5 q0 -41 -27.5 -68.5t-67.5 -27.5t-67.5 27.5t-27.5 68.5zM758 867q0 40 27.5 68t66.5 28q20 0 37.5 -7.5t31 -20.5t20.5 -30.5t7 -36.5q0 -41 -27.5 -68.5t-67.5 -27.5t-67.5 27.5t-27.5 67.5z" />
<glyph unicode="&#xd6;" d="M127 571q-2 8 0 15l70 278q2 10 10 17l280 209q4 4 11 6l348 69h6h6l348 -69q6 -2 11 -6l280 -209q8 -6 10 -17l70 -278v-13l-57 -292q-2 -12 -13 -19l-290 -194q-4 -2 -11 -5l-348 -69q-6 -2 -12 0l-348 69q-6 2 -11 5l-280 211q-8 6 -10 14zM184 580l66 -263l266 -198 l336 -68l338 68l276 184l54 275l-66 264l-266 198l-336 68l-336 -68l-266 -198zM197 1249v70q0 18 16 27l139 69q6 2 13 2h278q6 0 12 -2l140 -69q16 -8 16 -27v-70q0 -16 -16 -24l-140 -70q-6 -4 -12 -4h-278q-6 0 -13 4l-139 70q-8 4 -12 10t-4 14zM254 1268l117 -60h266 l117 60v35l-117 57h-203h-63l-117 -57v-35zM535 549q-8 14 0 31l120 241q6 10 17 15l172 49q8 2 14 0l180 -47q10 -4 17 -15l123 -243q6 -14 0 -29l-95 -203q-6 -12 -18 -14l-203 -60q-8 -2 -16 0l-170 45q-10 2 -17 13zM594 567l106 -194l152 -41l186 53l80 180l-106 219 l-160 43l-152 -45zM756 297q0 25 13 47.5t34.5 34.5t47.5 12t48.5 -12t34.5 -34.5t12 -47.5q0 -41 -27.5 -68.5t-67.5 -27.5t-67.5 27.5t-27.5 68.5zM758 867q0 40 27.5 68t66.5 28q20 0 37.5 -7.5t31 -20.5t20.5 -30.5t7 -36.5q0 -41 -27.5 -68.5t-67.5 -27.5t-67.5 27.5 t-27.5 67.5zM893 1249v70q0 18 16 27l140 69q2 2 5 2h7h278q6 0 13 -2l139 -69q16 -8 16 -27v-70q0 -16 -16 -24l-139 -70q-6 -4 -13 -4h-278q-6 0 -12 4l-140 70q-16 8 -16 24zM950 1268l117 -60h266l117 60v35l-117 57h-266l-117 -57v-35z" />
<glyph unicode="&#xd8;" d="M117 711q-2 6 0 14l69 279l4 8l150 219l8 8l209 154q4 2 10 4l279 69l6 2l6 -2l281 -69l8 -4l49 -47l49 92q8 14 25 14h139q12 0 20.5 -8t8.5 -21v-139q0 -12 -8 -20l-54 -54l137 -198q2 -4 5 -8l69 -279q2 -8 0 -14l-69 -279q-2 -6 -5 -10l-149 -219l-8 -8l-213 -154 l-8 -4l-277 -70h-12l-281 72q-6 2 -10 4l-43 43l-53 -90q-8 -14 -25 -14h-139q-12 0 -20.5 9t-8.5 19v140q0 12 8 20l54 53l-138 203q-4 4 -4 8zM174 717l66 -264l149 -217q12 -20 -4 -37l-61 -62v-98h94l61 102q6 10 18.5 13.5t22.5 -4.5l64 -56l268 -69l264 67l203 148 l143 211l68 266l-68 268l-145 213q-14 20 2 37l61 61v99h-94l-55 -105q-4 -10 -16.5 -13t-24.5 3l-70 61l-268 68l-266 -68l-201 -147l-143 -209zM512 721v10l33 201q2 8 8 14l143 152q4 2 9 4l135 80q4 2 10 2h10l209 -80q12 -4 17.5 -16.5t0.5 -22.5q-4 -10 -12 -14 l-123 -66l-282 -338l-70 -151q-6 -10 -18.5 -14.5t-22.5 1.5q-12 6 -14 21zM569 725l19 -119l30 68q2 4 5 6l288 346q4 4 9 8l69 35l-135 55l-119 -71l-135 -142zM614 358q0 2 2 4q2 10 11 17h2l127 72l282 346l66 141q6 12 18 16q12 2 23.5 -4t13.5 -18l39 -209 q0 -6 -2 -12l-39 -142q0 -4 -4 -6l-139 -225q-4 -6 -10 -8l-140 -80q-10 -6 -20 -2l-209 80q-29 8 -21 30zM715 360l135 -55l121 72l133 213l37 129l-23 112l-28 -63q-2 -2 -5 -6l-288 -352l-9 -9z" />
<glyph unicode="&#xd9;" d="M125 494v442q0 6 2 12l70 139q4 10 14 15l139 69q12 6 25 0l139 -69q16 -8 16 -27v-305q0 -4 -2 -8l-63 -191l170 -174l215 -106l223 100l162 180l-64 193q-2 4 -2 8v303q0 18 17 27l139 69q12 6 25 0l139 -69q10 -4 14 -15l70 -139q2 -6 2 -12v-440q0 -8 -2 -15 l-139 -278q-4 -8 -13 -13l-280 -161q-2 -2 -4 -2l-281 -84q-6 -2 -14 0l-277 80q-4 2 -6 2l-276 161q-8 6 -13 15l-143 280q-2 6 -2 13zM182 500l135 -267l265 -155l268 -78l268 82l268 156l132 264v426l-62 127l-119 59l-110 -55v-283l67 -205q6 -16 -6 -28l-178 -197 q-4 -4 -10 -6l-240 -107q-10 -4 -22 0l-232 113q-4 2 -8 6l-186 191q-12 12 -6 28l67 205v283l-111 55l-118 -59l-62 -127v-428zM197 1329q0 -10 7 -18t17 -11l1184 -139h4h70q8 0 14 4t10 11.5t4 13.5v70q0 8 -3 14t-9 10t-12 4l-1184 139h-4h-70q-8 0 -15 -4t-10 -11 t-3 -13v-70zM254 1356v14h39l1157 -135v-16h-39zM350 529q0 40 28 69t67.5 29t67.5 -29t28 -69t-28 -67.5t-67.5 -27.5t-67.5 27.5t-28 67.5zM1165 535.5q0 39.5 28 68.5t67 29q27 0 49 -13.5t34.5 -36t12.5 -46.5q0 -41 -28 -69t-67.5 -28t-67.5 28t-28 67.5z" />
<glyph unicode="&#xda;" d="M125 494v442q0 6 2 12l70 139q4 10 14 15l139 69q12 6 25 0l139 -69q16 -8 16 -27v-305q0 -4 -2 -8l-63 -191l170 -174l215 -106l223 100l162 180l-64 193q-2 4 -2 8v303q0 18 17 27l139 69q12 6 25 0l139 -69q10 -4 14 -15l70 -139q2 -6 2 -12v-440q0 -8 -2 -15 l-139 -278q-4 -8 -13 -13l-280 -161q-2 -2 -4 -2l-281 -84q-6 -2 -14 0l-277 80q-4 2 -6 2l-276 161q-8 6 -13 15l-143 280q-2 6 -2 13zM182 500l135 -267l265 -155l268 -78l268 82l268 156l132 264v426l-62 127l-119 59l-110 -55v-283l67 -205q6 -16 -6 -28l-178 -197 q-4 -4 -10 -6l-240 -107q-10 -4 -22 0l-232 113q-4 2 -8 6l-186 191q-12 12 -6 28l67 205v283l-111 55l-118 -59l-62 -127v-428zM197 1180v69q0 4 1 9.5t4 8.5t6 5l6 4t7 2l1184 139h4h70q8 0 15 -4t10 -11t3 -13v-70q0 -10 -7 -18.5t-17 -10.5l-1184 -139h-4h-70 q-6 0 -11 3t-9 6t-6 8.5t-2 11.5zM254 1208h39l1157 138v14h-39l-1157 -135v-17zM350 529q0 40 28 69t67.5 29t67.5 -29t28 -69t-28 -67.5t-67.5 -27.5t-67.5 27.5t-28 67.5zM1165 535.5q0 39.5 28 68.5t67 29q27 0 49 -13.5t34.5 -36t12.5 -46.5q0 -41 -28 -69t-67.5 -28 t-67.5 28t-28 67.5z" />
<glyph unicode="&#xdb;" d="M125 494v442q0 6 2 12l70 139q4 10 14 15l139 69q12 6 25 0l139 -69q16 -8 16 -27v-305q0 -4 -2 -8l-63 -191l170 -174l215 -106l223 100l162 180l-64 193q-2 4 -2 8v303q0 18 17 27l139 69q12 6 25 0l139 -69q10 -4 14 -15l70 -139q2 -6 2 -12v-440q0 -8 -2 -15 l-139 -278q-4 -8 -13 -13l-280 -161q-2 -2 -4 -2l-281 -84q-6 -2 -14 0l-277 80q-4 2 -6 2l-276 161q-8 6 -13 15l-143 280q-2 6 -2 13zM182 500l135 -267l265 -155l268 -78l268 82l268 156l132 264v426l-62 127l-119 59l-110 -55v-283l67 -205q6 -16 -6 -28l-178 -197 q-4 -4 -10 -6l-240 -107q-10 -4 -22 0l-232 113q-4 2 -8 6l-186 191q-12 12 -6 28l67 205v283l-111 55l-118 -59l-62 -127v-428zM197 1184v69q0 9 4 17q6 10 18 12l627 139q6 2 12 0l627 -139q23 -4 22 -29v-69q0 -10 -8 -19.5t-20 -9.5h-70q-2 0 -4 2l-553 103l-553 -103 q-2 -2 -4 -2h-70q-10 0 -19 8t-9 21zM254 1212h39l553 105q6 2 12 0l553 -105h39v19l-598 133l-598 -133v-19zM350 529q0 40 28 69t67.5 29t67.5 -29t28 -69t-28 -67.5t-67.5 -27.5t-67.5 27.5t-28 67.5zM1165 535.5q0 39.5 28 68.5t67 29q27 0 49 -13.5t34.5 -36 t12.5 -46.5q0 -41 -28 -69t-67.5 -28t-67.5 28t-28 67.5z" />
<glyph unicode="&#xdc;" d="M125 494v442q0 6 2 12l70 139q4 10 14 15l139 69q12 6 25 0l139 -69q16 -8 16 -27v-305q0 -4 -2 -8l-63 -191l170 -174l215 -106l223 100l162 180l-64 193q-2 4 -2 8v303q0 18 17 27l139 69q12 6 25 0l139 -69q10 -4 14 -15l70 -139q2 -6 2 -12v-440q0 -8 -2 -15 l-139 -278q-4 -8 -13 -13l-280 -161q-2 -2 -4 -2l-281 -84q-6 -2 -14 0l-277 80q-4 2 -6 2l-276 161q-8 6 -13 15l-143 280q-2 6 -2 13zM182 500l135 -267l265 -155l268 -78l268 82l268 156l132 264v426l-62 127l-119 59l-110 -55v-283l67 -205q6 -16 -6 -28l-178 -197 q-4 -4 -10 -6l-240 -107q-10 -4 -22 0l-232 113q-4 2 -8 6l-186 191q-12 12 -6 28l67 205v283l-111 55l-118 -59l-62 -127v-428zM197 1249v70q0 18 16 27l139 69q6 2 13 2h278q6 0 12 -2l140 -69q16 -8 16 -27v-70q0 -16 -16 -24l-140 -70q-6 -4 -12 -4h-278q-6 0 -13 4 l-139 70q-8 4 -12 10t-4 14zM254 1268l117 -60h266l117 60v35l-117 57h-203h-63l-117 -57v-35zM350 529q0 40 28 69t67.5 29t67.5 -29t28 -69t-28 -67.5t-67.5 -27.5t-67.5 27.5t-28 67.5zM893 1249v70q0 18 16 27l140 69q2 2 5 2h7h278q6 0 13 -2l139 -69q16 -8 16 -27v-70 q0 -16 -16 -24l-139 -70q-6 -4 -13 -4h-278q-6 0 -12 4l-140 70q-16 8 -16 24zM950 1268l117 -60h266l117 60v35l-117 57h-266l-117 -57v-35zM1165 535.5q0 39.5 28 68.5t67 29q27 0 49 -13.5t34.5 -36t12.5 -46.5q0 -41 -28 -69t-67.5 -28t-67.5 28t-28 67.5z" />
<glyph unicode="&#xdd;" d="M129 918q-6 12 0 26l72 139q4 8 14 13l135 67q6 4 12.5 4t12.5 -4l141 -67q4 -2 8 -6l281 -281q4 -6 6 -12l41 -125l43 129q2 6 6 10l279 279q4 4 8 6l139 69q12 6 25 0l141 -63q10 -4 14 -15l68 -145q6 -12 0 -24l-70 -140q-4 -8 -12 -12l-436 -264v-297v-6l-37 -144 q-4 -12 -16 -18l-142 -68q-12 -6 -24 0l-146 72q-12 6 -16 20l-27 138v4l2 295l-440 268q-8 4 -12 12zM186 930l62 -119l446 -274q14 -8 15 -25l-2 -305l24 -121l119 -59l117 57l32 125v309q0 16 15 25l442 268l62 119l-58 125l-121 53l-122 -61l-269 -271l-69 -203 q-4 -12 -17 -18q-10 -4 -21.5 1t-15.5 17l-67 199l-271 275l-125 59l-114 -57zM188 1180v69q0 8 4.5 14.5t9.5 10.5t13 4l1184 139h4h70q8 0 14 -4t10 -11t4 -13v-70q0 -10 -8 -18.5t-18 -10.5l-1184 -139h-4h-70q-10 0 -19.5 9t-9.5 20zM246 1208h39l1159 138v14h-41 l-1157 -135v-17zM760 587q0 40 27.5 67.5t67.5 27.5t67.5 -27.5t27.5 -68.5q0 -25 -12 -47.5t-34.5 -34.5t-47.5 -12q-41 0 -68.5 27.5t-27.5 67.5z" />
<glyph unicode="&#xe0;" d="M133 193q-8 12 0 26l488 922q8 16 24 16h418h2q6 0 12 -4t10 -10v-2l486 -920q8 -12 2 -24l-68 -140q-4 -8 -12 -14l-139 -74q-14 -6 -27 0l-139 70q-4 2 -8 6l-70 70q-8 8 -8 20v103l-244 -62q-6 -2 -12 0l-244 62v-103q0 -12 -8 -20l-68 -68l-8 -4l-141 -74 q-12 -6 -27 0l-135 72q-8 4 -12 10zM190 205l62 -119l115 -59l125 65l55 53v129v5q2 12 12 19t23 3l272 -68l272 68q2 0 4 2q12 0 21.5 -8t9.5 -21v-129l58 -57l122 -61l119 63l56 117l-469 893h-385zM197 1319q0 -10 7 -18.5t17 -10.5l1184 -139h4h70q8 0 14 4t10 11.5 t4 13.5v69q0 4 -1 9.5t-4 8.5t-6 5l-6 4t-7 2l-1184 139h-4h-70q-8 0 -15 -4t-10 -11t-3 -13v-70zM254 1346v14h39l1157 -135v-17h-39zM479 272q0 18 7.5 37t20.5 31t30.5 19.5t37.5 7.5q39 0 67 -28t28 -68t-28 -67.5t-67 -27.5q-27 0 -49 13.5t-34.5 34.5t-12.5 48z M594 463q0 39 27.5 67.5t67.5 28.5t67.5 -28.5t27.5 -67.5t-27.5 -67.5t-67.5 -28.5t-67.5 28.5t-27.5 67.5zM618 399v4q-4 13 0 23l140 276l67 293q4 16 21 21q10 4 21.5 -2t15.5 -19l67 -293l140 -276q4 -10 2 -20q-4 -12 -15.5 -18.5t-21.5 -2.5l-201 68l-201 -68 q-27 -8 -35 14zM702 463l144 47q8 2 16 0l144 -47l-109 215q0 4 -2 6l-41 186l-41 -186q-2 -2 -2 -6zM756 917.5q0 38.5 27.5 67.5t68.5 29q25 0 47.5 -13.5t34.5 -35t12 -47.5q0 -39 -27.5 -68t-67.5 -29t-67.5 29t-27.5 67.5zM920 463q0 39 27.5 67.5t67.5 28.5 t67.5 -28.5t27.5 -67.5q0 -27 -12.5 -48.5t-35 -34.5t-46.5 -13q-41 0 -68.5 28.5t-27.5 67.5zM1047 265q0 40 27.5 67.5t67.5 27.5t67.5 -27.5t27.5 -67.5t-27.5 -67.5t-67.5 -27.5t-67.5 27.5t-27.5 67.5z" />
<glyph unicode="&#xe1;" d="M133 193q-8 12 0 26l488 922q8 16 24 16h418h2q6 0 12 -4t10 -10v-2l486 -920q8 -12 2 -24l-68 -140q-4 -8 -12 -14l-139 -74q-14 -6 -27 0l-139 70q-4 2 -8 6l-70 70q-8 8 -8 20v103l-244 -62q-6 -2 -12 0l-244 62v-103q0 -12 -8 -20l-68 -68l-8 -4l-141 -74 q-12 -6 -27 0l-135 72q-8 4 -12 10zM190 205l62 -119l115 -59l125 65l55 53v129v5q2 12 12 19t23 3l272 -68l272 68q2 0 4 2q12 0 21.5 -8t9.5 -21v-129l58 -57l122 -61l119 63l56 117l-469 893h-385zM197 1180v69q0 4 1 9.5t4 8.5t6 5l6 4t7 2l1184 139h4h70q8 0 15 -4 t10 -11t3 -13v-70q0 -10 -7 -18.5t-17 -10.5l-1184 -139h-4h-70q-6 0 -11 3t-9 6t-6 8.5t-2 11.5zM254 1208h39l1157 138v14h-39l-1157 -135v-17zM479 272q0 18 7.5 37t20.5 31t30.5 19.5t37.5 7.5q39 0 67 -28t28 -68t-28 -67.5t-67 -27.5q-27 0 -49 13.5t-34.5 34.5 t-12.5 48zM594 463q0 39 27.5 67.5t67.5 28.5t67.5 -28.5t27.5 -67.5t-27.5 -67.5t-67.5 -28.5t-67.5 28.5t-27.5 67.5zM618 399v4q-4 13 0 23l140 276l67 293q4 16 21 21q10 4 21.5 -2t15.5 -19l67 -293l140 -276q4 -10 2 -20q-4 -12 -15.5 -18.5t-21.5 -2.5l-201 68 l-201 -68q-27 -8 -35 14zM702 463l144 47q8 2 16 0l144 -47l-109 215q0 4 -2 6l-41 186l-41 -186q-2 -2 -2 -6zM756 917.5q0 38.5 27.5 67.5t68.5 29q25 0 47.5 -13.5t34.5 -35t12 -47.5q0 -39 -27.5 -68t-67.5 -29t-67.5 29t-27.5 67.5zM920 463q0 39 27.5 67.5t67.5 28.5 t67.5 -28.5t27.5 -67.5q0 -27 -12.5 -48.5t-35 -34.5t-46.5 -13q-41 0 -68.5 28.5t-27.5 67.5zM1047 265q0 40 27.5 67.5t67.5 27.5t67.5 -27.5t27.5 -67.5t-27.5 -67.5t-67.5 -27.5t-67.5 27.5t-27.5 67.5z" />
<glyph unicode="&#xe2;" d="M133 193q-8 12 0 26l488 922q8 16 24 16h418h2q6 0 12 -4t10 -10v-2l486 -920q8 -12 2 -24l-68 -140q-4 -8 -12 -14l-139 -74q-14 -6 -27 0l-139 70q-4 2 -8 6l-70 70q-8 8 -8 20v103l-244 -62q-6 -2 -12 0l-244 62v-103q0 -12 -8 -20l-68 -68l-8 -4l-141 -74 q-12 -6 -27 0l-135 72q-8 4 -12 10zM190 205l62 -119l115 -59l125 65l55 53v129v5q2 12 12 19t23 3l272 -68l272 68q2 0 4 2q12 0 21.5 -8t9.5 -21v-129l58 -57l122 -61l119 63l56 117l-469 893h-385zM197 1184v69q0 9 4 17q6 10 18 12l627 139q6 2 12 0l627 -139 q23 -4 22 -29v-69q0 -10 -8 -19.5t-20 -9.5h-70q-2 0 -4 2l-553 103l-553 -103q-2 -2 -4 -2h-70q-10 0 -19 8t-9 21zM254 1212h39l553 105q6 2 12 0l553 -105h39v19l-598 133l-598 -133v-19zM479 272q0 18 7.5 37t20.5 31t30.5 19.5t37.5 7.5q39 0 67 -28t28 -68t-28 -67.5 t-67 -27.5q-27 0 -49 13.5t-34.5 34.5t-12.5 48zM594 463q0 39 27.5 67.5t67.5 28.5t67.5 -28.5t27.5 -67.5t-27.5 -67.5t-67.5 -28.5t-67.5 28.5t-27.5 67.5zM618 399v4q-4 13 0 23l140 276l67 293q4 16 21 21q10 4 21.5 -2t15.5 -19l67 -293l140 -276q4 -10 2 -20 q-4 -12 -15.5 -18.5t-21.5 -2.5l-201 68l-201 -68q-27 -8 -35 14zM702 463l144 47q8 2 16 0l144 -47l-109 215q0 4 -2 6l-41 186l-41 -186q-2 -2 -2 -6zM756 917.5q0 38.5 27.5 67.5t68.5 29q25 0 47.5 -13.5t34.5 -35t12 -47.5q0 -39 -27.5 -68t-67.5 -29t-67.5 29 t-27.5 67.5zM920 463q0 39 27.5 67.5t67.5 28.5t67.5 -28.5t27.5 -67.5q0 -27 -12.5 -48.5t-35 -34.5t-46.5 -13q-41 0 -68.5 28.5t-27.5 67.5zM1047 265q0 40 27.5 67.5t67.5 27.5t67.5 -27.5t27.5 -67.5t-27.5 -67.5t-67.5 -27.5t-67.5 27.5t-27.5 67.5z" />
<glyph unicode="&#xe3;" d="M133 193q-8 12 0 26l488 922q8 16 24 16h418h2q6 0 12 -4t10 -10v-2l486 -920q8 -12 2 -24l-68 -140q-4 -8 -12 -14l-139 -74q-14 -6 -27 0l-139 70q-4 2 -8 6l-70 70q-8 8 -8 20v103l-244 -62q-6 -2 -12 0l-244 62v-103q0 -12 -8 -20l-68 -68l-8 -4l-141 -74 q-12 -6 -27 0l-135 72q-8 4 -12 10zM190 205l62 -119l115 -59l125 65l55 53v129v5q2 12 12 19t23 3l272 -68l272 68q2 0 4 2q12 0 21.5 -8t9.5 -21v-129l58 -57l122 -61l119 63l56 117l-469 893h-385zM336 1264l35 108q2 10 12 17l106 67q12 10 27 2l133 -65l479 67 q6 2 11 0l141 -41q4 0 8 -4l70 -55q16 -12 10 -31l-31 -115q-4 -10 -12 -16l-108 -68q-14 -10 -29 -2l-131 66l-479 -68q-4 -2 -11 0l-139 33q-8 2 -14 8l-70 68q-14 12 -8 29zM395 1264l54 -50l126 -30l482 67q10 2 18 -2l125 -61l84 53l25 86l-52 39l-127 37l-483 -68 q-4 -2 -8 -1t-6 3l14 -2q-4 -2 -8 -1t-6 3h-2l-125 62l-84 -53zM479 272q0 18 7.5 37t20.5 31t30.5 19.5t37.5 7.5q39 0 67 -28t28 -68t-28 -67.5t-67 -27.5q-27 0 -49 13.5t-34.5 34.5t-12.5 48zM594 463q0 39 27.5 67.5t67.5 28.5t67.5 -28.5t27.5 -67.5t-27.5 -67.5 t-67.5 -28.5t-67.5 28.5t-27.5 67.5zM618 399v4q-4 13 0 23l140 276l67 293q4 16 21 21q10 4 21.5 -2t15.5 -19l67 -293l140 -276q4 -10 2 -20q-4 -12 -15.5 -18.5t-21.5 -2.5l-201 68l-201 -68q-27 -8 -35 14zM702 463l144 47q8 2 16 0l144 -47l-109 215q0 4 -2 6l-41 186 l-41 -186q-2 -2 -2 -6zM756 917.5q0 38.5 27.5 67.5t68.5 29q25 0 47.5 -13.5t34.5 -35t12 -47.5q0 -39 -27.5 -68t-67.5 -29t-67.5 29t-27.5 67.5zM920 463q0 39 27.5 67.5t67.5 28.5t67.5 -28.5t27.5 -67.5q0 -27 -12.5 -48.5t-35 -34.5t-46.5 -13q-41 0 -68.5 28.5 t-27.5 67.5zM1047 265q0 40 27.5 67.5t67.5 27.5t67.5 -27.5t27.5 -67.5t-27.5 -67.5t-67.5 -27.5t-67.5 27.5t-27.5 67.5z" />
<glyph unicode="&#xe4;" d="M133 193q-8 12 0 26l488 922q8 16 24 16h418h2q6 0 12 -4t10 -10v-2l486 -920q8 -12 2 -24l-68 -140q-4 -8 -12 -14l-139 -74q-14 -6 -27 0l-139 70q-4 2 -8 6l-70 70q-8 8 -8 20v103l-244 -62q-6 -2 -12 0l-244 62v-103q0 -12 -8 -20l-68 -68l-8 -4l-141 -74 q-12 -6 -27 0l-135 72q-8 4 -12 10zM190 205l62 -119l115 -59l125 65l55 53v129v5q2 12 12 19t23 3l272 -68l272 68q2 0 4 2q12 0 21.5 -8t9.5 -21v-129l58 -57l122 -61l119 63l56 117l-469 893h-385zM197 1249v70q0 18 16 27l139 69q6 2 13 2h278q6 0 12 -2l140 -69 q16 -8 16 -27v-70q0 -16 -16 -24l-140 -70q-6 -4 -12 -4h-278q-6 0 -13 4l-139 70q-8 4 -12 10t-4 14zM254 1268l117 -60h266l117 60v35l-117 57h-203h-63l-117 -57v-35zM479 272q0 18 7.5 37t20.5 31t30.5 19.5t37.5 7.5q39 0 67 -28t28 -68t-28 -67.5t-67 -27.5 q-27 0 -49 13.5t-34.5 34.5t-12.5 48zM594 463q0 39 27.5 67.5t67.5 28.5t67.5 -28.5t27.5 -67.5t-27.5 -67.5t-67.5 -28.5t-67.5 28.5t-27.5 67.5zM618 399v4q-4 13 0 23l140 276l67 293q4 16 21 21q10 4 21.5 -2t15.5 -19l67 -293l140 -276q4 -10 2 -20 q-4 -12 -15.5 -18.5t-21.5 -2.5l-201 68l-201 -68q-27 -8 -35 14zM702 463l144 47q8 2 16 0l144 -47l-109 215q0 4 -2 6l-41 186l-41 -186q-2 -2 -2 -6zM756 917.5q0 38.5 27.5 67.5t68.5 29q25 0 47.5 -13.5t34.5 -35t12 -47.5q0 -39 -27.5 -68t-67.5 -29t-67.5 29 t-27.5 67.5zM893 1249v70q0 18 16 27l140 69q2 2 5 2h7h278q6 0 13 -2l139 -69q16 -8 16 -27v-70q0 -16 -16 -24l-139 -70q-6 -4 -13 -4h-278q-6 0 -12 4l-140 70q-16 8 -16 24zM920 463q0 39 27.5 67.5t67.5 28.5t67.5 -28.5t27.5 -67.5q0 -27 -12.5 -48.5t-35 -34.5 t-46.5 -13q-41 0 -68.5 28.5t-27.5 67.5zM950 1268l117 -60h266l117 60v35l-117 57h-266l-117 -57v-35zM1047 265q0 40 27.5 67.5t67.5 27.5t67.5 -27.5t27.5 -67.5t-27.5 -67.5t-67.5 -27.5t-67.5 27.5t-27.5 67.5z" />
<glyph unicode="&#xe5;" d="M133 193q-8 12 0 26l488 922q8 16 24 16h418h2q6 0 12 -4t10 -10v-2l486 -920q8 -12 2 -24l-68 -140q-4 -8 -12 -14l-139 -74q-14 -6 -27 0l-139 70q-4 2 -8 6l-70 70q-8 8 -8 20v103l-244 -62q-6 -2 -12 0l-244 62v-103q0 -12 -8 -20l-68 -68l-8 -4l-141 -74 q-12 -6 -27 0l-135 72q-8 4 -12 10zM190 205l62 -119l115 -59l125 65l55 53v129v5q2 12 12 19t23 3l272 -68l272 68q2 0 4 2q12 0 21.5 -8t9.5 -21v-129l58 -57l122 -61l119 63l56 117l-469 893h-385zM479 272q0 18 7.5 37t20.5 31t30.5 19.5t37.5 7.5q39 0 67 -28t28 -68 t-28 -67.5t-67 -27.5q-27 0 -49 13.5t-34.5 34.5t-12.5 48zM545 1249v70q0 18 16 27l139 69q6 2 13 2h278q6 0 13 -2l139 -69q16 -8 16 -27v-70q0 -16 -16 -24l-139 -70q-6 -4 -13 -4h-278q-6 0 -13 4l-139 70q-8 4 -12 10t-4 14zM594 463q0 39 27.5 67.5t67.5 28.5 t67.5 -28.5t27.5 -67.5t-27.5 -67.5t-67.5 -28.5t-67.5 28.5t-27.5 67.5zM602 1268l117 -60h266l117 60v35l-117 57h-203h-63l-117 -57v-35zM618 399v4q-4 13 0 23l140 276l67 293q4 16 21 21q10 4 21.5 -2t15.5 -19l67 -293l140 -276q4 -10 2 -20q-4 -12 -15.5 -18.5 t-21.5 -2.5l-201 68l-201 -68q-27 -8 -35 14zM702 463l144 47q8 2 16 0l144 -47l-109 215q0 4 -2 6l-41 186l-41 -186q-2 -2 -2 -6zM756 917.5q0 38.5 27.5 67.5t68.5 29q25 0 47.5 -13.5t34.5 -35t12 -47.5q0 -39 -27.5 -68t-67.5 -29t-67.5 29t-27.5 67.5zM920 463 q0 39 27.5 67.5t67.5 28.5t67.5 -28.5t27.5 -67.5q0 -27 -12.5 -48.5t-35 -34.5t-46.5 -13q-41 0 -68.5 28.5t-27.5 67.5zM1047 265q0 40 27.5 67.5t67.5 27.5t67.5 -27.5t27.5 -67.5t-27.5 -67.5t-67.5 -27.5t-67.5 27.5t-27.5 67.5z" />
<glyph unicode="&#xe6;" d="M129 203q-6 12 0 24l557 1196q2 6 9 11.5t16 5.5l837 2q10 0 19.5 -8.5t9.5 -18.5v-69q0 -8 -2 -15l-70 -137q-4 -8 -12 -12l-141 -72q-6 -4 -13 -4h-69q-4 0 -8 2l-156 51l51 -153q4 -10 0 -19l-51 -153l149 49q4 2 11 2h73q18 0 27 -17l70 -139q6 -12 0 -24l-70 -140 q-8 -16 -27 -16h-67q-4 0 -8 2l-158 51l51 -153q4 -10 0 -19l-51 -156l151 52q6 2 11 2h71q6 0 13 -2l137 -70q10 -4 14 -12l72 -142q2 -6 2 -12v-70q0 -6 -4 -13t-10.5 -11t-14.5 -4h-766q-12 0 -20 9t-8 19v459h-90l-132 -409q-4 -10 -14 -17l-139 -71q-12 -6 -27 0 l-135 65q-8 4 -12 12zM186 215l64 -121l115 -55l116 61l135 418q6 18 27 19h139q10 0 19.5 -8.5t9.5 -20.5v-459h709v35l-64 125l-123 61h-61l-203 -67q-6 -2 -14 0q-12 2 -18.5 13t-2.5 24l66 198l-66 201q-4 8 -2 16q4 10 15.5 16.5t21.5 2.5l207 -68h45l55 111l-55 110 h-51l-199 -67q-8 -2 -16 0q-12 2 -18.5 13t-2.5 24l66 198l-66 201q-4 8 -2 16q4 12 15.5 18.5t21.5 2.5l205 -70h59l125 66l62 123v32l-791 -2zM616 729l70 139l70 207q4 10 15 16.5t22 0.5q18 -6 18 -27v-348q0 -12 -9 -20.5t-20 -8.5h-139h-2q-6 0 -12 4q-2 0 -4 2 q-20 10 -9 35zM690 745h64v144l-15 -41q0 -2 -2 -4zM985 817q0 39 28.5 67.5t67.5 28.5q27 0 48.5 -13t35 -34.5t13.5 -48.5q0 -39 -29 -67.5t-68 -28.5t-67.5 28.5t-28.5 67.5zM987 1165q0 39 28.5 68t68.5 29t68 -29t28 -68t-28 -67.5t-68 -28.5t-68.5 28.5t-28.5 67.5z M989 266q0 20 7.5 38t20.5 30t30.5 20t37.5 8q39 0 67 -28.5t28 -67.5q0 -27 -12.5 -48t-35 -34.5t-47.5 -13.5q-41 0 -68.5 28.5t-27.5 67.5zM989 610q0 27 13.5 48.5t35 35t47.5 13.5q39 0 67 -29t28 -68t-28 -67.5t-68 -28.5t-67.5 28.5t-27.5 67.5z" />
<glyph unicode="&#xe7;" d="M129 696q-2 8 0 15l68 276q0 6 2 10l141 215q4 4 8 9l205 149q4 4 10 4l303 70q6 2 13 0l286 -62q4 -2 9 -4l241 -153q8 -4 12 -11l144 -276q4 -10 0 -22.5t-15 -16.5l-165 -78q-12 -4 -23 0l-176 68q-6 4 -10 8l-135 147l-164 66l-181 -59l-124 -209l-5 -273l119 -202 l199 -66l151 61l134 154q4 4 10 6l172 72q10 4 22 0l179 -68q12 -4 16 -17t-2 -22l-137 -276q-4 -8 -13 -12l-264 -166h-2l-2 -2l-174 -60l37 -108q4 -10 -2 -21l-68 -143q-4 -8 -14 -12l-139 -70q-12 -6 -25 0l-139 70q-8 4 -15 12l-69 139q-4 12 1 24.5t17 16.5l189 64v32 l-154 60q-2 0 -4 2l-248 172q-4 2 -8 8l-135 193q-4 4 -6 10zM186 705l68 -267l129 -184l242 -166l168 -68q18 -6 18 -26v-72q0 -23 -20 -28l-177 -60l50 -100l118 -60l119 60l60 123l-41 123q-4 10 1 20t15 14l199 70l254 160l118 239l-137 54l-158 -66l-135 -154 q-2 -4 -8 -6l-168 -67q-8 -4 -18 0l-217 71q-10 4 -15 13l-129 217q-6 8 -6 16l4 291q0 8 4 14l138 224q4 8 14 12l198 65q10 4 21 0l178 -71q6 -2 10 -6l136 -148l157 -63l129 59l-125 242l-231 147l-277 59l-290 -67l-197 -143l-135 -207zM664 -26q0 40 28.5 68t67.5 28 t67.5 -28t28.5 -69q0 -25 -13.5 -47t-35 -34.5t-47.5 -12.5q-39 0 -67.5 27.5t-28.5 67.5zM788 1157q0 27 13.5 49.5t35 34.5t48.5 12q39 0 67.5 -27.5t28.5 -67.5t-28.5 -67.5t-67.5 -27.5t-68 27.5t-29 66.5zM793 287q0 27 13 49t34.5 34.5t48.5 12.5q39 0 67.5 -27.5 t28.5 -67.5t-28.5 -67.5t-67.5 -27.5t-67.5 27.5t-28.5 66.5zM870 -26q0 40 29 68t68 28t67.5 -28t28.5 -69q0 -25 -13.5 -47t-35 -34.5t-47.5 -12.5q-39 0 -68 27.5t-29 67.5z" />
<glyph unicode="&#xe8;" d="M127 4v1114q0 12 8 20.5t21 8.5l1392 2q12 0 20.5 -9.5t8.5 -19.5v-69q0 -8 -2 -15l-70 -139q-4 -8 -14 -12l-139 -70q-6 -2 -13 -2l-694 4h-10l-146 45l39 -78q8 -12 0 -26l-36 -76l143 47q4 2 8 2h487q18 0 27 -16l70 -140q6 -12 0 -26l-70 -139q-8 -16 -27 -17h-487 q-4 0 -8 2l-143 49l36 -77q8 -14 0 -27l-36 -78l143 49h8h696q6 0 13 -2l137 -67q8 -4 12 -13l74 -141q2 -6 2 -14v-66q0 -12 -8 -20t-21 -8l-1392 -5q-12 0 -20.5 9.5t-8.5 19.5zM184 33l1336 4v31l-66 127l-123 59h-684l-205 -68q-10 -2 -18 0q-12 6 -16.5 17.5t0.5 23.5 l63 125l-63 127q-4 10 -2 21q4 12 15 18t21 2l205 -69h465l55 112l-55 111h-465l-205 -70q-10 -2 -18 2q-12 4 -16.5 15.5t0.5 23.5l63 127l-63 125q-4 10 -2 21q4 12 14 18t22 2l207 -64l684 -4l125 62l62 125v35l-1336 -2v-1057zM201 1323q0 -10 8 -18.5t16 -10.5 l1186 -139h2h70q12 0 20 9.5t8 19.5v69q0 12 -7 20.5t-17 8.5l-1184 139h-4h-70q-8 0 -15 -4t-10 -11t-3 -13v-70zM258 1350v14h39l1157 -135v-17h-39zM373 672q0 39 28.5 67.5t67.5 28.5q27 0 48.5 -13.5t34.5 -35t13 -47.5q0 -39 -27.5 -68t-67.5 -29t-68.5 29t-28.5 68z M377 246q0 39 28.5 67.5t67.5 28.5t67.5 -28.5t28.5 -67.5t-28.5 -67.5t-67.5 -28.5t-67.5 28.5t-28.5 67.5zM377 459q0 27 13 48t34.5 34.5t48.5 13.5q39 0 67.5 -28.5t28.5 -67.5t-28.5 -68t-67.5 -29t-67.5 29t-28.5 68zM377 883q0 39 27.5 67.5t66.5 28.5 q27 0 49.5 -13.5t34.5 -35t12 -47.5q0 -39 -27.5 -68t-67.5 -29t-67.5 29t-27.5 68z" />
<glyph unicode="&#xe9;" d="M127 4v1114q0 12 8 20.5t21 8.5l1392 2q12 0 20.5 -9.5t8.5 -19.5v-69q0 -8 -2 -15l-70 -139q-4 -8 -14 -12l-139 -70q-6 -2 -13 -2l-694 4h-10l-146 45l39 -78q8 -12 0 -26l-36 -76l143 47q4 2 8 2h487q18 0 27 -16l70 -140q6 -12 0 -26l-70 -139q-8 -16 -27 -17h-487 q-4 0 -8 2l-143 49l36 -77q8 -14 0 -27l-36 -78l143 49h8h696q6 0 13 -2l137 -67q8 -4 12 -13l74 -141q2 -6 2 -14v-66q0 -12 -8 -20t-21 -8l-1392 -5q-12 0 -20.5 9.5t-8.5 19.5zM184 33l1336 4v31l-66 127l-123 59h-684l-205 -68q-10 -2 -18 0q-12 6 -16.5 17.5t0.5 23.5 l63 125l-63 127q-4 10 -2 21q4 12 15 18t21 2l205 -69h465l55 112l-55 111h-465l-205 -70q-10 -2 -18 2q-12 4 -16.5 15.5t0.5 23.5l63 127l-63 125q-4 10 -2 21q4 12 14 18t22 2l207 -64l684 -4l125 62l62 125v35l-1336 -2v-1057zM197 1180v69q0 4 1 9.5t4 8.5t6 5l6 4t7 2 l1184 139h4h70q8 0 15 -4t10 -11t3 -13v-70q0 -10 -7 -18.5t-17 -10.5l-1184 -139h-4h-70q-6 0 -11 3t-9 6t-6 8.5t-2 11.5zM254 1208h39l1157 138v14h-39l-1157 -135v-17zM373 672q0 39 28.5 67.5t67.5 28.5q27 0 48.5 -13.5t34.5 -35t13 -47.5q0 -39 -27.5 -68t-67.5 -29 t-68.5 29t-28.5 68zM377 246q0 39 28.5 67.5t67.5 28.5t67.5 -28.5t28.5 -67.5t-28.5 -67.5t-67.5 -28.5t-67.5 28.5t-28.5 67.5zM377 459q0 27 13 48t34.5 34.5t48.5 13.5q39 0 67.5 -28.5t28.5 -67.5t-28.5 -68t-67.5 -29t-67.5 29t-28.5 68zM377 883q0 39 27.5 67.5 t66.5 28.5q27 0 49.5 -13.5t34.5 -35t12 -47.5q0 -39 -27.5 -68t-67.5 -29t-67.5 29t-27.5 68z" />
<glyph unicode="&#xea;" d="M127 4v1114q0 12 8 20.5t21 8.5l1392 2q12 0 20.5 -9.5t8.5 -19.5v-69q0 -8 -2 -15l-70 -139q-4 -8 -14 -12l-139 -70q-6 -2 -13 -2l-694 4h-10l-146 45l39 -78q8 -12 0 -26l-36 -76l143 47q4 2 8 2h487q18 0 27 -16l70 -140q6 -12 0 -26l-70 -139q-8 -16 -27 -17h-487 q-4 0 -8 2l-143 49l36 -77q8 -14 0 -27l-36 -78l143 49h8h696q6 0 13 -2l137 -67q8 -4 12 -13l74 -141q2 -6 2 -14v-66q0 -12 -8 -20t-21 -8l-1392 -5q-12 0 -20.5 9.5t-8.5 19.5zM184 33l1336 4v31l-66 127l-123 59h-684l-205 -68q-10 -2 -18 0q-12 6 -16.5 17.5t0.5 23.5 l63 125l-63 127q-4 10 -2 21q4 12 15 18t21 2l205 -69h465l55 112l-55 111h-465l-205 -70q-10 -2 -18 2q-12 4 -16.5 15.5t0.5 23.5l63 127l-63 125q-4 10 -2 21q4 12 14 18t22 2l207 -64l684 -4l125 62l62 125v35l-1336 -2v-1057zM197 1184v69q0 9 4 17q6 10 18 12l627 139 q6 2 12 0l627 -139q23 -4 22 -29v-69q0 -10 -8 -19.5t-20 -9.5h-70q-2 0 -4 2l-553 103l-553 -103q-2 -2 -4 -2h-70q-10 0 -19 8t-9 21zM254 1212h39l553 105q6 2 12 0l553 -105h39v19l-598 133l-598 -133v-19zM373 672q0 39 28.5 67.5t67.5 28.5q27 0 48.5 -13.5t34.5 -35 t13 -47.5q0 -39 -27.5 -68t-67.5 -29t-68.5 29t-28.5 68zM377 246q0 39 28.5 67.5t67.5 28.5t67.5 -28.5t28.5 -67.5t-28.5 -67.5t-67.5 -28.5t-67.5 28.5t-28.5 67.5zM377 459q0 27 13 48t34.5 34.5t48.5 13.5q39 0 67.5 -28.5t28.5 -67.5t-28.5 -68t-67.5 -29t-67.5 29 t-28.5 68zM377 883q0 39 27.5 67.5t66.5 28.5q27 0 49.5 -13.5t34.5 -35t12 -47.5q0 -39 -27.5 -68t-67.5 -29t-67.5 29t-27.5 68z" />
<glyph unicode="&#xeb;" d="M127 4v1114q0 12 8 20.5t21 8.5l1392 2q12 0 20.5 -9.5t8.5 -19.5v-69q0 -8 -2 -15l-70 -139q-4 -8 -14 -12l-139 -70q-6 -2 -13 -2l-694 4h-10l-146 45l39 -78q8 -12 0 -26l-36 -76l143 47q4 2 8 2h487q18 0 27 -16l70 -140q6 -12 0 -26l-70 -139q-8 -16 -27 -17h-487 q-4 0 -8 2l-143 49l36 -77q8 -14 0 -27l-36 -78l143 49h8h696q6 0 13 -2l137 -67q8 -4 12 -13l74 -141q2 -6 2 -14v-66q0 -12 -8 -20t-21 -8l-1392 -5q-12 0 -20.5 9.5t-8.5 19.5zM184 33l1336 4v31l-66 127l-123 59h-684l-205 -68q-10 -2 -18 0q-12 6 -16.5 17.5t0.5 23.5 l63 125l-63 127q-4 10 -2 21q4 12 15 18t21 2l205 -69h465l55 112l-55 111h-465l-205 -70q-10 -2 -18 2q-12 4 -16.5 15.5t0.5 23.5l63 127l-63 125q-4 10 -2 21q4 12 14 18t22 2l207 -64l684 -4l125 62l62 125v35l-1336 -2v-1057zM197 1249v70q0 18 16 27l139 69q6 2 13 2 h278q6 0 12 -2l140 -69q16 -8 16 -27v-70q0 -16 -16 -24l-140 -70q-6 -4 -12 -4h-278q-6 0 -13 4l-139 70q-8 4 -12 10t-4 14zM254 1268l117 -60h266l117 60v35l-117 57h-203h-63l-117 -57v-35zM373 672q0 39 28.5 67.5t67.5 28.5q27 0 48.5 -13.5t34.5 -35t13 -47.5 q0 -39 -27.5 -68t-67.5 -29t-68.5 29t-28.5 68zM377 246q0 39 28.5 67.5t67.5 28.5t67.5 -28.5t28.5 -67.5t-28.5 -67.5t-67.5 -28.5t-67.5 28.5t-28.5 67.5zM377 459q0 27 13 48t34.5 34.5t48.5 13.5q39 0 67.5 -28.5t28.5 -67.5t-28.5 -68t-67.5 -29t-67.5 29t-28.5 68z M377 883q0 39 27.5 67.5t66.5 28.5q27 0 49.5 -13.5t34.5 -35t12 -47.5q0 -39 -27.5 -68t-67.5 -29t-67.5 29t-27.5 68zM893 1249v70q0 18 16 27l140 69q2 2 5 2h7h278q6 0 13 -2l139 -69q16 -8 16 -27v-70q0 -16 -16 -24l-139 -70q-6 -4 -13 -4h-278q-6 0 -12 4l-140 70 q-16 8 -16 24zM950 1268l117 -60h266l117 60v35l-117 57h-266l-117 -57v-35z" />
<glyph unicode="&#xec;" d="M127 18v70q0 6 2 12l70 140q4 10 14 14l141 68q6 2 13 2l170 2q4 0 8 -2l160 -52l-56 156q-2 4 -2 10l2 267q0 6 2 10l51 151l-153 -51q-4 -2 -10 -2l-172 2q-8 0 -13 2l-141 70q-10 4 -14 12l-70 139q-2 6 -2 13v67q0 23 23 29h6l1392 2q12 0 20.5 -9.5t8.5 -19.5v-69 q0 -6 -2 -13l-70 -139q-4 -8 -14 -12l-137 -68q-6 -2 -13 -2l-167 -2q-4 -2 -11 0l-162 51l56 -157q2 -4 2 -11v-264q0 -4 -2 -8l-53 -154l151 52q4 2 10 2h174q8 0 15 -2l137 -70q10 -6 14 -14l70 -140q2 -6 2 -12v-70q0 -12 -9 -20t-20 -8h-1392q-12 0 -20.5 9t-8.5 19z M184 47h1336v35l-62 125l-125 61h-164l-202 -67q-8 -4 -17 0q-12 2 -18 13t-2 24l71 202v254l-71 207q-4 8 -2 17q4 12 15 18t22 2l213 -66l157 2l123 60l62 125v33l-1336 -2v-31l62 -125l127 -62l162 -2l206 68q8 4 17 2q10 -4 16 -15.5t2 -23.5l-69 -201l-2 -258l73 -204 q2 -8 0 -17q-2 -12 -13 -18t-24 -2l-209 67l-159 -2l-127 -59l-62 -125v-35zM197 1329q0 -10 7 -18t17 -11l1184 -139h4h70q8 0 14 4t10 11.5t4 13.5v70q0 8 -3 14t-9 10t-12 4l-1184 139h-4h-70q-8 0 -15 -4t-10 -11t-3 -13v-70zM254 1356v14h39l1157 -135v-16h-39z M631 230q0 40 27.5 68t67.5 28t67.5 -28t27.5 -68t-27.5 -67.5t-67.5 -27.5t-67.5 27.5t-27.5 67.5zM631 900q0 40 27.5 67.5t67.5 27.5t67.5 -27.5t27.5 -67.5t-27.5 -67.5t-67.5 -27.5t-67.5 27.5t-27.5 67.5zM889 230q0 40 27.5 68t67.5 28t67.5 -28t27.5 -68 t-27.5 -67.5t-67.5 -27.5t-67.5 27.5t-27.5 67.5zM893 899q0 39 27.5 67.5t67.5 28.5t67.5 -28.5t27.5 -67.5t-27.5 -67.5t-66.5 -28.5q-20 0 -37.5 8t-31 20.5t-20.5 31t-7 36.5z" />
<glyph unicode="&#xed;" d="M127 18v70q0 6 2 12l70 140q4 10 14 14l141 68q6 2 13 2l170 2q4 0 8 -2l160 -52l-56 156q-2 4 -2 10l2 267q0 6 2 10l51 151l-153 -51q-4 -2 -10 -2l-172 2q-8 0 -13 2l-141 70q-10 4 -14 12l-70 139q-2 6 -2 13v67q0 23 23 29h6l1392 2q12 0 20.5 -9.5t8.5 -19.5v-69 q0 -6 -2 -13l-70 -139q-4 -8 -14 -12l-137 -68q-6 -2 -13 -2l-167 -2q-4 -2 -11 0l-162 51l56 -157q2 -4 2 -11v-264q0 -4 -2 -8l-53 -154l151 52q4 2 10 2h174q8 0 15 -2l137 -70q10 -6 14 -14l70 -140q2 -6 2 -12v-70q0 -12 -9 -20t-20 -8h-1392q-12 0 -20.5 9t-8.5 19z M184 47h1336v35l-62 125l-125 61h-164l-202 -67q-8 -4 -17 0q-12 2 -18 13t-2 24l71 202v254l-71 207q-4 8 -2 17q4 12 15 18t22 2l213 -66l157 2l123 60l62 125v33l-1336 -2v-31l62 -125l127 -62l162 -2l206 68q8 4 17 2q10 -4 16 -15.5t2 -23.5l-69 -201l-2 -258l73 -204 q2 -8 0 -17q-2 -12 -13 -18t-24 -2l-209 67l-159 -2l-127 -59l-62 -125v-35zM197 1180v69q0 4 1 9.5t4 8.5t6 5l6 4t7 2l1184 139h4h70q8 0 15 -4t10 -11t3 -13v-70q0 -10 -7 -18.5t-17 -10.5l-1184 -139h-4h-70q-6 0 -11 3t-9 6t-6 8.5t-2 11.5zM254 1208h39l1157 138v14 h-39l-1157 -135v-17zM631 230q0 40 27.5 68t67.5 28t67.5 -28t27.5 -68t-27.5 -67.5t-67.5 -27.5t-67.5 27.5t-27.5 67.5zM631 900q0 40 27.5 67.5t67.5 27.5t67.5 -27.5t27.5 -67.5t-27.5 -67.5t-67.5 -27.5t-67.5 27.5t-27.5 67.5zM889 230q0 40 27.5 68t67.5 28t67.5 -28 t27.5 -68t-27.5 -67.5t-67.5 -27.5t-67.5 27.5t-27.5 67.5zM893 899q0 39 27.5 67.5t67.5 28.5t67.5 -28.5t27.5 -67.5t-27.5 -67.5t-66.5 -28.5q-20 0 -37.5 8t-31 20.5t-20.5 31t-7 36.5z" />
<glyph unicode="&#xee;" d="M127 18v70q0 6 2 12l70 140q4 10 14 14l141 68q6 2 13 2l170 2q4 0 8 -2l160 -52l-56 156q-2 4 -2 10l2 267q0 6 2 10l51 151l-153 -51q-4 -2 -10 -2l-172 2q-8 0 -13 2l-141 70q-10 4 -14 12l-70 139q-2 6 -2 13v67q0 23 23 29h6l1392 2q12 0 20.5 -9.5t8.5 -19.5v-69 q0 -6 -2 -13l-70 -139q-4 -8 -14 -12l-137 -68q-6 -2 -13 -2l-167 -2q-4 -2 -11 0l-162 51l56 -157q2 -4 2 -11v-264q0 -4 -2 -8l-53 -154l151 52q4 2 10 2h174q8 0 15 -2l137 -70q10 -6 14 -14l70 -140q2 -6 2 -12v-70q0 -12 -9 -20t-20 -8h-1392q-12 0 -20.5 9t-8.5 19z M184 47h1336v35l-62 125l-125 61h-164l-202 -67q-8 -4 -17 0q-12 2 -18 13t-2 24l71 202v254l-71 207q-4 8 -2 17q4 12 15 18t22 2l213 -66l157 2l123 60l62 125v33l-1336 -2v-31l62 -125l127 -62l162 -2l206 68q8 4 17 2q10 -4 16 -15.5t2 -23.5l-69 -201l-2 -258l73 -204 q2 -8 0 -17q-2 -12 -13 -18t-24 -2l-209 67l-159 -2l-127 -59l-62 -125v-35zM197 1184v69q0 9 4 17q6 10 18 12l627 139q6 2 12 0l627 -139q23 -4 22 -29v-69q0 -10 -8 -19.5t-20 -9.5h-70q-2 0 -4 2l-553 103l-553 -103q-2 -2 -4 -2h-70q-10 0 -19 8t-9 21zM254 1212h39 l553 105q6 2 12 0l553 -105h39v19l-598 133l-598 -133v-19zM631 230q0 40 27.5 68t67.5 28t67.5 -28t27.5 -68t-27.5 -67.5t-67.5 -27.5t-67.5 27.5t-27.5 67.5zM631 900q0 40 27.5 67.5t67.5 27.5t67.5 -27.5t27.5 -67.5t-27.5 -67.5t-67.5 -27.5t-67.5 27.5t-27.5 67.5z M889 230q0 40 27.5 68t67.5 28t67.5 -28t27.5 -68t-27.5 -67.5t-67.5 -27.5t-67.5 27.5t-27.5 67.5zM893 899q0 39 27.5 67.5t67.5 28.5t67.5 -28.5t27.5 -67.5t-27.5 -67.5t-66.5 -28.5q-20 0 -37.5 8t-31 20.5t-20.5 31t-7 36.5z" />
<glyph unicode="&#xef;" d="M127 18v70q0 6 2 12l70 140q4 10 14 14l141 68q6 2 13 2l170 2q4 0 8 -2l160 -52l-56 156q-2 4 -2 10l2 267q0 6 2 10l51 151l-153 -51q-4 -2 -10 -2l-172 2q-8 0 -13 2l-141 70q-10 4 -14 12l-70 139q-2 6 -2 13v67q0 23 23 29h6l1392 2q12 0 20.5 -9.5t8.5 -19.5v-69 q0 -6 -2 -13l-70 -139q-4 -8 -14 -12l-137 -68q-6 -2 -13 -2l-167 -2q-4 -2 -11 0l-162 51l56 -157q2 -4 2 -11v-264q0 -4 -2 -8l-53 -154l151 52q4 2 10 2h174q8 0 15 -2l137 -70q10 -6 14 -14l70 -140q2 -6 2 -12v-70q0 -12 -9 -20t-20 -8h-1392q-12 0 -20.5 9t-8.5 19z M184 47h1336v35l-62 125l-125 61h-164l-202 -67q-8 -4 -17 0q-12 2 -18 13t-2 24l71 202v254l-71 207q-4 8 -2 17q4 12 15 18t22 2l213 -66l157 2l123 60l62 125v33l-1336 -2v-31l62 -125l127 -62l162 -2l206 68q8 4 17 2q10 -4 16 -15.5t2 -23.5l-69 -201l-2 -258l73 -204 q2 -8 0 -17q-2 -12 -13 -18t-24 -2l-209 67l-159 -2l-127 -59l-62 -125v-35zM197 1249v70q0 18 16 27l139 69q6 2 13 2h278q6 0 12 -2l140 -69q16 -8 16 -27v-70q0 -16 -16 -24l-140 -70q-6 -4 -12 -4h-278q-6 0 -13 4l-139 70q-8 4 -12 10t-4 14zM254 1268l117 -60h266 l117 60v35l-117 57h-203h-63l-117 -57v-35zM631 230q0 40 27.5 68t67.5 28t67.5 -28t27.5 -68t-27.5 -67.5t-67.5 -27.5t-67.5 27.5t-27.5 67.5zM631 900q0 40 27.5 67.5t67.5 27.5t67.5 -27.5t27.5 -67.5t-27.5 -67.5t-67.5 -27.5t-67.5 27.5t-27.5 67.5zM889 230 q0 40 27.5 68t67.5 28t67.5 -28t27.5 -68t-27.5 -67.5t-67.5 -27.5t-67.5 27.5t-27.5 67.5zM893 899q0 39 27.5 67.5t67.5 28.5t67.5 -28.5t27.5 -67.5t-27.5 -67.5t-66.5 -28.5q-20 0 -37.5 8t-31 20.5t-20.5 31t-7 36.5zM893 1249v70q0 18 16 27l140 69q2 2 5 2h7h278 q6 0 13 -2l139 -69q16 -8 16 -27v-70q0 -16 -16 -24l-139 -70q-6 -4 -13 -4h-278q-6 0 -12 4l-140 70q-16 8 -16 24zM950 1268l117 -60h266l117 60v35l-117 57h-266l-117 -57v-35z" />
<glyph unicode="&#xf1;" d="M127 207v909q0 8 5 15.5t11.5 10.5t12.5 3l348 4q8 0 14 -4l209 -139q4 -2 6 -5l418 -417q2 -2 2 -4l49 -72l-31 119v6v432q0 18 15 27l139 71q14 6 27 0l139 -69q8 -4 12 -13l70 -137q4 -6 4 -12v-871q0 -16 -14 -24l-136 -72q-14 -8 -26 0l-141 70q-2 2 -3 2l-213 153 q-2 2 -4 5l-487 487q-2 2 -4 6l-49 74l30 -125v-6l2 -570q0 -8 -5 -14t-11 -10l-139 -70q-12 -8 -27 0l-139 70q-8 4 -12 12l-70 146q-2 4 -2 12zM184 213l62 -129l119 -59l110 55l-2 547l-67 278q-4 18 10 29q10 8 22.5 6t18.5 -12l139 -207l483 -483l207 -152l127 -63 l107 57v844l-62 123l-119 59l-110 -57v-412l67 -275q6 -18 -8 -30q-8 -4 -15 -5t-15.5 2t-12.5 9l-137 207l-414 413l-198 134l-312 -2v-877zM336 1264l35 108q2 10 12 17l106 67q12 10 27 2l133 -65l479 67q6 2 11 0l141 -41q4 0 8 -4l70 -55q16 -12 10 -31l-31 -115 q-4 -10 -12 -16l-108 -68q-14 -10 -29 -2l-131 66l-479 -68q-4 -2 -11 0l-139 33q-8 2 -14 8l-70 68q-14 12 -8 29zM395 1264l54 -50l126 -30l482 67q10 2 18 -2l125 -61l84 53l25 86l-52 39l-127 37l-483 -68q-4 -2 -8 -1t-6 3l14 -2q-4 -2 -8 -1t-6 3h-2l-125 62l-84 -53z " />
<glyph unicode="&#xf2;" d="M127 571q-2 8 0 15l70 278q2 10 10 17l280 219q4 4 11 6l348 70h6h6l348 -70q6 -2 11 -6l280 -219q8 -6 10 -17l70 -278v-13l-57 -292q-2 -12 -13 -19l-290 -205q-4 -2 -11 -4l-348 -69q-6 -2 -12 0l-348 69q-6 2 -11 4l-280 222q-8 6 -10 14zM184 580l66 -263l266 -208 l336 -68l338 68l276 194l54 275l-66 264l-266 209l-336 67l-336 -67l-266 -209zM197 1325q0 -10 7 -18.5t17 -10.5l1184 -139h4h70q8 0 14 4t10 11.5t4 13.5v69q0 12 -7 20.5t-17 8.5l-1184 139h-4h-70q-8 0 -15 -4t-10 -11t-3 -13v-70zM254 1352v14h39l1157 -135v-17h-39z M535 549q-8 14 0 31l120 241q6 10 17 15l172 49q8 2 14 0l180 -47q10 -4 17 -15l123 -243q6 -14 0 -29l-95 -203q-6 -12 -18 -14l-203 -60q-8 -2 -16 0l-170 45q-10 2 -17 13zM594 567l106 -194l152 -41l186 53l80 180l-106 219l-160 43l-152 -45zM756 297q0 25 13 47.5 t34.5 34.5t47.5 12t48.5 -12t34.5 -34.5t12 -47.5q0 -41 -27.5 -68.5t-67.5 -27.5t-67.5 27.5t-27.5 68.5zM758 867q0 40 27.5 68t66.5 28q20 0 37.5 -7.5t31 -20.5t20.5 -30.5t7 -36.5q0 -41 -27.5 -68.5t-67.5 -27.5t-67.5 27.5t-27.5 67.5z" />
<glyph unicode="&#xf3;" d="M127 571q-2 8 0 15l70 278q2 10 10 17l280 219q4 4 11 6l348 70h6h6l348 -70q6 -2 11 -6l280 -219q8 -6 10 -17l70 -278v-13l-57 -292q-2 -12 -13 -19l-290 -205q-4 -2 -11 -4l-348 -69q-6 -2 -12 0l-348 69q-6 2 -11 4l-280 222q-8 6 -10 14zM184 580l66 -263l266 -208 l336 -68l338 68l276 194l54 275l-66 264l-266 209l-336 67l-336 -67l-266 -209zM197 1180v69q0 4 1 9.5t4 8.5t6 5l6 4t7 2l1184 139h4h70q8 0 15 -4t10 -11t3 -13v-70q0 -10 -7 -18.5t-17 -10.5l-1184 -139h-4h-70q-6 0 -11 3t-9 6t-6 8.5t-2 11.5zM254 1208h39l1157 138 v14h-39l-1157 -135v-17zM535 549q-8 14 0 31l120 241q6 10 17 15l172 49q8 2 14 0l180 -47q10 -4 17 -15l123 -243q6 -14 0 -29l-115 -207q-6 -12 -19 -14l-182 -56q-8 -2 -16 0l-170 45q-10 2 -17 13zM594 567l106 -194l152 -41l166 49l100 184l-106 219l-160 43l-152 -45z M756 297q0 25 13 47.5t34.5 34.5t47.5 12t48.5 -12t34.5 -34.5t12 -47.5q0 -41 -27.5 -68.5t-67.5 -27.5t-67.5 27.5t-27.5 68.5zM758 867q0 40 27.5 68t66.5 28q20 0 37.5 -7.5t31 -20.5t20.5 -30.5t7 -36.5q0 -41 -27.5 -68.5t-67.5 -27.5t-67.5 27.5t-27.5 67.5z" />
<glyph unicode="&#xf4;" d="M127 571q-2 8 0 15l70 278q2 10 10 17l280 209q4 4 11 6l348 69h6h6l348 -69q6 -2 11 -6l280 -209q8 -6 10 -17l70 -278v-13l-57 -292q-2 -12 -13 -19l-290 -194q-4 -2 -11 -5l-348 -69q-6 -2 -12 0l-348 69q-6 2 -11 5l-280 211q-8 6 -10 14zM184 580l66 -263l266 -198 l336 -68l338 68l276 184l54 275l-66 264l-266 198l-336 68l-336 -68l-266 -198zM197 1184v69q0 9 4 17q6 10 18 12l627 139q6 2 12 0l627 -139q23 -4 22 -29v-69q0 -10 -8 -19.5t-20 -9.5h-70q-2 0 -4 2l-553 103l-553 -103q-2 -2 -4 -2h-70q-10 0 -19 8t-9 21zM254 1212h39 l553 105q6 2 12 0l553 -105h39v19l-598 133l-598 -133v-19zM535 549q-8 14 0 31l120 241q6 10 17 15l172 49q8 2 14 0l180 -47q10 -4 17 -15l123 -243q6 -14 0 -29l-121 -207q-6 -12 -19 -14l-176 -56q-8 -2 -16 0l-170 45q-10 2 -17 13zM594 567l106 -194l152 -41l160 49 l106 184l-106 219l-160 43l-152 -45zM756 297q0 25 13 47.5t34.5 34.5t47.5 12t48.5 -12t34.5 -34.5t12 -47.5q0 -41 -27.5 -68.5t-67.5 -27.5t-67.5 27.5t-27.5 68.5zM758 867q0 40 27.5 68t66.5 28q20 0 37.5 -7.5t31 -20.5t20.5 -30.5t7 -36.5q0 -41 -27.5 -68.5 t-67.5 -27.5t-67.5 27.5t-27.5 67.5z" />
<glyph unicode="&#xf5;" d="M127 571q-2 8 0 15l70 278q2 10 10 17l280 209q4 4 11 6l348 69h6h6l348 -69q6 -2 11 -6l280 -209q8 -6 10 -17l70 -278v-13l-57 -292q-2 -12 -13 -19l-290 -194q-4 -2 -11 -5l-348 -69q-6 -2 -12 0l-348 69q-6 2 -11 5l-280 211q-8 6 -10 14zM184 580l66 -263l266 -198 l336 -68l338 68l276 184l54 275l-66 264l-266 198l-336 68l-336 -68l-266 -198zM336 1264l35 108q2 10 12 17l106 67q12 10 27 2l133 -65l479 67q6 2 11 0l141 -41q4 0 8 -4l70 -55q16 -12 10 -31l-31 -115q-4 -10 -12 -16l-108 -68q-14 -10 -29 -2l-131 66l-479 -68 q-4 -2 -11 0l-139 33q-8 2 -14 8l-70 68q-14 12 -8 29zM395 1264l54 -50l126 -30l482 67q10 2 18 -2l125 -61l84 53l25 86l-52 39l-127 37l-483 -68q-4 -2 -8 -1t-6 3l14 -2q-4 -2 -8 -1t-6 3h-2l-125 62l-84 -53zM535 549q-8 14 0 31l120 241q6 10 17 15l172 49q8 2 14 0 l180 -47q10 -4 17 -15l123 -243q6 -14 0 -29l-95 -203q-6 -12 -18 -14l-203 -60q-8 -2 -16 0l-170 45q-10 2 -17 13zM594 567l106 -194l152 -41l186 53l80 180l-106 219l-160 43l-152 -45zM756 297q0 25 13 47.5t34.5 34.5t47.5 12t48.5 -12t34.5 -34.5t12 -47.5 q0 -41 -27.5 -68.5t-67.5 -27.5t-67.5 27.5t-27.5 68.5zM758 867q0 40 27.5 68t66.5 28q20 0 37.5 -7.5t31 -20.5t20.5 -30.5t7 -36.5q0 -41 -27.5 -68.5t-67.5 -27.5t-67.5 27.5t-27.5 67.5z" />
<glyph unicode="&#xf6;" d="M127 571q-2 8 0 15l70 278q2 10 10 17l280 209q4 4 11 6l348 69h6h6l348 -69q6 -2 11 -6l280 -209q8 -6 10 -17l70 -278v-13l-57 -292q-2 -12 -13 -19l-290 -194q-4 -2 -11 -5l-348 -69q-6 -2 -12 0l-348 69q-6 2 -11 5l-280 211q-8 6 -10 14zM184 580l66 -263l266 -198 l336 -68l338 68l276 184l54 275l-66 264l-266 198l-336 68l-336 -68l-266 -198zM197 1249v70q0 18 16 27l139 69q6 2 13 2h278q6 0 12 -2l140 -69q16 -8 16 -27v-70q0 -16 -16 -24l-140 -70q-6 -4 -12 -4h-278q-6 0 -13 4l-139 70q-8 4 -12 10t-4 14zM254 1268l117 -60h266 l117 60v35l-117 57h-203h-63l-117 -57v-35zM535 549q-8 14 0 31l120 241q6 10 17 15l172 49q8 2 14 0l180 -47q10 -4 17 -15l123 -243q6 -14 0 -29l-95 -203q-6 -12 -18 -14l-203 -60q-8 -2 -16 0l-170 45q-10 2 -17 13zM594 567l106 -194l152 -41l186 53l80 180l-106 219 l-160 43l-152 -45zM756 297q0 25 13 47.5t34.5 34.5t47.5 12t48.5 -12t34.5 -34.5t12 -47.5q0 -41 -27.5 -68.5t-67.5 -27.5t-67.5 27.5t-27.5 68.5zM758 867q0 40 27.5 68t66.5 28q20 0 37.5 -7.5t31 -20.5t20.5 -30.5t7 -36.5q0 -41 -27.5 -68.5t-67.5 -27.5t-67.5 27.5 t-27.5 67.5zM893 1249v70q0 18 16 27l140 69q2 2 5 2h7h278q6 0 13 -2l139 -69q16 -8 16 -27v-70q0 -16 -16 -24l-139 -70q-6 -4 -13 -4h-278q-6 0 -12 4l-140 70q-16 8 -16 24zM950 1268l117 -60h266l117 60v35l-117 57h-266l-117 -57v-35z" />
<glyph unicode="&#xf8;" d="M117 711q-2 6 0 14l69 279l4 8l150 219l8 8l209 154q4 2 10 4l279 69l6 2l6 -2l281 -69l8 -4l49 -47l49 92q8 14 25 14h139q12 0 20.5 -8t8.5 -21v-139q0 -12 -8 -20l-54 -54l137 -198q2 -4 5 -8l69 -279q2 -8 0 -14l-69 -279q-2 -6 -5 -10l-149 -219l-8 -8l-213 -154 l-8 -4l-277 -70h-12l-281 72q-6 2 -10 4l-43 43l-53 -90q-8 -14 -25 -14h-139q-12 0 -20.5 9t-8.5 19v140q0 12 8 20l54 53l-138 203q-4 4 -4 8zM174 717l66 -264l149 -217q12 -20 -4 -37l-61 -62v-98h94l61 102q6 10 18.5 13.5t22.5 -4.5l64 -56l268 -69l264 67l203 148 l143 211l68 266l-68 268l-145 213q-14 20 2 37l61 61v99h-94l-55 -105q-4 -10 -16.5 -13t-24.5 3l-70 61l-268 68l-266 -68l-201 -147l-143 -209zM512 721v10l33 201q2 8 8 14l143 152q4 2 9 4l135 80q4 2 10 2h10l209 -80q12 -4 17.5 -16.5t0.5 -22.5q-4 -10 -12 -14 l-123 -66l-282 -338l-70 -151q-6 -10 -18.5 -14.5t-22.5 1.5q-12 6 -14 21zM569 725l19 -119l30 68q2 4 5 6l288 346q4 4 9 8l69 35l-135 55l-119 -71l-135 -142zM614 358q0 2 2 4q2 10 11 17h2l127 72l282 346l66 141q6 12 18 16q12 2 23.5 -4t13.5 -18l39 -209 q0 -6 -2 -12l-39 -142q0 -4 -4 -6l-139 -225q-4 -6 -10 -8l-140 -80q-10 -6 -20 -2l-209 80q-29 8 -21 30zM715 360l135 -55l121 72l133 213l37 129l-23 112l-28 -63q-2 -2 -5 -6l-288 -352l-9 -9z" />
<glyph unicode="&#xf9;" d="M125 494v442q0 6 2 12l70 139q4 10 14 15l139 69q12 6 25 0l139 -69q16 -8 16 -27v-305q0 -4 -2 -8l-63 -191l170 -174l215 -106l223 100l162 180l-64 193q-2 4 -2 8v303q0 18 17 27l139 69q12 6 25 0l139 -69q10 -4 14 -15l70 -139q2 -6 2 -12v-440q0 -8 -2 -15 l-139 -278q-4 -8 -13 -13l-280 -161q-2 -2 -4 -2l-281 -84q-6 -2 -14 0l-277 80q-4 2 -6 2l-276 161q-8 6 -13 15l-143 280q-2 6 -2 13zM182 500l135 -267l265 -155l268 -78l268 82l268 156l132 264v426l-62 127l-119 59l-110 -55v-283l67 -205q6 -16 -6 -28l-178 -197 q-4 -4 -10 -6l-240 -107q-10 -4 -22 0l-232 113q-4 2 -8 6l-186 191q-12 12 -6 28l67 205v283l-111 55l-118 -59l-62 -127v-428zM197 1329q0 -10 7 -18t17 -11l1184 -139h4h70q8 0 14 4t10 11.5t4 13.5v70q0 8 -3 14t-9 10t-12 4l-1184 139h-4h-70q-8 0 -15 -4t-10 -11 t-3 -13v-70zM254 1356v14h39l1157 -135v-16h-39zM350 529q0 40 28 69t67.5 29t67.5 -29t28 -69t-28 -67.5t-67.5 -27.5t-67.5 27.5t-28 67.5zM1165 535.5q0 39.5 28 68.5t67 29q27 0 49 -13.5t34.5 -36t12.5 -46.5q0 -41 -28 -69t-67.5 -28t-67.5 28t-28 67.5z" />
<glyph unicode="&#xfa;" d="M125 494v442q0 6 2 12l70 139q4 10 14 15l139 69q12 6 25 0l139 -69q16 -8 16 -27v-305q0 -4 -2 -8l-63 -191l170 -174l215 -106l223 100l162 180l-64 193q-2 4 -2 8v303q0 18 17 27l139 69q12 6 25 0l139 -69q10 -4 14 -15l70 -139q2 -6 2 -12v-440q0 -8 -2 -15 l-139 -278q-4 -8 -13 -13l-280 -161q-2 -2 -4 -2l-281 -84q-6 -2 -14 0l-277 80q-4 2 -6 2l-276 161q-8 6 -13 15l-143 280q-2 6 -2 13zM182 500l135 -267l265 -155l268 -78l268 82l268 156l132 264v426l-62 127l-119 59l-110 -55v-283l67 -205q6 -16 -6 -28l-178 -197 q-4 -4 -10 -6l-240 -107q-10 -4 -22 0l-232 113q-4 2 -8 6l-186 191q-12 12 -6 28l67 205v283l-111 55l-118 -59l-62 -127v-428zM197 1180v69q0 4 1 9.5t4 8.5t6 5l6 4t7 2l1184 139h4h70q8 0 15 -4t10 -11t3 -13v-70q0 -10 -7 -18.5t-17 -10.5l-1184 -139h-4h-70 q-6 0 -11 3t-9 6t-6 8.5t-2 11.5zM254 1208h39l1157 138v14h-39l-1157 -135v-17zM350 529q0 40 28 69t67.5 29t67.5 -29t28 -69t-28 -67.5t-67.5 -27.5t-67.5 27.5t-28 67.5zM1165 535.5q0 39.5 28 68.5t67 29q27 0 49 -13.5t34.5 -36t12.5 -46.5q0 -41 -28 -69t-67.5 -28 t-67.5 28t-28 67.5z" />
<glyph unicode="&#xfb;" d="M125 494v442q0 6 2 12l70 139q4 10 14 15l139 69q12 6 25 0l139 -69q16 -8 16 -27v-305q0 -4 -2 -8l-63 -191l170 -174l215 -106l223 100l162 180l-64 193q-2 4 -2 8v303q0 18 17 27l139 69q12 6 25 0l139 -69q10 -4 14 -15l70 -139q2 -6 2 -12v-440q0 -8 -2 -15 l-139 -278q-4 -8 -13 -13l-280 -161q-2 -2 -4 -2l-281 -84q-6 -2 -14 0l-277 80q-4 2 -6 2l-276 161q-8 6 -13 15l-143 280q-2 6 -2 13zM182 500l135 -267l265 -155l268 -78l268 82l268 156l132 264v426l-62 127l-119 59l-110 -55v-283l67 -205q6 -16 -6 -28l-178 -197 q-4 -4 -10 -6l-240 -107q-10 -4 -22 0l-232 113q-4 2 -8 6l-186 191q-12 12 -6 28l67 205v283l-111 55l-118 -59l-62 -127v-428zM197 1184v69q0 9 4 17q6 10 18 12l627 139q6 2 12 0l627 -139q23 -4 22 -29v-69q0 -10 -8 -19.5t-20 -9.5h-70q-2 0 -4 2l-553 103l-553 -103 q-2 -2 -4 -2h-70q-10 0 -19 8t-9 21zM254 1212h39l553 105q6 2 12 0l553 -105h39v19l-598 133l-598 -133v-19zM350 529q0 40 28 69t67.5 29t67.5 -29t28 -69t-28 -67.5t-67.5 -27.5t-67.5 27.5t-28 67.5zM1165 535.5q0 39.5 28 68.5t67 29q27 0 49 -13.5t34.5 -36 t12.5 -46.5q0 -41 -28 -69t-67.5 -28t-67.5 28t-28 67.5z" />
<glyph unicode="&#xfc;" d="M125 494v442q0 6 2 12l70 139q4 10 14 15l139 69q12 6 25 0l139 -69q16 -8 16 -27v-305q0 -4 -2 -8l-63 -191l170 -174l215 -106l223 100l162 180l-64 193q-2 4 -2 8v303q0 18 17 27l139 69q12 6 25 0l139 -69q10 -4 14 -15l70 -139q2 -6 2 -12v-440q0 -8 -2 -15 l-139 -278q-4 -8 -13 -13l-280 -161q-2 -2 -4 -2l-281 -84q-6 -2 -14 0l-277 80q-4 2 -6 2l-276 161q-8 6 -13 15l-143 280q-2 6 -2 13zM182 500l135 -267l265 -155l268 -78l268 82l268 156l132 264v426l-62 127l-119 59l-110 -55v-283l67 -205q6 -16 -6 -28l-178 -197 q-4 -4 -10 -6l-240 -107q-10 -4 -22 0l-232 113q-4 2 -8 6l-186 191q-12 12 -6 28l67 205v283l-111 55l-118 -59l-62 -127v-428zM197 1249v70q0 18 16 27l139 69q6 2 13 2h278q6 0 12 -2l140 -69q16 -8 16 -27v-70q0 -16 -16 -24l-140 -70q-6 -4 -12 -4h-278q-6 0 -13 4 l-139 70q-8 4 -12 10t-4 14zM254 1268l117 -60h266l117 60v35l-117 57h-203h-63l-117 -57v-35zM350 529q0 40 28 69t67.5 29t67.5 -29t28 -69t-28 -67.5t-67.5 -27.5t-67.5 27.5t-28 67.5zM893 1249v70q0 18 16 27l140 69q2 2 5 2h7h278q6 0 13 -2l139 -69q16 -8 16 -27v-70 q0 -16 -16 -24l-139 -70q-6 -4 -13 -4h-278q-6 0 -12 4l-140 70q-16 8 -16 24zM950 1268l117 -60h266l117 60v35l-117 57h-266l-117 -57v-35zM1165 535.5q0 39.5 28 68.5t67 29q27 0 49 -13.5t34.5 -36t12.5 -46.5q0 -41 -28 -69t-67.5 -28t-67.5 28t-28 67.5z" />
<glyph unicode="&#xfd;" d="M129 918q-6 12 0 26l72 139q4 8 14 13l135 67q6 4 12.5 4t12.5 -4l141 -67q4 -2 8 -6l281 -281q4 -6 6 -12l41 -125l43 129q2 6 6 10l279 279q4 4 8 6l139 69q12 6 25 0l141 -63q10 -4 14 -15l68 -145q6 -12 0 -24l-70 -140q-4 -8 -12 -12l-436 -264v-297v-6l-37 -144 q-4 -12 -16 -18l-142 -68q-12 -6 -24 0l-146 72q-12 6 -16 20l-27 138v4l2 295l-440 268q-8 4 -12 12zM186 930l62 -119l446 -274q14 -8 15 -25l-2 -305l24 -121l119 -59l117 57l32 125v309q0 16 15 25l442 268l62 119l-58 125l-121 53l-122 -61l-269 -271l-69 -203 q-4 -12 -17 -18q-10 -4 -21.5 1t-15.5 17l-67 199l-271 275l-125 59l-114 -57zM188 1180v69q0 8 4.5 14.5t9.5 10.5t13 4l1184 139h4h70q8 0 14 -4t10 -11t4 -13v-70q0 -10 -8 -18.5t-18 -10.5l-1184 -139h-4h-70q-10 0 -19.5 9t-9.5 20zM246 1208h39l1159 138v14h-41 l-1157 -135v-17zM760 587q0 40 27.5 67.5t67.5 27.5t67.5 -27.5t27.5 -68.5q0 -25 -12 -47.5t-34.5 -34.5t-47.5 -12q-41 0 -68.5 27.5t-27.5 67.5z" />
<glyph unicode="&#xff;" d="M129 918q-6 12 0 26l72 139q4 8 14 13l135 67q6 4 12.5 4t12.5 -4l141 -67q4 -2 8 -6l281 -281q4 -6 6 -12l41 -125l43 129q2 6 6 10l279 279q4 4 8 6l139 69q12 6 25 0l141 -63q10 -4 14 -15l68 -145q6 -12 0 -24l-70 -140q-4 -8 -12 -12l-436 -264v-297v-6l-37 -144 q-4 -12 -16 -18l-142 -68q-12 -6 -24 0l-146 72q-12 6 -16 20l-27 138v4l2 295l-440 268q-8 4 -12 12zM186 930l62 -119l446 -274q14 -8 15 -25l-2 -305l24 -121l119 -59l117 57l32 125v309q0 16 15 25l442 268l62 119l-58 125l-121 53l-122 -61l-269 -271l-69 -203 q-4 -12 -17 -18q-10 -4 -21.5 1t-15.5 17l-67 199l-271 275l-125 59l-114 -57zM197 1249v70q0 18 16 27l139 69q6 2 13 2h278q6 0 12 -2l140 -69q16 -8 16 -27v-70q0 -16 -16 -24l-140 -70q-6 -4 -12 -4h-278q-6 0 -13 4l-139 70q-8 4 -12 10t-4 14zM254 1268l117 -60h266 l117 60v35l-117 57h-203h-63l-117 -57v-35zM760 587q0 40 27.5 67.5t67.5 27.5t67.5 -27.5t27.5 -68.5q0 -25 -12 -47.5t-34.5 -34.5t-47.5 -12q-41 0 -68.5 27.5t-27.5 67.5zM893 1249v70q0 18 16 27l140 69q2 2 5 2h7h278q6 0 13 -2l139 -69q16 -8 16 -27v-70 q0 -16 -16 -24l-139 -70q-6 -4 -13 -4h-278q-6 0 -12 4l-140 70q-16 8 -16 24zM950 1268l117 -60h266l117 60v35l-117 57h-266l-117 -57v-35z" />
<glyph unicode="&#x2000;" horiz-adv-x="895" />
<glyph unicode="&#x2001;" horiz-adv-x="1791" />
<glyph unicode="&#x2002;" horiz-adv-x="895" />
<glyph unicode="&#x2003;" horiz-adv-x="1791" />
<glyph unicode="&#x2004;" horiz-adv-x="597" />
<glyph unicode="&#x2005;" horiz-adv-x="447" />
<glyph unicode="&#x2006;" horiz-adv-x="298" />
<glyph unicode="&#x2007;" horiz-adv-x="298" />
<glyph unicode="&#x2008;" horiz-adv-x="223" />
<glyph unicode="&#x2009;" horiz-adv-x="358" />
<glyph unicode="&#x200a;" horiz-adv-x="99" />
<glyph unicode="&#x2010;" d="M408 885q-6 12 0 24l69 140q4 8 11.5 12t15.5 4h696q18 0 27 -16l69 -140q6 -12 0 -24l-69 -140q-8 -16 -27 -16h-696q-18 0 -27 16zM467 897l55 -111h660l55 111l-55 111h-660z" />
<glyph unicode="&#x2011;" d="M408 885q-6 12 0 24l69 140q4 8 11.5 12t15.5 4h696q18 0 27 -16l69 -140q6 -12 0 -24l-69 -140q-8 -16 -27 -16h-696q-18 0 -27 16zM467 897l55 -111h660l55 111l-55 111h-660z" />
<glyph unicode="&#x2012;" d="M408 885q-6 12 0 24l69 140q4 8 11.5 12t15.5 4h696q18 0 27 -16l69 -140q6 -12 0 -24l-69 -140q-8 -16 -27 -16h-696q-18 0 -27 16zM467 897l55 -111h660l55 111l-55 111h-660z" />
<glyph unicode="&#x2013;" horiz-adv-x="1833" d="M408 885q-6 12 0 24l79 140q5 8 13.5 12t17.5 4h798q20 0 31 -16l79 -140q6 -12 0 -24l-79 -140q-10 -16 -31 -16h-798q-20 0 -31 16zM476 897l63 -111h756l63 111l-63 111h-756z" />
<glyph unicode="&#x2014;" horiz-adv-x="2857" d="M412 885q-14 12 0 24l158 140q9 8 26 12t36 4h1594q41 0 62 -16l158 -140q14 -12 0 -24l-158 -140q-18 -16 -62 -16h-1594q-41 0 -62 16zM547 897l126 -111h1512l126 111l-126 111h-1512z" />
<glyph unicode="&#x202f;" horiz-adv-x="358" />
<glyph unicode="&#x205f;" horiz-adv-x="447" />
<glyph unicode="&#x25fc;" horiz-adv-x="1454" d="M0 0v1454h1454v-1454h-1454z" />
</font>
</defs>
</svg>
