<?xml version="1.0" standalone="no"?>
<!DOCTYPE svg PUBLIC "-//W3C//DTD SVG 1.1//EN" "http://www.w3.org/Graphics/SVG/1.1/DTD/svg11.dtd" >
<svg xmlns="http://www.w3.org/2000/svg" xmlns:xlink="http://www.w3.org/1999/xlink" version="1.1">
<metadata>
Created by FontForge 20170731 at Tue Jun 23 20:52:17 2020
 By Aleksey,,,
(c) Copyright 2020, no body.
</metadata>
<defs>
<font id="ReElaine" horiz-adv-x="512" >
  <font-face 
    font-family="ReElaine"
    font-weight="400"
    font-style="italic"
    font-stretch="normal"
    units-per-em="1024"
    panose-1="0 0 0 0 0 0 0 0 0 0"
    ascent="819"
    descent="-205"
    x-height="385"
    cap-height="510"
    bbox="-81 -179 836 683"
    underline-thickness="60"
    underline-position="-210"
    slope="10"
    unicode-range="U+0020-0153"
  />
<missing-glyph 
d="M0 683v-683h438v683h-438zM365 610v-537h-292v537h292z" />
    <glyph glyph-name=".notdef" 
d="M0 683v-683h438v683h-438zM365 610v-537h-292v537h292z" />
    <glyph glyph-name="glyph1" horiz-adv-x="0" 
 />
    <glyph glyph-name="glyph2" 
 />
    <glyph glyph-name="space" unicode=" " horiz-adv-x="332" 
 />
    <glyph glyph-name="quotesingle" unicode="'" horiz-adv-x="153" 
d="M74 577l32 15l31 -15l8 -34l-22 -27h-35l-21 27zM45 537l31 15l31 -15l8 -34l-22 -27h-35l-21 27zM15 496l31 16l31 -16l8 -33l-22 -26h-34l-22 26z" />
    <glyph glyph-name="parenleft" unicode="(" horiz-adv-x="328" 
d="M190 52l32 15l31 -15l8 -33l-22 -27h-35l-21 27zM146 75l31 16l32 -16l7 -33l-21 -28h-35l-22 28zM112 108l32 15l31 -15l7 -34l-21 -27h-35l-21 27zM86 150l31 15l32 -15l7 -33l-21 -28h-35l-22 28zM71 198l31 15l32 -15l7 -34l-21 -27h-35l-22 27zM65 247l31 15l31 -15
l8 -34l-22 -27h-34l-22 27zM65 295l31 15l32 -15l7 -34l-21 -27h-35l-22 27zM72 344l31 15l31 -15l8 -34l-22 -27h-34l-22 27zM87 390l31 16l32 -16l7 -33l-21 -27h-35l-22 27zM114 433l31 15l31 -15l8 -34l-22 -27h-34l-22 27zM149 468l31 15l31 -15l8 -34l-21 -27h-35
l-22 27zM207 504l31 16l31 -16l8 -33l-22 -28h-34l-22 28zM174 504l32 16l31 -16l7 -33l-21 -28h-35l-21 28z" />
    <glyph glyph-name="parenright" unicode=")" horiz-adv-x="324" 
d="M74 484l31 15l31 -15l8 -34l-22 -27h-34l-22 27zM114 456l32 15l31 -15l8 -34l-22 -27h-35l-21 27zM145 421l31 15l32 -15l7 -34l-21 -27h-35l-22 27zM168 376l32 15l31 -15l8 -34l-22 -27h-35l-21 27zM181 326l31 15l32 -15l7 -33l-21 -28h-35l-22 28zM185 278l31 15
l32 -15l7 -34l-21 -27h-35l-22 27zM183 231l32 15l31 -15l8 -34l-22 -27h-35l-21 27zM174 181l31 15l32 -15l7 -34l-21 -27h-35l-22 27zM155 134l32 16l31 -16l8 -33l-22 -27h-35l-21 27zM127 96l31 15l32 -15l7 -34l-21 -27h-35l-22 27zM88 66l31 15l32 -15l7 -34l-21 -27
h-35l-22 27zM41 47l31 15l32 -15l7 -34l-21 -26h-35l-22 26z" />
    <glyph glyph-name="plus" unicode="+" horiz-adv-x="419" 
d="M166 123l32 16l31 -16l7 -33l-21 -28h-35l-21 28zM166 173l32 16l31 -16l7 -33l-21 -28h-35l-21 28zM166 273l32 16l31 -16l7 -33l-21 -28h-35l-21 28zM166 323l32 16l31 -16l7 -33l-21 -28h-35l-21 28zM266 224l32 16l31 -16l7 -33l-21 -27h-35l-21 27zM216 224l32 16
l31 -16l7 -33l-21 -27h-35l-21 27zM166 224l32 16l31 -16l7 -33l-21 -27h-35l-21 27zM116 224l32 16l31 -16l7 -33l-21 -27h-35l-21 27zM66 224l32 16l31 -16l7 -33l-21 -27h-35l-21 27z" />
    <glyph glyph-name="comma" unicode="," horiz-adv-x="209" 
d="M85 72l32 15l31 -15l8 -34l-22 -27h-35l-21 27zM56 32l31 15l31 -15l8 -34l-22 -27h-35l-21 27zM26 -9l31 16l31 -16l8 -33l-22 -26h-34l-22 26z" />
    <glyph glyph-name="hyphen" unicode="-" horiz-adv-x="460" 
d="M291 274l32 16l31 -16l7 -33l-21 -27h-35l-21 27zM241 274l32 16l31 -16l7 -33l-21 -27h-35l-21 27zM191 274l32 16l31 -16l7 -33l-21 -27h-35l-21 27zM141 274l32 16l31 -16l7 -33l-21 -27h-35l-21 27zM91 274l32 16l31 -16l7 -33l-21 -27h-35l-21 27z" />
    <glyph glyph-name="period" unicode="." horiz-adv-x="227" 
d="M97 42l32 16l31 -16l7 -33l-21 -28h-35l-21 28zM63 59l31 15l32 -15l7 -34l-21 -27h-35l-22 27zM85 87l31 16l31 -16l8 -33l-22 -28h-34l-22 28zM97 42l32 16l31 -16l7 -33l-21 -28h-35l-21 28z" />
    <glyph glyph-name="slash" unicode="/" horiz-adv-x="448" 
d="M33 44l32 16l31 -16l7 -33l-21 -27h-35l-21 27zM38 81l31 15l31 -15l8 -34l-22 -27h-34l-22 27zM69 120l32 15l31 -15l8 -34l-22 -27h-35l-21 27zM101 159l31 15l31 -15l8 -34l-21 -27h-35l-22 27zM133 198l31 15l31 -15l8 -34l-22 -27h-35l-21 27zM164 237l31 15l32 -15
l7 -34l-21 -27h-35l-22 27zM196 275l31 15l31 -15l8 -33l-22 -28h-34l-22 28zM227 314l32 15l31 -15l8 -34l-22 -27h-35l-21 27zM259 353l31 15l31 -15l8 -34l-21 -27h-35l-22 27zM291 392l31 15l31 -15l8 -34l-22 -27h-35l-21 27zM322 431l31 15l32 -15l7 -34l-21 -27h-35
l-22 27zM337 471l31 15l31 -15l8 -34l-22 -27h-34l-22 27zM363 494l32 16l31 -16l7 -33l-21 -28h-35l-21 28z" />
    <glyph glyph-name="zero" unicode="0" horiz-adv-x="546" 
d="M80 81l31 15l31 -15l8 -34l-22 -27h-34l-22 27zM111 120l32 15l31 -15l8 -34l-22 -27h-35l-21 27zM143 159l31 15l31 -15l8 -34l-21 -27h-35l-22 27zM175 198l31 15l31 -15l8 -34l-22 -27h-35l-21 27zM206 237l31 15l32 -15l7 -34l-21 -27h-35l-22 27zM238 275l31 15
l31 -15l8 -33l-22 -28h-34l-22 28zM269 314l32 15l31 -15l8 -34l-22 -27h-35l-21 27zM301 353l31 15l31 -15l8 -34l-21 -27h-35l-22 27zM333 392l31 15l31 -15l8 -34l-22 -27h-35l-21 27zM364 431l31 15l32 -15l7 -34l-21 -27h-35l-22 27zM379 471l31 15l31 -15l8 -34
l-22 -27h-34l-22 27zM163 504l32 16l31 -16l7 -33l-21 -28h-35l-21 28zM308 484l31 15l31 -15l8 -34l-22 -27h-34l-22 27zM348 456l32 15l31 -15l8 -34l-22 -27h-35l-21 27zM379 421l31 15l32 -15l7 -34l-21 -27h-35l-22 27zM402 376l32 15l31 -15l8 -34l-22 -27h-35l-21 27
zM415 326l31 15l32 -15l7 -33l-21 -28h-35l-22 28zM419 278l31 15l32 -15l7 -34l-21 -27h-35l-22 27zM417 231l32 15l31 -15l8 -34l-22 -27h-35l-21 27zM408 181l31 15l32 -15l7 -34l-21 -27h-35l-22 27zM389 134l32 16l31 -16l8 -33l-22 -27h-35l-21 27zM361 96l31 15
l32 -15l7 -34l-21 -27h-35l-22 27zM322 66l31 15l32 -15l7 -34l-21 -27h-35l-22 27zM275 47l31 15l32 -15l7 -34l-21 -26h-35l-22 26zM228 40l31 15l31 -15l8 -34l-21 -26h-35l-22 26zM179 52l32 15l31 -15l8 -33l-22 -27h-35l-21 27zM135 75l31 16l32 -16l7 -33l-21 -28
h-35l-22 28zM101 108l32 15l31 -15l7 -34l-21 -27h-35l-21 27zM75 150l31 15l32 -15l7 -33l-21 -28h-35l-22 28zM60 198l31 15l32 -15l7 -34l-21 -27h-35l-22 27zM54 247l31 15l31 -15l8 -34l-22 -27h-34l-22 27zM54 295l31 15l32 -15l7 -34l-21 -27h-35l-22 27zM61 344
l31 15l31 -15l8 -34l-22 -27h-34l-22 27zM76 390l31 16l32 -16l7 -33l-21 -27h-35l-22 27zM103 433l31 15l31 -15l8 -34l-22 -27h-34l-22 27zM138 468l31 15l31 -15l8 -34l-21 -27h-35l-22 27zM205 504l31 16l31 -16l8 -33l-22 -28h-34l-22 28zM163 504l32 16l31 -16l7 -33
l-21 -28h-35l-21 28zM244 489l32 16l31 -16l7 -33l-21 -28h-35l-21 28z" />
    <glyph glyph-name="one" unicode="1" horiz-adv-x="413" 
d="M208 479l32 15l31 -15l7 -34l-21 -27h-35l-21 27zM179 442l31 15l32 -15l7 -34l-21 -27h-35l-22 27zM147 403l31 15l31 -15l8 -33l-22 -28h-35l-21 28zM114 365l31 15l32 -15l7 -34l-21 -27h-35l-22 27zM83 328l31 15l32 -15l7 -33l-21 -28h-35l-22 28zM51 290l31 15
l31 -15l8 -34l-22 -27h-34l-22 27zM234 42l32 15l31 -15l7 -34l-21 -26h-35l-21 26zM234 92l32 15l31 -15l7 -34l-21 -27h-35l-21 27zM234 142l32 15l31 -15l7 -34l-21 -27h-35l-21 27zM234 192l32 15l31 -15l7 -34l-21 -27h-35l-21 27zM234 242l32 15l31 -15l7 -34l-21 -27
h-35l-21 27zM234 292l32 15l31 -15l7 -34l-21 -27h-35l-21 27zM234 342l32 15l31 -15l7 -34l-21 -27h-35l-21 27zM234 392l32 15l31 -15l7 -34l-21 -27h-35l-21 27zM234 442l32 15l31 -15l7 -34l-21 -27h-35l-21 27z" />
    <glyph glyph-name="two" unicode="2" horiz-adv-x="497" 
d="M133 460l32 16l31 -16l7 -33l-21 -28h-35l-21 28zM175 488l31 15l32 -15l7 -34l-21 -27h-35l-22 27zM223 495l32 16l31 -16l7 -33l-21 -28h-35l-21 28zM270 488l31 15l31 -15l8 -34l-21 -27h-35l-22 27zM313 460l32 16l31 -16l7 -33l-21 -28h-35l-21 28zM340 422l32 15
l31 -15l8 -34l-22 -27h-35l-21 27zM348 370l32 16l31 -16l7 -33l-21 -28h-35l-21 28zM103 430l32 16l31 -16l7 -33l-21 -28h-35l-21 28zM84 383l31 15l31 -15l8 -34l-21 -27h-35l-22 27zM83 44l32 16l31 -16l7 -33l-21 -27h-35l-21 27zM319 325l31 15l32 -15l7 -34l-21 -27
h-35l-22 27zM287 286l31 15l31 -15l8 -33l-22 -28h-35l-21 28zM254 248l31 15l32 -15l7 -34l-21 -27h-35l-22 27zM223 211l31 15l32 -15l7 -33l-21 -28h-35l-22 28zM191 173l31 15l31 -15l8 -34l-22 -27h-34l-22 27zM158 134l31 15l32 -15l7 -33l-21 -28h-35l-21 28z
M122 102l31 15l31 -15l8 -34l-22 -27h-34l-22 27zM104 65l31 15l31 -15l8 -34l-22 -27h-34l-22 27zM338 49l32 16l31 -16l7 -33l-21 -27h-35l-21 27zM276 44l31 16l31 -16l8 -33l-22 -27h-34l-22 27zM226 44l31 16l31 -16l8 -33l-22 -27h-34l-22 27zM176 44l31 16l31 -16
l8 -33l-22 -27h-34l-22 27zM126 44l31 16l31 -16l8 -33l-22 -27h-34l-22 27z" />
    <glyph glyph-name="three" unicode="3" horiz-adv-x="520" 
d="M202 302l31 16l32 -16l7 -33l-21 -28h-35l-22 28zM244 301l31 15l32 -15l7 -34l-21 -27h-35l-22 27zM330 256l31 15l32 -15l7 -34l-21 -27h-35l-22 27zM359 299l32 15l31 -15l8 -34l-22 -27h-35l-21 27zM378 199l31 15l32 -15l7 -34l-21 -27h-35l-22 27zM372 155l31 15
l32 -15l7 -34l-21 -27h-35l-22 27zM354 111l31 15l31 -15l8 -34l-22 -27h-34l-22 27zM322 73l31 15l32 -15l7 -34l-21 -27h-35l-22 27zM280 49l31 15l31 -15l8 -34l-22 -26h-34l-22 26zM229 40l31 15l31 -15l8 -34l-22 -26h-34l-22 26zM182 43l32 15l31 -15l8 -34l-22 -26
h-35l-21 26zM137 60l32 15l31 -15l8 -34l-22 -26h-35l-21 26zM101 93l31 15l31 -15l8 -34l-22 -27h-34l-22 27zM76 135l31 15l31 -15l8 -34l-22 -27h-34l-22 27zM65 182l31 16l31 -16l8 -33l-22 -28h-34l-22 28zM288 292l32 16l31 -16l7 -33l-21 -28h-35l-21 28zM202 494
l31 16l32 -16l7 -33l-21 -28h-35l-22 28zM244 493l31 15l32 -15l7 -34l-21 -27h-35l-22 27zM330 448l31 15l32 -15l7 -34l-21 -27h-35l-22 27zM359 409l32 15l31 -15l8 -34l-22 -27h-35l-21 27zM375 362l31 15l31 -15l8 -34l-22 -27h-34l-22 27zM354 221l31 15l31 -15l8 -34
l-22 -27h-34l-22 27zM74 390l31 15l32 -15l7 -34l-21 -27h-35l-22 27zM98 433l31 15l31 -15l8 -34l-22 -27h-34l-22 27zM131 467l31 15l32 -15l7 -34l-21 -27h-35l-22 27zM148 494l32 16l31 -16l7 -33l-21 -28h-35l-21 28zM288 484l32 16l31 -16l7 -33l-21 -28h-35l-21 28z
" />
    <glyph glyph-name="four" unicode="4" horiz-adv-x="488" 
d="M291 52l32 15l31 -15l7 -34l-21 -26h-35l-21 26zM291 102l32 15l31 -15l7 -34l-21 -27h-35l-21 27zM291 152l32 15l31 -15l7 -34l-21 -27h-35l-21 27zM291 202l32 15l31 -15l7 -34l-21 -27h-35l-21 27zM291 252l32 15l31 -15l7 -34l-21 -27h-35l-21 27zM291 302l32 15
l31 -15l7 -34l-21 -27h-35l-21 27zM291 352l32 15l31 -15l7 -34l-21 -27h-35l-21 27zM291 402l32 15l31 -15l7 -34l-21 -27h-35l-21 27zM314 491l32 16l31 -16l7 -33l-21 -28h-35l-21 28zM49 165l32 16l31 -16l7 -33l-21 -27h-35l-21 27zM285 446l31 15l32 -15l7 -34
l-21 -27h-35l-22 27zM253 407l31 15l31 -15l8 -33l-22 -28h-35l-21 28zM220 369l31 15l32 -15l7 -34l-21 -27h-35l-22 27zM189 332l31 15l32 -15l7 -33l-21 -28h-35l-22 28zM157 294l31 15l31 -15l8 -34l-22 -27h-34l-22 27zM124 255l31 15l32 -15l7 -33l-21 -28h-35l-21 28
zM88 223l31 15l31 -15l8 -34l-22 -27h-34l-22 27zM70 186l31 15l31 -15l8 -34l-22 -27h-34l-22 27zM336 170l32 16l31 -16l7 -33l-21 -27h-35l-21 27zM242 165l31 16l31 -16l8 -33l-22 -27h-34l-22 27zM192 165l31 16l31 -16l8 -33l-22 -27h-34l-22 27zM142 165l31 16
l31 -16l8 -33l-22 -27h-34l-22 27zM92 165l31 16l31 -16l8 -33l-22 -27h-34l-22 27z" />
    <glyph glyph-name="five" unicode="5" horiz-adv-x="522" 
d="M308 494l32 16l31 -16l7 -33l-21 -28h-35l-21 28zM94 302l32 15l31 -15l7 -34l-21 -27h-35l-21 27zM94 352l32 15l31 -15l7 -34l-21 -27h-35l-21 27zM94 402l32 15l31 -15l7 -34l-21 -27h-35l-21 27zM94 452l32 15l31 -15l7 -34l-21 -27h-35l-21 27zM109 494l32 16
l31 -16l7 -33l-21 -28h-35l-21 28zM159 494l32 16l31 -16l7 -33l-21 -28h-35l-21 28zM209 494l32 16l31 -16l7 -33l-21 -28h-35l-21 28zM259 494l32 16l31 -16l7 -33l-21 -28h-35l-21 28zM151 302l31 16l32 -16l7 -33l-21 -28h-35l-22 28zM196 302l31 16l32 -16l7 -33
l-21 -28h-35l-22 28zM238 301l31 15l32 -15l7 -34l-21 -27h-35l-22 27zM324 274l31 15l32 -15l7 -34l-21 -27h-35l-22 27zM372 204l31 15l32 -15l7 -34l-21 -27h-35l-22 27zM366 155l31 15l32 -15l7 -34l-21 -27h-35l-22 27zM348 111l31 15l31 -15l8 -34l-22 -27h-34l-22 27
zM316 73l31 15l32 -15l7 -34l-21 -27h-35l-22 27zM274 49l31 15l31 -15l8 -34l-22 -26h-34l-22 26zM223 40l31 15l31 -15l8 -34l-22 -26h-34l-22 26zM176 43l32 15l31 -15l8 -34l-22 -26h-35l-21 26zM131 60l32 15l31 -15l8 -34l-22 -26h-35l-21 26zM95 93l31 15l31 -15
l8 -34l-22 -27h-34l-22 27zM70 135l31 15l31 -15l8 -34l-22 -27h-34l-22 27zM282 292l32 16l31 -16l7 -33l-21 -28h-35l-21 28zM348 239l31 15l31 -15l8 -34l-22 -27h-34l-22 27z" />
    <glyph glyph-name="six" unicode="6" horiz-adv-x="500" 
d="M82 353l31 15l31 -15l8 -34l-21 -27h-35l-22 27zM105 392l31 15l31 -15l8 -34l-22 -27h-35l-21 27zM134 431l31 15l32 -15l7 -34l-21 -27h-35l-22 27zM160 471l31 15l31 -15l8 -34l-22 -27h-34l-22 27zM186 494l32 16l31 -16l7 -33l-21 -28h-35l-21 28zM190 384l31 16
l32 -16l7 -33l-21 -28h-35l-22 28zM232 383l31 15l32 -15l7 -34l-21 -27h-35l-22 27zM318 338l31 15l32 -15l7 -34l-21 -27h-35l-22 27zM347 299l32 15l31 -15l8 -34l-22 -27h-35l-21 27zM363 252l31 15l31 -15l8 -34l-22 -27h-34l-22 27zM366 204l31 15l32 -15l7 -34
l-21 -27h-35l-22 27zM360 155l31 15l32 -15l7 -34l-21 -27h-35l-22 27zM342 111l31 15l31 -15l8 -34l-22 -27h-34l-22 27zM310 73l31 15l32 -15l7 -34l-21 -27h-35l-22 27zM268 49l31 15l31 -15l8 -34l-22 -26h-34l-22 26zM217 40l31 15l31 -15l8 -34l-22 -26h-34l-22 26z
M170 43l32 15l31 -15l8 -34l-22 -26h-35l-21 26zM125 60l32 15l31 -15l8 -34l-22 -26h-35l-21 26zM89 93l31 15l31 -15l8 -34l-22 -27h-34l-22 27zM64 135l31 15l31 -15l8 -34l-22 -27h-34l-22 27zM53 182l31 16l31 -16l8 -33l-22 -28h-34l-22 28zM52 231l31 15l32 -15
l7 -34l-21 -27h-35l-22 27zM62 280l31 15l32 -15l7 -34l-21 -27h-35l-22 27zM86 323l31 15l31 -15l8 -34l-22 -27h-34l-22 27zM119 357l31 15l32 -15l7 -34l-21 -27h-35l-22 27zM276 374l32 16l31 -16l7 -33l-21 -28h-35l-21 28z" />
    <glyph glyph-name="seven" unicode="7" horiz-adv-x="502" 
d="M68 494l32 16l31 -16l7 -33l-21 -28h-35l-21 28zM87 44l32 16l31 -16l7 -33l-21 -27h-35l-21 27zM92 81l31 15l31 -15l8 -34l-22 -27h-34l-22 27zM123 120l32 15l31 -15l8 -34l-22 -27h-35l-21 27zM155 159l31 15l31 -15l8 -34l-21 -27h-35l-22 27zM187 198l31 15l31 -15
l8 -34l-22 -27h-35l-21 27zM218 237l31 15l32 -15l7 -34l-21 -27h-35l-22 27zM250 275l31 15l31 -15l8 -33l-22 -28h-34l-22 28zM281 314l32 15l31 -15l8 -34l-22 -27h-35l-21 27zM313 353l31 15l31 -15l8 -34l-21 -27h-35l-22 27zM345 392l31 15l31 -15l8 -34l-22 -27h-35
l-21 27zM376 431l31 15l32 -15l7 -34l-21 -27h-35l-22 27zM391 471l31 15l31 -15l8 -34l-22 -27h-34l-22 27zM117 494l32 16l31 -16l7 -33l-21 -28h-35l-21 28zM167 494l32 16l31 -16l7 -33l-21 -28h-35l-21 28zM217 494l32 16l31 -16l7 -33l-21 -28h-35l-21 28zM267 494
l32 16l31 -16l7 -33l-21 -28h-35l-21 28zM317 494l32 16l31 -16l7 -33l-21 -28h-35l-21 28zM367 494l32 16l31 -16l7 -33l-21 -28h-35l-21 28zM417 494l32 16l31 -16l7 -33l-21 -28h-35l-21 28z" />
    <glyph glyph-name="eight" unicode="8" horiz-adv-x="522" 
d="M213 334l31 16l32 -16l7 -33l-21 -28h-35l-22 28zM255 333l31 15l32 -15l7 -34l-21 -27h-35l-22 27zM341 300l31 15l32 -15l7 -34l-21 -27h-35l-22 27zM377 311l32 15l31 -15l8 -34l-22 -27h-35l-21 27zM389 204l31 15l32 -15l7 -34l-21 -27h-35l-22 27zM383 155l31 15
l32 -15l7 -34l-21 -27h-35l-22 27zM365 111l31 15l31 -15l8 -34l-22 -27h-34l-22 27zM333 73l31 15l32 -15l7 -34l-21 -27h-35l-22 27zM291 49l31 15l31 -15l8 -34l-22 -26h-34l-22 26zM240 40l31 15l31 -15l8 -34l-22 -26h-34l-22 26zM193 43l32 15l31 -15l8 -34l-22 -26
h-35l-21 26zM148 60l32 15l31 -15l8 -34l-22 -26h-35l-21 26zM112 93l31 15l31 -15l8 -34l-22 -27h-34l-22 27zM87 135l31 15l31 -15l8 -34l-22 -27h-34l-22 27zM76 182l31 16l31 -16l8 -33l-22 -28h-34l-22 28zM75 231l31 15l32 -15l7 -34l-21 -27h-35l-22 27zM90 280
l31 15l32 -15l7 -34l-21 -27h-35l-22 27zM109 323l31 15l31 -15l8 -34l-22 -27h-34l-22 27zM159 334l32 16l31 -16l7 -33l-21 -28h-35l-21 28zM299 324l32 16l31 -16l7 -33l-21 -28h-35l-21 28zM213 493l31 16l32 -16l7 -33l-21 -28h-35l-22 28zM255 492l31 15l32 -15l7 -34
l-21 -27h-35l-22 27zM341 447l31 15l32 -15l7 -34l-21 -27h-35l-22 27zM370 408l32 15l31 -15l8 -34l-22 -27h-35l-21 27zM386 361l31 15l31 -15l8 -34l-22 -27h-34l-22 27zM376 256l31 15l32 -15l7 -34l-21 -27h-35l-22 27zM333 231l31 15l32 -15l7 -34l-21 -27h-35l-22 27
zM291 207l31 15l31 -15l8 -34l-22 -26h-34l-22 26zM240 198l31 15l31 -15l8 -34l-22 -26h-34l-22 26zM193 201l32 15l31 -15l8 -34l-22 -26h-35l-21 26zM148 218l32 15l31 -15l8 -34l-22 -26h-35l-21 26zM112 251l31 15l31 -15l8 -34l-22 -27h-34l-22 27zM75 340l31 15
l32 -15l7 -34l-21 -27h-35l-22 27zM85 389l31 15l32 -15l7 -34l-21 -27h-35l-22 27zM109 432l31 15l31 -15l8 -34l-22 -27h-34l-22 27zM142 466l31 15l32 -15l7 -34l-21 -27h-35l-22 27zM159 493l32 16l31 -16l7 -33l-21 -28h-35l-21 28zM299 483l32 16l31 -16l7 -33
l-21 -28h-35l-21 28z" />
    <glyph glyph-name="nine" unicode="9" horiz-adv-x="498" 
d="M158 496l31 16l32 -16l7 -33l-21 -28h-35l-22 28zM218 32l31 15l31 -15l8 -34l-21 -27h-35l-22 27zM241 71l31 15l31 -15l8 -34l-22 -27h-35l-21 27zM270 110l31 15l32 -15l7 -34l-21 -27h-35l-22 27zM296 150l31 15l31 -15l8 -34l-22 -27h-34l-22 27zM322 173l32 16
l31 -16l7 -33l-21 -28h-35l-21 28zM188 489l31 16l32 -16l7 -33l-21 -28h-35l-22 28zM230 488l31 15l32 -15l7 -34l-21 -27h-35l-22 27zM316 443l31 15l32 -15l7 -34l-21 -27h-35l-22 27zM345 404l32 15l31 -15l8 -34l-22 -27h-35l-21 27zM361 357l31 15l31 -15l8 -34
l-22 -27h-34l-22 27zM364 309l31 15l32 -15l7 -34l-21 -27h-35l-22 27zM358 260l31 15l32 -15l7 -34l-21 -27h-35l-22 27zM340 216l31 15l31 -15l8 -34l-22 -27h-34l-22 27zM266 154l31 15l31 -15l8 -34l-22 -26h-34l-22 26zM215 145l31 15l31 -15l8 -34l-22 -26h-34l-22 26
zM168 148l32 15l31 -15l8 -34l-22 -26h-35l-21 26zM123 165l32 15l31 -15l8 -34l-22 -26h-35l-21 26zM87 198l31 15l31 -15l8 -34l-22 -27h-34l-22 27zM62 240l31 15l31 -15l8 -34l-22 -27h-34l-22 27zM51 287l31 16l31 -16l8 -33l-22 -28h-34l-22 28zM50 336l31 15l32 -15
l7 -34l-21 -27h-35l-22 27zM60 385l31 15l32 -15l7 -34l-21 -27h-35l-22 27zM84 428l31 15l31 -15l8 -34l-22 -27h-34l-22 27zM117 462l31 15l32 -15l7 -34l-21 -27h-35l-22 27zM274 479l32 16l31 -16l7 -33l-21 -28h-35l-21 28z" />
    <glyph glyph-name="colon" unicode=":" horiz-adv-x="254" 
d="M98 306l32 16l31 -16l7 -33l-21 -28h-35l-21 28zM64 323l31 15l32 -15l7 -34l-21 -27h-35l-22 27zM86 351l31 16l31 -16l8 -33l-22 -28h-34l-22 28zM98 306l32 16l31 -16l7 -33l-21 -28h-35l-21 28zM98 58l32 16l31 -16l7 -33l-21 -28h-35l-21 28zM64 75l31 15l32 -15
l7 -34l-21 -27h-35l-22 27zM86 103l31 16l31 -16l8 -33l-22 -28h-34l-22 28zM98 58l32 16l31 -16l7 -33l-21 -28h-35l-21 28z" />
    <glyph glyph-name="semicolon" unicode=";" horiz-adv-x="256" 
d="M99 72l32 15l31 -15l8 -34l-22 -27h-35l-21 27zM70 32l31 15l31 -15l8 -34l-22 -27h-35l-21 27zM40 -9l31 16l31 -16l8 -33l-22 -26h-34l-22 26zM92 306l32 16l31 -16l7 -33l-21 -28h-35l-21 28zM58 323l31 15l32 -15l7 -34l-21 -27h-35l-22 27zM80 351l31 16l31 -16
l8 -33l-22 -28h-34l-22 28zM92 306l32 16l31 -16l7 -33l-21 -28h-35l-21 28z" />
    <glyph glyph-name="A" unicode="A" 
d="M350 57l32 15l31 -15l7 -34l-21 -26h-35l-21 26zM350 107l32 15l31 -15l7 -34l-21 -27h-35l-21 27zM350 157l32 15l31 -15l7 -34l-21 -27h-35l-21 27zM350 207l32 15l31 -15l7 -34l-21 -27h-35l-21 27zM350 257l32 15l31 -15l7 -34l-21 -27h-35l-21 27zM350 307l32 15
l31 -15l7 -34l-21 -27h-35l-21 27zM350 357l32 15l31 -15l7 -34l-21 -27h-35l-21 27zM350 407l32 15l31 -15l7 -34l-21 -27h-35l-21 27zM350 457l32 15l31 -15l7 -34l-21 -27h-35l-21 27zM16 44l32 16l31 -16l7 -33l-21 -27h-35l-21 27zM21 81l31 15l31 -15l8 -34l-22 -27
h-34l-22 27zM52 120l32 15l31 -15l8 -34l-22 -27h-35l-21 27zM84 159l31 15l31 -15l8 -34l-21 -27h-35l-22 27zM116 198l31 15l31 -15l8 -34l-22 -27h-35l-21 27zM147 237l31 15l32 -15l7 -34l-21 -27h-35l-22 27zM179 275l31 15l31 -15l8 -33l-22 -28h-34l-22 28zM210 314
l32 15l31 -15l8 -34l-22 -27h-35l-21 27zM242 353l31 15l31 -15l8 -34l-21 -27h-35l-22 27zM274 392l31 15l31 -15l8 -34l-22 -27h-35l-21 27zM305 431l31 15l32 -15l7 -34l-21 -27h-35l-22 27zM320 471l31 15l31 -15l8 -34l-22 -27h-34l-22 27zM346 494l32 16l31 -16l7 -33
l-21 -28h-35l-21 28zM338 178l31 15l31 -15l8 -34l-21 -27h-35l-22 27zM291 179l32 16l31 -16l7 -33l-21 -28h-35l-21 28zM241 179l32 16l31 -16l7 -33l-21 -28h-35l-21 28zM191 179l32 16l31 -16l7 -33l-21 -28h-35l-21 28zM141 179l32 16l31 -16l7 -33l-21 -28h-35l-21 28
z" />
    <glyph glyph-name="B" unicode="B" horiz-adv-x="524" 
d="M82 254l32 15l31 -15l8 -34l-22 -27h-35l-21 27zM53 214l31 15l31 -15l8 -34l-22 -27h-35l-21 27zM23 173l31 16l31 -16l8 -33l-22 -26h-34l-22 26zM359 230l31 15l32 -15l7 -34l-21 -27h-35l-22 27zM386 193l31 15l32 -15l7 -34l-21 -27h-35l-22 27zM391 145l32 15
l31 -15l8 -34l-22 -27h-35l-21 27zM373 99l31 15l31 -15l8 -34l-22 -27h-34l-22 27zM337 69l32 15l31 -15l8 -34l-22 -27h-35l-21 27zM292 50l31 16l31 -16l8 -33l-22 -27h-34l-22 27zM241 45l31 15l32 -15l7 -34l-21 -26h-35l-22 26zM195 44l31 16l31 -16l8 -33l-22 -27
h-34l-22 27zM145 44l31 16l31 -16l8 -33l-22 -27h-34l-22 27zM95 44l31 16l31 -16l8 -33l-22 -27h-34l-22 27zM77 74l32 16l31 -16l7 -33l-21 -28h-35l-21 28zM77 124l32 16l31 -16l7 -33l-21 -28h-35l-21 28zM77 174l32 16l31 -16l7 -33l-21 -28h-35l-21 28zM77 224l32 16
l31 -16l7 -33l-21 -28h-35l-21 28zM77 324l32 16l31 -16l7 -33l-21 -28h-35l-21 28zM77 374l32 16l31 -16l7 -33l-21 -28h-35l-21 28zM77 424l32 16l31 -16l7 -33l-21 -28h-35l-21 28zM77 474l32 16l31 -16l7 -33l-21 -28h-35l-21 28zM105 494l31 16l31 -16l8 -33l-22 -28
h-34l-22 28zM155 494l31 16l31 -16l8 -33l-22 -28h-34l-22 28zM205 494l31 16l31 -16l8 -33l-22 -28h-34l-22 28zM253 494l32 15l31 -15l8 -34l-22 -27h-35l-21 27zM302 486l31 15l31 -15l8 -34l-22 -27h-34l-22 27zM344 463l31 15l32 -15l7 -34l-21 -27h-35l-22 27z
M371 422l31 15l31 -15l8 -34l-21 -27h-35l-22 27zM377 374l31 15l32 -15l7 -34l-21 -27h-35l-22 27zM364 327l31 15l31 -15l8 -34l-22 -27h-35l-21 27zM327 298l31 15l31 -15l8 -34l-22 -27h-34l-22 27zM297 274l32 16l31 -16l7 -33l-21 -28h-35l-21 28zM312 249l32 16
l31 -16l7 -33l-21 -28h-35l-21 28zM167 279l32 16l31 -16l7 -33l-21 -28h-35l-21 28zM217 279l32 16l31 -16l7 -33l-21 -28h-35l-21 28zM265 282l31 15l32 -15l7 -34l-21 -27h-35l-22 27zM104 282l31 15l32 -15l7 -34l-21 -27h-35l-22 27zM109 264l31 15l32 -15l7 -34
l-21 -27h-35l-22 27z" />
    <glyph glyph-name="C" unicode="C" horiz-adv-x="567" 
d="M122 142l32 15l31 -15l8 -34l-22 -27h-35l-21 27zM93 102l31 15l31 -15l8 -34l-22 -27h-35l-21 27zM63 61l31 16l31 -16l8 -33l-22 -26h-34l-22 26zM410 95l32 15l31 -15l8 -34l-22 -27h-35l-21 27zM373 65l31 15l31 -15l8 -34l-22 -27h-34l-22 27zM325 46l31 15l32 -15
l7 -34l-21 -26h-35l-22 26zM276 39l32 16l31 -16l8 -33l-22 -26h-35l-21 26zM229 42l31 15l32 -15l7 -33l-21 -27h-35l-22 27zM180 55l32 15l31 -15l8 -34l-22 -26h-35l-21 26zM138 80l31 15l31 -15l8 -34l-22 -27h-35l-21 27zM105 113l32 15l31 -15l8 -34l-22 -27h-35
l-21 27zM81 157l31 15l31 -15l8 -34l-22 -27h-35l-21 27zM67 205l31 15l31 -15l8 -34l-22 -27h-34l-22 27zM61 255l32 15l31 -15l8 -34l-22 -27h-35l-21 27zM63 303l31 15l31 -15l8 -34l-22 -27h-34l-22 27zM70 351l32 15l31 -15l8 -34l-22 -27h-35l-21 27zM88 399l31 15
l32 -15l7 -34l-21 -27h-35l-22 27zM116 439l32 15l31 -15l7 -33l-21 -28h-35l-21 28zM152 472l31 15l31 -15l8 -34l-22 -27h-34l-22 27zM196 494l31 15l32 -15l7 -34l-21 -27h-35l-22 27zM246 504l31 15l31 -15l8 -34l-22 -27h-34l-22 27zM292 503l32 15l31 -15l8 -34
l-22 -27h-35l-21 27zM341 493l32 15l31 -15l8 -34l-22 -27h-35l-21 27zM384 471l32 15l31 -15l8 -33l-22 -28h-35l-21 28zM420 436l31 16l31 -16l8 -33l-21 -27h-35l-22 27zM436 137l32 15l31 -15l7 -34l-21 -27h-35l-21 27z" />
    <glyph glyph-name="D" unicode="D" horiz-adv-x="566" 
d="M220 494l32 16l31 -16l7 -33l-21 -28h-35l-21 28zM271 491l31 15l31 -15l8 -34l-22 -27h-35l-21 27zM319 477l32 15l31 -15l8 -33l-22 -28h-35l-21 28zM363 453l31 15l32 -15l7 -33l-21 -28h-35l-22 28zM399 421l31 15l31 -15l8 -34l-22 -27h-34l-22 27zM425 378l31 15
l32 -15l7 -33l-21 -28h-35l-22 28zM440 331l31 15l31 -15l8 -34l-22 -27h-34l-22 27zM445 281l31 15l32 -15l7 -34l-21 -27h-35l-22 27zM443 233l32 15l31 -15l8 -33l-22 -28h-35l-21 28zM435 187l31 15l31 -15l8 -34l-22 -27h-34l-22 27zM415 141l31 15l31 -15l8 -34
l-21 -27h-35l-22 27zM384 103l31 15l31 -15l8 -34l-22 -27h-34l-22 27zM344 73l31 15l32 -15l7 -34l-21 -27h-35l-22 27zM297 54l31 15l32 -15l7 -34l-21 -26h-35l-22 26zM247 46l32 15l31 -15l8 -34l-22 -26h-35l-21 26zM203 44l31 16l31 -16l8 -33l-22 -27h-34l-22 27z
M153 44l31 16l31 -16l8 -33l-22 -27h-34l-22 27zM103 44l31 16l31 -16l8 -33l-22 -27h-34l-22 27zM80 69l32 16l31 -16l7 -33l-21 -28h-35l-21 28zM80 119l32 16l31 -16l7 -33l-21 -28h-35l-21 28zM80 169l32 16l31 -16l7 -33l-21 -28h-35l-21 28zM80 219l32 16l31 -16
l7 -33l-21 -28h-35l-21 28zM80 269l32 16l31 -16l7 -33l-21 -28h-35l-21 28zM80 319l32 16l31 -16l7 -33l-21 -28h-35l-21 28zM80 369l32 16l31 -16l7 -33l-21 -28h-35l-21 28zM80 419l32 16l31 -16l7 -33l-21 -28h-35l-21 28zM80 469l32 16l31 -16l7 -33l-21 -28h-35
l-21 28zM103 494l31 16l31 -16l8 -33l-22 -28h-34l-22 28zM153 494l31 16l31 -16l8 -33l-22 -28h-34l-22 28zM203 494l31 16l31 -16l8 -33l-22 -28h-34l-22 28zM220 494l32 16l31 -16l7 -33l-21 -28h-35l-21 28z" />
    <glyph glyph-name="E" unicode="E" horiz-adv-x="518" 
d="M78 94l32 16l31 -16l7 -33l-21 -28h-35l-21 28zM78 144l32 16l31 -16l7 -33l-21 -28h-35l-21 28zM78 194l32 16l31 -16l7 -33l-21 -28h-35l-21 28zM78 244l32 16l31 -16l7 -33l-21 -28h-35l-21 28zM78 294l32 16l31 -16l7 -33l-21 -28h-35l-21 28zM78 344l32 16l31 -16
l7 -33l-21 -28h-35l-21 28zM78 394l32 16l31 -16l7 -33l-21 -28h-35l-21 28zM78 444l32 16l31 -16l7 -33l-21 -28h-35l-21 28zM78 494l32 16l31 -16l7 -33l-21 -28h-35l-21 28zM128 494l32 16l31 -16l7 -33l-21 -28h-35l-21 28zM178 494l32 16l31 -16l7 -33l-21 -28h-35
l-21 28zM228 494l32 16l31 -16l7 -33l-21 -28h-35l-21 28zM278 494l32 16l31 -16l7 -33l-21 -28h-35l-21 28zM328 494l32 16l31 -16l7 -33l-21 -28h-35l-21 28zM378 494l32 16l31 -16l7 -33l-21 -28h-35l-21 28zM131 279l31 16l31 -16l8 -33l-22 -28h-34l-22 28zM181 279
l31 16l31 -16l8 -33l-22 -28h-34l-22 28zM231 279l31 16l31 -16l8 -33l-22 -28h-34l-22 28zM281 279l31 16l31 -16l8 -33l-22 -28h-34l-22 28zM318 269l32 16l31 -16l7 -33l-21 -28h-35l-21 28zM393 44l32 16l31 -16l7 -33l-21 -27h-35l-21 27zM343 44l32 16l31 -16l7 -33
l-21 -27h-35l-21 27zM293 44l32 16l31 -16l7 -33l-21 -27h-35l-21 27zM243 44l32 16l31 -16l7 -33l-21 -27h-35l-21 27zM193 44l32 16l31 -16l7 -33l-21 -27h-35l-21 27zM143 44l32 16l31 -16l7 -33l-21 -27h-35l-21 27zM93 44l32 16l31 -16l7 -33l-21 -27h-35l-21 27z" />
    <glyph glyph-name="F" unicode="F" horiz-adv-x="473" 
d="M110 281l31 15l31 -15l8 -34l-22 -27h-34l-22 27zM155 279l32 16l31 -16l7 -33l-21 -28h-35l-21 28zM205 279l32 16l31 -16l7 -33l-21 -28h-35l-21 28zM255 279l32 16l31 -16l7 -33l-21 -28h-35l-21 28zM305 279l32 16l31 -16l7 -33l-21 -28h-35l-21 28zM80 47l32 15
l31 -15l7 -34l-21 -26h-35l-21 26zM80 97l32 15l31 -15l7 -34l-21 -27h-35l-21 27zM80 147l32 15l31 -15l7 -34l-21 -27h-35l-21 27zM80 197l32 15l31 -15l7 -34l-21 -27h-35l-21 27zM80 247l32 15l31 -15l7 -34l-21 -27h-35l-21 27zM80 297l32 15l31 -15l7 -34l-21 -27h-35
l-21 27zM80 347l32 15l31 -15l7 -34l-21 -27h-35l-21 27zM80 397l32 15l31 -15l7 -34l-21 -27h-35l-21 27zM80 447l32 15l31 -15l7 -34l-21 -27h-35l-21 27zM80 494l32 16l31 -16l7 -33l-21 -28h-35l-21 28zM130 494l32 16l31 -16l7 -33l-21 -28h-35l-21 28zM180 494l32 16
l31 -16l7 -33l-21 -28h-35l-21 28zM230 494l32 16l31 -16l7 -33l-21 -28h-35l-21 28zM280 494l32 16l31 -16l7 -33l-21 -28h-35l-21 28zM330 494l32 16l31 -16l7 -33l-21 -28h-35l-21 28zM380 494l32 16l31 -16l7 -33l-21 -28h-35l-21 28z" />
    <glyph glyph-name="G" unicode="G" horiz-adv-x="605" 
d="M125 142l32 15l31 -15l8 -34l-22 -27h-35l-21 27zM96 102l31 15l31 -15l8 -34l-22 -27h-35l-21 27zM66 61l31 16l31 -16l8 -33l-22 -26h-34l-22 26zM364 61l32 15l31 -15l8 -34l-22 -27h-35l-21 27zM317 43l31 16l32 -16l7 -33l-21 -27h-35l-22 27zM269 39l32 16l31 -16
l8 -33l-22 -27h-35l-21 27zM220 44l31 15l32 -15l7 -34l-21 -26h-35l-22 26zM173 59l31 15l31 -15l8 -34l-21 -26h-35l-22 26zM132 85l31 15l31 -15l8 -33l-22 -28h-34l-22 28zM100 121l31 15l32 -15l7 -33l-21 -28h-35l-22 28zM78 165l32 15l31 -15l8 -34l-22 -27h-35
l-21 27zM66 215l31 15l32 -15l7 -34l-21 -27h-35l-22 27zM62 264l32 15l31 -15l8 -34l-22 -27h-35l-21 27zM65 311l31 15l31 -15l8 -33l-22 -28h-34l-22 28zM76 361l31 15l32 -15l7 -34l-21 -27h-35l-22 27zM96 405l32 15l31 -15l8 -34l-22 -27h-35l-21 27zM126 443l31 15
l31 -15l8 -34l-22 -27h-35l-21 27zM164 474l31 15l31 -15l8 -34l-22 -27h-35l-21 27zM209 495l32 15l31 -15l8 -34l-22 -27h-35l-21 27zM259 504l32 15l31 -15l8 -34l-22 -27h-35l-21 27zM305 503l32 15l31 -15l8 -34l-22 -27h-35l-21 27zM354 493l32 15l31 -15l8 -34
l-22 -27h-35l-21 27zM396 470l31 15l32 -15l7 -33l-21 -28h-35l-22 28zM430 433l31 15l31 -15l8 -34l-22 -27h-34l-22 27zM402 94l32 16l31 -16l7 -33l-21 -28h-35l-21 28zM282 242l32 15l31 -15l7 -34l-21 -27h-35l-21 27zM322 249l32 16l31 -16l7 -33l-21 -28h-35l-21 28z
M372 249l32 16l31 -16l7 -33l-21 -28h-35l-21 28zM422 249l32 16l31 -16l7 -33l-21 -28h-35l-21 28zM452 232l32 15l31 -15l7 -34l-21 -27h-35l-21 27zM452 182l32 15l31 -15l7 -34l-21 -27h-35l-21 27zM452 132l32 15l31 -15l7 -34l-21 -27h-35l-21 27zM447 47l32 15
l31 -15l7 -34l-21 -26h-35l-21 26zM447 94l31 15l31 -15l8 -34l-22 -27h-34l-22 27z" />
    <glyph glyph-name="H" unicode="H" horiz-adv-x="564" 
d="M80 269l32 15l31 -15l8 -34l-22 -27h-35l-21 27zM51 229l31 15l31 -15l8 -34l-22 -27h-35l-21 27zM21 188l31 16l31 -16l8 -33l-22 -26h-34l-22 26zM408 494l32 16l31 -16l7 -33l-21 -28h-35l-21 28zM408 57l32 15l31 -15l7 -34l-21 -26h-35l-21 26zM408 107l32 15
l31 -15l7 -34l-21 -27h-35l-21 27zM408 157l32 15l31 -15l7 -34l-21 -27h-35l-21 27zM408 207l32 15l31 -15l7 -34l-21 -27h-35l-21 27zM405 256l32 15l31 -15l8 -34l-22 -27h-35l-21 27zM93 242l32 15l31 -15l7 -34l-21 -27h-35l-21 27zM93 192l32 15l31 -15l7 -34l-21 -27
h-35l-21 27zM93 142l32 15l31 -15l7 -34l-21 -27h-35l-21 27zM93 92l32 15l31 -15l7 -34l-21 -27h-35l-21 27zM93 44l32 16l31 -16l7 -33l-21 -27h-35l-21 27zM93 482l32 15l31 -15l7 -34l-21 -27h-35l-21 27zM93 432l32 15l31 -15l7 -34l-21 -27h-35l-21 27zM93 382l32 15
l31 -15l7 -34l-21 -27h-35l-21 27zM93 332l32 15l31 -15l7 -34l-21 -27h-35l-21 27zM99 286l31 15l31 -15l8 -34l-22 -27h-34l-22 27zM143 279l32 16l31 -16l7 -33l-21 -28h-35l-21 28zM193 279l32 16l31 -16l7 -33l-21 -28h-35l-21 28zM243 279l32 16l31 -16l7 -33l-21 -28
h-35l-21 28zM293 279l32 16l31 -16l7 -33l-21 -28h-35l-21 28zM343 279l32 16l31 -16l7 -33l-21 -28h-35l-21 28zM408 317l32 15l31 -15l7 -34l-21 -27h-35l-21 27zM408 367l32 15l31 -15l7 -34l-21 -27h-35l-21 27zM408 417l32 15l31 -15l7 -34l-21 -27h-35l-21 27z
M408 467l32 15l31 -15l7 -34l-21 -27h-35l-21 27z" />
    <glyph glyph-name="I" unicode="I" horiz-adv-x="254" 
d="M83 494l32 16l31 -16l7 -33l-21 -28h-35l-21 28zM83 444l32 16l31 -16l7 -33l-21 -28h-35l-21 28zM83 394l32 16l31 -16l7 -33l-21 -28h-35l-21 28zM83 344l32 16l31 -16l7 -33l-21 -28h-35l-21 28zM83 294l32 16l31 -16l7 -33l-21 -28h-35l-21 28zM83 244l32 16l31 -16
l7 -33l-21 -28h-35l-21 28zM83 194l32 16l31 -16l7 -33l-21 -28h-35l-21 28zM83 144l32 16l31 -16l7 -33l-21 -28h-35l-21 28zM83 94l32 16l31 -16l7 -33l-21 -28h-35l-21 28zM83 44l32 16l31 -16l7 -33l-21 -27h-35l-21 27z" />
    <glyph glyph-name="J" unicode="J" horiz-adv-x="463" 
d="M314 494l32 16l31 -16l7 -33l-21 -28h-35l-21 28zM314 442l32 15l31 -15l7 -34l-21 -27h-35l-21 27zM314 392l32 15l31 -15l7 -34l-21 -27h-35l-21 27zM314 342l32 15l31 -15l7 -34l-21 -27h-35l-21 27zM314 292l32 15l31 -15l7 -34l-21 -27h-35l-21 27zM314 242l32 15
l31 -15l7 -34l-21 -27h-35l-21 27zM314 192l32 15l31 -15l7 -34l-21 -27h-35l-21 27zM310 146l31 15l31 -15l8 -33l-21 -28h-35l-22 28zM293 100l31 16l31 -16l8 -33l-22 -27h-34l-22 27zM262 65l31 15l31 -15l8 -34l-22 -27h-34l-22 27zM215 45l32 15l31 -15l8 -34l-22 -26
h-35l-21 26zM169 39l32 16l31 -16l7 -33l-21 -27h-35l-21 27zM119 44l32 15l31 -15l8 -33l-22 -27h-35l-21 27zM74 65l31 15l31 -15l8 -34l-21 -27h-35l-22 27zM47 104l31 15l31 -15l8 -34l-22 -27h-34l-22 27zM39 154l31 15l31 -15l8 -34l-22 -27h-35l-21 27z" />
    <glyph glyph-name="K" unicode="K" horiz-adv-x="556" 
d="M98 316l32 15l31 -15l8 -34l-22 -27h-35l-21 27zM69 276l31 15l31 -15l8 -34l-22 -27h-35l-21 27zM39 235l31 16l31 -16l8 -33l-22 -26h-34l-22 26zM436 44l32 16l31 -16l7 -33l-21 -27h-35l-21 27zM408 86l31 15l31 -15l8 -34l-22 -27h-34l-22 27zM379 127l32 15l31 -15
l8 -34l-22 -27h-35l-21 27zM351 169l31 15l31 -15l8 -34l-21 -27h-35l-22 27zM322 210l32 15l31 -15l8 -34l-22 -27h-35l-21 27zM294 251l31 15l32 -15l7 -34l-21 -27h-35l-22 27zM229 277l32 15l31 -15l8 -34l-22 -27h-35l-21 27zM196 242l32 15l31 -15l8 -34l-22 -27h-35
l-21 27zM162 205l31 16l31 -16l8 -33l-22 -28h-34l-22 28zM126 52l32 15l31 -15l7 -34l-21 -26h-35l-21 26zM126 102l32 15l31 -15l7 -34l-21 -27h-35l-21 27zM126 152l32 15l31 -15l7 -34l-21 -27h-35l-21 27zM126 202l32 15l31 -15l7 -34l-21 -27h-35l-21 27zM126 252
l32 15l31 -15l7 -34l-21 -27h-35l-21 27zM126 302l32 15l31 -15l7 -34l-21 -27h-35l-21 27zM126 352l32 15l31 -15l7 -34l-21 -27h-35l-21 27zM126 402l32 15l31 -15l7 -34l-21 -27h-35l-21 27zM126 452l32 15l31 -15l7 -34l-21 -27h-35l-21 27zM131 494l32 16l31 -16l7 -33
l-21 -28h-35l-21 28zM427 480l31 15l32 -15l7 -34l-21 -27h-35l-22 27zM394 445l31 16l31 -16l8 -33l-22 -27h-34l-22 27zM359 409l31 15l31 -15l8 -34l-22 -27h-34l-22 27zM323 373l32 15l31 -15l8 -34l-22 -27h-35l-21 27zM288 337l32 15l31 -15l8 -34l-22 -27h-35l-21 27
zM276 304l32 16l31 -16l7 -33l-21 -28h-35l-21 28z" />
    <glyph glyph-name="L" unicode="L" horiz-adv-x="549" 
d="M94 50l32 15l31 -15l7 -33l-21 -28h-35l-21 28zM130 83l31 15l31 -15l8 -34l-22 -27h-34l-22 27zM174 105l31 15l32 -15l7 -34l-21 -27h-35l-22 27zM224 115l31 15l31 -15l8 -34l-22 -27h-34l-22 27zM270 114l32 15l31 -15l8 -34l-22 -27h-35l-21 27zM319 104l32 15
l31 -15l8 -34l-22 -27h-35l-21 27zM362 82l32 15l31 -15l8 -33l-22 -28h-35l-21 28zM398 47l31 16l31 -16l8 -33l-21 -27h-35l-22 27zM45 73l31 15l31 -15l8 -34l-22 -27h-34l-22 27zM76 112l32 15l31 -15l8 -34l-22 -27h-35l-21 27zM108 151l31 15l31 -15l8 -34l-21 -27
h-35l-22 27zM140 190l31 15l31 -15l8 -34l-22 -27h-35l-21 27zM171 229l31 15l32 -15l7 -34l-21 -27h-35l-22 27zM203 267l31 15l31 -15l8 -33l-22 -28h-34l-22 28zM234 306l32 15l31 -15l8 -34l-22 -27h-35l-21 27zM266 345l31 15l31 -15l8 -34l-21 -27h-35l-22 27z
M298 384l31 15l31 -15l8 -34l-22 -27h-35l-21 27zM329 423l31 15l32 -15l7 -34l-21 -27h-35l-22 27zM344 463l31 15l31 -15l8 -34l-22 -27h-34l-22 27zM370 486l32 16l31 -16l7 -33l-21 -28h-35l-21 28zM19 49l32 15l31 -15l7 -34l-21 -26h-35l-21 26z" />
    <glyph glyph-name="M" unicode="M" horiz-adv-x="870" 
d="M710 51l32 15l31 -15l7 -34l-21 -26h-35l-21 26zM710 101l32 15l31 -15l7 -34l-21 -27h-35l-21 27zM710 151l32 15l31 -15l7 -34l-21 -27h-35l-21 27zM710 201l32 15l31 -15l7 -34l-21 -27h-35l-21 27zM710 251l32 15l31 -15l7 -34l-21 -27h-35l-21 27zM710 301l32 15
l31 -15l7 -34l-21 -27h-35l-21 27zM710 351l32 15l31 -15l7 -34l-21 -27h-35l-21 27zM710 401l32 15l31 -15l7 -34l-21 -27h-35l-21 27zM710 451l32 15l31 -15l7 -34l-21 -27h-35l-21 27zM34 38l32 16l31 -16l7 -33l-21 -27h-35l-21 27zM39 75l31 15l31 -15l8 -34l-22 -27
h-34l-22 27zM70 114l32 15l31 -15l8 -34l-22 -27h-35l-21 27zM102 153l31 15l31 -15l8 -34l-21 -27h-35l-22 27zM134 192l31 15l31 -15l8 -34l-22 -27h-35l-21 27zM165 231l31 15l32 -15l7 -34l-21 -27h-35l-22 27zM197 269l31 15l31 -15l8 -33l-22 -28h-34l-22 28zM228 308
l32 15l31 -15l8 -34l-22 -27h-35l-21 27zM260 347l31 15l31 -15l8 -34l-21 -27h-35l-22 27zM292 386l31 15l31 -15l8 -34l-22 -27h-35l-21 27zM323 425l31 15l32 -15l7 -34l-21 -27h-35l-22 27zM338 465l31 15l31 -15l8 -34l-22 -27h-34l-22 27zM383 75l31 15l31 -15l8 -34
l-22 -27h-34l-22 27zM414 114l32 15l31 -15l8 -34l-22 -27h-35l-21 27zM446 153l31 15l31 -15l8 -34l-21 -27h-35l-22 27zM478 192l31 15l31 -15l8 -34l-22 -27h-35l-21 27zM509 231l31 15l32 -15l7 -34l-21 -27h-35l-22 27zM541 269l31 15l31 -15l8 -33l-22 -28h-34l-22 28
zM572 308l32 15l31 -15l8 -34l-22 -27h-35l-21 27zM604 347l31 15l31 -15l8 -34l-21 -27h-35l-22 27zM636 386l31 15l31 -15l8 -34l-22 -27h-35l-21 27zM667 425l31 15l32 -15l7 -34l-21 -27h-35l-22 27zM682 465l31 15l31 -15l8 -34l-22 -27h-34l-22 27zM708 488l32 16
l31 -16l7 -33l-21 -28h-35l-21 28zM357 51l32 15l31 -15l7 -34l-21 -26h-35l-21 26zM357 101l32 15l31 -15l7 -34l-21 -27h-35l-21 27zM357 151l32 15l31 -15l7 -34l-21 -27h-35l-21 27zM357 201l32 15l31 -15l7 -34l-21 -27h-35l-21 27zM357 251l32 15l31 -15l7 -34
l-21 -27h-35l-21 27zM357 301l32 15l31 -15l7 -34l-21 -27h-35l-21 27zM357 351l32 15l31 -15l7 -34l-21 -27h-35l-21 27zM357 401l32 15l31 -15l7 -34l-21 -27h-35l-21 27zM357 451l32 15l31 -15l7 -34l-21 -27h-35l-21 27zM367 488l32 16l31 -16l7 -33l-21 -28h-35l-21 28
z" />
    <glyph glyph-name="N" unicode="N" horiz-adv-x="564" 
d="M53 423l32 16l31 -16l7 -33l-21 -28h-35l-21 28zM151 423l31 16l31 -16l8 -33l-22 -28h-34l-22 28zM247 403l31 15l31 -15l8 -34l-22 -27h-34l-22 27zM287 375l32 15l31 -15l8 -34l-22 -27h-35l-21 27zM318 340l31 15l32 -15l7 -34l-21 -27h-35l-22 27zM341 295l32 15
l31 -15l8 -34l-22 -27h-35l-21 27zM363 245l31 15l32 -15l7 -33l-21 -28h-35l-22 28zM381 197l31 15l32 -15l7 -34l-21 -27h-35l-22 27zM120 422l31 15l31 -15l8 -34l-22 -27h-34l-22 27zM183 408l32 16l31 -16l7 -33l-21 -28h-35l-21 28zM408 494l32 16l31 -16l7 -33
l-21 -28h-35l-21 28zM408 57l32 15l31 -15l7 -34l-21 -26h-35l-21 26zM408 107l32 15l31 -15l7 -34l-21 -27h-35l-21 27zM408 157l32 15l31 -15l7 -34l-21 -27h-35l-21 27zM408 207l32 15l31 -15l7 -34l-21 -27h-35l-21 27zM405 256l32 15l31 -15l8 -34l-22 -27h-35l-21 27z
M93 242l32 15l31 -15l7 -34l-21 -27h-35l-21 27zM93 192l32 15l31 -15l7 -34l-21 -27h-35l-21 27zM93 142l32 15l31 -15l7 -34l-21 -27h-35l-21 27zM93 92l32 15l31 -15l7 -34l-21 -27h-35l-21 27zM93 44l32 16l31 -16l7 -33l-21 -27h-35l-21 27zM93 482l32 15l31 -15l7 -34
l-21 -27h-35l-21 27zM93 432l32 15l31 -15l7 -34l-21 -27h-35l-21 27zM93 382l32 15l31 -15l7 -34l-21 -27h-35l-21 27zM93 332l32 15l31 -15l7 -34l-21 -27h-35l-21 27zM99 286l31 15l31 -15l8 -34l-22 -27h-34l-22 27zM408 317l32 15l31 -15l7 -34l-21 -27h-35l-21 27z
M408 367l32 15l31 -15l7 -34l-21 -27h-35l-21 27zM408 417l32 15l31 -15l7 -34l-21 -27h-35l-21 27zM408 467l32 15l31 -15l7 -34l-21 -27h-35l-21 27z" />
    <glyph glyph-name="O" unicode="O" horiz-adv-x="585" 
d="M155 499l32 16l31 -16l7 -33l-21 -28h-35l-21 28zM253 499l31 16l31 -16l8 -33l-22 -28h-34l-22 28zM349 479l31 15l31 -15l8 -34l-22 -27h-34l-22 27zM389 451l32 15l31 -15l8 -34l-22 -27h-35l-21 27zM420 416l31 15l32 -15l7 -34l-21 -27h-35l-22 27zM443 371l32 15
l31 -15l8 -34l-22 -27h-35l-21 27zM456 321l31 15l32 -15l7 -33l-21 -28h-35l-22 28zM460 273l31 15l32 -15l7 -34l-21 -27h-35l-22 27zM458 226l32 15l31 -15l8 -34l-22 -27h-35l-21 27zM449 176l31 15l32 -15l7 -34l-21 -27h-35l-22 27zM430 129l32 16l31 -16l8 -33
l-22 -27h-35l-21 27zM402 91l31 15l32 -15l7 -34l-21 -27h-35l-22 27zM363 61l31 15l32 -15l7 -34l-21 -27h-35l-22 27zM316 42l31 15l32 -15l7 -34l-21 -26h-35l-22 26zM269 35l31 15l31 -15l8 -34l-21 -26h-35l-22 26zM221 36l31 15l32 -15l7 -34l-21 -26h-35l-22 26z
M171 47l32 15l31 -15l8 -33l-22 -27h-35l-21 27zM127 70l31 16l32 -16l7 -33l-21 -28h-35l-22 28zM93 103l32 15l31 -15l7 -34l-21 -27h-35l-21 27zM67 145l31 15l32 -15l7 -33l-21 -28h-35l-22 28zM52 193l31 15l32 -15l7 -34l-21 -27h-35l-22 27zM46 242l31 15l31 -15
l8 -34l-22 -27h-34l-22 27zM46 290l31 15l32 -15l7 -34l-21 -27h-35l-22 27zM53 339l31 15l31 -15l8 -34l-22 -27h-34l-22 27zM68 385l31 16l32 -16l7 -33l-21 -27h-35l-22 27zM95 428l31 15l31 -15l8 -34l-22 -27h-34l-22 27zM130 463l31 15l31 -15l8 -34l-21 -27h-35
l-22 27zM222 498l31 15l31 -15l8 -34l-22 -27h-34l-22 27zM188 499l31 16l31 -16l8 -33l-22 -28h-34l-22 28zM155 499l32 16l31 -16l7 -33l-21 -28h-35l-21 28zM285 484l32 16l31 -16l7 -33l-21 -28h-35l-21 28z" />
    <glyph glyph-name="P" unicode="P" horiz-adv-x="526" 
d="M384 197l32 15l31 -15l8 -34l-22 -27h-35l-21 27zM356 238l31 15l31 -15l8 -34l-22 -27h-34l-22 27zM327 279l31 15l31 -15l8 -34l-22 -27h-34l-22 27zM297 318l31 15l32 -15l7 -34l-21 -27h-35l-22 27zM237 494l32 16l31 -16l7 -33l-21 -28h-35l-21 28zM288 488l31 15
l32 -15l7 -34l-21 -27h-35l-22 27zM333 466l32 16l31 -16l8 -33l-22 -27h-35l-21 27zM363 432l31 15l31 -15l8 -34l-22 -27h-34l-22 27zM377 383l31 15l31 -15l8 -34l-22 -27h-35l-21 27zM374 336l32 15l31 -15l8 -34l-22 -27h-35l-21 27zM356 290l31 16l31 -16l8 -33
l-22 -28h-34l-22 28zM320 259l31 15l32 -15l7 -34l-21 -27h-35l-22 27zM274 243l31 15l31 -15l8 -34l-22 -27h-34l-22 27zM225 239l31 16l31 -16l8 -33l-22 -28h-34l-22 28zM175 239l31 16l31 -16l8 -33l-22 -28h-34l-22 28zM82 54l32 16l31 -16l7 -33l-21 -27h-35l-21 27z
M82 104l32 16l31 -16l7 -33l-21 -28h-35l-21 28zM82 154l32 16l31 -16l7 -33l-21 -28h-35l-21 28zM82 204l32 16l31 -16l7 -33l-21 -28h-35l-21 28zM82 254l32 16l31 -16l7 -33l-21 -28h-35l-21 28zM82 304l32 16l31 -16l7 -33l-21 -28h-35l-21 28zM82 354l32 16l31 -16
l7 -33l-21 -28h-35l-21 28zM82 404l32 16l31 -16l7 -33l-21 -28h-35l-21 28zM82 454l32 16l31 -16l7 -33l-21 -28h-35l-21 28zM90 494l31 16l31 -16l8 -33l-22 -28h-34l-22 28zM140 494l31 16l31 -16l8 -33l-22 -28h-34l-22 28zM190 494l31 16l31 -16l8 -33l-22 -28h-34
l-22 28zM237 494l32 16l31 -16l7 -33l-21 -28h-35l-21 28zM122 249l32 16l31 -16l7 -33l-21 -28h-35l-21 28z" />
    <glyph glyph-name="Q" unicode="Q" horiz-adv-x="602" 
d="M256 126l31 15l31 -15l8 -33l-22 -27h-34l-22 27zM253 81l31 15l31 -15l8 -33l-22 -27h-34l-22 27zM459 -80l32 15l31 -15l8 -33l-22 -28h-35l-21 28zM414 -93l31 15l32 -15l7 -34l-21 -27h-35l-22 27zM367 -94l31 15l31 -15l8 -34l-22 -27h-34l-22 27zM320 -85l32 15
l31 -15l7 -33l-21 -28h-35l-21 28zM282 -52l31 15l32 -15l7 -34l-21 -27h-35l-22 27zM264 -11l31 14l32 -14l7 -34l-21 -27h-35l-22 27zM253 27l31 15l31 -15l8 -33l-22 -27h-34l-22 27zM212 43l32 15l31 -15l8 -34l-22 -26h-35l-21 26zM165 58l31 15l32 -15l7 -34l-21 -26
h-35l-22 26zM123 86l31 15l32 -15l7 -34l-21 -27h-35l-22 27zM94 121l31 15l31 -15l8 -34l-22 -27h-35l-21 27zM71 167l32 15l31 -15l8 -34l-22 -27h-35l-21 27zM59 217l31 15l32 -15l7 -34l-21 -27h-35l-22 27zM55 267l32 15l31 -15l8 -34l-22 -27h-35l-21 27zM58 314
l31 15l31 -15l8 -34l-22 -27h-34l-22 27zM68 362l31 15l31 -15l8 -33l-22 -28h-35l-21 28zM87 408l32 15l31 -15l8 -34l-22 -27h-35l-21 27zM115 445l31 15l31 -15l8 -34l-22 -27h-34l-22 27zM155 477l31 16l31 -16l8 -33l-22 -27h-34l-22 27zM201 497l31 15l31 -15l8 -34
l-21 -27h-35l-22 27zM250 504l31 15l31 -15l8 -34l-22 -27h-35l-21 27zM296 502l31 15l32 -15l7 -33l-21 -28h-35l-22 28zM344 490l32 15l31 -15l8 -34l-22 -27h-35l-21 27zM387 466l32 15l31 -15l8 -34l-22 -27h-35l-21 27zM422 431l31 15l32 -15l7 -34l-21 -27h-35l-21 27
zM448 388l32 16l31 -16l8 -33l-22 -28h-35l-21 28zM463 341l32 15l31 -15l8 -34l-22 -27h-35l-21 27zM470 292l31 15l31 -15l8 -34l-22 -27h-34l-22 27zM469 245l32 15l31 -15l8 -34l-22 -27h-35l-21 27zM462 195l31 15l32 -15l7 -34l-21 -27h-35l-22 27zM446 147l31 15
l32 -15l7 -33l-21 -28h-35l-22 28zM422 106l31 15l31 -15l8 -34l-22 -27h-34l-22 27zM387 72l31 15l32 -15l7 -34l-21 -27h-35l-22 27zM342 50l32 15l31 -15l8 -34l-22 -26h-35l-21 26zM293 40l32 15l31 -15l8 -34l-22 -26h-35l-21 26z" />
    <glyph glyph-name="R" unicode="R" horiz-adv-x="514" 
d="M360 40l32 16l31 -16l7 -33l-21 -27h-35l-21 27zM324 63l32 15l31 -15l8 -34l-22 -27h-35l-21 27zM296 104l31 15l31 -15l8 -34l-22 -27h-34l-22 27zM267 145l31 15l31 -15l8 -34l-22 -27h-34l-22 27zM237 184l31 15l32 -15l7 -34l-21 -27h-35l-22 27zM227 249l31 15
l32 -15l7 -34l-21 -27h-35l-22 27zM179 249l31 16l31 -16l8 -33l-22 -28h-34l-22 28zM129 249l31 16l31 -16l8 -33l-22 -28h-34l-22 28zM86 240l32 15l31 -15l8 -34l-22 -27h-35l-21 27zM81 194l32 16l31 -16l7 -33l-21 -28h-35l-21 28zM81 144l32 16l31 -16l7 -33l-21 -28
h-35l-21 28zM81 94l32 16l31 -16l7 -33l-21 -28h-35l-21 28zM81 44l32 16l31 -16l7 -33l-21 -27h-35l-21 27zM94 494l31 16l31 -16l8 -33l-22 -28h-34l-22 28zM144 494l31 16l31 -16l8 -33l-22 -28h-34l-22 28zM194 494l31 16l31 -16l8 -33l-22 -28h-34l-22 28zM242 494
l32 15l31 -15l8 -34l-22 -27h-35l-21 27zM293 486l31 15l31 -15l8 -34l-22 -27h-34l-22 27zM336 464l31 15l32 -15l7 -34l-21 -27h-35l-22 27zM366 427l31 15l31 -15l8 -33l-22 -28h-34l-22 28zM376 377l31 15l32 -15l7 -34l-21 -27h-35l-22 27zM371 332l31 15l31 -15l8 -34
l-22 -27h-35l-21 27zM344 293l32 15l31 -15l8 -34l-22 -27h-35l-21 27zM276 239l32 16l31 -16l7 -33l-21 -28h-35l-21 28zM302 274l31 15l32 -15l7 -34l-21 -27h-35l-22 27zM81 457l32 15l31 -15l7 -34l-21 -27h-35l-21 27zM81 407l32 15l31 -15l7 -34l-21 -27h-35l-21 27z
M81 357l32 15l31 -15l7 -34l-21 -27h-35l-21 27zM81 307l32 15l31 -15l7 -34l-21 -27h-35l-21 27z" />
    <glyph glyph-name="S" unicode="S" horiz-adv-x="792" 
d="M380 58l31 15l32 -15l7 -34l-21 -26h-35l-22 26zM338 86l31 15l32 -15l7 -34l-21 -27h-35l-22 27zM309 121l31 15l31 -15l8 -34l-22 -27h-35l-21 27zM286 167l32 15l31 -15l8 -34l-22 -27h-35l-21 27zM274 217l31 15l32 -15l7 -34l-21 -27h-35l-22 27zM270 267l32 15
l31 -15l8 -34l-22 -27h-35l-21 27zM273 314l31 15l31 -15l8 -34l-22 -27h-34l-22 27zM283 362l31 15l31 -15l8 -33l-22 -28h-35l-21 28zM302 408l32 15l31 -15l8 -34l-22 -27h-35l-21 27zM330 445l31 15l31 -15l8 -34l-22 -27h-34l-22 27zM370 477l31 16l31 -16l8 -33
l-22 -27h-34l-22 27zM416 497l31 15l31 -15l8 -34l-21 -27h-35l-22 27zM465 504l31 15l31 -15l8 -34l-22 -27h-35l-21 27zM511 502l31 15l32 -15l7 -33l-21 -28h-35l-22 28zM559 490l32 15l31 -15l8 -34l-22 -27h-35l-21 27zM602 466l32 15l31 -15l8 -34l-22 -27h-35l-21 27
zM637 431l31 15l32 -15l7 -34l-21 -27h-35l-21 27zM663 388l32 16l31 -16l8 -33l-22 -28h-35l-21 28zM678 341l32 15l31 -15l8 -34l-22 -27h-35l-21 27zM253 27l31 15l31 -15l8 -33l-22 -27h-34l-22 27zM212 43l32 15l31 -15l8 -34l-22 -26h-35l-21 26zM165 58l31 15l32 -15
l7 -34l-21 -26h-35l-22 26zM123 86l31 15l32 -15l7 -34l-21 -27h-35l-22 27zM94 121l31 15l31 -15l8 -34l-22 -27h-35l-21 27zM71 167l32 15l31 -15l8 -34l-22 -27h-35l-21 27zM59 217l31 15l32 -15l7 -34l-21 -27h-35l-22 27zM55 267l32 15l31 -15l8 -34l-22 -27h-35
l-21 27zM387 466l32 15l31 -15l8 -34l-22 -27h-35l-21 27zM422 431l31 15l32 -15l7 -34l-21 -27h-35l-21 27zM448 388l32 16l31 -16l8 -33l-22 -28h-35l-21 28zM463 341l32 15l31 -15l8 -34l-22 -27h-35l-21 27zM470 292l31 15l31 -15l8 -34l-22 -27h-34l-22 27zM469 245
l32 15l31 -15l8 -34l-22 -27h-35l-21 27zM462 195l31 15l32 -15l7 -34l-21 -27h-35l-22 27zM446 147l31 15l32 -15l7 -33l-21 -28h-35l-22 28zM422 106l31 15l31 -15l8 -34l-22 -27h-34l-22 27zM387 72l31 15l32 -15l7 -34l-21 -27h-35l-22 27zM342 50l32 15l31 -15l8 -34
l-22 -26h-35l-21 26zM293 40l32 15l31 -15l8 -34l-22 -26h-35l-21 26z" />
    <glyph glyph-name="T" unicode="T" horiz-adv-x="450" 
d="M191 48l32 15l31 -15l7 -34l-21 -26h-35l-21 26zM191 98l32 15l31 -15l7 -34l-21 -27h-35l-21 27zM191 148l32 15l31 -15l7 -34l-21 -27h-35l-21 27zM191 198l32 15l31 -15l7 -34l-21 -27h-35l-21 27zM191 248l32 15l31 -15l7 -34l-21 -27h-35l-21 27zM191 298l32 15
l31 -15l7 -34l-21 -27h-35l-21 27zM191 348l32 15l31 -15l7 -34l-21 -27h-35l-21 27zM191 398l32 15l31 -15l7 -34l-21 -27h-35l-21 27zM191 448l32 15l31 -15l7 -34l-21 -27h-35l-21 27zM171 480l32 16l31 -16l7 -33l-21 -28h-35l-21 28zM121 480l32 16l31 -16l7 -33
l-21 -28h-35l-21 28zM71 480l32 16l31 -16l7 -33l-21 -28h-35l-21 28zM21 480l32 16l31 -16l7 -33l-21 -28h-35l-21 28zM206 490l32 16l31 -16l7 -33l-21 -28h-35l-21 28zM256 490l32 16l31 -16l7 -33l-21 -28h-35l-21 28zM306 490l32 16l31 -16l7 -33l-21 -28h-35l-21 28z
M356 490l32 16l31 -16l7 -33l-21 -28h-35l-21 28z" />
    <glyph glyph-name="U" unicode="U" horiz-adv-x="582" 
d="M107 142l32 15l31 -15l8 -34l-22 -27h-35l-21 27zM78 102l31 15l31 -15l8 -34l-22 -27h-35l-21 27zM48 61l31 16l31 -16l8 -33l-22 -26h-34l-22 26zM442 491l32 16l31 -16l7 -33l-21 -28h-35l-21 28zM442 441l32 16l31 -16l7 -33l-21 -28h-35l-21 28zM442 391l32 16
l31 -16l7 -33l-21 -28h-35l-21 28zM442 341l32 16l31 -16l7 -33l-21 -28h-35l-21 28zM442 291l32 16l31 -16l7 -33l-21 -28h-35l-21 28zM442 241l32 16l31 -16l7 -33l-21 -28h-35l-21 28zM442 193l31 15l32 -15l7 -34l-21 -27h-35l-22 27zM436 143l31 15l31 -15l8 -33
l-22 -28h-34l-22 28zM416 98l32 15l31 -15l8 -33l-22 -28h-35l-21 28zM382 63l31 15l31 -15l8 -33l-22 -28h-35l-21 28zM337 44l31 15l31 -15l8 -34l-22 -26h-34l-22 26zM287 37l31 15l32 -15l7 -34l-21 -26h-35l-22 26zM241 38l32 15l31 -15l8 -34l-22 -26h-35l-21 26z
M191 49l31 15l31 -15l8 -34l-22 -26h-34l-22 26zM149 71l31 15l31 -15l8 -34l-22 -27h-34l-22 27zM118 107l31 16l31 -16l8 -33l-22 -28h-35l-21 28zM101 155l31 16l32 -16l7 -33l-21 -28h-35l-22 28zM97 201l32 16l31 -16l7 -33l-21 -28h-35l-21 28zM97 251l32 16l31 -16
l7 -33l-21 -28h-35l-21 28zM97 301l32 16l31 -16l7 -33l-21 -28h-35l-21 28zM97 351l32 16l31 -16l7 -33l-21 -28h-35l-21 28zM97 401l32 16l31 -16l7 -33l-21 -28h-35l-21 28zM97 451l32 16l31 -16l7 -33l-21 -28h-35l-21 28zM105 491l31 16l31 -16l8 -33l-22 -28h-34
l-22 28z" />
    <glyph glyph-name="V" unicode="V" horiz-adv-x="502" 
d="M112 81l31 15l31 -15l8 -34l-22 -27h-34l-22 27zM143 120l32 15l31 -15l8 -34l-22 -27h-35l-21 27zM175 159l31 15l31 -15l8 -34l-21 -27h-35l-22 27zM207 198l31 15l31 -15l8 -34l-22 -27h-35l-21 27zM238 237l31 15l32 -15l7 -34l-21 -27h-35l-22 27zM270 275l31 15
l31 -15l8 -33l-22 -28h-34l-22 28zM301 314l32 15l31 -15l8 -34l-22 -27h-35l-21 27zM333 353l31 15l31 -15l8 -34l-21 -27h-35l-22 27zM365 392l31 15l31 -15l8 -34l-22 -27h-35l-21 27zM396 431l31 15l32 -15l7 -34l-21 -27h-35l-22 27zM411 471l31 15l31 -15l8 -34
l-22 -27h-34l-22 27zM437 494l32 16l31 -16l7 -33l-21 -28h-35l-21 28zM86 57l32 15l31 -15l7 -34l-21 -26h-35l-21 26zM86 107l32 15l31 -15l7 -34l-21 -27h-35l-21 27zM86 157l32 15l31 -15l7 -34l-21 -27h-35l-21 27zM86 207l32 15l31 -15l7 -34l-21 -27h-35l-21 27z
M86 257l32 15l31 -15l7 -34l-21 -27h-35l-21 27zM86 307l32 15l31 -15l7 -34l-21 -27h-35l-21 27zM86 357l32 15l31 -15l7 -34l-21 -27h-35l-21 27zM86 407l32 15l31 -15l7 -34l-21 -27h-35l-21 27zM86 457l32 15l31 -15l7 -34l-21 -27h-35l-21 27zM96 494l32 16l31 -16
l7 -33l-21 -28h-35l-21 28z" />
    <glyph glyph-name="W" unicode="W" horiz-adv-x="814" 
d="M80 57l32 15l31 -15l7 -34l-21 -26h-35l-21 26zM80 107l32 15l31 -15l7 -34l-21 -27h-35l-21 27zM80 157l32 15l31 -15l7 -34l-21 -27h-35l-21 27zM80 207l32 15l31 -15l7 -34l-21 -27h-35l-21 27zM80 257l32 15l31 -15l7 -34l-21 -27h-35l-21 27zM80 307l32 15l31 -15
l7 -34l-21 -27h-35l-21 27zM80 357l32 15l31 -15l7 -34l-21 -27h-35l-21 27zM80 407l32 15l31 -15l7 -34l-21 -27h-35l-21 27zM80 457l32 15l31 -15l7 -34l-21 -27h-35l-21 27zM90 494l32 16l31 -16l7 -33l-21 -28h-35l-21 28zM97 81l31 15l31 -15l8 -34l-22 -27h-34l-22 27
zM128 120l32 15l31 -15l8 -34l-22 -27h-35l-21 27zM160 159l31 15l31 -15l8 -34l-21 -27h-35l-22 27zM192 198l31 15l31 -15l8 -34l-22 -27h-35l-21 27zM223 237l31 15l32 -15l7 -34l-21 -27h-35l-22 27zM255 275l31 15l31 -15l8 -33l-22 -28h-34l-22 28zM286 314l32 15
l31 -15l8 -34l-22 -27h-35l-21 27zM318 353l31 15l31 -15l8 -34l-21 -27h-35l-22 27zM350 392l31 15l31 -15l8 -34l-22 -27h-35l-21 27zM381 431l31 15l32 -15l7 -34l-21 -27h-35l-22 27zM396 471l31 15l31 -15l8 -34l-22 -27h-34l-22 27zM441 81l31 15l31 -15l8 -34
l-22 -27h-34l-22 27zM472 120l32 15l31 -15l8 -34l-22 -27h-35l-21 27zM504 159l31 15l31 -15l8 -34l-21 -27h-35l-22 27zM536 198l31 15l31 -15l8 -34l-22 -27h-35l-21 27zM567 237l31 15l32 -15l7 -34l-21 -27h-35l-22 27zM599 275l31 15l31 -15l8 -33l-22 -28h-34l-22 28
zM630 314l32 15l31 -15l8 -34l-22 -27h-35l-21 27zM662 353l31 15l31 -15l8 -34l-21 -27h-35l-22 27zM694 392l31 15l31 -15l8 -34l-22 -27h-35l-21 27zM725 431l31 15l32 -15l7 -34l-21 -27h-35l-22 27zM740 471l31 15l31 -15l8 -34l-22 -27h-34l-22 27zM766 494l32 16
l31 -16l7 -33l-21 -28h-35l-21 28zM415 57l32 15l31 -15l7 -34l-21 -26h-35l-21 26zM415 107l32 15l31 -15l7 -34l-21 -27h-35l-21 27zM415 157l32 15l31 -15l7 -34l-21 -27h-35l-21 27zM415 207l32 15l31 -15l7 -34l-21 -27h-35l-21 27zM415 257l32 15l31 -15l7 -34
l-21 -27h-35l-21 27zM415 307l32 15l31 -15l7 -34l-21 -27h-35l-21 27zM415 357l32 15l31 -15l7 -34l-21 -27h-35l-21 27zM415 407l32 15l31 -15l7 -34l-21 -27h-35l-21 27zM415 457l32 15l31 -15l7 -34l-21 -27h-35l-21 27zM425 494l32 16l31 -16l7 -33l-21 -28h-35l-21 28
z" />
    <glyph glyph-name="X" unicode="X" horiz-adv-x="483" 
d="M369 44l32 16l31 -16l7 -33l-21 -27h-35l-21 27zM189 242l32 15l31 -15l7 -34l-21 -27h-35l-21 27zM161 203l31 15l32 -15l7 -33l-21 -28h-35l-22 28zM135 163l32 15l31 -15l8 -34l-22 -27h-35l-21 27zM108 121l31 15l32 -15l7 -34l-21 -27h-35l-22 27zM81 78l31 15
l32 -15l7 -33l-21 -28h-35l-22 28zM52 44l31 16l31 -16l8 -33l-22 -27h-34l-22 27zM194 284l32 16l31 -16l7 -33l-21 -28h-35l-21 28zM168 325l32 15l31 -15l8 -34l-22 -27h-35l-21 27zM141 367l31 15l32 -15l7 -34l-21 -27h-35l-22 27zM114 410l31 15l31 -15l8 -34l-22 -27
h-34l-22 27zM88 450l31 15l31 -15l8 -34l-22 -27h-34l-22 27zM61 492l31 15l31 -15l8 -34l-22 -27h-34l-22 27zM232 319l31 15l32 -15l7 -34l-21 -27h-35l-22 27zM259 358l31 15l31 -15l8 -33l-22 -28h-35l-21 28zM286 400l32 15l31 -15l8 -34l-22 -27h-35l-21 27zM314 442
l32 15l31 -15l8 -34l-22 -27h-35l-21 27zM342 484l32 15l31 -15l8 -34l-22 -27h-35l-21 27zM223 267l31 15l31 -15l8 -34l-22 -27h-34l-22 27zM249 227l31 15l32 -15l7 -34l-21 -27h-35l-22 27zM275 187l32 15l31 -15l8 -34l-22 -27h-35l-21 27zM303 145l31 15l31 -15l8 -34
l-21 -27h-35l-22 27zM331 103l31 15l31 -15l8 -34l-22 -27h-35l-21 27zM358 61l31 15l32 -15l7 -34l-21 -27h-35l-22 27z" />
    <glyph glyph-name="Y" unicode="Y" horiz-adv-x="422" 
d="M89 211l32 15l31 -15l7 -34l-21 -27h-35l-21 27zM122 245l32 15l31 -15l7 -34l-21 -27h-35l-21 27zM336 494l32 16l31 -16l7 -33l-21 -28h-35l-21 28zM311 451l32 15l31 -15l7 -34l-21 -27h-35l-21 27zM286 407l32 15l31 -15l7 -33l-21 -28h-35l-21 28zM261 364l32 15
l31 -15l7 -34l-21 -27h-35l-21 27zM236 320l32 15l31 -15l7 -34l-21 -27h-35l-21 27zM211 277l32 15l31 -15l7 -34l-21 -27h-35l-21 27zM186 233l32 15l31 -15l7 -34l-21 -27h-35l-21 27zM176 192l32 15l31 -15l7 -34l-21 -27h-35l-21 27zM176 142l32 15l31 -15l7 -34
l-21 -27h-35l-21 27zM176 92l32 15l31 -15l7 -34l-21 -27h-35l-21 27zM176 44l32 16l31 -16l7 -33l-21 -27h-35l-21 27zM26 486l31 15l32 -15l7 -34l-21 -27h-35l-22 27zM51 442l31 15l31 -15l8 -34l-21 -27h-35l-22 27zM74 400l32 15l31 -15l8 -34l-22 -27h-35l-21 27z
M99 356l32 16l31 -16l7 -33l-21 -28h-35l-21 28zM124 313l31 15l32 -15l7 -34l-21 -27h-35l-22 27zM149 269l31 15l31 -15l8 -34l-22 -27h-34l-22 27z" />
    <glyph glyph-name="Z" unicode="Z" horiz-adv-x="537" 
d="M35 3l32 16l31 -16l7 -33l-21 -27h-35l-21 27zM398 52l32 15l31 -15l7 -34l-21 -26h-35l-21 26zM358 44l32 16l31 -16l7 -33l-21 -27h-35l-21 27zM308 44l32 16l31 -16l7 -33l-21 -27h-35l-21 27zM258 44l32 16l31 -16l7 -33l-21 -27h-35l-21 27zM208 44l32 16l31 -16
l7 -33l-21 -27h-35l-21 27zM158 44l32 16l31 -16l7 -33l-21 -27h-35l-21 27zM108 44l32 16l31 -16l7 -33l-21 -27h-35l-21 27zM58 44l32 16l31 -16l7 -33l-21 -27h-35l-21 27zM63 81l31 15l31 -15l8 -34l-22 -27h-34l-22 27zM94 120l32 15l31 -15l8 -34l-22 -27h-35l-21 27z
M126 159l31 15l31 -15l8 -34l-21 -27h-35l-22 27zM158 198l31 15l31 -15l8 -34l-22 -27h-35l-21 27zM189 237l31 15l32 -15l7 -34l-21 -27h-35l-22 27zM221 275l31 15l31 -15l8 -33l-22 -28h-34l-22 28zM252 314l32 15l31 -15l8 -34l-22 -27h-35l-21 27zM284 353l31 15
l31 -15l8 -34l-21 -27h-35l-22 27zM316 392l31 15l31 -15l8 -34l-22 -27h-35l-21 27zM347 431l31 15l32 -15l7 -34l-21 -27h-35l-22 27zM362 471l31 15l31 -15l8 -34l-22 -27h-34l-22 27zM88 494l32 16l31 -16l7 -33l-21 -28h-35l-21 28zM138 494l32 16l31 -16l7 -33
l-21 -28h-35l-21 28zM188 494l32 16l31 -16l7 -33l-21 -28h-35l-21 28zM238 494l32 16l31 -16l7 -33l-21 -28h-35l-21 28zM288 494l32 16l31 -16l7 -33l-21 -28h-35l-21 28zM338 494l32 16l31 -16l7 -33l-21 -28h-35l-21 28zM388 494l32 16l31 -16l7 -33l-21 -28h-35l-21 28
z" />
    <glyph glyph-name="asciicircum" unicode="^" 
d="M262 369l32 15l31 -15l8 -34l-22 -27h-35l-21 27zM234 410l31 15l31 -15l8 -34l-22 -27h-34l-22 27zM205 451l31 15l31 -15l8 -34l-22 -27h-34l-22 27zM175 490l31 15l32 -15l7 -34l-21 -27h-35l-22 27zM142 473l32 15l31 -15l8 -33l-22 -28h-35l-21 28zM112 433l32 15
l31 -15l8 -34l-22 -27h-35l-21 27zM83 393l31 15l31 -15l8 -34l-22 -27h-35l-21 27z" />
    <glyph glyph-name="a" unicode="a" horiz-adv-x="464" 
d="M351 41l32 16l31 -16l7 -33l-21 -27h-35l-21 27zM321 38l31 15l32 -15l7 -34l-21 -26h-35l-22 26zM287 69l31 15l32 -15l7 -34l-21 -27h-35l-22 27zM224 57l31 15l31 -15l8 -33l-22 -27h-34l-22 27zM181 40l31 15l32 -15l7 -33l-21 -27h-35l-22 27zM133 37l31 15l31 -15
l8 -34l-21 -26h-35l-22 26zM84 47l32 15l31 -15l8 -34l-22 -26h-35l-21 26zM50 76l31 15l31 -15l8 -34l-22 -27h-35l-21 27zM42 122l31 15l31 -15l8 -34l-22 -27h-34l-22 27zM61 166l32 16l31 -16l7 -33l-21 -28h-35l-21 28zM104 189l32 15l31 -15l8 -34l-22 -27h-35l-21 27
zM151 201l31 15l31 -15l8 -34l-22 -27h-34l-22 27zM56 314l32 15l31 -15l7 -34l-21 -27h-35l-21 27zM79 348l31 15l31 -15l8 -34l-22 -27h-34l-22 27zM120 372l31 15l31 -15l8 -34l-22 -27h-34l-22 27zM168 381l31 15l32 -15l7 -34l-21 -27h-35l-22 27zM215 378l31 15
l31 -15l8 -34l-22 -27h-35l-21 27zM260 357l31 15l31 -15l8 -34l-21 -27h-35l-22 27zM291 322l31 15l32 -15l7 -34l-21 -27h-35l-22 27zM301 271l32 16l31 -16l7 -33l-21 -28h-35l-21 28zM301 226l32 16l31 -16l7 -33l-21 -28h-35l-21 28zM351 41l32 16l31 -16l7 -33
l-21 -27h-35l-21 27zM246 71l32 16l31 -16l7 -33l-21 -28h-35l-21 28zM276 108l32 15l31 -15l7 -34l-21 -27h-35l-21 27zM301 156l32 16l31 -16l7 -33l-21 -28h-35l-21 28zM301 201l31 15l31 -15l8 -34l-22 -27h-34l-22 27zM249 220l31 15l31 -15l8 -34l-21 -27h-35l-22 27z
M200 208l31 15l32 -15l7 -34l-21 -27h-35l-22 27z" />
    <glyph glyph-name="b" unicode="b" horiz-adv-x="504" 
d="M109 296l32 15l31 -15l8 -34l-22 -27h-35l-21 27zM80 256l31 15l31 -15l8 -34l-22 -27h-35l-21 27zM50 215l31 16l31 -16l8 -33l-22 -26h-34l-22 26zM132 131l32 15l31 -15l8 -34l-22 -27h-35l-21 27zM103 91l31 15l31 -15l8 -34l-22 -27h-35l-21 27zM73 50l31 16l31 -16
l8 -33l-22 -26h-34l-22 26zM238 384l32 16l31 -16l7 -33l-21 -28h-35l-21 28zM288 376l31 15l31 -15l8 -34l-22 -27h-35l-21 27zM330 349l31 15l32 -15l7 -34l-21 -27h-35l-22 27zM361 312l32 15l31 -15l8 -34l-22 -27h-35l-21 27zM381 268l31 15l31 -15l8 -34l-21 -27h-35
l-22 27zM388 218l31 15l32 -15l7 -34l-21 -27h-35l-22 27zM385 170l31 15l32 -15l7 -34l-21 -27h-35l-22 27zM370 122l32 15l31 -15l8 -33l-22 -28h-35l-21 28zM343 84l32 16l31 -16l7 -33l-21 -28h-35l-21 28zM303 54l31 15l32 -15l7 -34l-21 -26h-35l-22 26zM256 40l31 15
l31 -15l8 -34l-21 -26h-35l-22 26zM208 42l31 15l32 -15l7 -33l-21 -27h-35l-22 27zM165 60l32 15l31 -15l8 -34l-22 -26h-35l-21 26zM91 549l31 16l31 -16l8 -33l-22 -28h-34l-22 28zM93 504l32 16l31 -16l7 -33l-21 -28h-35l-21 28zM93 454l32 16l31 -16l7 -33l-21 -28
h-35l-21 28zM93 404l32 16l31 -16l7 -33l-21 -28h-35l-21 28zM93 354l32 16l31 -16l7 -33l-21 -28h-35l-21 28zM178 369l32 16l31 -16l7 -33l-21 -28h-35l-21 28zM225 384l31 15l31 -15l8 -34l-22 -27h-34l-22 27zM238 384l32 16l31 -16l7 -33l-21 -28h-35l-21 28zM141 339
l32 15l31 -15l8 -34l-22 -27h-35l-21 27zM113 301l32 15l31 -15l8 -33l-22 -28h-35l-21 28zM97 254l32 15l31 -15l8 -34l-22 -27h-35l-21 27zM93 207l32 15l31 -15l8 -34l-22 -27h-35l-21 27zM98 159l31 15l31 -15l8 -34l-21 -27h-35l-22 27zM115 110l31 15l32 -15l7 -34
l-21 -27h-35l-22 27zM145 73l32 15l31 -15l7 -34l-21 -27h-35l-21 27z" />
    <glyph glyph-name="c" unicode="c" horiz-adv-x="452" 
d="M99 140l32 15l31 -15l8 -34l-22 -27h-35l-21 27zM70 100l31 15l31 -15l8 -34l-22 -27h-35l-21 27zM40 59l31 16l31 -16l8 -33l-22 -26h-34l-22 26zM207 382l32 16l31 -16l7 -33l-21 -28h-35l-21 28zM258 374l31 15l31 -15l8 -34l-22 -27h-35l-21 27zM300 348l31 15
l31 -15l8 -34l-21 -27h-35l-22 27zM325 311l31 15l31 -15l8 -34l-22 -27h-34l-22 27zM318 84l31 15l31 -15l8 -34l-22 -27h-34l-22 27zM282 52l31 15l32 -15l7 -34l-21 -26h-35l-22 26zM234 39l31 15l31 -15l8 -34l-22 -26h-34l-22 26zM186 38l31 15l31 -15l8 -33l-22 -27
h-34l-22 27zM139 50l31 15l31 -15l8 -34l-22 -26h-34l-22 26zM97 78l31 15l31 -15l8 -34l-22 -27h-34l-22 27zM68 114l32 15l31 -15l8 -33l-22 -28h-35l-21 28zM51 163l32 15l31 -15l7 -34l-21 -27h-35l-21 27zM47 207l32 16l31 -16l7 -33l-21 -28h-35l-21 28zM53 259l31 15
l31 -15l8 -34l-22 -27h-34l-22 27zM71 304l31 15l31 -15l8 -33l-22 -28h-35l-21 28zM100 341l31 15l31 -15l8 -34l-22 -27h-34l-22 27zM142 370l31 15l32 -15l7 -33l-21 -28h-35l-22 28zM189 382l31 15l31 -15l8 -34l-22 -27h-34l-22 27z" />
    <glyph glyph-name="d" unicode="d" horiz-adv-x="500" 
d="M118 142l32 15l31 -15l8 -34l-22 -27h-35l-21 27zM89 102l31 15l31 -15l8 -34l-22 -27h-35l-21 27zM59 61l31 16l31 -16l8 -33l-22 -26h-34l-22 26zM362 515l32 15l31 -15l7 -34l-21 -27h-35l-21 27zM362 465l32 15l31 -15l7 -34l-21 -27h-35l-21 27zM362 415l32 15
l31 -15l7 -34l-21 -27h-35l-21 27zM362 365l32 15l31 -15l7 -34l-21 -27h-35l-21 27zM362 315l32 15l31 -15l7 -34l-21 -27h-35l-21 27zM352 55l32 15l31 -15l7 -34l-21 -26h-35l-21 26zM350 102l31 15l31 -15l8 -34l-22 -27h-34l-22 27zM197 38l31 15l32 -15l7 -34l-21 -26
h-35l-22 26zM148 47l31 15l31 -15l8 -34l-22 -26h-34l-22 26zM105 74l32 15l31 -15l8 -34l-22 -27h-35l-21 27zM76 110l31 16l31 -16l8 -33l-22 -28h-35l-21 28zM58 156l31 15l31 -15l8 -34l-22 -27h-34l-22 27zM52 207l31 16l32 -16l7 -33l-21 -28h-35l-21 28zM57 254
l31 15l31 -15l8 -34l-22 -27h-35l-21 27zM73 300l31 15l31 -15l8 -34l-22 -27h-35l-21 27zM101 339l31 15l31 -15l8 -34l-22 -27h-34l-22 27zM141 368l31 15l31 -15l8 -34l-21 -27h-35l-22 27zM188 381l31 15l31 -15l8 -34l-22 -27h-34l-22 27zM236 380l31 15l32 -15l7 -34
l-21 -27h-35l-22 27zM279 359l31 15l31 -15l8 -33l-22 -28h-34l-22 28zM347 547l32 16l31 -16l7 -33l-21 -28h-35l-21 28zM257 51l31 15l31 -15l8 -34l-22 -26h-35l-21 26zM299 78l31 15l32 -15l7 -34l-21 -27h-35l-22 27zM328 117l31 15l31 -15l8 -34l-22 -27h-35l-21 27z
M343 164l31 15l32 -15l7 -34l-21 -27h-35l-22 27zM347 212l32 15l31 -15l7 -33l-21 -28h-35l-21 28zM343 260l31 15l31 -15l8 -34l-22 -27h-34l-22 27zM326 306l31 15l31 -15l8 -33l-21 -28h-35l-22 28zM297 343l31 15l31 -15l8 -34l-22 -27h-35l-21 27z" />
    <glyph glyph-name="e" unicode="e" horiz-adv-x="480" 
d="M31 162l31 15l32 -15l7 -34l-21 -27h-35l-22 27zM344 212l31 16l31 -16l8 -33l-22 -28h-34l-22 28zM294 212l31 16l31 -16l8 -33l-22 -28h-34l-22 28zM244 212l31 16l31 -16l8 -33l-22 -28h-34l-22 28zM194 212l31 16l31 -16l8 -33l-22 -28h-34l-22 28zM144 212l31 16
l31 -16l8 -33l-22 -28h-34l-22 28zM346 92l32 16l31 -16l7 -33l-21 -28h-35l-21 28zM320 60l31 15l32 -15l7 -34l-21 -27h-35l-22 27zM275 42l32 15l31 -15l8 -34l-22 -26h-35l-21 26zM228 37l32 16l31 -16l8 -33l-22 -27h-35l-21 27zM178 44l31 15l32 -15l7 -34l-21 -26
h-35l-22 26zM134 66l31 15l32 -15l7 -34l-21 -27h-35l-22 27zM101 101l31 15l31 -15l8 -34l-22 -27h-35l-21 27zM79 146l31 15l32 -15l7 -34l-21 -27h-35l-22 27zM71 196l32 15l31 -15l8 -33l-22 -28h-35l-21 28zM85 290l31 15l32 -15l7 -34l-21 -27h-35l-22 27zM111 332
l31 16l32 -16l7 -33l-21 -28h-35l-21 28zM148 363l31 15l32 -15l7 -34l-21 -27h-35l-22 27zM196 380l32 15l31 -15l8 -34l-22 -27h-35l-21 27zM241 382l32 15l31 -15l8 -34l-22 -27h-35l-21 27zM291 368l31 15l32 -15l7 -34l-21 -27h-35l-22 27zM330 339l31 15l31 -15l8 -34
l-22 -27h-34l-22 27zM358 300l31 15l31 -15l8 -34l-22 -27h-34l-22 27zM88 256l31 15l31 -15l8 -34l-22 -27h-34l-22 27zM109 223l31 15l31 -15l8 -34l-22 -27h-34l-22 27zM349 230l31 15l31 -15l8 -34l-22 -27h-34l-22 27zM350 276l32 15l31 -15l8 -33l-22 -28h-35l-21 28z
" />
    <glyph glyph-name="f" unicode="f" horiz-adv-x="330" 
d="M120 412l32 16l31 -16l7 -33l-21 -28h-35l-21 28zM128 362l32 16l31 -16l7 -33l-21 -28h-35l-21 28zM178 362l32 16l31 -16l7 -33l-21 -28h-35l-21 28zM228 362l32 16l31 -16l7 -33l-21 -28h-35l-21 28zM103 290l32 15l31 -15l7 -34l-21 -27h-35l-21 27zM103 240l32 15
l31 -15l7 -34l-21 -27h-35l-21 27zM103 190l32 15l31 -15l7 -34l-21 -27h-35l-21 27zM103 140l32 15l31 -15l7 -34l-21 -27h-35l-21 27zM103 90l32 15l31 -15l7 -34l-21 -27h-35l-21 27zM103 40l32 15l31 -15l7 -34l-21 -26h-35l-21 26zM88 305l32 15l31 -15l7 -34l-21 -27
h-35l-21 27zM31 362l31 16l31 -16l8 -33l-22 -28h-34l-22 28zM77 367l31 15l31 -15l8 -34l-22 -27h-34l-22 27zM88 456l32 15l31 -15l8 -34l-22 -27h-35l-21 27zM103 502l31 15l31 -15l8 -34l-21 -27h-35l-22 27zM142 530l32 15l31 -15l8 -33l-22 -28h-35l-21 28zM188 537
l32 16l31 -16l7 -33l-21 -28h-35l-21 28zM218 527l32 16l31 -16l7 -33l-21 -28h-35l-21 28z" />
    <glyph glyph-name="g" unicode="g" horiz-adv-x="498" 
d="M117 134l32 15l31 -15l8 -34l-22 -27h-35l-21 27zM88 94l31 15l31 -15l8 -34l-22 -27h-35l-21 27zM58 53l31 16l31 -16l8 -33l-22 -26h-34l-22 26zM65 -63l32 15l31 -15l8 -34l-22 -27h-35l-21 27zM98 -79l32 15l31 -15l8 -34l-22 -27h-35l-21 27zM143 -104l32 15l31 -15
l8 -34l-22 -27h-35l-21 27zM238 -110l32 15l31 -15l8 -34l-22 -27h-35l-21 27zM317 106l31 15l31 -15l8 -34l-22 -27h-34l-22 27zM197 36l32 15l31 -15l7 -33l-21 -27h-35l-21 27zM151 43l32 15l31 -15l8 -34l-22 -26h-35l-21 26zM107 67l32 15l31 -15l8 -34l-22 -27h-35
l-21 27zM75 102l32 15l31 -15l8 -34l-22 -27h-35l-21 27zM55 148l31 15l31 -15l8 -34l-22 -27h-35l-21 27zM47 195l32 15l31 -15l8 -33l-22 -28h-35l-21 28zM50 243l31 15l32 -15l7 -34l-21 -27h-35l-22 27zM65 290l32 15l31 -15l8 -34l-22 -27h-35l-21 27zM94 328l31 15
l32 -15l7 -33l-21 -28h-35l-22 28zM133 360l31 15l31 -15l8 -34l-22 -27h-34l-22 27zM181 375l31 16l31 -16l8 -33l-22 -28h-34l-22 28zM226 374l32 15l31 -15l8 -33l-22 -28h-35l-21 28zM273 358l31 15l32 -15l7 -34l-21 -27h-35l-22 27zM307 321l32 15l31 -15l7 -33
l-21 -28h-35l-21 28zM343 316l32 15l31 -15l8 -34l-22 -27h-35l-21 27zM352 361l31 16l31 -16l8 -33l-22 -28h-34l-22 28zM362 336l32 16l31 -16l7 -33l-21 -28h-35l-21 28zM362 136l32 16l31 -16l7 -33l-21 -28h-35l-21 28zM362 86l32 16l31 -16l7 -33l-21 -28h-35l-21 28z
M362 37l31 16l32 -16l7 -33l-21 -27h-35l-22 27zM357 -10l31 14l31 -14l8 -34l-22 -27h-34l-22 27zM339 -57l31 15l31 -15l8 -33l-22 -28h-34l-22 28zM307 -91l31 15l31 -15l8 -33l-22 -28h-35l-21 28zM259 -111l32 15l31 -15l8 -34l-22 -27h-35l-21 27zM197 -118l32 15
l31 -15l7 -33l-21 -28h-35l-21 28zM252 53l31 15l32 -15l7 -33l-21 -28h-35l-22 28zM297 77l31 15l31 -15l8 -34l-22 -27h-34l-22 27zM339 163l31 15l31 -15l8 -34l-21 -27h-35l-22 27zM342 209l31 15l32 -15l7 -33l-21 -28h-35l-22 28zM337 260l31 15l31 -15l8 -34l-22 -27
h-34l-22 27zM318 306l32 15l31 -15l8 -34l-22 -27h-35l-21 27z" />
    <glyph glyph-name="h" unicode="h" horiz-adv-x="518" 
d="M105 285l32 15l31 -15l8 -34l-22 -27h-35l-21 27zM76 245l31 15l31 -15l8 -34l-22 -27h-35l-21 27zM46 204l31 16l31 -16l8 -33l-22 -26h-34l-22 26zM160 349l32 16l31 -16l7 -33l-21 -28h-35l-21 28zM202 377l31 15l32 -15l7 -34l-21 -27h-35l-22 27zM250 384l32 16
l31 -16l7 -33l-21 -28h-35l-21 28zM297 377l31 15l31 -15l8 -34l-21 -27h-35l-22 27zM340 349l32 16l31 -16l7 -33l-21 -28h-35l-21 28zM367 311l32 15l31 -15l8 -34l-22 -27h-35l-21 27zM375 264l32 16l31 -16l7 -33l-21 -28h-35l-21 28zM375 214l32 16l31 -16l7 -33
l-21 -28h-35l-21 28zM375 164l32 16l31 -16l7 -33l-21 -28h-35l-21 28zM375 114l32 16l31 -16l7 -33l-21 -28h-35l-21 28zM375 64l32 16l31 -16l7 -33l-21 -28h-35l-21 28zM160 349l32 16l31 -16l7 -33l-21 -28h-35l-21 28zM130 319l32 16l31 -16l7 -33l-21 -28h-35l-21 28z
M111 272l31 15l31 -15l8 -34l-21 -27h-35l-22 27zM90 44l32 16l31 -16l7 -33l-21 -27h-35l-21 27zM90 94l32 16l31 -16l7 -33l-21 -28h-35l-21 28zM90 144l32 16l31 -16l7 -33l-21 -28h-35l-21 28zM90 194l32 16l31 -16l7 -33l-21 -28h-35l-21 28zM90 244l32 16l31 -16
l7 -33l-21 -28h-35l-21 28zM90 344l32 16l31 -16l7 -33l-21 -28h-35l-21 28zM90 394l32 16l31 -16l7 -33l-21 -28h-35l-21 28zM90 444l32 16l31 -16l7 -33l-21 -28h-35l-21 28zM90 494l32 16l31 -16l7 -33l-21 -28h-35l-21 28zM90 544l32 16l31 -16l7 -33l-21 -28h-35
l-21 28z" />
    <glyph glyph-name="i" unicode="i" horiz-adv-x="258" 
d="M111 371l32 15l31 -15l8 -34l-22 -27h-35l-21 27zM82 331l31 15l31 -15l8 -34l-22 -27h-35l-21 27zM52 290l31 16l31 -16l8 -33l-22 -26h-34l-22 26zM119 487l32 16l31 -16l7 -33l-21 -28h-35l-21 28zM85 504l31 15l32 -15l7 -34l-21 -27h-35l-22 27zM107 532l31 16
l31 -16l8 -33l-22 -28h-34l-22 28zM119 487l32 16l31 -16l7 -33l-21 -28h-35l-21 28zM114 372l32 16l31 -16l7 -33l-21 -28h-35l-21 28zM99 42l32 16l31 -16l7 -33l-21 -27h-35l-21 27zM99 92l32 16l31 -16l7 -33l-21 -28h-35l-21 28zM99 142l32 16l31 -16l7 -33l-21 -28
h-35l-21 28zM99 192l32 16l31 -16l7 -33l-21 -28h-35l-21 28zM99 242l32 16l31 -16l7 -33l-21 -28h-35l-21 28zM99 292l32 16l31 -16l7 -33l-21 -28h-35l-21 28zM99 342l32 16l31 -16l7 -33l-21 -28h-35l-21 28z" />
    <glyph glyph-name="j" unicode="j" horiz-adv-x="240" 
d="M64 -16l32 15l31 -15l8 -34l-22 -27h-35l-21 27zM35 -56l31 15l31 -15l8 -34l-22 -27h-35l-21 27zM5 -97l31 16l31 -16l8 -33l-22 -26h-34l-22 26zM72 511l31 15l32 -15l7 -34l-21 -27h-35l-22 27zM94 539l31 16l31 -16l8 -33l-22 -28h-34l-22 28zM106 494l32 16l31 -16
l7 -33l-21 -28h-35l-21 28zM85 29l32 16l31 -16l7 -32l-21 -28h-35l-21 28zM86 54l32 16l31 -16l7 -33l-21 -27h-35l-21 27zM86 104l32 16l31 -16l7 -33l-21 -28h-35l-21 28zM86 154l32 16l31 -16l7 -33l-21 -28h-35l-21 28zM86 204l32 16l31 -16l7 -33l-21 -28h-35l-21 28z
M86 254l32 16l31 -16l7 -33l-21 -28h-35l-21 28zM86 304l32 16l31 -16l7 -33l-21 -28h-35l-21 28zM86 354l32 16l31 -16l7 -33l-21 -28h-35l-21 28z" />
    <glyph glyph-name="k" unicode="k" horiz-adv-x="502" 
d="M71 258l31 15l31 -15l8 -34l-22 -27h-34l-22 27zM40 288l32 16l31 -16l7 -33l-21 -28h-35l-21 28zM212 228l31 15l31 -15l8 -34l-21 -27h-35l-22 27zM176 194l31 15l32 -15l7 -34l-21 -27h-35l-22 27zM106 47l32 15l31 -15l7 -34l-21 -26h-35l-21 26zM106 97l32 15
l31 -15l7 -34l-21 -27h-35l-21 27zM106 147l32 15l31 -15l7 -34l-21 -27h-35l-21 27zM106 197l32 15l31 -15l7 -34l-21 -27h-35l-21 27zM106 247l32 15l31 -15l7 -34l-21 -27h-35l-21 27zM106 297l32 15l31 -15l7 -34l-21 -27h-35l-21 27zM106 347l32 15l31 -15l7 -34
l-21 -27h-35l-21 27zM106 397l32 15l31 -15l7 -34l-21 -27h-35l-21 27zM106 447l32 15l31 -15l7 -34l-21 -27h-35l-21 27zM106 497l32 15l31 -15l7 -34l-21 -27h-35l-21 27zM106 547l32 15l31 -15l7 -34l-21 -27h-35l-21 27zM137 181l31 15l31 -15l8 -34l-22 -27h-34l-22 27
zM241 269l32 16l31 -16l8 -33l-22 -27h-35l-21 27zM277 305l31 15l31 -15l8 -34l-22 -27h-34l-22 27zM312 341l32 15l31 -15l8 -34l-22 -27h-35l-21 27zM346 374l32 16l31 -16l7 -33l-21 -28h-35l-21 28zM271 204l31 15l31 -15l8 -34l-22 -27h-34l-22 27zM299 163l32 15
l31 -15l8 -34l-22 -27h-35l-21 27zM328 121l31 15l32 -15l7 -34l-21 -27h-35l-22 27zM357 80l31 15l31 -15l8 -34l-22 -27h-34l-22 27zM379 44l31 16l31 -16l8 -33l-22 -27h-34l-22 27z" />
    <glyph glyph-name="l" unicode="l" horiz-adv-x="265" 
d="M163 40l32 16l31 -16l7 -33l-21 -27h-35l-21 27zM127 63l32 15l31 -15l8 -34l-22 -27h-35l-21 27zM99 104l31 15l31 -15l8 -34l-22 -27h-34l-22 27zM70 145l31 15l31 -15l8 -34l-22 -27h-34l-22 27zM65 172l32 15l31 -15l7 -34l-21 -27h-35l-21 27zM65 222l32 15l31 -15
l7 -34l-21 -27h-35l-21 27zM65 272l32 15l31 -15l7 -34l-21 -27h-35l-21 27zM65 322l32 15l31 -15l7 -34l-21 -27h-35l-21 27zM65 372l32 15l31 -15l7 -34l-21 -27h-35l-21 27zM65 422l32 15l31 -15l7 -34l-21 -27h-35l-21 27zM65 472l32 15l31 -15l7 -34l-21 -27h-35
l-21 27zM65 522l32 15l31 -15l7 -34l-21 -27h-35l-21 27z" />
    <glyph glyph-name="m" unicode="m" horiz-adv-x="771" 
d="M88 294l32 15l31 -15l8 -34l-22 -27h-35l-21 27zM59 254l31 15l31 -15l8 -34l-22 -27h-35l-21 27zM29 213l31 16l31 -16l8 -33l-22 -26h-34l-22 26zM558 368l32 15l31 -15l8 -34l-22 -27h-35l-21 27zM594 336l31 16l31 -16l8 -33l-22 -28h-34l-22 28zM614 290l31 15
l32 -15l7 -33l-21 -28h-35l-22 28zM616 244l32 16l31 -16l7 -33l-21 -28h-35l-21 28zM616 194l32 16l31 -16l7 -33l-21 -28h-35l-21 28zM616 144l32 16l31 -16l7 -33l-21 -28h-35l-21 28zM616 94l32 16l31 -16l7 -33l-21 -28h-35l-21 28zM616 44l32 16l31 -16l7 -33l-21 -27
h-35l-21 27zM509 373l31 15l32 -15l7 -34l-21 -27h-35l-22 27zM461 372l31 15l32 -15l7 -34l-21 -27h-35l-22 27zM415 352l31 15l31 -15l8 -34l-22 -27h-34l-22 27zM386 324l32 16l31 -16l7 -33l-21 -28h-35l-21 28zM341 49l32 16l31 -16l7 -33l-21 -27h-35l-21 27zM341 99
l32 16l31 -16l7 -33l-21 -28h-35l-21 28zM341 149l32 16l31 -16l7 -33l-21 -28h-35l-21 28zM341 199l32 16l31 -16l7 -33l-21 -28h-35l-21 28zM341 249l32 16l31 -16l7 -33l-21 -28h-35l-21 28zM336 298l32 15l31 -15l8 -34l-22 -27h-35l-21 27zM314 341l31 15l32 -15l7 -33
l-21 -28h-35l-22 28zM274 367l31 15l31 -15l8 -34l-22 -27h-34l-22 27zM229 374l31 15l31 -15l8 -33l-22 -28h-34l-22 28zM180 363l31 15l31 -15l8 -34l-22 -27h-34l-22 27zM150 345l32 15l31 -15l8 -34l-22 -27h-35l-21 27zM353 313l31 15l32 -15l7 -34l-21 -27h-35l-22 27
zM121 314l32 16l31 -16l7 -33l-21 -28h-35l-21 28zM81 47l32 15l31 -15l7 -34l-21 -26h-35l-21 26zM81 97l32 15l31 -15l7 -34l-21 -27h-35l-21 27zM81 147l32 15l31 -15l7 -34l-21 -27h-35l-21 27zM81 197l32 15l31 -15l7 -34l-21 -27h-35l-21 27zM81 247l32 15l31 -15
l7 -34l-21 -27h-35l-21 27zM81 347l32 15l31 -15l7 -34l-21 -27h-35l-21 27zM99 322l31 15l31 -15l8 -34l-22 -27h-34l-22 27z" />
    <glyph glyph-name="n" unicode="n" horiz-adv-x="506" 
d="M100 294l32 15l31 -15l8 -34l-22 -27h-35l-21 27zM71 254l31 15l31 -15l8 -34l-22 -27h-35l-21 27zM41 213l31 16l31 -16l8 -33l-22 -26h-34l-22 26zM113 267l31 15l32 -15l7 -34l-21 -27h-35l-22 27zM93 47l32 15l31 -15l7 -34l-21 -26h-35l-21 26zM93 97l32 15l31 -15
l7 -34l-21 -27h-35l-21 27zM93 147l32 15l31 -15l7 -34l-21 -27h-35l-21 27zM93 197l32 15l31 -15l7 -34l-21 -27h-35l-21 27zM93 247l32 15l31 -15l7 -34l-21 -27h-35l-21 27zM93 347l32 15l31 -15l7 -34l-21 -27h-35l-21 27zM103 367l32 15l31 -15l7 -34l-21 -27h-35
l-21 27zM133 314l32 16l31 -16l7 -33l-21 -28h-35l-21 28zM366 44l31 16l31 -16l8 -33l-22 -27h-34l-22 27zM363 89l32 16l31 -16l7 -33l-21 -28h-35l-21 28zM363 139l32 16l31 -16l7 -33l-21 -28h-35l-21 28zM363 189l32 16l31 -16l7 -33l-21 -28h-35l-21 28zM363 239
l32 16l31 -16l7 -33l-21 -28h-35l-21 28zM358 288l31 15l32 -15l7 -34l-21 -27h-35l-22 27zM338 333l32 15l31 -15l8 -34l-22 -27h-35l-21 27zM303 363l31 15l32 -15l7 -34l-21 -27h-35l-22 27zM254 374l31 15l31 -15l8 -33l-22 -28h-34l-22 28zM207 369l31 15l32 -15l7 -34
l-21 -27h-35l-22 27zM163 347l31 15l31 -15l8 -34l-22 -27h-34l-22 27z" />
    <glyph glyph-name="o" unicode="o" horiz-adv-x="480" 
d="M288 357l31 15l31 -15l8 -34l-22 -27h-35l-21 27zM178 381l31 16l32 -16l7 -33l-21 -28h-35l-22 28zM220 380l31 15l32 -15l7 -34l-21 -27h-35l-22 27zM306 335l31 15l32 -15l7 -34l-21 -27h-35l-22 27zM335 296l32 15l31 -15l8 -34l-22 -27h-35l-21 27zM351 249l31 15
l31 -15l8 -34l-22 -27h-34l-22 27zM354 201l31 15l32 -15l7 -34l-21 -27h-35l-22 27zM348 152l31 15l32 -15l7 -34l-21 -27h-35l-22 27zM330 108l31 15l31 -15l8 -34l-22 -27h-34l-22 27zM298 70l31 15l32 -15l7 -34l-21 -27h-35l-22 27zM256 46l31 15l31 -15l8 -34l-22 -26
h-34l-22 26zM205 37l31 15l31 -15l8 -34l-22 -26h-34l-22 26zM158 40l32 15l31 -15l8 -34l-22 -26h-35l-21 26zM113 57l32 15l31 -15l8 -34l-22 -26h-35l-21 26zM77 90l31 15l31 -15l8 -34l-22 -27h-34l-22 27zM52 132l31 15l31 -15l8 -34l-22 -27h-34l-22 27zM41 179l31 16
l31 -16l8 -33l-22 -28h-34l-22 28zM40 228l31 15l32 -15l7 -34l-21 -27h-35l-22 27zM50 277l31 15l32 -15l7 -34l-21 -27h-35l-22 27zM74 320l31 15l31 -15l8 -34l-22 -27h-34l-22 27zM107 354l31 15l32 -15l7 -34l-21 -27h-35l-22 27zM124 381l32 16l31 -16l7 -33l-21 -28
h-35l-21 28zM264 371l32 16l31 -16l7 -33l-21 -28h-35l-21 28z" />
    <glyph glyph-name="p" unicode="p" horiz-adv-x="524" 
d="M90 137l32 15l31 -15l8 -34l-22 -27h-35l-21 27zM61 97l31 15l31 -15l8 -34l-22 -27h-35l-21 27zM31 56l31 16l31 -16l8 -33l-22 -26h-34l-22 26zM317 374l31 15l32 -15l7 -33l-21 -28h-35l-22 28zM357 346l31 15l32 -15l7 -34l-21 -27h-35l-22 27zM388 308l31 15l31 -15
l8 -34l-22 -27h-34l-22 27zM406 264l31 15l32 -15l7 -34l-21 -27h-35l-22 27zM412 212l31 15l32 -15l7 -34l-21 -27h-35l-22 27zM409 167l31 15l31 -15l8 -34l-22 -27h-34l-22 27zM392 118l32 15l31 -15l7 -34l-21 -27h-35l-21 27zM364 81l31 15l32 -15l7 -34l-21 -27h-35
l-22 27zM323 52l31 15l32 -15l7 -34l-21 -26h-35l-22 26zM275 40l31 15l32 -15l7 -34l-21 -26h-35l-22 26zM229 43l31 16l31 -16l8 -33l-22 -26h-35l-21 26zM185 64l32 15l31 -15l8 -34l-22 -27h-35l-21 27zM118 84l31 15l31 -15l8 -34l-22 -27h-34l-22 27zM117 37l32 15
l31 -15l7 -34l-21 -26h-35l-21 26zM117 -12l32 14l31 -14l7 -34l-21 -27h-35l-21 27zM117 -62l32 15l31 -15l7 -34l-21 -27h-35l-21 27zM117 -110l32 15l31 -15l7 -33l-21 -28h-35l-21 28zM102 122l32 15l31 -15l7 -34l-21 -27h-35l-21 27zM102 372l32 15l31 -15l7 -34
l-21 -27h-35l-21 27zM112 342l32 15l31 -15l7 -34l-21 -27h-35l-21 27zM201 367l32 15l31 -15l8 -34l-22 -27h-35l-21 27zM249 383l31 15l32 -15l7 -33l-21 -28h-35l-22 28zM267 384l32 16l31 -16l7 -33l-21 -28h-35l-21 28zM166 338l31 15l31 -15l8 -34l-22 -27h-34l-22 27
zM137 300l31 15l32 -15l7 -34l-21 -27h-35l-22 27zM121 254l31 15l32 -15l7 -34l-21 -27h-35l-22 27zM117 207l32 15l31 -15l8 -34l-22 -27h-35l-21 27zM122 156l32 15l31 -15l8 -34l-22 -27h-35l-21 27zM139 110l31 15l32 -15l7 -34l-21 -27h-35l-22 27zM169 73l32 15
l31 -15l7 -34l-21 -27h-35l-21 27z" />
    <glyph glyph-name="q" unicode="q" 
d="M101 142l32 15l31 -15l8 -34l-22 -27h-35l-21 27zM72 102l31 15l31 -15l8 -34l-22 -27h-35l-21 27zM42 61l31 16l31 -16l8 -33l-22 -26h-34l-22 26zM358 203l31 15l32 -15l7 -34l-21 -27h-35l-22 27zM360 334l32 16l31 -16l7 -33l-21 -28h-35l-21 28zM360 134l32 16
l31 -16l7 -33l-21 -28h-35l-21 28zM360 84l32 16l31 -16l7 -33l-21 -28h-35l-21 28zM360 34l32 16l31 -16l7 -33l-21 -27h-35l-21 27zM360 -15l32 15l31 -15l7 -33l-21 -28h-35l-21 28zM360 -65l32 16l31 -16l7 -33l-21 -28h-35l-21 28zM358 -110l31 15l31 -15l8 -33
l-22 -28h-34l-22 28zM159 45l31 15l31 -15l8 -34l-21 -26h-35l-22 26zM116 65l31 15l31 -15l8 -33l-22 -28h-34l-22 28zM82 100l31 15l32 -15l7 -34l-21 -27h-35l-22 27zM60 144l31 15l31 -15l8 -34l-22 -27h-34l-22 27zM51 193l31 15l31 -15l8 -34l-22 -27h-34l-22 27z
M52 241l31 15l32 -15l7 -34l-21 -27h-35l-22 27zM64 288l31 15l31 -15l8 -34l-21 -27h-35l-22 27zM91 332l31 15l31 -15l8 -34l-22 -27h-34l-22 27zM127 363l31 15l31 -15l8 -34l-22 -27h-34l-22 27zM172 381l31 15l31 -15l8 -34l-22 -27h-34l-22 27zM218 384l32 15l31 -15
l8 -34l-22 -27h-35l-21 27zM265 364l32 15l31 -15l7 -33l-21 -28h-35l-21 28zM300 334l31 15l32 -15l7 -33l-21 -28h-35l-22 28zM350 349l32 16l31 -16l7 -33l-21 -28h-35l-21 28zM350 374l32 16l31 -16l7 -33l-21 -28h-35l-21 28zM205 44l32 16l31 -16l7 -33l-21 -27h-35
l-21 27zM255 52l32 15l31 -15l8 -33l-22 -27h-35l-21 27zM299 78l31 15l31 -15l8 -34l-22 -27h-35l-21 27zM326 116l31 15l31 -15l8 -34l-22 -27h-35l-21 27zM341 163l31 15l32 -15l7 -33l-21 -28h-35l-22 28zM345 209l32 16l31 -16l7 -33l-21 -28h-35l-21 28zM341 260
l31 15l31 -15l8 -34l-22 -27h-35l-21 27zM325 307l31 15l31 -15l8 -34l-22 -27h-35l-21 27z" />
    <glyph glyph-name="r" unicode="r" horiz-adv-x="357" 
d="M98 294l32 15l31 -15l8 -34l-22 -27h-35l-21 27zM69 254l31 15l31 -15l8 -34l-22 -27h-35l-21 27zM39 213l31 16l31 -16l8 -33l-22 -26h-34l-22 26zM243 384l32 15l31 -15l8 -33l-22 -28h-35l-21 28zM198 365l31 15l32 -15l7 -34l-21 -27h-35l-22 27zM156 344l32 16
l31 -16l7 -33l-21 -28h-35l-21 28zM131 314l32 16l31 -16l7 -33l-21 -28h-35l-21 28zM91 47l32 15l31 -15l7 -34l-21 -26h-35l-21 26zM91 97l32 15l31 -15l7 -34l-21 -27h-35l-21 27zM91 147l32 15l31 -15l7 -34l-21 -27h-35l-21 27zM91 197l32 15l31 -15l7 -34l-21 -27h-35
l-21 27zM91 247l32 15l31 -15l7 -34l-21 -27h-35l-21 27zM91 297l32 15l31 -15l7 -34l-21 -27h-35l-21 27zM91 347l32 15l31 -15l7 -34l-21 -27h-35l-21 27zM114 319l31 16l31 -16l8 -33l-22 -28h-34l-22 28z" />
    <glyph glyph-name="s" unicode="s" horiz-adv-x="482" 
d="M355 418l31 15l31 -15l8 -34l-22 -27h-35l-21 27zM312 335l31 15l32 -15l7 -34l-21 -27h-35l-22 27zM341 296l32 15l31 -15l8 -34l-22 -27h-35l-21 27zM357 249l31 15l31 -15l8 -34l-22 -27h-34l-22 27zM360 201l31 15l32 -15l7 -34l-21 -27h-35l-22 27zM354 152l31 15
l32 -15l7 -34l-21 -27h-35l-22 27zM336 108l31 15l31 -15l8 -34l-22 -27h-34l-22 27zM304 70l31 15l32 -15l7 -34l-21 -27h-35l-22 27zM262 46l31 15l31 -15l8 -34l-22 -26h-34l-22 26zM211 37l31 15l31 -15l8 -34l-22 -26h-34l-22 26zM164 40l32 15l31 -15l8 -34l-22 -26
h-35l-21 26zM119 57l32 15l31 -15l8 -34l-22 -26h-35l-21 26zM83 90l31 15l31 -15l8 -34l-22 -27h-34l-22 27zM58 132l31 15l31 -15l8 -34l-22 -27h-34l-22 27zM47 179l31 16l31 -16l8 -33l-22 -28h-34l-22 28zM46 228l31 15l32 -15l7 -34l-21 -27h-35l-22 27zM72 68l31 15
l31 -15l8 -34l-22 -27h-34l-22 27zM103 107l32 15l31 -15l8 -34l-22 -27h-35l-21 27zM135 146l31 15l31 -15l8 -34l-21 -27h-35l-22 27zM167 185l31 15l31 -15l8 -34l-22 -27h-35l-21 27zM198 224l31 15l32 -15l7 -34l-21 -27h-35l-22 27zM230 262l31 15l31 -15l8 -33
l-22 -28h-34l-22 28zM261 301l32 15l31 -15l8 -34l-22 -27h-35l-21 27zM293 340l31 15l31 -15l8 -34l-21 -27h-35l-22 27zM325 379l31 15l31 -15l8 -34l-22 -27h-35l-21 27zM46 44l32 15l31 -15l7 -34l-21 -26h-35l-21 26z" />
    <glyph glyph-name="t" unicode="t" horiz-adv-x="363" 
d="M206 40l32 16l31 -16l7 -33l-21 -27h-35l-21 27zM170 63l32 15l31 -15l8 -34l-22 -27h-35l-21 27zM142 104l31 15l31 -15l8 -34l-22 -27h-34l-22 27zM107 144l32 16l31 -16l7 -33l-21 -28h-35l-21 28zM107 194l32 16l31 -16l7 -33l-21 -28h-35l-21 28zM107 244l32 16
l31 -16l7 -33l-21 -28h-35l-21 28zM107 294l32 16l31 -16l7 -33l-21 -28h-35l-21 28zM107 344l32 16l31 -16l7 -33l-21 -28h-35l-21 28zM32 371l32 15l31 -15l7 -34l-21 -27h-35l-21 27zM77 374l32 16l31 -16l7 -33l-21 -28h-35l-21 28zM122 467l32 15l31 -15l7 -34l-21 -27
h-35l-21 27zM122 417l32 15l31 -15l7 -34l-21 -27h-35l-21 27zM134 378l32 15l31 -15l8 -34l-22 -27h-35l-21 27zM182 374l32 16l31 -16l7 -33l-21 -28h-35l-21 28zM232 374l32 16l31 -16l7 -33l-21 -28h-35l-21 28z" />
    <glyph glyph-name="u" unicode="u" horiz-adv-x="502" 
d="M91 138l32 15l31 -15l8 -34l-22 -27h-35l-21 27zM62 98l31 15l31 -15l8 -34l-22 -27h-35l-21 27zM32 57l31 16l31 -16l8 -33l-22 -26h-34l-22 26zM344 147l32 15l31 -15l8 -34l-22 -27h-35l-21 27zM349 194l32 16l31 -16l7 -33l-21 -28h-35l-21 28zM349 242l32 15l31 -15
l7 -34l-21 -27h-35l-21 27zM349 292l32 15l31 -15l7 -34l-21 -27h-35l-21 27zM349 342l32 15l31 -15l7 -34l-21 -27h-35l-21 27zM364 374l32 16l31 -16l7 -33l-21 -28h-35l-21 28zM354 47l31 15l31 -15l8 -34l-22 -26h-34l-22 26zM345 93l31 15l32 -15l7 -34l-21 -27h-35
l-22 27zM256 48l31 15l31 -15l8 -34l-22 -26h-34l-22 26zM208 40l31 15l31 -15l8 -34l-22 -26h-34l-22 26zM159 44l31 15l31 -15l8 -34l-22 -26h-34l-22 26zM116 63l31 15l31 -15l8 -34l-22 -27h-34l-22 27zM87 103l31 15l32 -15l7 -34l-21 -27h-35l-22 27zM79 149l32 16
l31 -16l7 -33l-21 -28h-35l-21 28zM79 199l32 16l31 -16l7 -33l-21 -28h-35l-21 28zM79 249l32 16l31 -16l7 -33l-21 -28h-35l-21 28zM79 299l32 16l31 -16l7 -33l-21 -28h-35l-21 28zM79 349l32 16l31 -16l7 -33l-21 -28h-35l-21 28zM94 369l32 16l31 -16l7 -33l-21 -28
h-35l-21 28zM299 74l32 16l31 -16l7 -33l-21 -28h-35l-21 28z" />
    <glyph glyph-name="v" unicode="v" horiz-adv-x="463" 
d="M104 63l31 15l31 -15l8 -34l-22 -27h-34l-22 27zM135 102l32 15l31 -15l8 -34l-22 -27h-35l-21 27zM167 141l31 15l31 -15l8 -34l-21 -27h-35l-22 27zM199 180l31 15l31 -15l8 -34l-22 -27h-35l-21 27zM230 219l31 15l32 -15l7 -34l-21 -27h-35l-22 27zM262 257l31 15
l31 -15l8 -33l-22 -28h-34l-22 28zM293 296l32 15l31 -15l8 -34l-22 -27h-35l-21 27zM325 335l31 15l31 -15l8 -34l-21 -27h-35l-22 27zM357 374l31 15l31 -15l8 -34l-22 -27h-35l-21 27zM78 39l32 15l31 -15l7 -34l-21 -26h-35l-21 26zM78 89l32 15l31 -15l7 -34l-21 -27
h-35l-21 27zM78 139l32 15l31 -15l7 -34l-21 -27h-35l-21 27zM78 189l32 15l31 -15l7 -34l-21 -27h-35l-21 27zM78 239l32 15l31 -15l7 -34l-21 -27h-35l-21 27zM78 289l32 15l31 -15l7 -34l-21 -27h-35l-21 27zM78 339l32 15l31 -15l7 -34l-21 -27h-35l-21 27zM78 382
l32 15l31 -15l7 -34l-21 -27h-35l-21 27z" />
    <glyph glyph-name="w" unicode="w" horiz-adv-x="648" 
d="M473 360l31 15l31 -15l8 -34l-22 -27h-35l-21 27zM491 338l31 15l32 -15l7 -34l-21 -27h-35l-22 27zM520 299l32 15l31 -15l8 -34l-22 -27h-35l-21 27zM536 252l31 15l31 -15l8 -34l-22 -27h-34l-22 27zM539 204l31 15l32 -15l7 -34l-21 -27h-35l-22 27zM533 155l31 15
l32 -15l7 -34l-21 -27h-35l-22 27zM515 111l31 15l31 -15l8 -34l-22 -27h-34l-22 27zM483 73l31 15l32 -15l7 -34l-21 -27h-35l-22 27zM441 49l31 15l31 -15l8 -34l-22 -26h-34l-22 26zM390 40l31 15l31 -15l8 -34l-22 -26h-34l-22 26zM343 43l32 15l31 -15l8 -34l-22 -26
h-35l-21 26zM298 60l32 15l31 -15l8 -34l-22 -26h-35l-21 26zM262 93l31 15l31 -15l8 -34l-22 -27h-34l-22 27zM237 135l31 15l31 -15l8 -34l-22 -27h-34l-22 27zM226 182l31 16l31 -16l8 -33l-22 -28h-34l-22 28zM225 231l31 15l32 -15l7 -34l-21 -27h-35l-22 27zM235 280
l31 15l32 -15l7 -34l-21 -27h-35l-22 27zM259 323l31 15l31 -15l8 -34l-22 -27h-34l-22 27zM449 374l32 16l31 -16l7 -33l-21 -28h-35l-21 28zM306 335l31 15l32 -15l7 -34l-21 -27h-35l-22 27zM335 296l32 15l31 -15l8 -34l-22 -27h-35l-21 27zM351 249l31 15l31 -15l8 -34
l-22 -27h-34l-22 27zM354 201l31 15l32 -15l7 -34l-21 -27h-35l-22 27zM348 152l31 15l32 -15l7 -34l-21 -27h-35l-22 27zM330 108l31 15l31 -15l8 -34l-22 -27h-34l-22 27zM256 46l31 15l31 -15l8 -34l-22 -26h-34l-22 26zM205 37l31 15l31 -15l8 -34l-22 -26h-34l-22 26z
M158 40l32 15l31 -15l8 -34l-22 -26h-35l-21 26zM113 57l32 15l31 -15l8 -34l-22 -26h-35l-21 26zM77 90l31 15l31 -15l8 -34l-22 -27h-34l-22 27zM52 132l31 15l31 -15l8 -34l-22 -27h-34l-22 27zM41 179l31 16l31 -16l8 -33l-22 -28h-34l-22 28zM40 228l31 15l32 -15
l7 -34l-21 -27h-35l-22 27zM50 277l31 15l32 -15l7 -34l-21 -27h-35l-22 27zM74 320l31 15l31 -15l8 -34l-22 -27h-34l-22 27zM107 354l31 15l32 -15l7 -34l-21 -27h-35l-22 27zM124 381l32 16l31 -16l7 -33l-21 -28h-35l-21 28z" />
    <glyph glyph-name="x" unicode="x" horiz-adv-x="420" 
d="M294 40l32 16l31 -16l7 -33l-21 -27h-35l-21 27zM258 63l32 15l31 -15l8 -34l-22 -27h-35l-21 27zM230 104l31 15l31 -15l8 -34l-22 -27h-34l-22 27zM201 145l31 15l31 -15l8 -34l-22 -27h-34l-22 27zM171 184l31 15l32 -15l7 -34l-21 -27h-35l-22 27zM138 167l32 15
l31 -15l8 -33l-22 -28h-35l-21 28zM108 127l32 15l31 -15l8 -34l-22 -27h-35l-21 27zM79 87l31 15l31 -15l8 -34l-22 -27h-35l-21 27zM49 46l31 16l31 -16l8 -33l-22 -26h-34l-22 26zM144 220l32 16l31 -16l7 -33l-21 -28h-35l-21 28zM118 257l32 15l31 -15l8 -33l-22 -28
h-35l-21 28zM90 299l31 15l31 -15l8 -34l-22 -27h-35l-21 27zM61 340l31 15l31 -15l8 -34l-22 -27h-34l-22 27zM49 370l32 16l31 -16l7 -33l-21 -28h-35l-21 28zM288 368l31 15l31 -15l8 -33l-22 -28h-34l-22 28zM258 328l31 15l32 -15l7 -34l-21 -27h-35l-22 27zM228 287
l32 15l31 -15l8 -34l-22 -27h-35l-21 27zM199 247l31 15l31 -15l8 -34l-22 -27h-35l-21 27z" />
    <glyph glyph-name="y" unicode="y" horiz-adv-x="442" 
d="M331 369l32 16l31 -16l7 -33l-21 -28h-35l-21 28zM312 323l31 15l32 -15l7 -34l-21 -27h-35l-22 27zM293 277l31 15l32 -15l7 -34l-21 -27h-35l-22 27zM274 231l31 15l32 -15l7 -34l-21 -27h-35l-22 27zM255 184l31 16l31 -16l8 -33l-21 -28h-35l-22 28zM236 138l31 15
l31 -15l8 -34l-22 -27h-34l-22 27zM217 92l31 15l31 -15l8 -34l-22 -27h-34l-22 27zM198 46l31 15l31 -15l8 -34l-22 -26h-34l-22 26zM179 -1l31 16l31 -16l8 -32l-22 -27h-34l-22 27zM160 -44l32 15l31 -15l8 -33l-22 -28h-35l-21 28zM134 -87l31 15l32 -15l7 -34l-21 -27
h-35l-22 27zM94 -112l31 15l32 -15l7 -34l-21 -27h-35l-22 27zM46 -113l32 15l31 -15l8 -34l-22 -27h-35l-21 27zM12 -95l31 15l31 -15l7 -33l-21 -28h-35l-20 28zM162 59l31 15l31 -15l8 -34l-22 -27h-34l-22 27zM142 105l31 16l32 -16l7 -33l-21 -27h-35l-22 27zM123 152
l31 15l31 -15l8 -34l-22 -27h-34l-22 27zM103 198l32 15l31 -15l8 -34l-22 -27h-35l-21 27zM84 244l31 15l31 -15l8 -33l-22 -28h-34l-22 28zM65 288l32 15l31 -15l8 -33l-22 -28h-35l-21 28zM46 335l31 15l31 -15l8 -34l-22 -27h-34l-22 27zM41 369l32 16l31 -16l7 -33
l-21 -28h-35l-21 28z" />
    <glyph glyph-name="z" unicode="z" horiz-adv-x="440" 
d="M334 400l32 15l31 -15l7 -34l-21 -27h-35l-21 27zM42 44l32 16l31 -16l7 -33l-21 -27h-35l-21 27zM282 349l32 16l31 -16l7 -33l-21 -28h-35l-21 28zM252 369l32 16l31 -16l7 -33l-21 -28h-35l-21 28zM202 369l32 16l31 -16l7 -33l-21 -28h-35l-21 28zM155 369l31 16
l31 -16l8 -33l-22 -28h-34l-22 28zM105 369l31 16l31 -16l8 -33l-22 -28h-34l-22 28zM72 374l32 16l31 -16l7 -33l-21 -28h-35l-21 28zM307 362l32 15l31 -15l7 -34l-21 -27h-35l-21 27zM278 325l31 15l32 -15l7 -34l-21 -27h-35l-22 27zM246 286l31 15l31 -15l8 -33
l-22 -28h-35l-21 28zM213 248l31 15l32 -15l7 -34l-21 -27h-35l-22 27zM182 211l31 15l32 -15l7 -33l-21 -28h-35l-22 28zM150 173l31 15l31 -15l8 -34l-22 -27h-34l-22 27zM117 134l31 15l32 -15l7 -33l-21 -28h-35l-21 28zM81 102l31 15l31 -15l8 -34l-22 -27h-34l-22 27z
M63 65l31 15l31 -15l8 -34l-22 -27h-34l-22 27zM297 49l32 16l31 -16l7 -33l-21 -27h-35l-21 27zM235 44l31 16l31 -16l8 -33l-22 -27h-34l-22 27zM185 44l31 16l31 -16l8 -33l-22 -27h-34l-22 27zM135 44l31 16l31 -16l8 -33l-22 -27h-34l-22 27zM85 44l31 16l31 -16l8 -33
l-22 -27h-34l-22 27z" />
    <glyph glyph-name="asciitilde" unicode="~" 
d="M174 495l32 16l31 -16l7 -33l-21 -28h-35l-21 28zM225 487l31 15l31 -15l8 -34l-22 -27h-35l-21 27zM267 461l31 15l31 -15l8 -34l-21 -27h-35l-22 27zM292 424l31 15l31 -15l8 -34l-22 -27h-34l-22 27zM421 455l31 15l31 -15l8 -34l-22 -27h-34l-22 27zM385 423l31 15
l32 -15l7 -34l-21 -26h-35l-22 26zM337 410l31 15l31 -15l8 -34l-22 -26h-34l-22 26zM289 409l31 15l31 -15l8 -33l-22 -27h-34l-22 27zM242 421l31 15l31 -15l8 -34l-22 -26h-34l-22 26zM200 449l31 15l31 -15l8 -34l-22 -27h-34l-22 27zM38 417l31 15l31 -15l8 -33
l-22 -28h-35l-21 28zM67 454l31 15l31 -15l8 -34l-22 -27h-34l-22 27zM109 483l31 15l32 -15l7 -33l-21 -28h-35l-22 28zM156 495l31 15l31 -15l8 -34l-22 -27h-34l-22 27z" />
    <glyph glyph-name="dieresis" unicode="&#xa8;" 
d="M286 445l32 16l31 -16l7 -33l-21 -28h-35l-21 28zM252 462l31 15l32 -15l7 -34l-21 -27h-35l-22 27zM274 490l31 16l31 -16l8 -33l-22 -28h-34l-22 28zM286 445l32 16l31 -16l7 -33l-21 -28h-35l-21 28zM78 445l32 16l31 -16l7 -33l-21 -28h-35l-21 28zM44 462l31 15
l32 -15l7 -34l-21 -27h-35l-22 27zM66 490l31 16l31 -16l8 -33l-22 -28h-34l-22 28zM78 445l32 16l31 -16l7 -33l-21 -28h-35l-21 28z" />
    <glyph glyph-name="degree" unicode="&#xb0;" horiz-adv-x="254" 
d="M135 489l32 16l31 -16l7 -33l-21 -28h-35l-21 28zM122 452l31 15l32 -15l7 -34l-21 -27h-35l-22 27zM121 527l31 16l31 -16l8 -33l-22 -28h-34l-22 28zM82 441l32 16l31 -16l7 -33l-21 -28h-35l-21 28zM44 462l32 16l31 -16l7 -33l-21 -28h-35l-21 28zM16 506l31 15
l32 -15l7 -34l-21 -27h-35l-22 27zM38 534l31 16l31 -16l8 -33l-22 -28h-34l-22 28zM84 551l32 16l31 -16l7 -33l-21 -28h-35l-21 28z" />
    <glyph glyph-name="Agrave" unicode="&#xc0;" 
d="M293 460l32 16l31 -16l7 -33l-21 -27h-35l-21 27zM257 483l32 15l31 -15l8 -34l-22 -27h-35l-21 27zM229 524l31 15l31 -15l8 -34l-22 -27h-34l-22 27zM200 565l31 15l31 -15l8 -34l-22 -27h-34l-22 27zM170 604l31 15l32 -15l7 -34l-21 -27h-35l-22 27zM376 92l32 15
l31 -15l8 -34l-22 -27h-35l-21 27zM359 139l32 15l31 -15l8 -34l-22 -27h-35l-21 27zM335 178l31 15l31 -15l8 -34l-21 -27h-35l-22 27zM288 179l32 16l31 -16l7 -33l-21 -28h-35l-21 28zM238 179l32 16l31 -16l7 -33l-21 -28h-35l-21 28zM188 179l32 16l31 -16l7 -33
l-21 -28h-35l-21 28zM138 179l32 16l31 -16l7 -33l-21 -28h-35l-21 28zM92 178l31 15l31 -15l8 -34l-22 -27h-35l-21 27zM67 139l31 15l32 -15l7 -34l-21 -27h-35l-22 27zM51 94l31 15l32 -15l7 -34l-21 -27h-35l-22 27zM34 47l31 15l32 -15l7 -34l-21 -26h-35l-22 26z
M191 490l32 15l31 -15l8 -34l-22 -27h-35l-21 27zM393 44l32 16l31 -16l7 -33l-21 -27h-35l-21 27zM393 44l32 16l31 -16l7 -33l-21 -27h-35l-21 27zM321 202l31 15l31 -15l8 -34l-22 -27h-34l-22 27zM319 236l31 15l31 -15l8 -34l-22 -27h-34l-22 27zM301 284l32 15l31 -15
l8 -34l-22 -27h-35l-21 27zM284 331l31 15l31 -15l8 -34l-22 -27h-34l-22 27zM266 378l31 15l32 -15l7 -34l-21 -27h-35l-22 27zM250 421l32 15l31 -15l8 -34l-22 -27h-35l-21 27zM233 469l32 15l31 -15l7 -33l-21 -28h-35l-21 28zM182 443l31 15l31 -15l8 -34l-22 -27h-35
l-21 27zM167 397l32 15l31 -15l8 -34l-22 -27h-35l-21 27zM150 350l31 15l31 -15l8 -34l-22 -27h-34l-22 27zM133 305l31 15l32 -15l7 -34l-21 -27h-35l-22 27zM116 258l31 15l31 -15l8 -34l-22 -27h-35l-21 27zM101 212l31 15l31 -15l8 -34l-21 -27h-35l-22 27z" />
    <glyph glyph-name="Aacute" unicode="&#xc1;" 
d="M246 605l31 15l32 -15l7 -34l-21 -27h-35l-22 27zM213 588l32 15l31 -15l8 -33l-22 -28h-35l-21 28zM183 548l32 15l31 -15l8 -34l-22 -27h-35l-21 27zM154 508l31 15l31 -15l8 -34l-22 -27h-35l-21 27zM124 467l31 16l31 -16l8 -33l-22 -26h-34l-22 26zM376 92l32 15
l31 -15l8 -34l-22 -27h-35l-21 27zM359 139l32 15l31 -15l8 -34l-22 -27h-35l-21 27zM335 178l31 15l31 -15l8 -34l-21 -27h-35l-22 27zM288 179l32 16l31 -16l7 -33l-21 -28h-35l-21 28zM238 179l32 16l31 -16l7 -33l-21 -28h-35l-21 28zM188 179l32 16l31 -16l7 -33
l-21 -28h-35l-21 28zM138 179l32 16l31 -16l7 -33l-21 -28h-35l-21 28zM92 178l31 15l31 -15l8 -34l-22 -27h-35l-21 27zM67 139l31 15l32 -15l7 -34l-21 -27h-35l-22 27zM51 94l31 15l32 -15l7 -34l-21 -27h-35l-22 27zM34 47l31 15l32 -15l7 -34l-21 -26h-35l-22 26z
M191 490l32 15l31 -15l8 -34l-22 -27h-35l-21 27zM393 44l32 16l31 -16l7 -33l-21 -27h-35l-21 27zM393 44l32 16l31 -16l7 -33l-21 -27h-35l-21 27zM321 202l31 15l31 -15l8 -34l-22 -27h-34l-22 27zM319 236l31 15l31 -15l8 -34l-22 -27h-34l-22 27zM301 284l32 15l31 -15
l8 -34l-22 -27h-35l-21 27zM284 331l31 15l31 -15l8 -34l-22 -27h-34l-22 27zM266 378l31 15l32 -15l7 -34l-21 -27h-35l-22 27zM250 421l32 15l31 -15l8 -34l-22 -27h-35l-21 27zM233 469l32 15l31 -15l7 -33l-21 -28h-35l-21 28zM182 443l31 15l31 -15l8 -34l-22 -27h-35
l-21 27zM167 397l32 15l31 -15l8 -34l-22 -27h-35l-21 27zM150 350l31 15l31 -15l8 -34l-22 -27h-34l-22 27zM133 305l31 15l32 -15l7 -34l-21 -27h-35l-22 27zM116 258l31 15l31 -15l8 -34l-22 -27h-35l-21 27zM101 212l31 15l31 -15l8 -34l-21 -27h-35l-22 27z" />
    <glyph glyph-name="Acircumflex" unicode="&#xc2;" 
d="M292 485l32 15l31 -15l8 -34l-22 -27h-35l-21 27zM264 526l31 15l31 -15l8 -34l-22 -27h-34l-22 27zM235 567l31 15l31 -15l8 -34l-22 -27h-34l-22 27zM205 606l31 15l32 -15l7 -34l-21 -27h-35l-22 27zM172 589l32 15l31 -15l8 -33l-22 -28h-35l-21 28zM142 549l32 15
l31 -15l8 -34l-22 -27h-35l-21 27zM113 509l31 15l31 -15l8 -34l-22 -27h-35l-21 27zM376 92l32 15l31 -15l8 -34l-22 -27h-35l-21 27zM359 139l32 15l31 -15l8 -34l-22 -27h-35l-21 27zM335 178l31 15l31 -15l8 -34l-21 -27h-35l-22 27zM288 179l32 16l31 -16l7 -33
l-21 -28h-35l-21 28zM238 179l32 16l31 -16l7 -33l-21 -28h-35l-21 28zM188 179l32 16l31 -16l7 -33l-21 -28h-35l-21 28zM138 179l32 16l31 -16l7 -33l-21 -28h-35l-21 28zM92 178l31 15l31 -15l8 -34l-22 -27h-35l-21 27zM67 139l31 15l32 -15l7 -34l-21 -27h-35l-22 27z
M51 94l31 15l32 -15l7 -34l-21 -27h-35l-22 27zM34 47l31 15l32 -15l7 -34l-21 -26h-35l-22 26zM191 490l32 15l31 -15l8 -34l-22 -27h-35l-21 27zM393 44l32 16l31 -16l7 -33l-21 -27h-35l-21 27zM393 44l32 16l31 -16l7 -33l-21 -27h-35l-21 27zM321 202l31 15l31 -15
l8 -34l-22 -27h-34l-22 27zM319 236l31 15l31 -15l8 -34l-22 -27h-34l-22 27zM301 284l32 15l31 -15l8 -34l-22 -27h-35l-21 27zM284 331l31 15l31 -15l8 -34l-22 -27h-34l-22 27zM266 378l31 15l32 -15l7 -34l-21 -27h-35l-22 27zM250 421l32 15l31 -15l8 -34l-22 -27h-35
l-21 27zM233 469l32 15l31 -15l7 -33l-21 -28h-35l-21 28zM182 443l31 15l31 -15l8 -34l-22 -27h-35l-21 27zM167 397l32 15l31 -15l8 -34l-22 -27h-35l-21 27zM150 350l31 15l31 -15l8 -34l-22 -27h-34l-22 27zM133 305l31 15l32 -15l7 -34l-21 -27h-35l-22 27zM116 258
l31 15l31 -15l8 -34l-22 -27h-35l-21 27zM101 212l31 15l31 -15l8 -34l-21 -27h-35l-22 27z" />
    <glyph glyph-name="Atilde" unicode="&#xc3;" 
d="M147 604l32 16l31 -16l7 -33l-21 -28h-35l-21 28zM198 596l31 15l31 -15l8 -34l-22 -27h-35l-21 27zM240 570l31 15l31 -15l8 -34l-21 -27h-35l-22 27zM265 533l31 15l31 -15l8 -34l-22 -27h-34l-22 27zM394 564l31 15l31 -15l8 -34l-22 -27h-34l-22 27zM358 532l31 15
l32 -15l7 -34l-21 -26h-35l-22 26zM310 519l31 15l31 -15l8 -34l-22 -26h-34l-22 26zM262 518l31 15l31 -15l8 -33l-22 -27h-34l-22 27zM215 530l31 15l31 -15l8 -34l-22 -26h-34l-22 26zM173 558l31 15l31 -15l8 -34l-22 -27h-34l-22 27zM11 526l31 15l31 -15l8 -33
l-22 -28h-35l-21 28zM40 563l31 15l31 -15l8 -34l-22 -27h-34l-22 27zM82 592l31 15l32 -15l7 -33l-21 -28h-35l-22 28zM129 604l31 15l31 -15l8 -34l-22 -27h-34l-22 27zM376 92l32 15l31 -15l8 -34l-22 -27h-35l-21 27zM359 139l32 15l31 -15l8 -34l-22 -27h-35l-21 27z
M335 178l31 15l31 -15l8 -34l-21 -27h-35l-22 27zM288 179l32 16l31 -16l7 -33l-21 -28h-35l-21 28zM238 179l32 16l31 -16l7 -33l-21 -28h-35l-21 28zM188 179l32 16l31 -16l7 -33l-21 -28h-35l-21 28zM138 179l32 16l31 -16l7 -33l-21 -28h-35l-21 28zM92 178l31 15
l31 -15l8 -34l-22 -27h-35l-21 27zM67 139l31 15l32 -15l7 -34l-21 -27h-35l-22 27zM51 94l31 15l32 -15l7 -34l-21 -27h-35l-22 27zM34 47l31 15l32 -15l7 -34l-21 -26h-35l-22 26zM191 490l32 15l31 -15l8 -34l-22 -27h-35l-21 27zM393 44l32 16l31 -16l7 -33l-21 -27h-35
l-21 27zM393 44l32 16l31 -16l7 -33l-21 -27h-35l-21 27zM321 202l31 15l31 -15l8 -34l-22 -27h-34l-22 27zM319 236l31 15l31 -15l8 -34l-22 -27h-34l-22 27zM301 284l32 15l31 -15l8 -34l-22 -27h-35l-21 27zM284 331l31 15l31 -15l8 -34l-22 -27h-34l-22 27zM266 378
l31 15l32 -15l7 -34l-21 -27h-35l-22 27zM250 421l32 15l31 -15l8 -34l-22 -27h-35l-21 27zM233 469l32 15l31 -15l7 -33l-21 -28h-35l-21 28zM182 443l31 15l31 -15l8 -34l-22 -27h-35l-21 27zM167 397l32 15l31 -15l8 -34l-22 -27h-35l-21 27zM150 350l31 15l31 -15l8 -34
l-22 -27h-34l-22 27zM133 305l31 15l32 -15l7 -34l-21 -27h-35l-22 27zM116 258l31 15l31 -15l8 -34l-22 -27h-35l-21 27zM101 212l31 15l31 -15l8 -34l-21 -27h-35l-22 27z" />
    <glyph glyph-name="Adieresis" unicode="&#xc4;" 
d="M321 550l32 16l31 -16l7 -33l-21 -28h-35l-21 28zM287 567l31 15l32 -15l7 -34l-21 -27h-35l-22 27zM309 595l31 16l31 -16l8 -33l-22 -28h-34l-22 28zM321 550l32 16l31 -16l7 -33l-21 -28h-35l-21 28zM113 550l32 16l31 -16l7 -33l-21 -28h-35l-21 28zM79 567l31 15
l32 -15l7 -34l-21 -27h-35l-22 27zM101 595l31 16l31 -16l8 -33l-22 -28h-34l-22 28zM113 550l32 16l31 -16l7 -33l-21 -28h-35l-21 28zM376 92l32 15l31 -15l8 -34l-22 -27h-35l-21 27zM359 139l32 15l31 -15l8 -34l-22 -27h-35l-21 27zM335 178l31 15l31 -15l8 -34
l-21 -27h-35l-22 27zM288 179l32 16l31 -16l7 -33l-21 -28h-35l-21 28zM238 179l32 16l31 -16l7 -33l-21 -28h-35l-21 28zM188 179l32 16l31 -16l7 -33l-21 -28h-35l-21 28zM138 179l32 16l31 -16l7 -33l-21 -28h-35l-21 28zM92 178l31 15l31 -15l8 -34l-22 -27h-35l-21 27z
M67 139l31 15l32 -15l7 -34l-21 -27h-35l-22 27zM51 94l31 15l32 -15l7 -34l-21 -27h-35l-22 27zM34 47l31 15l32 -15l7 -34l-21 -26h-35l-22 26zM191 490l32 15l31 -15l8 -34l-22 -27h-35l-21 27zM393 44l32 16l31 -16l7 -33l-21 -27h-35l-21 27zM393 44l32 16l31 -16
l7 -33l-21 -27h-35l-21 27zM321 202l31 15l31 -15l8 -34l-22 -27h-34l-22 27zM319 236l31 15l31 -15l8 -34l-22 -27h-34l-22 27zM301 284l32 15l31 -15l8 -34l-22 -27h-35l-21 27zM284 331l31 15l31 -15l8 -34l-22 -27h-34l-22 27zM266 378l31 15l32 -15l7 -34l-21 -27h-35
l-22 27zM250 421l32 15l31 -15l8 -34l-22 -27h-35l-21 27zM233 469l32 15l31 -15l7 -33l-21 -28h-35l-21 28zM182 443l31 15l31 -15l8 -34l-22 -27h-35l-21 27zM167 397l32 15l31 -15l8 -34l-22 -27h-35l-21 27zM150 350l31 15l31 -15l8 -34l-22 -27h-34l-22 27zM133 305
l31 15l32 -15l7 -34l-21 -27h-35l-22 27zM116 258l31 15l31 -15l8 -34l-22 -27h-35l-21 27zM101 212l31 15l31 -15l8 -34l-21 -27h-35l-22 27z" />
    <glyph glyph-name="Aring" unicode="&#xc5;" 
d="M376 92l32 15l31 -15l8 -34l-22 -27h-35l-21 27zM359 139l32 15l31 -15l8 -34l-22 -27h-35l-21 27zM335 178l31 15l31 -15l8 -34l-21 -27h-35l-22 27zM288 179l32 16l31 -16l7 -33l-21 -28h-35l-21 28zM238 179l32 16l31 -16l7 -33l-21 -28h-35l-21 28zM188 179l32 16
l31 -16l7 -33l-21 -28h-35l-21 28zM138 179l32 16l31 -16l7 -33l-21 -28h-35l-21 28zM92 178l31 15l31 -15l8 -34l-22 -27h-35l-21 27zM67 139l31 15l32 -15l7 -34l-21 -27h-35l-22 27zM51 94l31 15l32 -15l7 -34l-21 -27h-35l-22 27zM34 47l31 15l32 -15l7 -34l-21 -26h-35
l-22 26zM191 490l32 15l31 -15l8 -34l-22 -27h-35l-21 27zM393 44l32 16l31 -16l7 -33l-21 -27h-35l-21 27zM393 44l32 16l31 -16l7 -33l-21 -27h-35l-21 27zM321 202l31 15l31 -15l8 -34l-22 -27h-34l-22 27zM319 236l31 15l31 -15l8 -34l-22 -27h-34l-22 27zM301 284
l32 15l31 -15l8 -34l-22 -27h-35l-21 27zM284 331l31 15l31 -15l8 -34l-22 -27h-34l-22 27zM266 378l31 15l32 -15l7 -34l-21 -27h-35l-22 27zM250 421l32 15l31 -15l8 -34l-22 -27h-35l-21 27zM233 469l32 15l31 -15l7 -33l-21 -28h-35l-21 28zM182 443l31 15l31 -15l8 -34
l-22 -27h-35l-21 27zM167 397l32 15l31 -15l8 -34l-22 -27h-35l-21 27zM150 350l31 15l31 -15l8 -34l-22 -27h-34l-22 27zM133 305l31 15l32 -15l7 -34l-21 -27h-35l-22 27zM116 258l31 15l31 -15l8 -34l-22 -27h-35l-21 27zM101 212l31 15l31 -15l8 -34l-21 -27h-35l-22 27
z" />
    <glyph glyph-name="AE" unicode="&#xc6;" 
d="M269 94l32 16l31 -16l7 -33l-21 -28h-35l-21 28zM269 144l32 16l31 -16l7 -33l-21 -28h-35l-21 28zM269 194l32 16l31 -16l7 -33l-21 -28h-35l-21 28zM269 244l32 16l31 -16l7 -33l-21 -28h-35l-21 28zM269 294l32 16l31 -16l7 -33l-21 -28h-35l-21 28zM269 344l32 16
l31 -16l7 -33l-21 -28h-35l-21 28zM269 394l32 16l31 -16l7 -33l-21 -28h-35l-21 28zM269 444l32 16l31 -16l7 -33l-21 -28h-35l-21 28zM269 494l32 16l31 -16l7 -33l-21 -28h-35l-21 28zM319 494l32 16l31 -16l7 -33l-21 -28h-35l-21 28zM369 494l32 16l31 -16l7 -33
l-21 -28h-35l-21 28zM419 494l32 16l31 -16l7 -33l-21 -28h-35l-21 28zM469 494l32 16l31 -16l7 -33l-21 -28h-35l-21 28zM519 494l32 16l31 -16l7 -33l-21 -28h-35l-21 28zM569 494l32 16l31 -16l7 -33l-21 -28h-35l-21 28zM322 279l31 16l31 -16l8 -33l-22 -28h-34l-22 28
zM372 279l31 16l31 -16l8 -33l-22 -28h-34l-22 28zM422 279l31 16l31 -16l8 -33l-22 -28h-34l-22 28zM472 279l31 16l31 -16l8 -33l-22 -28h-34l-22 28zM509 269l32 16l31 -16l7 -33l-21 -28h-35l-21 28zM584 44l32 16l31 -16l7 -33l-21 -27h-35l-21 27zM534 44l32 16
l31 -16l7 -33l-21 -27h-35l-21 27zM484 44l32 16l31 -16l7 -33l-21 -27h-35l-21 27zM434 44l32 16l31 -16l7 -33l-21 -27h-35l-21 27zM384 44l32 16l31 -16l7 -33l-21 -27h-35l-21 27zM334 44l32 16l31 -16l7 -33l-21 -27h-35l-21 27zM284 44l32 16l31 -16l7 -33l-21 -27
h-35l-21 27zM238 179l32 16l31 -16l7 -33l-21 -28h-35l-21 28zM188 179l32 16l31 -16l7 -33l-21 -28h-35l-21 28zM138 179l32 16l31 -16l7 -33l-21 -28h-35l-21 28zM92 178l31 15l31 -15l8 -34l-22 -27h-35l-21 27zM67 139l31 15l32 -15l7 -34l-21 -27h-35l-22 27zM51 94
l31 15l32 -15l7 -34l-21 -27h-35l-22 27zM34 47l31 15l32 -15l7 -34l-21 -26h-35l-22 26zM191 490l32 15l31 -15l8 -34l-22 -27h-35l-21 27zM182 443l31 15l31 -15l8 -34l-22 -27h-35l-21 27zM167 397l32 15l31 -15l8 -34l-22 -27h-35l-21 27zM150 350l31 15l31 -15l8 -34
l-22 -27h-34l-22 27zM133 305l31 15l32 -15l7 -34l-21 -27h-35l-22 27zM116 258l31 15l31 -15l8 -34l-22 -27h-35l-21 27zM101 212l31 15l31 -15l8 -34l-21 -27h-35l-22 27z" />
    <glyph glyph-name="Ccedilla" unicode="&#xc7;" 
d="M109 390l31 15l32 -15l7 -34l-21 -27h-35l-22 27zM35 431l31 15l32 -15l7 -34l-21 -27h-35l-22 27zM387 95l32 15l31 -15l8 -34l-22 -27h-35l-21 27zM350 65l31 15l31 -15l8 -34l-22 -27h-34l-22 27zM302 46l31 15l32 -15l7 -34l-21 -26h-35l-22 26zM253 39l32 16l31 -16
l8 -33l-22 -26h-35l-21 26zM206 42l31 15l32 -15l7 -33l-21 -27h-35l-22 27zM157 55l32 15l31 -15l8 -34l-22 -26h-35l-21 26zM115 80l31 15l31 -15l8 -34l-22 -27h-35l-21 27zM82 113l32 15l31 -15l8 -34l-22 -27h-35l-21 27zM58 157l31 15l31 -15l8 -34l-22 -27h-35
l-21 27zM44 205l31 15l31 -15l8 -34l-22 -27h-34l-22 27zM38 255l32 15l31 -15l8 -34l-22 -27h-35l-21 27zM40 303l31 15l31 -15l8 -34l-22 -27h-34l-22 27zM47 351l32 15l31 -15l8 -34l-22 -27h-35l-21 27zM65 399l31 15l32 -15l7 -34l-21 -27h-35l-22 27zM93 439l32 15
l31 -15l7 -33l-21 -28h-35l-21 28zM129 472l31 15l31 -15l8 -34l-22 -27h-34l-22 27zM173 494l31 15l32 -15l7 -34l-21 -27h-35l-22 27zM223 504l31 15l31 -15l8 -34l-22 -27h-34l-22 27zM269 503l32 15l31 -15l8 -34l-22 -27h-35l-21 27zM318 493l32 15l31 -15l8 -34
l-22 -27h-35l-21 27zM361 471l32 15l31 -15l8 -33l-22 -28h-35l-21 28zM397 436l31 16l31 -16l8 -33l-21 -27h-35l-22 27zM413 137l32 15l31 -15l7 -34l-21 -27h-35l-21 27z" />
    <glyph glyph-name="Egrave" unicode="&#xc8;" 
d="M293 460l32 16l31 -16l7 -33l-21 -27h-35l-21 27zM257 483l32 15l31 -15l8 -34l-22 -27h-35l-21 27zM229 524l31 15l31 -15l8 -34l-22 -27h-34l-22 27zM200 565l31 15l31 -15l8 -34l-22 -27h-34l-22 27zM170 604l31 15l32 -15l7 -34l-21 -27h-35l-22 27zM68 94l32 16
l31 -16l7 -33l-21 -28h-35l-21 28zM68 144l32 16l31 -16l7 -33l-21 -28h-35l-21 28zM68 194l32 16l31 -16l7 -33l-21 -28h-35l-21 28zM68 244l32 16l31 -16l7 -33l-21 -28h-35l-21 28zM68 294l32 16l31 -16l7 -33l-21 -28h-35l-21 28zM68 344l32 16l31 -16l7 -33l-21 -28
h-35l-21 28zM68 394l32 16l31 -16l7 -33l-21 -28h-35l-21 28zM68 444l32 16l31 -16l7 -33l-21 -28h-35l-21 28zM68 494l32 16l31 -16l7 -33l-21 -28h-35l-21 28zM118 494l32 16l31 -16l7 -33l-21 -28h-35l-21 28zM168 494l32 16l31 -16l7 -33l-21 -28h-35l-21 28zM218 494
l32 16l31 -16l7 -33l-21 -28h-35l-21 28zM268 494l32 16l31 -16l7 -33l-21 -28h-35l-21 28zM318 494l32 16l31 -16l7 -33l-21 -28h-35l-21 28zM368 494l32 16l31 -16l7 -33l-21 -28h-35l-21 28zM121 279l31 16l31 -16l8 -33l-22 -28h-34l-22 28zM171 279l31 16l31 -16l8 -33
l-22 -28h-34l-22 28zM221 279l31 16l31 -16l8 -33l-22 -28h-34l-22 28zM271 279l31 16l31 -16l8 -33l-22 -28h-34l-22 28zM308 269l32 16l31 -16l7 -33l-21 -28h-35l-21 28zM383 44l32 16l31 -16l7 -33l-21 -27h-35l-21 27zM333 44l32 16l31 -16l7 -33l-21 -27h-35l-21 27z
M283 44l32 16l31 -16l7 -33l-21 -27h-35l-21 27zM233 44l32 16l31 -16l7 -33l-21 -27h-35l-21 27zM183 44l32 16l31 -16l7 -33l-21 -27h-35l-21 27zM133 44l32 16l31 -16l7 -33l-21 -27h-35l-21 27zM83 44l32 16l31 -16l7 -33l-21 -27h-35l-21 27z" />
    <glyph glyph-name="Eacute" unicode="&#xc9;" 
d="M246 605l31 15l32 -15l7 -34l-21 -27h-35l-22 27zM213 588l32 15l31 -15l8 -33l-22 -28h-35l-21 28zM183 548l32 15l31 -15l8 -34l-22 -27h-35l-21 27zM154 508l31 15l31 -15l8 -34l-22 -27h-35l-21 27zM124 467l31 16l31 -16l8 -33l-22 -26h-34l-22 26zM68 94l32 16
l31 -16l7 -33l-21 -28h-35l-21 28zM68 144l32 16l31 -16l7 -33l-21 -28h-35l-21 28zM68 194l32 16l31 -16l7 -33l-21 -28h-35l-21 28zM68 244l32 16l31 -16l7 -33l-21 -28h-35l-21 28zM68 294l32 16l31 -16l7 -33l-21 -28h-35l-21 28zM68 344l32 16l31 -16l7 -33l-21 -28
h-35l-21 28zM68 394l32 16l31 -16l7 -33l-21 -28h-35l-21 28zM68 444l32 16l31 -16l7 -33l-21 -28h-35l-21 28zM68 494l32 16l31 -16l7 -33l-21 -28h-35l-21 28zM118 494l32 16l31 -16l7 -33l-21 -28h-35l-21 28zM168 494l32 16l31 -16l7 -33l-21 -28h-35l-21 28zM218 494
l32 16l31 -16l7 -33l-21 -28h-35l-21 28zM268 494l32 16l31 -16l7 -33l-21 -28h-35l-21 28zM318 494l32 16l31 -16l7 -33l-21 -28h-35l-21 28zM368 494l32 16l31 -16l7 -33l-21 -28h-35l-21 28zM121 279l31 16l31 -16l8 -33l-22 -28h-34l-22 28zM171 279l31 16l31 -16l8 -33
l-22 -28h-34l-22 28zM221 279l31 16l31 -16l8 -33l-22 -28h-34l-22 28zM271 279l31 16l31 -16l8 -33l-22 -28h-34l-22 28zM308 269l32 16l31 -16l7 -33l-21 -28h-35l-21 28zM383 44l32 16l31 -16l7 -33l-21 -27h-35l-21 27zM333 44l32 16l31 -16l7 -33l-21 -27h-35l-21 27z
M283 44l32 16l31 -16l7 -33l-21 -27h-35l-21 27zM233 44l32 16l31 -16l7 -33l-21 -27h-35l-21 27zM183 44l32 16l31 -16l7 -33l-21 -27h-35l-21 27zM133 44l32 16l31 -16l7 -33l-21 -27h-35l-21 27zM83 44l32 16l31 -16l7 -33l-21 -27h-35l-21 27z" />
    <glyph glyph-name="Ecircumflex" unicode="&#xca;" 
d="M292 485l32 15l31 -15l8 -34l-22 -27h-35l-21 27zM264 526l31 15l31 -15l8 -34l-22 -27h-34l-22 27zM235 567l31 15l31 -15l8 -34l-22 -27h-34l-22 27zM205 606l31 15l32 -15l7 -34l-21 -27h-35l-22 27zM172 589l32 15l31 -15l8 -33l-22 -28h-35l-21 28zM142 549l32 15
l31 -15l8 -34l-22 -27h-35l-21 27zM113 509l31 15l31 -15l8 -34l-22 -27h-35l-21 27zM68 94l32 16l31 -16l7 -33l-21 -28h-35l-21 28zM68 144l32 16l31 -16l7 -33l-21 -28h-35l-21 28zM68 194l32 16l31 -16l7 -33l-21 -28h-35l-21 28zM68 244l32 16l31 -16l7 -33l-21 -28
h-35l-21 28zM68 294l32 16l31 -16l7 -33l-21 -28h-35l-21 28zM68 344l32 16l31 -16l7 -33l-21 -28h-35l-21 28zM68 394l32 16l31 -16l7 -33l-21 -28h-35l-21 28zM68 444l32 16l31 -16l7 -33l-21 -28h-35l-21 28zM68 494l32 16l31 -16l7 -33l-21 -28h-35l-21 28zM118 494
l32 16l31 -16l7 -33l-21 -28h-35l-21 28zM168 494l32 16l31 -16l7 -33l-21 -28h-35l-21 28zM218 494l32 16l31 -16l7 -33l-21 -28h-35l-21 28zM268 494l32 16l31 -16l7 -33l-21 -28h-35l-21 28zM318 494l32 16l31 -16l7 -33l-21 -28h-35l-21 28zM368 494l32 16l31 -16l7 -33
l-21 -28h-35l-21 28zM121 279l31 16l31 -16l8 -33l-22 -28h-34l-22 28zM171 279l31 16l31 -16l8 -33l-22 -28h-34l-22 28zM221 279l31 16l31 -16l8 -33l-22 -28h-34l-22 28zM271 279l31 16l31 -16l8 -33l-22 -28h-34l-22 28zM308 269l32 16l31 -16l7 -33l-21 -28h-35l-21 28
zM383 44l32 16l31 -16l7 -33l-21 -27h-35l-21 27zM333 44l32 16l31 -16l7 -33l-21 -27h-35l-21 27zM283 44l32 16l31 -16l7 -33l-21 -27h-35l-21 27zM233 44l32 16l31 -16l7 -33l-21 -27h-35l-21 27zM183 44l32 16l31 -16l7 -33l-21 -27h-35l-21 27zM133 44l32 16l31 -16
l7 -33l-21 -27h-35l-21 27zM83 44l32 16l31 -16l7 -33l-21 -27h-35l-21 27z" />
    <glyph glyph-name="Edieresis" unicode="&#xcb;" 
d="M321 550l32 16l31 -16l7 -33l-21 -28h-35l-21 28zM287 567l31 15l32 -15l7 -34l-21 -27h-35l-22 27zM309 595l31 16l31 -16l8 -33l-22 -28h-34l-22 28zM321 550l32 16l31 -16l7 -33l-21 -28h-35l-21 28zM113 550l32 16l31 -16l7 -33l-21 -28h-35l-21 28zM79 567l31 15
l32 -15l7 -34l-21 -27h-35l-22 27zM101 595l31 16l31 -16l8 -33l-22 -28h-34l-22 28zM113 550l32 16l31 -16l7 -33l-21 -28h-35l-21 28zM68 94l32 16l31 -16l7 -33l-21 -28h-35l-21 28zM68 144l32 16l31 -16l7 -33l-21 -28h-35l-21 28zM68 194l32 16l31 -16l7 -33l-21 -28
h-35l-21 28zM68 244l32 16l31 -16l7 -33l-21 -28h-35l-21 28zM68 294l32 16l31 -16l7 -33l-21 -28h-35l-21 28zM68 344l32 16l31 -16l7 -33l-21 -28h-35l-21 28zM68 394l32 16l31 -16l7 -33l-21 -28h-35l-21 28zM68 444l32 16l31 -16l7 -33l-21 -28h-35l-21 28zM68 494
l32 16l31 -16l7 -33l-21 -28h-35l-21 28zM118 494l32 16l31 -16l7 -33l-21 -28h-35l-21 28zM168 494l32 16l31 -16l7 -33l-21 -28h-35l-21 28zM218 494l32 16l31 -16l7 -33l-21 -28h-35l-21 28zM268 494l32 16l31 -16l7 -33l-21 -28h-35l-21 28zM318 494l32 16l31 -16l7 -33
l-21 -28h-35l-21 28zM368 494l32 16l31 -16l7 -33l-21 -28h-35l-21 28zM121 279l31 16l31 -16l8 -33l-22 -28h-34l-22 28zM171 279l31 16l31 -16l8 -33l-22 -28h-34l-22 28zM221 279l31 16l31 -16l8 -33l-22 -28h-34l-22 28zM271 279l31 16l31 -16l8 -33l-22 -28h-34l-22 28
zM308 269l32 16l31 -16l7 -33l-21 -28h-35l-21 28zM383 44l32 16l31 -16l7 -33l-21 -27h-35l-21 27zM333 44l32 16l31 -16l7 -33l-21 -27h-35l-21 27zM283 44l32 16l31 -16l7 -33l-21 -27h-35l-21 27zM233 44l32 16l31 -16l7 -33l-21 -27h-35l-21 27zM183 44l32 16l31 -16
l7 -33l-21 -27h-35l-21 27zM133 44l32 16l31 -16l7 -33l-21 -27h-35l-21 27zM83 44l32 16l31 -16l7 -33l-21 -27h-35l-21 27z" />
    <glyph glyph-name="Igrave" unicode="&#xcc;" 
d="M172 460l32 16l31 -16l7 -33l-21 -27h-35l-21 27zM136 483l32 15l31 -15l8 -34l-22 -27h-35l-21 27zM108 524l31 15l31 -15l8 -34l-22 -27h-34l-22 27zM79 565l31 15l31 -15l8 -34l-22 -27h-34l-22 27zM49 604l31 15l32 -15l7 -34l-21 -27h-35l-22 27zM83 494l32 16
l31 -16l7 -33l-21 -28h-35l-21 28zM83 444l32 16l31 -16l7 -33l-21 -28h-35l-21 28zM83 394l32 16l31 -16l7 -33l-21 -28h-35l-21 28zM83 344l32 16l31 -16l7 -33l-21 -28h-35l-21 28zM83 294l32 16l31 -16l7 -33l-21 -28h-35l-21 28zM83 244l32 16l31 -16l7 -33l-21 -28
h-35l-21 28zM83 194l32 16l31 -16l7 -33l-21 -28h-35l-21 28zM83 144l32 16l31 -16l7 -33l-21 -28h-35l-21 28zM83 94l32 16l31 -16l7 -33l-21 -28h-35l-21 28zM83 44l32 16l31 -16l7 -33l-21 -27h-35l-21 27z" />
    <glyph glyph-name="Iacute" unicode="&#xcd;" 
d="M148 605l31 15l32 -15l7 -34l-21 -27h-35l-22 27zM115 588l32 15l31 -15l8 -33l-22 -28h-35l-21 28zM85 548l32 15l31 -15l8 -34l-22 -27h-35l-21 27zM56 508l31 15l31 -15l8 -34l-22 -27h-35l-21 27zM26 467l31 16l31 -16l8 -33l-22 -26h-34l-22 26zM83 494l32 16
l31 -16l7 -33l-21 -28h-35l-21 28zM83 444l32 16l31 -16l7 -33l-21 -28h-35l-21 28zM83 394l32 16l31 -16l7 -33l-21 -28h-35l-21 28zM83 344l32 16l31 -16l7 -33l-21 -28h-35l-21 28zM83 294l32 16l31 -16l7 -33l-21 -28h-35l-21 28zM83 244l32 16l31 -16l7 -33l-21 -28
h-35l-21 28zM83 194l32 16l31 -16l7 -33l-21 -28h-35l-21 28zM83 144l32 16l31 -16l7 -33l-21 -28h-35l-21 28zM83 94l32 16l31 -16l7 -33l-21 -28h-35l-21 28zM83 44l32 16l31 -16l7 -33l-21 -27h-35l-21 27z" />
    <glyph glyph-name="Icircumflex" unicode="&#xce;" 
d="M188 485l32 15l31 -15l8 -34l-22 -27h-35l-21 27zM160 526l31 15l31 -15l8 -34l-22 -27h-34l-22 27zM131 567l31 15l31 -15l8 -34l-22 -27h-34l-22 27zM101 606l31 15l32 -15l7 -34l-21 -27h-35l-22 27zM68 589l32 15l31 -15l8 -33l-22 -28h-35l-21 28zM38 549l32 15
l31 -15l8 -34l-22 -27h-35l-21 27zM9 509l31 15l31 -15l8 -34l-22 -27h-35l-21 27zM83 494l32 16l31 -16l7 -33l-21 -28h-35l-21 28zM83 444l32 16l31 -16l7 -33l-21 -28h-35l-21 28zM83 394l32 16l31 -16l7 -33l-21 -28h-35l-21 28zM83 344l32 16l31 -16l7 -33l-21 -28h-35
l-21 28zM83 294l32 16l31 -16l7 -33l-21 -28h-35l-21 28zM83 244l32 16l31 -16l7 -33l-21 -28h-35l-21 28zM83 194l32 16l31 -16l7 -33l-21 -28h-35l-21 28zM83 144l32 16l31 -16l7 -33l-21 -28h-35l-21 28zM83 94l32 16l31 -16l7 -33l-21 -28h-35l-21 28zM83 44l32 16
l31 -16l7 -33l-21 -27h-35l-21 27z" />
    <glyph glyph-name="Idieresis" unicode="&#xcf;" 
d="M204 550l32 16l31 -16l7 -33l-21 -28h-35l-21 28zM170 567l31 15l32 -15l7 -34l-21 -27h-35l-22 27zM192 595l31 16l31 -16l8 -33l-22 -28h-34l-22 28zM204 550l32 16l31 -16l7 -33l-21 -28h-35l-21 28zM-4 550l32 16l31 -16l7 -33l-21 -28h-35l-21 28zM-38 567l31 15
l32 -15l7 -34l-21 -27h-35l-22 27zM-16 595l31 16l31 -16l8 -33l-22 -28h-34l-22 28zM-4 550l32 16l31 -16l7 -33l-21 -28h-35l-21 28zM83 494l32 16l31 -16l7 -33l-21 -28h-35l-21 28zM83 444l32 16l31 -16l7 -33l-21 -28h-35l-21 28zM83 394l32 16l31 -16l7 -33l-21 -28
h-35l-21 28zM83 344l32 16l31 -16l7 -33l-21 -28h-35l-21 28zM83 294l32 16l31 -16l7 -33l-21 -28h-35l-21 28zM83 244l32 16l31 -16l7 -33l-21 -28h-35l-21 28zM83 194l32 16l31 -16l7 -33l-21 -28h-35l-21 28zM83 144l32 16l31 -16l7 -33l-21 -28h-35l-21 28zM83 94l32 16
l31 -16l7 -33l-21 -28h-35l-21 28zM83 44l32 16l31 -16l7 -33l-21 -27h-35l-21 27z" />
    <glyph glyph-name="Ntilde" unicode="&#xd1;" 
d="M147 604l32 16l31 -16l7 -33l-21 -28h-35l-21 28zM198 596l31 15l31 -15l8 -34l-22 -27h-35l-21 27zM240 570l31 15l31 -15l8 -34l-21 -27h-35l-22 27zM265 533l31 15l31 -15l8 -34l-22 -27h-34l-22 27zM394 564l31 15l31 -15l8 -34l-22 -27h-34l-22 27zM358 532l31 15
l32 -15l7 -34l-21 -26h-35l-22 26zM310 519l31 15l31 -15l8 -34l-22 -26h-34l-22 26zM262 518l31 15l31 -15l8 -33l-22 -27h-34l-22 27zM215 530l31 15l31 -15l8 -34l-22 -26h-34l-22 26zM173 558l31 15l31 -15l8 -34l-22 -27h-34l-22 27zM11 526l31 15l31 -15l8 -33
l-22 -28h-35l-21 28zM40 563l31 15l31 -15l8 -34l-22 -27h-34l-22 27zM82 592l31 15l32 -15l7 -33l-21 -28h-35l-22 28zM129 604l31 15l31 -15l8 -34l-22 -27h-34l-22 27zM403 94l32 16l31 -16l7 -33l-21 -28h-35l-21 28zM403 144l32 16l31 -16l7 -33l-21 -28h-35l-21 28z
M403 192l32 15l31 -15l7 -34l-21 -27h-35l-21 27zM403 242l32 15l31 -15l7 -34l-21 -27h-35l-21 27zM403 292l32 15l31 -15l7 -34l-21 -27h-35l-21 27zM403 342l32 15l31 -15l7 -34l-21 -27h-35l-21 27zM403 392l32 15l31 -15l7 -34l-21 -27h-35l-21 27zM403 442l32 15
l31 -15l7 -34l-21 -27h-35l-21 27zM403 492l32 15l31 -15l7 -34l-21 -27h-35l-21 27zM383 44l32 16l31 -16l7 -33l-21 -27h-35l-21 27zM353 76l31 15l32 -15l7 -33l-21 -28h-35l-21 28zM327 119l31 15l31 -15l8 -34l-22 -27h-35l-21 27zM300 162l31 15l31 -15l8 -34l-21 -27
h-35l-22 27zM273 204l31 15l32 -15l7 -33l-21 -28h-35l-21 28zM247 247l31 15l31 -15l8 -34l-22 -27h-35l-21 27zM220 290l31 15l31 -15l8 -34l-21 -27h-35l-22 27zM193 332l31 15l32 -15l7 -33l-21 -28h-35l-21 28zM170 371l31 15l31 -15l8 -34l-22 -27h-34l-22 27z
M146 416l31 16l31 -16l8 -33l-22 -28h-34l-22 28zM123 459l32 16l31 -16l7 -33l-21 -28h-35l-21 28zM68 57l32 15l31 -15l7 -34l-21 -26h-35l-21 26zM68 107l32 15l31 -15l7 -34l-21 -27h-35l-21 27zM68 157l32 15l31 -15l7 -34l-21 -27h-35l-21 27zM68 207l32 15l31 -15
l7 -34l-21 -27h-35l-21 27zM68 257l32 15l31 -15l7 -34l-21 -27h-35l-21 27zM68 307l32 15l31 -15l7 -34l-21 -27h-35l-21 27zM68 357l32 15l31 -15l7 -34l-21 -27h-35l-21 27zM68 407l32 15l31 -15l7 -34l-21 -27h-35l-21 27zM68 457l32 15l31 -15l7 -34l-21 -27h-35
l-21 27zM78 494l32 16l31 -16l7 -33l-21 -28h-35l-21 28zM403 94l32 16l31 -16l7 -33l-21 -28h-35l-21 28z" />
    <glyph glyph-name="Ograve" unicode="&#xd2;" 
d="M293 460l32 16l31 -16l7 -33l-21 -27h-35l-21 27zM257 483l32 15l31 -15l8 -34l-22 -27h-35l-21 27zM229 524l31 15l31 -15l8 -34l-22 -27h-34l-22 27zM200 565l31 15l31 -15l8 -34l-22 -27h-34l-22 27zM170 604l31 15l32 -15l7 -34l-21 -27h-35l-22 27zM148 504l32 16
l31 -16l7 -33l-21 -28h-35l-21 28zM246 504l31 16l31 -16l8 -33l-22 -28h-34l-22 28zM342 484l31 15l31 -15l8 -34l-22 -27h-34l-22 27zM382 456l32 15l31 -15l8 -34l-22 -27h-35l-21 27zM413 421l31 15l32 -15l7 -34l-21 -27h-35l-22 27zM436 376l32 15l31 -15l8 -34
l-22 -27h-35l-21 27zM449 326l31 15l32 -15l7 -33l-21 -28h-35l-22 28zM453 278l31 15l32 -15l7 -34l-21 -27h-35l-22 27zM451 231l32 15l31 -15l8 -34l-22 -27h-35l-21 27zM442 181l31 15l32 -15l7 -34l-21 -27h-35l-22 27zM423 134l32 16l31 -16l8 -33l-22 -27h-35l-21 27
zM395 96l31 15l32 -15l7 -34l-21 -27h-35l-22 27zM356 66l31 15l32 -15l7 -34l-21 -27h-35l-22 27zM309 47l31 15l32 -15l7 -34l-21 -26h-35l-22 26zM262 40l31 15l31 -15l8 -34l-21 -26h-35l-22 26zM214 41l31 15l32 -15l7 -34l-21 -26h-35l-22 26zM164 52l32 15l31 -15
l8 -33l-22 -27h-35l-21 27zM120 75l31 16l32 -16l7 -33l-21 -28h-35l-22 28zM86 108l32 15l31 -15l7 -34l-21 -27h-35l-21 27zM60 150l31 15l32 -15l7 -33l-21 -28h-35l-22 28zM45 198l31 15l32 -15l7 -34l-21 -27h-35l-22 27zM39 247l31 15l31 -15l8 -34l-22 -27h-34
l-22 27zM39 295l31 15l32 -15l7 -34l-21 -27h-35l-22 27zM46 344l31 15l31 -15l8 -34l-22 -27h-34l-22 27zM61 390l31 16l32 -16l7 -33l-21 -27h-35l-22 27zM88 433l31 15l31 -15l8 -34l-22 -27h-34l-22 27zM123 468l31 15l31 -15l8 -34l-21 -27h-35l-22 27zM215 503l31 15
l31 -15l8 -34l-22 -27h-34l-22 27zM181 504l31 16l31 -16l8 -33l-22 -28h-34l-22 28zM148 504l32 16l31 -16l7 -33l-21 -28h-35l-21 28zM278 489l32 16l31 -16l7 -33l-21 -28h-35l-21 28z" />
    <glyph glyph-name="Oacute" unicode="&#xd3;" 
d="M293 605l31 15l32 -15l7 -34l-21 -27h-35l-22 27zM260 588l32 15l31 -15l8 -33l-22 -28h-35l-21 28zM230 548l32 15l31 -15l8 -34l-22 -27h-35l-21 27zM201 508l31 15l31 -15l8 -34l-22 -27h-35l-21 27zM171 467l31 16l31 -16l8 -33l-22 -26h-34l-22 26zM148 504l32 16
l31 -16l7 -33l-21 -28h-35l-21 28zM246 504l31 16l31 -16l8 -33l-22 -28h-34l-22 28zM342 484l31 15l31 -15l8 -34l-22 -27h-34l-22 27zM382 456l32 15l31 -15l8 -34l-22 -27h-35l-21 27zM413 421l31 15l32 -15l7 -34l-21 -27h-35l-22 27zM436 376l32 15l31 -15l8 -34
l-22 -27h-35l-21 27zM449 326l31 15l32 -15l7 -33l-21 -28h-35l-22 28zM453 278l31 15l32 -15l7 -34l-21 -27h-35l-22 27zM451 231l32 15l31 -15l8 -34l-22 -27h-35l-21 27zM442 181l31 15l32 -15l7 -34l-21 -27h-35l-22 27zM423 134l32 16l31 -16l8 -33l-22 -27h-35l-21 27
zM395 96l31 15l32 -15l7 -34l-21 -27h-35l-22 27zM356 66l31 15l32 -15l7 -34l-21 -27h-35l-22 27zM309 47l31 15l32 -15l7 -34l-21 -26h-35l-22 26zM262 40l31 15l31 -15l8 -34l-21 -26h-35l-22 26zM214 41l31 15l32 -15l7 -34l-21 -26h-35l-22 26zM164 52l32 15l31 -15
l8 -33l-22 -27h-35l-21 27zM120 75l31 16l32 -16l7 -33l-21 -28h-35l-22 28zM86 108l32 15l31 -15l7 -34l-21 -27h-35l-21 27zM60 150l31 15l32 -15l7 -33l-21 -28h-35l-22 28zM45 198l31 15l32 -15l7 -34l-21 -27h-35l-22 27zM39 247l31 15l31 -15l8 -34l-22 -27h-34
l-22 27zM39 295l31 15l32 -15l7 -34l-21 -27h-35l-22 27zM46 344l31 15l31 -15l8 -34l-22 -27h-34l-22 27zM61 390l31 16l32 -16l7 -33l-21 -27h-35l-22 27zM88 433l31 15l31 -15l8 -34l-22 -27h-34l-22 27zM123 468l31 15l31 -15l8 -34l-21 -27h-35l-22 27zM215 503l31 15
l31 -15l8 -34l-22 -27h-34l-22 27zM181 504l31 16l31 -16l8 -33l-22 -28h-34l-22 28zM148 504l32 16l31 -16l7 -33l-21 -28h-35l-21 28zM278 489l32 16l31 -16l7 -33l-21 -28h-35l-21 28z" />
    <glyph glyph-name="Ocircumflex" unicode="&#xd4;" 
d="M321 485l32 15l31 -15l8 -34l-22 -27h-35l-21 27zM293 526l31 15l31 -15l8 -34l-22 -27h-34l-22 27zM264 567l31 15l31 -15l8 -34l-22 -27h-34l-22 27zM234 606l31 15l32 -15l7 -34l-21 -27h-35l-22 27zM201 589l32 15l31 -15l8 -33l-22 -28h-35l-21 28zM171 549l32 15
l31 -15l8 -34l-22 -27h-35l-21 27zM142 509l31 15l31 -15l8 -34l-22 -27h-35l-21 27zM148 504l32 16l31 -16l7 -33l-21 -28h-35l-21 28zM246 504l31 16l31 -16l8 -33l-22 -28h-34l-22 28zM342 484l31 15l31 -15l8 -34l-22 -27h-34l-22 27zM382 456l32 15l31 -15l8 -34
l-22 -27h-35l-21 27zM413 421l31 15l32 -15l7 -34l-21 -27h-35l-22 27zM436 376l32 15l31 -15l8 -34l-22 -27h-35l-21 27zM449 326l31 15l32 -15l7 -33l-21 -28h-35l-22 28zM453 278l31 15l32 -15l7 -34l-21 -27h-35l-22 27zM451 231l32 15l31 -15l8 -34l-22 -27h-35l-21 27
zM442 181l31 15l32 -15l7 -34l-21 -27h-35l-22 27zM423 134l32 16l31 -16l8 -33l-22 -27h-35l-21 27zM395 96l31 15l32 -15l7 -34l-21 -27h-35l-22 27zM356 66l31 15l32 -15l7 -34l-21 -27h-35l-22 27zM309 47l31 15l32 -15l7 -34l-21 -26h-35l-22 26zM262 40l31 15l31 -15
l8 -34l-21 -26h-35l-22 26zM214 41l31 15l32 -15l7 -34l-21 -26h-35l-22 26zM164 52l32 15l31 -15l8 -33l-22 -27h-35l-21 27zM120 75l31 16l32 -16l7 -33l-21 -28h-35l-22 28zM86 108l32 15l31 -15l7 -34l-21 -27h-35l-21 27zM60 150l31 15l32 -15l7 -33l-21 -28h-35
l-22 28zM45 198l31 15l32 -15l7 -34l-21 -27h-35l-22 27zM39 247l31 15l31 -15l8 -34l-22 -27h-34l-22 27zM39 295l31 15l32 -15l7 -34l-21 -27h-35l-22 27zM46 344l31 15l31 -15l8 -34l-22 -27h-34l-22 27zM61 390l31 16l32 -16l7 -33l-21 -27h-35l-22 27zM88 433l31 15
l31 -15l8 -34l-22 -27h-34l-22 27zM123 468l31 15l31 -15l8 -34l-21 -27h-35l-22 27zM215 503l31 15l31 -15l8 -34l-22 -27h-34l-22 27zM181 504l31 16l31 -16l8 -33l-22 -28h-34l-22 28zM148 504l32 16l31 -16l7 -33l-21 -28h-35l-21 28zM278 489l32 16l31 -16l7 -33
l-21 -28h-35l-21 28z" />
    <glyph glyph-name="Otilde" unicode="&#xd5;" 
d="M147 604l32 16l31 -16l7 -33l-21 -28h-35l-21 28zM198 596l31 15l31 -15l8 -34l-22 -27h-35l-21 27zM240 570l31 15l31 -15l8 -34l-21 -27h-35l-22 27zM265 533l31 15l31 -15l8 -34l-22 -27h-34l-22 27zM394 564l31 15l31 -15l8 -34l-22 -27h-34l-22 27zM358 532l31 15
l32 -15l7 -34l-21 -26h-35l-22 26zM310 519l31 15l31 -15l8 -34l-22 -26h-34l-22 26zM262 518l31 15l31 -15l8 -33l-22 -27h-34l-22 27zM215 530l31 15l31 -15l8 -34l-22 -26h-34l-22 26zM173 558l31 15l31 -15l8 -34l-22 -27h-34l-22 27zM11 526l31 15l31 -15l8 -33
l-22 -28h-35l-21 28zM40 563l31 15l31 -15l8 -34l-22 -27h-34l-22 27zM82 592l31 15l32 -15l7 -33l-21 -28h-35l-22 28zM129 604l31 15l31 -15l8 -34l-22 -27h-34l-22 27zM148 504l32 16l31 -16l7 -33l-21 -28h-35l-21 28zM246 504l31 16l31 -16l8 -33l-22 -28h-34l-22 28z
M342 484l31 15l31 -15l8 -34l-22 -27h-34l-22 27zM382 456l32 15l31 -15l8 -34l-22 -27h-35l-21 27zM413 421l31 15l32 -15l7 -34l-21 -27h-35l-22 27zM436 376l32 15l31 -15l8 -34l-22 -27h-35l-21 27zM449 326l31 15l32 -15l7 -33l-21 -28h-35l-22 28zM453 278l31 15
l32 -15l7 -34l-21 -27h-35l-22 27zM451 231l32 15l31 -15l8 -34l-22 -27h-35l-21 27zM442 181l31 15l32 -15l7 -34l-21 -27h-35l-22 27zM423 134l32 16l31 -16l8 -33l-22 -27h-35l-21 27zM395 96l31 15l32 -15l7 -34l-21 -27h-35l-22 27zM356 66l31 15l32 -15l7 -34l-21 -27
h-35l-22 27zM309 47l31 15l32 -15l7 -34l-21 -26h-35l-22 26zM262 40l31 15l31 -15l8 -34l-21 -26h-35l-22 26zM214 41l31 15l32 -15l7 -34l-21 -26h-35l-22 26zM164 52l32 15l31 -15l8 -33l-22 -27h-35l-21 27zM120 75l31 16l32 -16l7 -33l-21 -28h-35l-22 28zM86 108
l32 15l31 -15l7 -34l-21 -27h-35l-21 27zM60 150l31 15l32 -15l7 -33l-21 -28h-35l-22 28zM45 198l31 15l32 -15l7 -34l-21 -27h-35l-22 27zM39 247l31 15l31 -15l8 -34l-22 -27h-34l-22 27zM39 295l31 15l32 -15l7 -34l-21 -27h-35l-22 27zM46 344l31 15l31 -15l8 -34
l-22 -27h-34l-22 27zM61 390l31 16l32 -16l7 -33l-21 -27h-35l-22 27zM88 433l31 15l31 -15l8 -34l-22 -27h-34l-22 27zM123 468l31 15l31 -15l8 -34l-21 -27h-35l-22 27zM215 503l31 15l31 -15l8 -34l-22 -27h-34l-22 27zM181 504l31 16l31 -16l8 -33l-22 -28h-34l-22 28z
M148 504l32 16l31 -16l7 -33l-21 -28h-35l-21 28zM278 489l32 16l31 -16l7 -33l-21 -28h-35l-21 28z" />
    <glyph glyph-name="Odieresis" unicode="&#xd6;" 
d="M351 550l32 16l31 -16l7 -33l-21 -28h-35l-21 28zM317 567l31 15l32 -15l7 -34l-21 -27h-35l-22 27zM339 595l31 16l31 -16l8 -33l-22 -28h-34l-22 28zM351 550l32 16l31 -16l7 -33l-21 -28h-35l-21 28zM143 550l32 16l31 -16l7 -33l-21 -28h-35l-21 28zM109 567l31 15
l32 -15l7 -34l-21 -27h-35l-22 27zM131 595l31 16l31 -16l8 -33l-22 -28h-34l-22 28zM143 550l32 16l31 -16l7 -33l-21 -28h-35l-21 28zM148 504l32 16l31 -16l7 -33l-21 -28h-35l-21 28zM246 504l31 16l31 -16l8 -33l-22 -28h-34l-22 28zM342 484l31 15l31 -15l8 -34
l-22 -27h-34l-22 27zM382 456l32 15l31 -15l8 -34l-22 -27h-35l-21 27zM413 421l31 15l32 -15l7 -34l-21 -27h-35l-22 27zM436 376l32 15l31 -15l8 -34l-22 -27h-35l-21 27zM449 326l31 15l32 -15l7 -33l-21 -28h-35l-22 28zM453 278l31 15l32 -15l7 -34l-21 -27h-35l-22 27
zM451 231l32 15l31 -15l8 -34l-22 -27h-35l-21 27zM442 181l31 15l32 -15l7 -34l-21 -27h-35l-22 27zM423 134l32 16l31 -16l8 -33l-22 -27h-35l-21 27zM395 96l31 15l32 -15l7 -34l-21 -27h-35l-22 27zM356 66l31 15l32 -15l7 -34l-21 -27h-35l-22 27zM309 47l31 15l32 -15
l7 -34l-21 -26h-35l-22 26zM262 40l31 15l31 -15l8 -34l-21 -26h-35l-22 26zM214 41l31 15l32 -15l7 -34l-21 -26h-35l-22 26zM164 52l32 15l31 -15l8 -33l-22 -27h-35l-21 27zM120 75l31 16l32 -16l7 -33l-21 -28h-35l-22 28zM86 108l32 15l31 -15l7 -34l-21 -27h-35
l-21 27zM60 150l31 15l32 -15l7 -33l-21 -28h-35l-22 28zM45 198l31 15l32 -15l7 -34l-21 -27h-35l-22 27zM39 247l31 15l31 -15l8 -34l-22 -27h-34l-22 27zM39 295l31 15l32 -15l7 -34l-21 -27h-35l-22 27zM46 344l31 15l31 -15l8 -34l-22 -27h-34l-22 27zM61 390l31 16
l32 -16l7 -33l-21 -27h-35l-22 27zM88 433l31 15l31 -15l8 -34l-22 -27h-34l-22 27zM123 468l31 15l31 -15l8 -34l-21 -27h-35l-22 27zM215 503l31 15l31 -15l8 -34l-22 -27h-34l-22 27zM181 504l31 16l31 -16l8 -33l-22 -28h-34l-22 28zM148 504l32 16l31 -16l7 -33
l-21 -28h-35l-21 28zM278 489l32 16l31 -16l7 -33l-21 -28h-35l-21 28z" />
    <glyph glyph-name="Oslash" unicode="&#xd8;" 
d="M50 44l32 16l31 -16l7 -33l-21 -27h-35l-21 27zM55 81l31 15l31 -15l8 -34l-22 -27h-34l-22 27zM86 120l32 15l31 -15l8 -34l-22 -27h-35l-21 27zM118 159l31 15l31 -15l8 -34l-21 -27h-35l-22 27zM150 198l31 15l31 -15l8 -34l-22 -27h-35l-21 27zM181 237l31 15l32 -15
l7 -34l-21 -27h-35l-22 27zM213 275l31 15l31 -15l8 -33l-22 -28h-34l-22 28zM244 314l32 15l31 -15l8 -34l-22 -27h-35l-21 27zM276 353l31 15l31 -15l8 -34l-21 -27h-35l-22 27zM308 392l31 15l31 -15l8 -34l-22 -27h-35l-21 27zM339 431l31 15l32 -15l7 -34l-21 -27h-35
l-22 27zM354 471l31 15l31 -15l8 -34l-22 -27h-34l-22 27zM380 494l32 16l31 -16l7 -33l-21 -28h-35l-21 28zM148 504l32 16l31 -16l7 -33l-21 -28h-35l-21 28zM246 504l31 16l31 -16l8 -33l-22 -28h-34l-22 28zM342 484l31 15l31 -15l8 -34l-22 -27h-34l-22 27zM382 456
l32 15l31 -15l8 -34l-22 -27h-35l-21 27zM413 421l31 15l32 -15l7 -34l-21 -27h-35l-22 27zM436 376l32 15l31 -15l8 -34l-22 -27h-35l-21 27zM449 326l31 15l32 -15l7 -33l-21 -28h-35l-22 28zM453 278l31 15l32 -15l7 -34l-21 -27h-35l-22 27zM451 231l32 15l31 -15l8 -34
l-22 -27h-35l-21 27zM442 181l31 15l32 -15l7 -34l-21 -27h-35l-22 27zM423 134l32 16l31 -16l8 -33l-22 -27h-35l-21 27zM395 96l31 15l32 -15l7 -34l-21 -27h-35l-22 27zM356 66l31 15l32 -15l7 -34l-21 -27h-35l-22 27zM309 47l31 15l32 -15l7 -34l-21 -26h-35l-22 26z
M262 40l31 15l31 -15l8 -34l-21 -26h-35l-22 26zM214 41l31 15l32 -15l7 -34l-21 -26h-35l-22 26zM164 52l32 15l31 -15l8 -33l-22 -27h-35l-21 27zM120 75l31 16l32 -16l7 -33l-21 -28h-35l-22 28zM86 108l32 15l31 -15l7 -34l-21 -27h-35l-21 27zM60 150l31 15l32 -15
l7 -33l-21 -28h-35l-22 28zM45 198l31 15l32 -15l7 -34l-21 -27h-35l-22 27zM39 247l31 15l31 -15l8 -34l-22 -27h-34l-22 27zM39 295l31 15l32 -15l7 -34l-21 -27h-35l-22 27zM46 344l31 15l31 -15l8 -34l-22 -27h-34l-22 27zM61 390l31 16l32 -16l7 -33l-21 -27h-35
l-22 27zM88 433l31 15l31 -15l8 -34l-22 -27h-34l-22 27zM123 468l31 15l31 -15l8 -34l-21 -27h-35l-22 27zM215 503l31 15l31 -15l8 -34l-22 -27h-34l-22 27zM181 504l31 16l31 -16l8 -33l-22 -28h-34l-22 28zM148 504l32 16l31 -16l7 -33l-21 -28h-35l-21 28zM278 489
l32 16l31 -16l7 -33l-21 -28h-35l-21 28z" />
    <glyph glyph-name="Ugrave" unicode="&#xd9;" 
d="M293 460l32 16l31 -16l7 -33l-21 -27h-35l-21 27zM257 483l32 15l31 -15l8 -34l-22 -27h-35l-21 27zM229 524l31 15l31 -15l8 -34l-22 -27h-34l-22 27zM200 565l31 15l31 -15l8 -34l-22 -27h-34l-22 27zM170 604l31 15l32 -15l7 -34l-21 -27h-35l-22 27zM403 494l32 16
l31 -16l7 -33l-21 -28h-35l-21 28zM403 444l32 16l31 -16l7 -33l-21 -28h-35l-21 28zM403 394l32 16l31 -16l7 -33l-21 -28h-35l-21 28zM403 344l32 16l31 -16l7 -33l-21 -28h-35l-21 28zM403 294l32 16l31 -16l7 -33l-21 -28h-35l-21 28zM403 244l32 16l31 -16l7 -33
l-21 -28h-35l-21 28zM403 196l31 15l32 -15l7 -34l-21 -27h-35l-22 27zM397 146l31 15l31 -15l8 -33l-22 -28h-34l-22 28zM377 101l32 15l31 -15l8 -33l-22 -28h-35l-21 28zM343 66l31 15l31 -15l8 -33l-22 -28h-35l-21 28zM298 47l31 15l31 -15l8 -34l-22 -26h-34l-22 26z
M248 40l31 15l32 -15l7 -34l-21 -26h-35l-22 26zM202 41l32 15l31 -15l8 -34l-22 -26h-35l-21 26zM152 52l31 15l31 -15l8 -34l-22 -26h-34l-22 26zM110 74l31 15l31 -15l8 -34l-22 -27h-34l-22 27zM79 110l31 16l31 -16l8 -33l-22 -28h-35l-21 28zM62 158l31 16l32 -16
l7 -33l-21 -28h-35l-22 28zM58 204l32 16l31 -16l7 -33l-21 -28h-35l-21 28zM58 254l32 16l31 -16l7 -33l-21 -28h-35l-21 28zM58 304l32 16l31 -16l7 -33l-21 -28h-35l-21 28zM58 354l32 16l31 -16l7 -33l-21 -28h-35l-21 28zM58 404l32 16l31 -16l7 -33l-21 -28h-35
l-21 28zM58 454l32 16l31 -16l7 -33l-21 -28h-35l-21 28zM66 494l31 16l31 -16l8 -33l-22 -28h-34l-22 28z" />
    <glyph glyph-name="Uacute" unicode="&#xda;" 
d="M246 605l31 15l32 -15l7 -34l-21 -27h-35l-22 27zM213 588l32 15l31 -15l8 -33l-22 -28h-35l-21 28zM183 548l32 15l31 -15l8 -34l-22 -27h-35l-21 27zM154 508l31 15l31 -15l8 -34l-22 -27h-35l-21 27zM124 467l31 16l31 -16l8 -33l-22 -26h-34l-22 26zM403 494l32 16
l31 -16l7 -33l-21 -28h-35l-21 28zM403 444l32 16l31 -16l7 -33l-21 -28h-35l-21 28zM403 394l32 16l31 -16l7 -33l-21 -28h-35l-21 28zM403 344l32 16l31 -16l7 -33l-21 -28h-35l-21 28zM403 294l32 16l31 -16l7 -33l-21 -28h-35l-21 28zM403 244l32 16l31 -16l7 -33
l-21 -28h-35l-21 28zM403 196l31 15l32 -15l7 -34l-21 -27h-35l-22 27zM397 146l31 15l31 -15l8 -33l-22 -28h-34l-22 28zM377 101l32 15l31 -15l8 -33l-22 -28h-35l-21 28zM343 66l31 15l31 -15l8 -33l-22 -28h-35l-21 28zM298 47l31 15l31 -15l8 -34l-22 -26h-34l-22 26z
M248 40l31 15l32 -15l7 -34l-21 -26h-35l-22 26zM202 41l32 15l31 -15l8 -34l-22 -26h-35l-21 26zM152 52l31 15l31 -15l8 -34l-22 -26h-34l-22 26zM110 74l31 15l31 -15l8 -34l-22 -27h-34l-22 27zM79 110l31 16l31 -16l8 -33l-22 -28h-35l-21 28zM62 158l31 16l32 -16
l7 -33l-21 -28h-35l-22 28zM58 204l32 16l31 -16l7 -33l-21 -28h-35l-21 28zM58 254l32 16l31 -16l7 -33l-21 -28h-35l-21 28zM58 304l32 16l31 -16l7 -33l-21 -28h-35l-21 28zM58 354l32 16l31 -16l7 -33l-21 -28h-35l-21 28zM58 404l32 16l31 -16l7 -33l-21 -28h-35
l-21 28zM58 454l32 16l31 -16l7 -33l-21 -28h-35l-21 28zM66 494l31 16l31 -16l8 -33l-22 -28h-34l-22 28z" />
    <glyph glyph-name="Ucircumflex" unicode="&#xdb;" 
d="M292 485l32 15l31 -15l8 -34l-22 -27h-35l-21 27zM264 526l31 15l31 -15l8 -34l-22 -27h-34l-22 27zM235 567l31 15l31 -15l8 -34l-22 -27h-34l-22 27zM205 606l31 15l32 -15l7 -34l-21 -27h-35l-22 27zM172 589l32 15l31 -15l8 -33l-22 -28h-35l-21 28zM142 549l32 15
l31 -15l8 -34l-22 -27h-35l-21 27zM113 509l31 15l31 -15l8 -34l-22 -27h-35l-21 27zM403 494l32 16l31 -16l7 -33l-21 -28h-35l-21 28zM403 444l32 16l31 -16l7 -33l-21 -28h-35l-21 28zM403 394l32 16l31 -16l7 -33l-21 -28h-35l-21 28zM403 344l32 16l31 -16l7 -33
l-21 -28h-35l-21 28zM403 294l32 16l31 -16l7 -33l-21 -28h-35l-21 28zM403 244l32 16l31 -16l7 -33l-21 -28h-35l-21 28zM403 196l31 15l32 -15l7 -34l-21 -27h-35l-22 27zM397 146l31 15l31 -15l8 -33l-22 -28h-34l-22 28zM377 101l32 15l31 -15l8 -33l-22 -28h-35l-21 28
zM343 66l31 15l31 -15l8 -33l-22 -28h-35l-21 28zM298 47l31 15l31 -15l8 -34l-22 -26h-34l-22 26zM248 40l31 15l32 -15l7 -34l-21 -26h-35l-22 26zM202 41l32 15l31 -15l8 -34l-22 -26h-35l-21 26zM152 52l31 15l31 -15l8 -34l-22 -26h-34l-22 26zM110 74l31 15l31 -15
l8 -34l-22 -27h-34l-22 27zM79 110l31 16l31 -16l8 -33l-22 -28h-35l-21 28zM62 158l31 16l32 -16l7 -33l-21 -28h-35l-22 28zM58 204l32 16l31 -16l7 -33l-21 -28h-35l-21 28zM58 254l32 16l31 -16l7 -33l-21 -28h-35l-21 28zM58 304l32 16l31 -16l7 -33l-21 -28h-35
l-21 28zM58 354l32 16l31 -16l7 -33l-21 -28h-35l-21 28zM58 404l32 16l31 -16l7 -33l-21 -28h-35l-21 28zM58 454l32 16l31 -16l7 -33l-21 -28h-35l-21 28zM66 494l31 16l31 -16l8 -33l-22 -28h-34l-22 28z" />
    <glyph glyph-name="Udieresis" unicode="&#xdc;" 
d="M336 550l32 16l31 -16l7 -33l-21 -28h-35l-21 28zM302 567l31 15l32 -15l7 -34l-21 -27h-35l-22 27zM324 595l31 16l31 -16l8 -33l-22 -28h-34l-22 28zM336 550l32 16l31 -16l7 -33l-21 -28h-35l-21 28zM128 550l32 16l31 -16l7 -33l-21 -28h-35l-21 28zM94 567l31 15
l32 -15l7 -34l-21 -27h-35l-22 27zM116 595l31 16l31 -16l8 -33l-22 -28h-34l-22 28zM128 550l32 16l31 -16l7 -33l-21 -28h-35l-21 28zM403 494l32 16l31 -16l7 -33l-21 -28h-35l-21 28zM403 444l32 16l31 -16l7 -33l-21 -28h-35l-21 28zM403 394l32 16l31 -16l7 -33
l-21 -28h-35l-21 28zM403 344l32 16l31 -16l7 -33l-21 -28h-35l-21 28zM403 294l32 16l31 -16l7 -33l-21 -28h-35l-21 28zM403 244l32 16l31 -16l7 -33l-21 -28h-35l-21 28zM403 196l31 15l32 -15l7 -34l-21 -27h-35l-22 27zM397 146l31 15l31 -15l8 -33l-22 -28h-34l-22 28
zM377 101l32 15l31 -15l8 -33l-22 -28h-35l-21 28zM343 66l31 15l31 -15l8 -33l-22 -28h-35l-21 28zM298 47l31 15l31 -15l8 -34l-22 -26h-34l-22 26zM248 40l31 15l32 -15l7 -34l-21 -26h-35l-22 26zM202 41l32 15l31 -15l8 -34l-22 -26h-35l-21 26zM152 52l31 15l31 -15
l8 -34l-22 -26h-34l-22 26zM110 74l31 15l31 -15l8 -34l-22 -27h-34l-22 27zM79 110l31 16l31 -16l8 -33l-22 -28h-35l-21 28zM62 158l31 16l32 -16l7 -33l-21 -28h-35l-22 28zM58 204l32 16l31 -16l7 -33l-21 -28h-35l-21 28zM58 254l32 16l31 -16l7 -33l-21 -28h-35
l-21 28zM58 304l32 16l31 -16l7 -33l-21 -28h-35l-21 28zM58 354l32 16l31 -16l7 -33l-21 -28h-35l-21 28zM58 404l32 16l31 -16l7 -33l-21 -28h-35l-21 28zM58 454l32 16l31 -16l7 -33l-21 -28h-35l-21 28zM66 494l31 16l31 -16l8 -33l-22 -28h-34l-22 28z" />
    <glyph glyph-name="Yacute" unicode="&#xdd;" 
d="M246 605l31 15l32 -15l7 -34l-21 -27h-35l-22 27zM213 588l32 15l31 -15l8 -33l-22 -28h-35l-21 28zM183 548l32 15l31 -15l8 -34l-22 -27h-35l-21 27zM154 508l31 15l31 -15l8 -34l-22 -27h-35l-21 27zM124 467l31 16l31 -16l8 -33l-22 -26h-34l-22 26zM348 494l32 16
l31 -16l7 -33l-21 -28h-35l-21 28zM323 451l32 15l31 -15l7 -34l-21 -27h-35l-21 27zM298 407l32 15l31 -15l7 -33l-21 -28h-35l-21 28zM273 364l32 15l31 -15l7 -34l-21 -27h-35l-21 27zM248 320l32 15l31 -15l7 -34l-21 -27h-35l-21 27zM223 277l32 15l31 -15l7 -34
l-21 -27h-35l-21 27zM198 233l32 15l31 -15l7 -34l-21 -27h-35l-21 27zM188 192l32 15l31 -15l7 -34l-21 -27h-35l-21 27zM188 142l32 15l31 -15l7 -34l-21 -27h-35l-21 27zM188 92l32 15l31 -15l7 -34l-21 -27h-35l-21 27zM188 44l32 16l31 -16l7 -33l-21 -27h-35l-21 27z
M38 486l31 15l32 -15l7 -34l-21 -27h-35l-22 27zM63 442l31 15l31 -15l8 -34l-21 -27h-35l-22 27zM86 400l32 15l31 -15l8 -34l-22 -27h-35l-21 27zM111 356l32 16l31 -16l7 -33l-21 -28h-35l-21 28zM136 313l31 15l32 -15l7 -34l-21 -27h-35l-22 27zM161 269l31 15l31 -15
l8 -34l-22 -27h-34l-22 27z" />
    <glyph glyph-name="agrave" unicode="&#xe0;" 
d="M250 346l32 16l31 -16l7 -33l-21 -27h-35l-21 27zM214 369l32 15l31 -15l8 -34l-22 -27h-35l-21 27zM186 410l31 15l31 -15l8 -34l-22 -27h-34l-22 27zM157 451l31 15l31 -15l8 -34l-22 -27h-34l-22 27zM127 490l31 15l32 -15l7 -34l-21 -27h-35l-22 27zM343 44l32 16
l31 -16l7 -33l-21 -27h-35l-21 27zM313 41l31 15l32 -15l7 -34l-21 -26h-35l-22 26zM279 72l31 15l32 -15l7 -34l-21 -27h-35l-22 27zM216 60l31 15l31 -15l8 -33l-22 -27h-34l-22 27zM173 43l31 15l32 -15l7 -33l-21 -27h-35l-22 27zM125 40l31 15l31 -15l8 -34l-21 -26
h-35l-22 26zM76 50l32 15l31 -15l8 -34l-22 -26h-35l-21 26zM42 79l31 15l31 -15l8 -34l-22 -27h-35l-21 27zM34 125l31 15l31 -15l8 -34l-22 -27h-34l-22 27zM53 169l32 16l31 -16l7 -33l-21 -28h-35l-21 28zM96 192l32 15l31 -15l8 -34l-22 -27h-35l-21 27zM143 204l31 15
l31 -15l8 -34l-22 -27h-34l-22 27zM48 317l32 15l31 -15l7 -34l-21 -27h-35l-21 27zM71 351l31 15l31 -15l8 -34l-22 -27h-34l-22 27zM112 375l31 15l31 -15l8 -34l-22 -27h-34l-22 27zM160 384l31 15l32 -15l7 -34l-21 -27h-35l-22 27zM207 381l31 15l31 -15l8 -34l-22 -27
h-35l-21 27zM252 360l31 15l31 -15l8 -34l-21 -27h-35l-22 27zM283 325l31 15l32 -15l7 -34l-21 -27h-35l-22 27zM293 274l32 16l31 -16l7 -33l-21 -28h-35l-21 28zM293 229l32 16l31 -16l7 -33l-21 -28h-35l-21 28zM343 44l32 16l31 -16l7 -33l-21 -27h-35l-21 27zM238 74
l32 16l31 -16l7 -33l-21 -28h-35l-21 28zM268 111l32 15l31 -15l7 -34l-21 -27h-35l-21 27zM293 159l32 16l31 -16l7 -33l-21 -28h-35l-21 28zM293 204l31 15l31 -15l8 -34l-22 -27h-34l-22 27zM241 223l31 15l31 -15l8 -34l-21 -27h-35l-22 27zM192 211l31 15l32 -15l7 -34
l-21 -27h-35l-22 27z" />
    <glyph glyph-name="aacute" unicode="&#xe1;" 
d="M241 490l31 15l32 -15l7 -34l-21 -27h-35l-22 27zM208 473l32 15l31 -15l8 -33l-22 -28h-35l-21 28zM178 433l32 15l31 -15l8 -34l-22 -27h-35l-21 27zM149 393l31 15l31 -15l8 -34l-22 -27h-35l-21 27zM119 352l31 16l31 -16l8 -33l-22 -26h-34l-22 26zM343 44l32 16
l31 -16l7 -33l-21 -27h-35l-21 27zM313 41l31 15l32 -15l7 -34l-21 -26h-35l-22 26zM279 72l31 15l32 -15l7 -34l-21 -27h-35l-22 27zM216 60l31 15l31 -15l8 -33l-22 -27h-34l-22 27zM173 43l31 15l32 -15l7 -33l-21 -27h-35l-22 27zM125 40l31 15l31 -15l8 -34l-21 -26
h-35l-22 26zM76 50l32 15l31 -15l8 -34l-22 -26h-35l-21 26zM42 79l31 15l31 -15l8 -34l-22 -27h-35l-21 27zM34 125l31 15l31 -15l8 -34l-22 -27h-34l-22 27zM53 169l32 16l31 -16l7 -33l-21 -28h-35l-21 28zM96 192l32 15l31 -15l8 -34l-22 -27h-35l-21 27zM143 204l31 15
l31 -15l8 -34l-22 -27h-34l-22 27zM48 317l32 15l31 -15l7 -34l-21 -27h-35l-21 27zM71 351l31 15l31 -15l8 -34l-22 -27h-34l-22 27zM112 375l31 15l31 -15l8 -34l-22 -27h-34l-22 27zM160 384l31 15l32 -15l7 -34l-21 -27h-35l-22 27zM207 381l31 15l31 -15l8 -34l-22 -27
h-35l-21 27zM252 360l31 15l31 -15l8 -34l-21 -27h-35l-22 27zM283 325l31 15l32 -15l7 -34l-21 -27h-35l-22 27zM293 274l32 16l31 -16l7 -33l-21 -28h-35l-21 28zM293 229l32 16l31 -16l7 -33l-21 -28h-35l-21 28zM343 44l32 16l31 -16l7 -33l-21 -27h-35l-21 27zM238 74
l32 16l31 -16l7 -33l-21 -28h-35l-21 28zM268 111l32 15l31 -15l7 -34l-21 -27h-35l-21 27zM293 159l32 16l31 -16l7 -33l-21 -28h-35l-21 28zM293 204l31 15l31 -15l8 -34l-22 -27h-34l-22 27zM241 223l31 15l31 -15l8 -34l-21 -27h-35l-22 27zM192 211l31 15l32 -15l7 -34
l-21 -27h-35l-22 27z" />
    <glyph glyph-name="acircumflex" unicode="&#xe2;" 
d="M262 369l32 15l31 -15l8 -34l-22 -27h-35l-21 27zM234 410l31 15l31 -15l8 -34l-22 -27h-34l-22 27zM205 451l31 15l31 -15l8 -34l-22 -27h-34l-22 27zM175 490l31 15l32 -15l7 -34l-21 -27h-35l-22 27zM142 473l32 15l31 -15l8 -33l-22 -28h-35l-21 28zM112 433l32 15
l31 -15l8 -34l-22 -27h-35l-21 27zM83 393l31 15l31 -15l8 -34l-22 -27h-35l-21 27zM343 44l32 16l31 -16l7 -33l-21 -27h-35l-21 27zM313 41l31 15l32 -15l7 -34l-21 -26h-35l-22 26zM279 72l31 15l32 -15l7 -34l-21 -27h-35l-22 27zM216 60l31 15l31 -15l8 -33l-22 -27
h-34l-22 27zM173 43l31 15l32 -15l7 -33l-21 -27h-35l-22 27zM125 40l31 15l31 -15l8 -34l-21 -26h-35l-22 26zM76 50l32 15l31 -15l8 -34l-22 -26h-35l-21 26zM42 79l31 15l31 -15l8 -34l-22 -27h-35l-21 27zM34 125l31 15l31 -15l8 -34l-22 -27h-34l-22 27zM53 169l32 16
l31 -16l7 -33l-21 -28h-35l-21 28zM96 192l32 15l31 -15l8 -34l-22 -27h-35l-21 27zM143 204l31 15l31 -15l8 -34l-22 -27h-34l-22 27zM48 317l32 15l31 -15l7 -34l-21 -27h-35l-21 27zM71 351l31 15l31 -15l8 -34l-22 -27h-34l-22 27zM112 375l31 15l31 -15l8 -34l-22 -27
h-34l-22 27zM160 384l31 15l32 -15l7 -34l-21 -27h-35l-22 27zM207 381l31 15l31 -15l8 -34l-22 -27h-35l-21 27zM252 360l31 15l31 -15l8 -34l-21 -27h-35l-22 27zM283 325l31 15l32 -15l7 -34l-21 -27h-35l-22 27zM293 274l32 16l31 -16l7 -33l-21 -28h-35l-21 28z
M293 229l32 16l31 -16l7 -33l-21 -28h-35l-21 28zM343 44l32 16l31 -16l7 -33l-21 -27h-35l-21 27zM238 74l32 16l31 -16l7 -33l-21 -28h-35l-21 28zM268 111l32 15l31 -15l7 -34l-21 -27h-35l-21 27zM293 159l32 16l31 -16l7 -33l-21 -28h-35l-21 28zM293 204l31 15l31 -15
l8 -34l-22 -27h-34l-22 27zM241 223l31 15l31 -15l8 -34l-21 -27h-35l-22 27zM192 211l31 15l32 -15l7 -34l-21 -27h-35l-22 27z" />
    <glyph glyph-name="atilde" unicode="&#xe3;" 
d="M138 495l32 16l31 -16l7 -33l-21 -28h-35l-21 28zM189 487l31 15l31 -15l8 -34l-22 -27h-35l-21 27zM231 461l31 15l31 -15l8 -34l-21 -27h-35l-22 27zM256 424l31 15l31 -15l8 -34l-22 -27h-34l-22 27zM385 455l31 15l31 -15l8 -34l-22 -27h-34l-22 27zM349 423l31 15
l32 -15l7 -34l-21 -26h-35l-22 26zM301 410l31 15l31 -15l8 -34l-22 -26h-34l-22 26zM253 409l31 15l31 -15l8 -33l-22 -27h-34l-22 27zM206 421l31 15l31 -15l8 -34l-22 -26h-34l-22 26zM164 449l31 15l31 -15l8 -34l-22 -27h-34l-22 27zM2 417l31 15l31 -15l8 -33l-22 -28
h-35l-21 28zM31 454l31 15l31 -15l8 -34l-22 -27h-34l-22 27zM73 483l31 15l32 -15l7 -33l-21 -28h-35l-22 28zM120 495l31 15l31 -15l8 -34l-22 -27h-34l-22 27zM343 44l32 16l31 -16l7 -33l-21 -27h-35l-21 27zM313 41l31 15l32 -15l7 -34l-21 -26h-35l-22 26zM279 72
l31 15l32 -15l7 -34l-21 -27h-35l-22 27zM216 60l31 15l31 -15l8 -33l-22 -27h-34l-22 27zM173 43l31 15l32 -15l7 -33l-21 -27h-35l-22 27zM125 40l31 15l31 -15l8 -34l-21 -26h-35l-22 26zM76 50l32 15l31 -15l8 -34l-22 -26h-35l-21 26zM42 79l31 15l31 -15l8 -34
l-22 -27h-35l-21 27zM34 125l31 15l31 -15l8 -34l-22 -27h-34l-22 27zM53 169l32 16l31 -16l7 -33l-21 -28h-35l-21 28zM96 192l32 15l31 -15l8 -34l-22 -27h-35l-21 27zM143 204l31 15l31 -15l8 -34l-22 -27h-34l-22 27zM48 317l32 15l31 -15l7 -34l-21 -27h-35l-21 27z
M71 351l31 15l31 -15l8 -34l-22 -27h-34l-22 27zM112 375l31 15l31 -15l8 -34l-22 -27h-34l-22 27zM160 384l31 15l32 -15l7 -34l-21 -27h-35l-22 27zM207 381l31 15l31 -15l8 -34l-22 -27h-35l-21 27zM252 360l31 15l31 -15l8 -34l-21 -27h-35l-22 27zM283 325l31 15
l32 -15l7 -34l-21 -27h-35l-22 27zM293 274l32 16l31 -16l7 -33l-21 -28h-35l-21 28zM293 229l32 16l31 -16l7 -33l-21 -28h-35l-21 28zM343 44l32 16l31 -16l7 -33l-21 -27h-35l-21 27zM238 74l32 16l31 -16l7 -33l-21 -28h-35l-21 28zM268 111l32 15l31 -15l7 -34l-21 -27
h-35l-21 27zM293 159l32 16l31 -16l7 -33l-21 -28h-35l-21 28zM293 204l31 15l31 -15l8 -34l-22 -27h-34l-22 27zM241 223l31 15l31 -15l8 -34l-21 -27h-35l-22 27zM192 211l31 15l32 -15l7 -34l-21 -27h-35l-22 27z" />
    <glyph glyph-name="adieresis" unicode="&#xe4;" 
d="M286 445l32 16l31 -16l7 -33l-21 -28h-35l-21 28zM252 462l31 15l32 -15l7 -34l-21 -27h-35l-22 27zM274 490l31 16l31 -16l8 -33l-22 -28h-34l-22 28zM286 445l32 16l31 -16l7 -33l-21 -28h-35l-21 28zM78 445l32 16l31 -16l7 -33l-21 -28h-35l-21 28zM44 462l31 15
l32 -15l7 -34l-21 -27h-35l-22 27zM66 490l31 16l31 -16l8 -33l-22 -28h-34l-22 28zM78 445l32 16l31 -16l7 -33l-21 -28h-35l-21 28zM343 44l32 16l31 -16l7 -33l-21 -27h-35l-21 27zM313 41l31 15l32 -15l7 -34l-21 -26h-35l-22 26zM279 72l31 15l32 -15l7 -34l-21 -27
h-35l-22 27zM216 60l31 15l31 -15l8 -33l-22 -27h-34l-22 27zM173 43l31 15l32 -15l7 -33l-21 -27h-35l-22 27zM125 40l31 15l31 -15l8 -34l-21 -26h-35l-22 26zM76 50l32 15l31 -15l8 -34l-22 -26h-35l-21 26zM42 79l31 15l31 -15l8 -34l-22 -27h-35l-21 27zM34 125l31 15
l31 -15l8 -34l-22 -27h-34l-22 27zM53 169l32 16l31 -16l7 -33l-21 -28h-35l-21 28zM96 192l32 15l31 -15l8 -34l-22 -27h-35l-21 27zM143 204l31 15l31 -15l8 -34l-22 -27h-34l-22 27zM48 317l32 15l31 -15l7 -34l-21 -27h-35l-21 27zM71 351l31 15l31 -15l8 -34l-22 -27
h-34l-22 27zM112 375l31 15l31 -15l8 -34l-22 -27h-34l-22 27zM160 384l31 15l32 -15l7 -34l-21 -27h-35l-22 27zM207 381l31 15l31 -15l8 -34l-22 -27h-35l-21 27zM252 360l31 15l31 -15l8 -34l-21 -27h-35l-22 27zM283 325l31 15l32 -15l7 -34l-21 -27h-35l-22 27z
M293 274l32 16l31 -16l7 -33l-21 -28h-35l-21 28zM293 229l32 16l31 -16l7 -33l-21 -28h-35l-21 28zM343 44l32 16l31 -16l7 -33l-21 -27h-35l-21 27zM238 74l32 16l31 -16l7 -33l-21 -28h-35l-21 28zM268 111l32 15l31 -15l7 -34l-21 -27h-35l-21 27zM293 159l32 16l31 -16
l7 -33l-21 -28h-35l-21 28zM293 204l31 15l31 -15l8 -34l-22 -27h-34l-22 27zM241 223l31 15l31 -15l8 -34l-21 -27h-35l-22 27zM192 211l31 15l32 -15l7 -34l-21 -27h-35l-22 27z" />
    <glyph glyph-name="aring" unicode="&#xe5;" 
d="M343 44l32 16l31 -16l7 -33l-21 -27h-35l-21 27zM313 41l31 15l32 -15l7 -34l-21 -26h-35l-22 26zM279 72l31 15l32 -15l7 -34l-21 -27h-35l-22 27zM216 60l31 15l31 -15l8 -33l-22 -27h-34l-22 27zM173 43l31 15l32 -15l7 -33l-21 -27h-35l-22 27zM125 40l31 15l31 -15
l8 -34l-21 -26h-35l-22 26zM76 50l32 15l31 -15l8 -34l-22 -26h-35l-21 26zM42 79l31 15l31 -15l8 -34l-22 -27h-35l-21 27zM34 125l31 15l31 -15l8 -34l-22 -27h-34l-22 27zM53 169l32 16l31 -16l7 -33l-21 -28h-35l-21 28zM96 192l32 15l31 -15l8 -34l-22 -27h-35l-21 27z
M143 204l31 15l31 -15l8 -34l-22 -27h-34l-22 27zM48 317l32 15l31 -15l7 -34l-21 -27h-35l-21 27zM71 351l31 15l31 -15l8 -34l-22 -27h-34l-22 27zM112 375l31 15l31 -15l8 -34l-22 -27h-34l-22 27zM160 384l31 15l32 -15l7 -34l-21 -27h-35l-22 27zM207 381l31 15l31 -15
l8 -34l-22 -27h-35l-21 27zM252 360l31 15l31 -15l8 -34l-21 -27h-35l-22 27zM283 325l31 15l32 -15l7 -34l-21 -27h-35l-22 27zM293 274l32 16l31 -16l7 -33l-21 -28h-35l-21 28zM293 229l32 16l31 -16l7 -33l-21 -28h-35l-21 28zM343 44l32 16l31 -16l7 -33l-21 -27h-35
l-21 27zM238 74l32 16l31 -16l7 -33l-21 -28h-35l-21 28zM268 111l32 15l31 -15l7 -34l-21 -27h-35l-21 27zM293 159l32 16l31 -16l7 -33l-21 -28h-35l-21 28zM293 204l31 15l31 -15l8 -34l-22 -27h-34l-22 27zM241 223l31 15l31 -15l8 -34l-21 -27h-35l-22 27zM192 211
l31 15l32 -15l7 -34l-21 -27h-35l-22 27z" />
    <glyph glyph-name="ae" unicode="&#xe6;" 
d="M565 214l31 16l31 -16l8 -33l-22 -28h-34l-22 28zM515 214l31 16l31 -16l8 -33l-22 -28h-34l-22 28zM465 214l31 16l31 -16l8 -33l-22 -28h-34l-22 28zM415 214l31 16l31 -16l8 -33l-22 -28h-34l-22 28zM365 214l31 16l31 -16l8 -33l-22 -28h-34l-22 28zM567 94l32 16
l31 -16l7 -33l-21 -28h-35l-21 28zM541 62l31 15l32 -15l7 -34l-21 -27h-35l-22 27zM496 44l32 15l31 -15l8 -34l-22 -26h-35l-21 26zM449 39l32 16l31 -16l8 -33l-22 -27h-35l-21 27zM399 46l31 15l32 -15l7 -34l-21 -26h-35l-22 26zM355 68l31 15l32 -15l7 -34l-21 -27
h-35l-22 27zM322 103l31 15l31 -15l8 -34l-22 -27h-35l-21 27zM300 148l31 15l32 -15l7 -34l-21 -27h-35l-22 27zM292 198l32 15l31 -15l8 -33l-22 -28h-35l-21 28zM306 292l31 15l32 -15l7 -34l-21 -27h-35l-22 27zM332 334l31 16l32 -16l7 -33l-21 -28h-35l-21 28z
M369 365l31 15l32 -15l7 -34l-21 -27h-35l-22 27zM417 382l32 15l31 -15l8 -34l-22 -27h-35l-21 27zM462 384l32 15l31 -15l8 -34l-22 -27h-35l-21 27zM512 370l31 15l32 -15l7 -34l-21 -27h-35l-22 27zM551 341l31 15l31 -15l8 -34l-22 -27h-34l-22 27zM579 302l31 15
l31 -15l8 -34l-22 -27h-34l-22 27zM309 258l31 15l31 -15l8 -34l-22 -27h-34l-22 27zM330 225l31 15l31 -15l8 -34l-22 -27h-34l-22 27zM570 232l31 15l31 -15l8 -34l-22 -27h-34l-22 27zM571 278l32 15l31 -15l8 -33l-22 -28h-35l-21 28zM216 60l31 15l31 -15l8 -33
l-22 -27h-34l-22 27zM173 43l31 15l32 -15l7 -33l-21 -27h-35l-22 27zM125 40l31 15l31 -15l8 -34l-21 -26h-35l-22 26zM76 50l32 15l31 -15l8 -34l-22 -26h-35l-21 26zM42 79l31 15l31 -15l8 -34l-22 -27h-35l-21 27zM34 125l31 15l31 -15l8 -34l-22 -27h-34l-22 27z
M53 169l32 16l31 -16l7 -33l-21 -28h-35l-21 28zM96 192l32 15l31 -15l8 -34l-22 -27h-35l-21 27zM143 204l31 15l31 -15l8 -34l-22 -27h-34l-22 27zM48 317l32 15l31 -15l7 -34l-21 -27h-35l-21 27zM71 351l31 15l31 -15l8 -34l-22 -27h-34l-22 27zM112 375l31 15l31 -15
l8 -34l-22 -27h-34l-22 27zM160 384l31 15l32 -15l7 -34l-21 -27h-35l-22 27zM207 381l31 15l31 -15l8 -34l-22 -27h-35l-21 27zM252 360l31 15l31 -15l8 -34l-21 -27h-35l-22 27zM283 325l31 15l32 -15l7 -34l-21 -27h-35l-22 27zM293 229l32 16l31 -16l7 -33l-21 -28h-35
l-21 28zM238 74l32 16l31 -16l7 -33l-21 -28h-35l-21 28zM268 111l32 15l31 -15l7 -34l-21 -27h-35l-21 27zM241 223l31 15l31 -15l8 -34l-21 -27h-35l-22 27zM192 211l31 15l32 -15l7 -34l-21 -27h-35l-22 27z" />
    <glyph glyph-name="ccedilla" unicode="&#xe7;" 
d="M85 142l32 15l31 -15l8 -34l-22 -27h-35l-21 27zM56 102l31 15l31 -15l8 -34l-22 -27h-35l-21 27zM26 61l31 16l31 -16l8 -33l-22 -26h-34l-22 26zM193 384l32 16l31 -16l7 -33l-21 -28h-35l-21 28zM244 376l31 15l31 -15l8 -34l-22 -27h-35l-21 27zM286 350l31 15
l31 -15l8 -34l-21 -27h-35l-22 27zM311 313l31 15l31 -15l8 -34l-22 -27h-34l-22 27zM304 86l31 15l31 -15l8 -34l-22 -27h-34l-22 27zM268 54l31 15l32 -15l7 -34l-21 -26h-35l-22 26zM220 41l31 15l31 -15l8 -34l-22 -26h-34l-22 26zM172 40l31 15l31 -15l8 -33l-22 -27
h-34l-22 27zM125 52l31 15l31 -15l8 -34l-22 -26h-34l-22 26zM83 80l31 15l31 -15l8 -34l-22 -27h-34l-22 27zM54 116l32 15l31 -15l8 -33l-22 -28h-35l-21 28zM37 165l32 15l31 -15l7 -34l-21 -27h-35l-21 27zM33 209l32 16l31 -16l7 -33l-21 -28h-35l-21 28zM39 261l31 15
l31 -15l8 -34l-22 -27h-34l-22 27zM57 306l31 15l31 -15l8 -33l-22 -28h-35l-21 28zM86 343l31 15l31 -15l8 -34l-22 -27h-34l-22 27zM128 372l31 15l32 -15l7 -33l-21 -28h-35l-22 28zM175 384l31 15l31 -15l8 -34l-22 -27h-34l-22 27z" />
    <glyph glyph-name="egrave" unicode="&#xe8;" 
d="M250 346l32 16l31 -16l7 -33l-21 -27h-35l-21 27zM214 369l32 15l31 -15l8 -34l-22 -27h-35l-21 27zM186 410l31 15l31 -15l8 -34l-22 -27h-34l-22 27zM157 451l31 15l31 -15l8 -34l-22 -27h-34l-22 27zM127 490l31 15l32 -15l7 -34l-21 -27h-35l-22 27zM306 214l31 16
l31 -16l8 -33l-22 -28h-34l-22 28zM256 214l31 16l31 -16l8 -33l-22 -28h-34l-22 28zM206 214l31 16l31 -16l8 -33l-22 -28h-34l-22 28zM156 214l31 16l31 -16l8 -33l-22 -28h-34l-22 28zM106 214l31 16l31 -16l8 -33l-22 -28h-34l-22 28zM308 94l32 16l31 -16l7 -33
l-21 -28h-35l-21 28zM282 62l31 15l32 -15l7 -34l-21 -27h-35l-22 27zM237 44l32 15l31 -15l8 -34l-22 -26h-35l-21 26zM190 39l32 16l31 -16l8 -33l-22 -27h-35l-21 27zM140 46l31 15l32 -15l7 -34l-21 -26h-35l-22 26zM96 68l31 15l32 -15l7 -34l-21 -27h-35l-22 27z
M63 103l31 15l31 -15l8 -34l-22 -27h-35l-21 27zM41 148l31 15l32 -15l7 -34l-21 -27h-35l-22 27zM33 198l32 15l31 -15l8 -33l-22 -28h-35l-21 28zM47 292l31 15l32 -15l7 -34l-21 -27h-35l-22 27zM73 334l31 16l32 -16l7 -33l-21 -28h-35l-21 28zM110 365l31 15l32 -15
l7 -34l-21 -27h-35l-22 27zM158 382l32 15l31 -15l8 -34l-22 -27h-35l-21 27zM203 384l32 15l31 -15l8 -34l-22 -27h-35l-21 27zM253 370l31 15l32 -15l7 -34l-21 -27h-35l-22 27zM292 341l31 15l31 -15l8 -34l-22 -27h-34l-22 27zM320 302l31 15l31 -15l8 -34l-22 -27h-34
l-22 27zM50 258l31 15l31 -15l8 -34l-22 -27h-34l-22 27zM71 225l31 15l31 -15l8 -34l-22 -27h-34l-22 27zM311 232l31 15l31 -15l8 -34l-22 -27h-34l-22 27zM312 278l32 15l31 -15l8 -33l-22 -28h-35l-21 28z" />
    <glyph glyph-name="eacute" unicode="&#xe9;" 
d="M241 490l31 15l32 -15l7 -34l-21 -27h-35l-22 27zM208 473l32 15l31 -15l8 -33l-22 -28h-35l-21 28zM178 433l32 15l31 -15l8 -34l-22 -27h-35l-21 27zM149 393l31 15l31 -15l8 -34l-22 -27h-35l-21 27zM119 352l31 16l31 -16l8 -33l-22 -26h-34l-22 26zM306 214l31 16
l31 -16l8 -33l-22 -28h-34l-22 28zM256 214l31 16l31 -16l8 -33l-22 -28h-34l-22 28zM206 214l31 16l31 -16l8 -33l-22 -28h-34l-22 28zM156 214l31 16l31 -16l8 -33l-22 -28h-34l-22 28zM106 214l31 16l31 -16l8 -33l-22 -28h-34l-22 28zM308 94l32 16l31 -16l7 -33
l-21 -28h-35l-21 28zM282 62l31 15l32 -15l7 -34l-21 -27h-35l-22 27zM237 44l32 15l31 -15l8 -34l-22 -26h-35l-21 26zM190 39l32 16l31 -16l8 -33l-22 -27h-35l-21 27zM140 46l31 15l32 -15l7 -34l-21 -26h-35l-22 26zM96 68l31 15l32 -15l7 -34l-21 -27h-35l-22 27z
M63 103l31 15l31 -15l8 -34l-22 -27h-35l-21 27zM41 148l31 15l32 -15l7 -34l-21 -27h-35l-22 27zM33 198l32 15l31 -15l8 -33l-22 -28h-35l-21 28zM47 292l31 15l32 -15l7 -34l-21 -27h-35l-22 27zM73 334l31 16l32 -16l7 -33l-21 -28h-35l-21 28zM110 365l31 15l32 -15
l7 -34l-21 -27h-35l-22 27zM158 382l32 15l31 -15l8 -34l-22 -27h-35l-21 27zM203 384l32 15l31 -15l8 -34l-22 -27h-35l-21 27zM253 370l31 15l32 -15l7 -34l-21 -27h-35l-22 27zM292 341l31 15l31 -15l8 -34l-22 -27h-34l-22 27zM320 302l31 15l31 -15l8 -34l-22 -27h-34
l-22 27zM50 258l31 15l31 -15l8 -34l-22 -27h-34l-22 27zM71 225l31 15l31 -15l8 -34l-22 -27h-34l-22 27zM311 232l31 15l31 -15l8 -34l-22 -27h-34l-22 27zM312 278l32 15l31 -15l8 -33l-22 -28h-35l-21 28z" />
    <glyph glyph-name="ecircumflex" unicode="&#xea;" 
d="M282 369l32 15l31 -15l8 -34l-22 -27h-35l-21 27zM254 410l31 15l31 -15l8 -34l-22 -27h-34l-22 27zM225 451l31 15l31 -15l8 -34l-22 -27h-34l-22 27zM195 490l31 15l32 -15l7 -34l-21 -27h-35l-22 27zM162 473l32 15l31 -15l8 -33l-22 -28h-35l-21 28zM132 433l32 15
l31 -15l8 -34l-22 -27h-35l-21 27zM103 393l31 15l31 -15l8 -34l-22 -27h-35l-21 27zM306 214l31 16l31 -16l8 -33l-22 -28h-34l-22 28zM256 214l31 16l31 -16l8 -33l-22 -28h-34l-22 28zM206 214l31 16l31 -16l8 -33l-22 -28h-34l-22 28zM156 214l31 16l31 -16l8 -33
l-22 -28h-34l-22 28zM106 214l31 16l31 -16l8 -33l-22 -28h-34l-22 28zM308 94l32 16l31 -16l7 -33l-21 -28h-35l-21 28zM282 62l31 15l32 -15l7 -34l-21 -27h-35l-22 27zM237 44l32 15l31 -15l8 -34l-22 -26h-35l-21 26zM190 39l32 16l31 -16l8 -33l-22 -27h-35l-21 27z
M140 46l31 15l32 -15l7 -34l-21 -26h-35l-22 26zM96 68l31 15l32 -15l7 -34l-21 -27h-35l-22 27zM63 103l31 15l31 -15l8 -34l-22 -27h-35l-21 27zM41 148l31 15l32 -15l7 -34l-21 -27h-35l-22 27zM33 198l32 15l31 -15l8 -33l-22 -28h-35l-21 28zM47 292l31 15l32 -15
l7 -34l-21 -27h-35l-22 27zM73 334l31 16l32 -16l7 -33l-21 -28h-35l-21 28zM110 365l31 15l32 -15l7 -34l-21 -27h-35l-22 27zM158 382l32 15l31 -15l8 -34l-22 -27h-35l-21 27zM203 384l32 15l31 -15l8 -34l-22 -27h-35l-21 27zM253 370l31 15l32 -15l7 -34l-21 -27h-35
l-22 27zM292 341l31 15l31 -15l8 -34l-22 -27h-34l-22 27zM320 302l31 15l31 -15l8 -34l-22 -27h-34l-22 27zM50 258l31 15l31 -15l8 -34l-22 -27h-34l-22 27zM71 225l31 15l31 -15l8 -34l-22 -27h-34l-22 27zM311 232l31 15l31 -15l8 -34l-22 -27h-34l-22 27zM312 278
l32 15l31 -15l8 -33l-22 -28h-35l-21 28z" />
    <glyph glyph-name="edieresis" unicode="&#xeb;" 
d="M286 445l32 16l31 -16l7 -33l-21 -28h-35l-21 28zM252 462l31 15l32 -15l7 -34l-21 -27h-35l-22 27zM274 490l31 16l31 -16l8 -33l-22 -28h-34l-22 28zM286 445l32 16l31 -16l7 -33l-21 -28h-35l-21 28zM78 445l32 16l31 -16l7 -33l-21 -28h-35l-21 28zM44 462l31 15
l32 -15l7 -34l-21 -27h-35l-22 27zM66 490l31 16l31 -16l8 -33l-22 -28h-34l-22 28zM78 445l32 16l31 -16l7 -33l-21 -28h-35l-21 28zM306 214l31 16l31 -16l8 -33l-22 -28h-34l-22 28zM256 214l31 16l31 -16l8 -33l-22 -28h-34l-22 28zM206 214l31 16l31 -16l8 -33l-22 -28
h-34l-22 28zM156 214l31 16l31 -16l8 -33l-22 -28h-34l-22 28zM106 214l31 16l31 -16l8 -33l-22 -28h-34l-22 28zM308 94l32 16l31 -16l7 -33l-21 -28h-35l-21 28zM282 62l31 15l32 -15l7 -34l-21 -27h-35l-22 27zM237 44l32 15l31 -15l8 -34l-22 -26h-35l-21 26zM190 39
l32 16l31 -16l8 -33l-22 -27h-35l-21 27zM140 46l31 15l32 -15l7 -34l-21 -26h-35l-22 26zM96 68l31 15l32 -15l7 -34l-21 -27h-35l-22 27zM63 103l31 15l31 -15l8 -34l-22 -27h-35l-21 27zM41 148l31 15l32 -15l7 -34l-21 -27h-35l-22 27zM33 198l32 15l31 -15l8 -33
l-22 -28h-35l-21 28zM47 292l31 15l32 -15l7 -34l-21 -27h-35l-22 27zM73 334l31 16l32 -16l7 -33l-21 -28h-35l-21 28zM110 365l31 15l32 -15l7 -34l-21 -27h-35l-22 27zM158 382l32 15l31 -15l8 -34l-22 -27h-35l-21 27zM203 384l32 15l31 -15l8 -34l-22 -27h-35l-21 27z
M253 370l31 15l32 -15l7 -34l-21 -27h-35l-22 27zM292 341l31 15l31 -15l8 -34l-22 -27h-34l-22 27zM320 302l31 15l31 -15l8 -34l-22 -27h-34l-22 27zM50 258l31 15l31 -15l8 -34l-22 -27h-34l-22 27zM71 225l31 15l31 -15l8 -34l-22 -27h-34l-22 27zM311 232l31 15l31 -15
l8 -34l-22 -27h-34l-22 27zM312 278l32 15l31 -15l8 -33l-22 -28h-35l-21 28z" />
    <glyph glyph-name="igrave" unicode="&#xec;" 
d="M132 346l32 16l31 -16l7 -33l-21 -27h-35l-21 27zM96 369l32 15l31 -15l8 -34l-22 -27h-35l-21 27zM68 410l31 15l31 -15l8 -34l-22 -27h-34l-22 27zM39 451l31 15l31 -15l8 -34l-22 -27h-34l-22 27zM9 490l31 15l32 -15l7 -34l-21 -27h-35l-22 27zM31 344l31 15l31 -15
l8 -34l-22 -27h-34l-22 27zM0 374l32 16l31 -16l7 -33l-21 -28h-35l-21 28zM73 374l32 16l31 -16l7 -33l-21 -28h-35l-21 28zM58 44l32 16l31 -16l7 -33l-21 -27h-35l-21 27zM58 94l32 16l31 -16l7 -33l-21 -28h-35l-21 28zM58 144l32 16l31 -16l7 -33l-21 -28h-35l-21 28z
M58 194l32 16l31 -16l7 -33l-21 -28h-35l-21 28zM58 244l32 16l31 -16l7 -33l-21 -28h-35l-21 28zM58 294l32 16l31 -16l7 -33l-21 -28h-35l-21 28zM58 344l32 16l31 -16l7 -33l-21 -28h-35l-21 28z" />
    <glyph glyph-name="iacute" unicode="&#xed;" 
d="M109 490l31 15l32 -15l7 -34l-21 -27h-35l-22 27zM76 473l32 15l31 -15l8 -33l-22 -28h-35l-21 28zM46 433l32 15l31 -15l8 -34l-22 -27h-35l-21 27zM17 393l31 15l31 -15l8 -34l-22 -27h-35l-21 27zM-13 352l31 16l31 -16l8 -33l-22 -26h-34l-22 26zM31 344l31 15
l31 -15l8 -34l-22 -27h-34l-22 27zM0 374l32 16l31 -16l7 -33l-21 -28h-35l-21 28zM73 374l32 16l31 -16l7 -33l-21 -28h-35l-21 28zM58 44l32 16l31 -16l7 -33l-21 -27h-35l-21 27zM58 94l32 16l31 -16l7 -33l-21 -28h-35l-21 28zM58 144l32 16l31 -16l7 -33l-21 -28h-35
l-21 28zM58 194l32 16l31 -16l7 -33l-21 -28h-35l-21 28zM58 244l32 16l31 -16l7 -33l-21 -28h-35l-21 28zM58 294l32 16l31 -16l7 -33l-21 -28h-35l-21 28zM58 344l32 16l31 -16l7 -33l-21 -28h-35l-21 28z" />
    <glyph glyph-name="icircumflex" unicode="&#xee;" 
d="M153 369l32 15l31 -15l8 -34l-22 -27h-35l-21 27zM125 410l31 15l31 -15l8 -34l-22 -27h-34l-22 27zM96 451l31 15l31 -15l8 -34l-22 -27h-34l-22 27zM66 490l31 15l32 -15l7 -34l-21 -27h-35l-22 27zM33 473l32 15l31 -15l8 -33l-22 -28h-35l-21 28zM3 433l32 15l31 -15
l8 -34l-22 -27h-35l-21 27zM-26 393l31 15l31 -15l8 -34l-22 -27h-35l-21 27zM31 344l31 15l31 -15l8 -34l-22 -27h-34l-22 27zM0 374l32 16l31 -16l7 -33l-21 -28h-35l-21 28zM73 374l32 16l31 -16l7 -33l-21 -28h-35l-21 28zM58 44l32 16l31 -16l7 -33l-21 -27h-35l-21 27
zM58 94l32 16l31 -16l7 -33l-21 -28h-35l-21 28zM58 144l32 16l31 -16l7 -33l-21 -28h-35l-21 28zM58 194l32 16l31 -16l7 -33l-21 -28h-35l-21 28zM58 244l32 16l31 -16l7 -33l-21 -28h-35l-21 28zM58 294l32 16l31 -16l7 -33l-21 -28h-35l-21 28zM58 344l32 16l31 -16
l7 -33l-21 -28h-35l-21 28z" />
    <glyph glyph-name="idieresis" unicode="&#xef;" 
d="M169 445l32 16l31 -16l7 -33l-21 -28h-35l-21 28zM135 462l31 15l32 -15l7 -34l-21 -27h-35l-22 27zM157 490l31 16l31 -16l8 -33l-22 -28h-34l-22 28zM169 445l32 16l31 -16l7 -33l-21 -28h-35l-21 28zM-39 445l32 16l31 -16l7 -33l-21 -28h-35l-21 28zM-73 462l31 15
l32 -15l7 -34l-21 -27h-35l-22 27zM-51 490l31 16l31 -16l8 -33l-22 -28h-34l-22 28zM-39 445l32 16l31 -16l7 -33l-21 -28h-35l-21 28zM31 344l31 15l31 -15l8 -34l-22 -27h-34l-22 27zM0 374l32 16l31 -16l7 -33l-21 -28h-35l-21 28zM73 374l32 16l31 -16l7 -33l-21 -28
h-35l-21 28zM58 44l32 16l31 -16l7 -33l-21 -27h-35l-21 27zM58 94l32 16l31 -16l7 -33l-21 -28h-35l-21 28zM58 144l32 16l31 -16l7 -33l-21 -28h-35l-21 28zM58 194l32 16l31 -16l7 -33l-21 -28h-35l-21 28zM58 244l32 16l31 -16l7 -33l-21 -28h-35l-21 28zM58 294l32 16
l31 -16l7 -33l-21 -28h-35l-21 28zM58 344l32 16l31 -16l7 -33l-21 -28h-35l-21 28z" />
    <glyph glyph-name="ntilde" unicode="&#xf1;" 
d="M138 495l32 16l31 -16l7 -33l-21 -28h-35l-21 28zM189 487l31 15l31 -15l8 -34l-22 -27h-35l-21 27zM231 461l31 15l31 -15l8 -34l-21 -27h-35l-22 27zM256 424l31 15l31 -15l8 -34l-22 -27h-34l-22 27zM385 455l31 15l31 -15l8 -34l-22 -27h-34l-22 27zM349 423l31 15
l32 -15l7 -34l-21 -26h-35l-22 26zM301 410l31 15l31 -15l8 -34l-22 -26h-34l-22 26zM253 409l31 15l31 -15l8 -33l-22 -27h-34l-22 27zM206 421l31 15l31 -15l8 -34l-22 -26h-34l-22 26zM164 449l31 15l31 -15l8 -34l-22 -27h-34l-22 27zM2 417l31 15l31 -15l8 -33l-22 -28
h-35l-21 28zM31 454l31 15l31 -15l8 -34l-22 -27h-34l-22 27zM73 483l31 15l32 -15l7 -33l-21 -28h-35l-22 28zM120 495l31 15l31 -15l8 -34l-22 -27h-34l-22 27zM78 267l31 15l32 -15l7 -34l-21 -27h-35l-22 27zM58 47l32 15l31 -15l7 -34l-21 -26h-35l-21 26zM58 97l32 15
l31 -15l7 -34l-21 -27h-35l-21 27zM58 147l32 15l31 -15l7 -34l-21 -27h-35l-21 27zM58 197l32 15l31 -15l7 -34l-21 -27h-35l-21 27zM58 247l32 15l31 -15l7 -34l-21 -27h-35l-21 27zM58 347l32 15l31 -15l7 -34l-21 -27h-35l-21 27zM68 367l32 15l31 -15l7 -34l-21 -27
h-35l-21 27zM76 322l31 15l31 -15l8 -34l-22 -27h-34l-22 27zM98 314l32 16l31 -16l7 -33l-21 -28h-35l-21 28zM331 44l31 16l31 -16l8 -33l-22 -27h-34l-22 27zM328 89l32 16l31 -16l7 -33l-21 -28h-35l-21 28zM328 139l32 16l31 -16l7 -33l-21 -28h-35l-21 28zM328 189
l32 16l31 -16l7 -33l-21 -28h-35l-21 28zM328 239l32 16l31 -16l7 -33l-21 -28h-35l-21 28zM323 288l31 15l32 -15l7 -34l-21 -27h-35l-22 27zM303 333l32 15l31 -15l8 -34l-22 -27h-35l-21 27zM268 363l31 15l32 -15l7 -34l-21 -27h-35l-22 27zM219 374l31 15l31 -15l8 -33
l-22 -28h-34l-22 28zM172 369l31 15l32 -15l7 -34l-21 -27h-35l-22 27zM128 347l31 15l31 -15l8 -34l-22 -27h-34l-22 27z" />
    <glyph glyph-name="ograve" unicode="&#xf2;" 
d="M257 346l32 16l31 -16l7 -33l-21 -27h-35l-21 27zM221 369l32 15l31 -15l8 -34l-22 -27h-35l-21 27zM193 410l31 15l31 -15l8 -34l-22 -27h-34l-22 27zM164 451l31 15l31 -15l8 -34l-22 -27h-34l-22 27zM134 490l31 15l32 -15l7 -34l-21 -27h-35l-22 27zM172 384l31 16
l32 -16l7 -33l-21 -28h-35l-22 28zM214 383l31 15l32 -15l7 -34l-21 -27h-35l-22 27zM300 338l31 15l32 -15l7 -34l-21 -27h-35l-22 27zM329 299l32 15l31 -15l8 -34l-22 -27h-35l-21 27zM345 252l31 15l31 -15l8 -34l-22 -27h-34l-22 27zM348 204l31 15l32 -15l7 -34
l-21 -27h-35l-22 27zM342 155l31 15l32 -15l7 -34l-21 -27h-35l-22 27zM324 111l31 15l31 -15l8 -34l-22 -27h-34l-22 27zM292 73l31 15l32 -15l7 -34l-21 -27h-35l-22 27zM250 49l31 15l31 -15l8 -34l-22 -26h-34l-22 26zM199 40l31 15l31 -15l8 -34l-22 -26h-34l-22 26z
M152 43l32 15l31 -15l8 -34l-22 -26h-35l-21 26zM107 60l32 15l31 -15l8 -34l-22 -26h-35l-21 26zM71 93l31 15l31 -15l8 -34l-22 -27h-34l-22 27zM46 135l31 15l31 -15l8 -34l-22 -27h-34l-22 27zM35 182l31 16l31 -16l8 -33l-22 -28h-34l-22 28zM34 231l31 15l32 -15
l7 -34l-21 -27h-35l-22 27zM44 280l31 15l32 -15l7 -34l-21 -27h-35l-22 27zM68 323l31 15l31 -15l8 -34l-22 -27h-34l-22 27zM101 357l31 15l32 -15l7 -34l-21 -27h-35l-22 27zM118 384l32 16l31 -16l7 -33l-21 -28h-35l-21 28zM258 374l32 16l31 -16l7 -33l-21 -28h-35
l-21 28z" />
    <glyph glyph-name="oacute" unicode="&#xf3;" 
d="M243 490l31 15l32 -15l7 -34l-21 -27h-35l-22 27zM210 473l32 15l31 -15l8 -33l-22 -28h-35l-21 28zM180 433l32 15l31 -15l8 -34l-22 -27h-35l-21 27zM151 393l31 15l31 -15l8 -34l-22 -27h-35l-21 27zM121 352l31 16l31 -16l8 -33l-22 -26h-34l-22 26zM172 384l31 16
l32 -16l7 -33l-21 -28h-35l-22 28zM214 383l31 15l32 -15l7 -34l-21 -27h-35l-22 27zM300 338l31 15l32 -15l7 -34l-21 -27h-35l-22 27zM329 299l32 15l31 -15l8 -34l-22 -27h-35l-21 27zM345 252l31 15l31 -15l8 -34l-22 -27h-34l-22 27zM348 204l31 15l32 -15l7 -34
l-21 -27h-35l-22 27zM342 155l31 15l32 -15l7 -34l-21 -27h-35l-22 27zM324 111l31 15l31 -15l8 -34l-22 -27h-34l-22 27zM292 73l31 15l32 -15l7 -34l-21 -27h-35l-22 27zM250 49l31 15l31 -15l8 -34l-22 -26h-34l-22 26zM199 40l31 15l31 -15l8 -34l-22 -26h-34l-22 26z
M152 43l32 15l31 -15l8 -34l-22 -26h-35l-21 26zM107 60l32 15l31 -15l8 -34l-22 -26h-35l-21 26zM71 93l31 15l31 -15l8 -34l-22 -27h-34l-22 27zM46 135l31 15l31 -15l8 -34l-22 -27h-34l-22 27zM35 182l31 16l31 -16l8 -33l-22 -28h-34l-22 28zM34 231l31 15l32 -15
l7 -34l-21 -27h-35l-22 27zM44 280l31 15l32 -15l7 -34l-21 -27h-35l-22 27zM68 323l31 15l31 -15l8 -34l-22 -27h-34l-22 27zM101 357l31 15l32 -15l7 -34l-21 -27h-35l-22 27zM118 384l32 16l31 -16l7 -33l-21 -28h-35l-21 28zM258 374l32 16l31 -16l7 -33l-21 -28h-35
l-21 28z" />
    <glyph glyph-name="ocircumflex" unicode="&#xf4;" 
d="M290 369l32 15l31 -15l8 -34l-22 -27h-35l-21 27zM262 410l31 15l31 -15l8 -34l-22 -27h-34l-22 27zM233 451l31 15l31 -15l8 -34l-22 -27h-34l-22 27zM203 490l31 15l32 -15l7 -34l-21 -27h-35l-22 27zM170 473l32 15l31 -15l8 -33l-22 -28h-35l-21 28zM140 433l32 15
l31 -15l8 -34l-22 -27h-35l-21 27zM111 393l31 15l31 -15l8 -34l-22 -27h-35l-21 27zM172 384l31 16l32 -16l7 -33l-21 -28h-35l-22 28zM214 383l31 15l32 -15l7 -34l-21 -27h-35l-22 27zM300 338l31 15l32 -15l7 -34l-21 -27h-35l-22 27zM329 299l32 15l31 -15l8 -34
l-22 -27h-35l-21 27zM345 252l31 15l31 -15l8 -34l-22 -27h-34l-22 27zM348 204l31 15l32 -15l7 -34l-21 -27h-35l-22 27zM342 155l31 15l32 -15l7 -34l-21 -27h-35l-22 27zM324 111l31 15l31 -15l8 -34l-22 -27h-34l-22 27zM292 73l31 15l32 -15l7 -34l-21 -27h-35l-22 27z
M250 49l31 15l31 -15l8 -34l-22 -26h-34l-22 26zM199 40l31 15l31 -15l8 -34l-22 -26h-34l-22 26zM152 43l32 15l31 -15l8 -34l-22 -26h-35l-21 26zM107 60l32 15l31 -15l8 -34l-22 -26h-35l-21 26zM71 93l31 15l31 -15l8 -34l-22 -27h-34l-22 27zM46 135l31 15l31 -15
l8 -34l-22 -27h-34l-22 27zM35 182l31 16l31 -16l8 -33l-22 -28h-34l-22 28zM34 231l31 15l32 -15l7 -34l-21 -27h-35l-22 27zM44 280l31 15l32 -15l7 -34l-21 -27h-35l-22 27zM68 323l31 15l31 -15l8 -34l-22 -27h-34l-22 27zM101 357l31 15l32 -15l7 -34l-21 -27h-35
l-22 27zM118 384l32 16l31 -16l7 -33l-21 -28h-35l-21 28zM258 374l32 16l31 -16l7 -33l-21 -28h-35l-21 28z" />
    <glyph glyph-name="otilde" unicode="&#xf5;" 
d="M138 495l32 16l31 -16l7 -33l-21 -28h-35l-21 28zM189 487l31 15l31 -15l8 -34l-22 -27h-35l-21 27zM231 461l31 15l31 -15l8 -34l-21 -27h-35l-22 27zM256 424l31 15l31 -15l8 -34l-22 -27h-34l-22 27zM385 455l31 15l31 -15l8 -34l-22 -27h-34l-22 27zM349 423l31 15
l32 -15l7 -34l-21 -26h-35l-22 26zM301 410l31 15l31 -15l8 -34l-22 -26h-34l-22 26zM253 409l31 15l31 -15l8 -33l-22 -27h-34l-22 27zM206 421l31 15l31 -15l8 -34l-22 -26h-34l-22 26zM164 449l31 15l31 -15l8 -34l-22 -27h-34l-22 27zM2 417l31 15l31 -15l8 -33l-22 -28
h-35l-21 28zM31 454l31 15l31 -15l8 -34l-22 -27h-34l-22 27zM73 483l31 15l32 -15l7 -33l-21 -28h-35l-22 28zM120 495l31 15l31 -15l8 -34l-22 -27h-34l-22 27zM172 384l31 16l32 -16l7 -33l-21 -28h-35l-22 28zM214 383l31 15l32 -15l7 -34l-21 -27h-35l-22 27zM300 338
l31 15l32 -15l7 -34l-21 -27h-35l-22 27zM329 299l32 15l31 -15l8 -34l-22 -27h-35l-21 27zM345 252l31 15l31 -15l8 -34l-22 -27h-34l-22 27zM348 204l31 15l32 -15l7 -34l-21 -27h-35l-22 27zM342 155l31 15l32 -15l7 -34l-21 -27h-35l-22 27zM324 111l31 15l31 -15l8 -34
l-22 -27h-34l-22 27zM292 73l31 15l32 -15l7 -34l-21 -27h-35l-22 27zM250 49l31 15l31 -15l8 -34l-22 -26h-34l-22 26zM199 40l31 15l31 -15l8 -34l-22 -26h-34l-22 26zM152 43l32 15l31 -15l8 -34l-22 -26h-35l-21 26zM107 60l32 15l31 -15l8 -34l-22 -26h-35l-21 26z
M71 93l31 15l31 -15l8 -34l-22 -27h-34l-22 27zM46 135l31 15l31 -15l8 -34l-22 -27h-34l-22 27zM35 182l31 16l31 -16l8 -33l-22 -28h-34l-22 28zM34 231l31 15l32 -15l7 -34l-21 -27h-35l-22 27zM44 280l31 15l32 -15l7 -34l-21 -27h-35l-22 27zM68 323l31 15l31 -15
l8 -34l-22 -27h-34l-22 27zM101 357l31 15l32 -15l7 -34l-21 -27h-35l-22 27zM118 384l32 16l31 -16l7 -33l-21 -28h-35l-21 28zM258 374l32 16l31 -16l7 -33l-21 -28h-35l-21 28z" />
    <glyph glyph-name="odieresis" unicode="&#xf6;" 
d="M300 445l32 16l31 -16l7 -33l-21 -28h-35l-21 28zM266 462l31 15l32 -15l7 -34l-21 -27h-35l-22 27zM288 490l31 16l31 -16l8 -33l-22 -28h-34l-22 28zM300 445l32 16l31 -16l7 -33l-21 -28h-35l-21 28zM92 445l32 16l31 -16l7 -33l-21 -28h-35l-21 28zM58 462l31 15
l32 -15l7 -34l-21 -27h-35l-22 27zM80 490l31 16l31 -16l8 -33l-22 -28h-34l-22 28zM92 445l32 16l31 -16l7 -33l-21 -28h-35l-21 28zM172 384l31 16l32 -16l7 -33l-21 -28h-35l-22 28zM214 383l31 15l32 -15l7 -34l-21 -27h-35l-22 27zM300 338l31 15l32 -15l7 -34l-21 -27
h-35l-22 27zM329 299l32 15l31 -15l8 -34l-22 -27h-35l-21 27zM345 252l31 15l31 -15l8 -34l-22 -27h-34l-22 27zM348 204l31 15l32 -15l7 -34l-21 -27h-35l-22 27zM342 155l31 15l32 -15l7 -34l-21 -27h-35l-22 27zM324 111l31 15l31 -15l8 -34l-22 -27h-34l-22 27zM292 73
l31 15l32 -15l7 -34l-21 -27h-35l-22 27zM250 49l31 15l31 -15l8 -34l-22 -26h-34l-22 26zM199 40l31 15l31 -15l8 -34l-22 -26h-34l-22 26zM152 43l32 15l31 -15l8 -34l-22 -26h-35l-21 26zM107 60l32 15l31 -15l8 -34l-22 -26h-35l-21 26zM71 93l31 15l31 -15l8 -34
l-22 -27h-34l-22 27zM46 135l31 15l31 -15l8 -34l-22 -27h-34l-22 27zM35 182l31 16l31 -16l8 -33l-22 -28h-34l-22 28zM34 231l31 15l32 -15l7 -34l-21 -27h-35l-22 27zM44 280l31 15l32 -15l7 -34l-21 -27h-35l-22 27zM68 323l31 15l31 -15l8 -34l-22 -27h-34l-22 27z
M101 357l31 15l32 -15l7 -34l-21 -27h-35l-22 27zM118 384l32 16l31 -16l7 -33l-21 -28h-35l-21 28zM258 374l32 16l31 -16l7 -33l-21 -28h-35l-21 28z" />
    <glyph glyph-name="oslash" unicode="&#xf8;" 
d="M83 44l32 16l31 -16l7 -33l-21 -27h-35l-21 27zM88 81l31 15l31 -15l8 -34l-22 -27h-34l-22 27zM119 120l32 15l31 -15l8 -34l-22 -27h-35l-21 27zM151 159l31 15l31 -15l8 -34l-21 -27h-35l-22 27zM183 198l31 15l31 -15l8 -34l-22 -27h-35l-21 27zM214 237l31 15
l32 -15l7 -34l-21 -27h-35l-22 27zM246 275l31 15l31 -15l8 -33l-22 -28h-34l-22 28zM277 314l32 15l31 -15l8 -34l-22 -27h-35l-21 27zM309 353l31 15l31 -15l8 -34l-21 -27h-35l-22 27zM341 392l31 15l31 -15l8 -34l-22 -27h-35l-21 27zM172 384l31 16l32 -16l7 -33
l-21 -28h-35l-22 28zM214 383l31 15l32 -15l7 -34l-21 -27h-35l-22 27zM300 338l31 15l32 -15l7 -34l-21 -27h-35l-22 27zM329 299l32 15l31 -15l8 -34l-22 -27h-35l-21 27zM345 252l31 15l31 -15l8 -34l-22 -27h-34l-22 27zM348 204l31 15l32 -15l7 -34l-21 -27h-35l-22 27
zM342 155l31 15l32 -15l7 -34l-21 -27h-35l-22 27zM324 111l31 15l31 -15l8 -34l-22 -27h-34l-22 27zM292 73l31 15l32 -15l7 -34l-21 -27h-35l-22 27zM250 49l31 15l31 -15l8 -34l-22 -26h-34l-22 26zM199 40l31 15l31 -15l8 -34l-22 -26h-34l-22 26zM152 43l32 15l31 -15
l8 -34l-22 -26h-35l-21 26zM107 60l32 15l31 -15l8 -34l-22 -26h-35l-21 26zM71 93l31 15l31 -15l8 -34l-22 -27h-34l-22 27zM46 135l31 15l31 -15l8 -34l-22 -27h-34l-22 27zM35 182l31 16l31 -16l8 -33l-22 -28h-34l-22 28zM34 231l31 15l32 -15l7 -34l-21 -27h-35l-22 27
zM44 280l31 15l32 -15l7 -34l-21 -27h-35l-22 27zM68 323l31 15l31 -15l8 -34l-22 -27h-34l-22 27zM101 357l31 15l32 -15l7 -34l-21 -27h-35l-22 27zM118 384l32 16l31 -16l7 -33l-21 -28h-35l-21 28zM258 374l32 16l31 -16l7 -33l-21 -28h-35l-21 28z" />
    <glyph glyph-name="ugrave" unicode="&#xf9;" 
d="M250 346l32 16l31 -16l7 -33l-21 -27h-35l-21 27zM214 369l32 15l31 -15l8 -34l-22 -27h-35l-21 27zM186 410l31 15l31 -15l8 -34l-22 -27h-34l-22 27zM157 451l31 15l31 -15l8 -34l-22 -27h-34l-22 27zM127 490l31 15l32 -15l7 -34l-21 -27h-35l-22 27zM318 147l32 15
l31 -15l8 -34l-22 -27h-35l-21 27zM323 194l32 16l31 -16l7 -33l-21 -28h-35l-21 28zM323 242l32 15l31 -15l7 -34l-21 -27h-35l-21 27zM323 292l32 15l31 -15l7 -34l-21 -27h-35l-21 27zM323 342l32 15l31 -15l7 -34l-21 -27h-35l-21 27zM338 374l32 16l31 -16l7 -33
l-21 -28h-35l-21 28zM328 47l31 15l31 -15l8 -34l-22 -26h-34l-22 26zM319 93l31 15l32 -15l7 -34l-21 -27h-35l-22 27zM230 48l31 15l31 -15l8 -34l-22 -26h-34l-22 26zM182 40l31 15l31 -15l8 -34l-22 -26h-34l-22 26zM133 44l31 15l31 -15l8 -34l-22 -26h-34l-22 26z
M90 63l31 15l31 -15l8 -34l-22 -27h-34l-22 27zM61 103l31 15l32 -15l7 -34l-21 -27h-35l-22 27zM53 149l32 16l31 -16l7 -33l-21 -28h-35l-21 28zM53 199l32 16l31 -16l7 -33l-21 -28h-35l-21 28zM53 249l32 16l31 -16l7 -33l-21 -28h-35l-21 28zM53 299l32 16l31 -16
l7 -33l-21 -28h-35l-21 28zM53 349l32 16l31 -16l7 -33l-21 -28h-35l-21 28zM68 369l32 16l31 -16l7 -33l-21 -28h-35l-21 28zM273 74l32 16l31 -16l7 -33l-21 -28h-35l-21 28z" />
    <glyph glyph-name="uacute" unicode="&#xfa;" 
d="M231 490l31 15l32 -15l7 -34l-21 -27h-35l-22 27zM198 473l32 15l31 -15l8 -33l-22 -28h-35l-21 28zM168 433l32 15l31 -15l8 -34l-22 -27h-35l-21 27zM139 393l31 15l31 -15l8 -34l-22 -27h-35l-21 27zM109 352l31 16l31 -16l8 -33l-22 -26h-34l-22 26zM318 147l32 15
l31 -15l8 -34l-22 -27h-35l-21 27zM323 194l32 16l31 -16l7 -33l-21 -28h-35l-21 28zM323 242l32 15l31 -15l7 -34l-21 -27h-35l-21 27zM323 292l32 15l31 -15l7 -34l-21 -27h-35l-21 27zM323 342l32 15l31 -15l7 -34l-21 -27h-35l-21 27zM338 374l32 16l31 -16l7 -33
l-21 -28h-35l-21 28zM328 47l31 15l31 -15l8 -34l-22 -26h-34l-22 26zM319 93l31 15l32 -15l7 -34l-21 -27h-35l-22 27zM230 48l31 15l31 -15l8 -34l-22 -26h-34l-22 26zM182 40l31 15l31 -15l8 -34l-22 -26h-34l-22 26zM133 44l31 15l31 -15l8 -34l-22 -26h-34l-22 26z
M90 63l31 15l31 -15l8 -34l-22 -27h-34l-22 27zM61 103l31 15l32 -15l7 -34l-21 -27h-35l-22 27zM53 149l32 16l31 -16l7 -33l-21 -28h-35l-21 28zM53 199l32 16l31 -16l7 -33l-21 -28h-35l-21 28zM53 249l32 16l31 -16l7 -33l-21 -28h-35l-21 28zM53 299l32 16l31 -16
l7 -33l-21 -28h-35l-21 28zM53 349l32 16l31 -16l7 -33l-21 -28h-35l-21 28zM68 369l32 16l31 -16l7 -33l-21 -28h-35l-21 28zM273 74l32 16l31 -16l7 -33l-21 -28h-35l-21 28z" />
    <glyph glyph-name="ucircumflex" unicode="&#xfb;" 
d="M274 369l32 15l31 -15l8 -34l-22 -27h-35l-21 27zM246 410l31 15l31 -15l8 -34l-22 -27h-34l-22 27zM217 451l31 15l31 -15l8 -34l-22 -27h-34l-22 27zM187 490l31 15l32 -15l7 -34l-21 -27h-35l-22 27zM154 473l32 15l31 -15l8 -33l-22 -28h-35l-21 28zM124 433l32 15
l31 -15l8 -34l-22 -27h-35l-21 27zM95 393l31 15l31 -15l8 -34l-22 -27h-35l-21 27zM318 147l32 15l31 -15l8 -34l-22 -27h-35l-21 27zM323 194l32 16l31 -16l7 -33l-21 -28h-35l-21 28zM323 242l32 15l31 -15l7 -34l-21 -27h-35l-21 27zM323 292l32 15l31 -15l7 -34
l-21 -27h-35l-21 27zM323 342l32 15l31 -15l7 -34l-21 -27h-35l-21 27zM338 374l32 16l31 -16l7 -33l-21 -28h-35l-21 28zM328 47l31 15l31 -15l8 -34l-22 -26h-34l-22 26zM319 93l31 15l32 -15l7 -34l-21 -27h-35l-22 27zM230 48l31 15l31 -15l8 -34l-22 -26h-34l-22 26z
M182 40l31 15l31 -15l8 -34l-22 -26h-34l-22 26zM133 44l31 15l31 -15l8 -34l-22 -26h-34l-22 26zM90 63l31 15l31 -15l8 -34l-22 -27h-34l-22 27zM61 103l31 15l32 -15l7 -34l-21 -27h-35l-22 27zM53 149l32 16l31 -16l7 -33l-21 -28h-35l-21 28zM53 199l32 16l31 -16
l7 -33l-21 -28h-35l-21 28zM53 249l32 16l31 -16l7 -33l-21 -28h-35l-21 28zM53 299l32 16l31 -16l7 -33l-21 -28h-35l-21 28zM53 349l32 16l31 -16l7 -33l-21 -28h-35l-21 28zM68 369l32 16l31 -16l7 -33l-21 -28h-35l-21 28zM273 74l32 16l31 -16l7 -33l-21 -28h-35
l-21 28z" />
    <glyph glyph-name="udieresis" unicode="&#xfc;" 
d="M286 445l32 16l31 -16l7 -33l-21 -28h-35l-21 28zM252 462l31 15l32 -15l7 -34l-21 -27h-35l-22 27zM274 490l31 16l31 -16l8 -33l-22 -28h-34l-22 28zM286 445l32 16l31 -16l7 -33l-21 -28h-35l-21 28zM78 445l32 16l31 -16l7 -33l-21 -28h-35l-21 28zM44 462l31 15
l32 -15l7 -34l-21 -27h-35l-22 27zM66 490l31 16l31 -16l8 -33l-22 -28h-34l-22 28zM78 445l32 16l31 -16l7 -33l-21 -28h-35l-21 28zM318 147l32 15l31 -15l8 -34l-22 -27h-35l-21 27zM323 194l32 16l31 -16l7 -33l-21 -28h-35l-21 28zM323 242l32 15l31 -15l7 -34l-21 -27
h-35l-21 27zM323 292l32 15l31 -15l7 -34l-21 -27h-35l-21 27zM323 342l32 15l31 -15l7 -34l-21 -27h-35l-21 27zM338 374l32 16l31 -16l7 -33l-21 -28h-35l-21 28zM328 47l31 15l31 -15l8 -34l-22 -26h-34l-22 26zM319 93l31 15l32 -15l7 -34l-21 -27h-35l-22 27zM230 48
l31 15l31 -15l8 -34l-22 -26h-34l-22 26zM182 40l31 15l31 -15l8 -34l-22 -26h-34l-22 26zM133 44l31 15l31 -15l8 -34l-22 -26h-34l-22 26zM90 63l31 15l31 -15l8 -34l-22 -27h-34l-22 27zM61 103l31 15l32 -15l7 -34l-21 -27h-35l-22 27zM53 149l32 16l31 -16l7 -33
l-21 -28h-35l-21 28zM53 199l32 16l31 -16l7 -33l-21 -28h-35l-21 28zM53 249l32 16l31 -16l7 -33l-21 -28h-35l-21 28zM53 299l32 16l31 -16l7 -33l-21 -28h-35l-21 28zM53 349l32 16l31 -16l7 -33l-21 -28h-35l-21 28zM68 369l32 16l31 -16l7 -33l-21 -28h-35l-21 28z
M273 74l32 16l31 -16l7 -33l-21 -28h-35l-21 28z" />
    <glyph glyph-name="yacute" unicode="&#xfd;" 
d="M241 490l31 15l32 -15l7 -34l-21 -27h-35l-22 27zM208 473l32 15l31 -15l8 -33l-22 -28h-35l-21 28zM178 433l32 15l31 -15l8 -34l-22 -27h-35l-21 27zM149 393l31 15l31 -15l8 -34l-22 -27h-35l-21 27zM119 352l31 16l31 -16l8 -33l-22 -26h-34l-22 26zM313 374l32 16
l31 -16l7 -33l-21 -28h-35l-21 28zM294 328l31 15l32 -15l7 -34l-21 -27h-35l-22 27zM275 282l31 15l32 -15l7 -34l-21 -27h-35l-22 27zM256 236l31 15l32 -15l7 -34l-21 -27h-35l-22 27zM237 189l31 16l31 -16l8 -33l-21 -28h-35l-22 28zM218 143l31 15l31 -15l8 -34
l-22 -27h-34l-22 27zM199 97l31 15l31 -15l8 -34l-22 -27h-34l-22 27zM180 51l31 15l31 -15l8 -34l-22 -26h-34l-22 26zM161 4l31 16l31 -16l8 -32l-22 -27h-34l-22 27zM142 -39l32 15l31 -15l8 -33l-22 -28h-35l-21 28zM116 -82l31 15l32 -15l7 -34l-21 -27h-35l-22 27z
M76 -107l31 15l32 -15l7 -34l-21 -27h-35l-22 27zM28 -108l32 15l31 -15l8 -34l-22 -27h-35l-21 27zM-6 -90l31 15l31 -15l7 -33l-21 -28h-35l-20 28zM144 64l31 15l31 -15l8 -34l-22 -27h-34l-22 27zM124 110l31 16l32 -16l7 -33l-21 -27h-35l-22 27zM105 157l31 15l31 -15
l8 -34l-22 -27h-34l-22 27zM85 203l32 15l31 -15l8 -34l-22 -27h-35l-21 27zM66 249l31 15l31 -15l8 -33l-22 -28h-34l-22 28zM47 293l32 15l31 -15l8 -33l-22 -28h-35l-21 28zM28 340l31 15l31 -15l8 -34l-22 -27h-34l-22 27zM23 374l32 16l31 -16l7 -33l-21 -28h-35
l-21 28z" />
    <glyph glyph-name="ydieresis" unicode="&#xff;" 
d="M286 445l32 16l31 -16l7 -33l-21 -28h-35l-21 28zM252 462l31 15l32 -15l7 -34l-21 -27h-35l-22 27zM274 490l31 16l31 -16l8 -33l-22 -28h-34l-22 28zM286 445l32 16l31 -16l7 -33l-21 -28h-35l-21 28zM78 445l32 16l31 -16l7 -33l-21 -28h-35l-21 28zM44 462l31 15
l32 -15l7 -34l-21 -27h-35l-22 27zM66 490l31 16l31 -16l8 -33l-22 -28h-34l-22 28zM78 445l32 16l31 -16l7 -33l-21 -28h-35l-21 28zM313 374l32 16l31 -16l7 -33l-21 -28h-35l-21 28zM294 328l31 15l32 -15l7 -34l-21 -27h-35l-22 27zM275 282l31 15l32 -15l7 -34l-21 -27
h-35l-22 27zM256 236l31 15l32 -15l7 -34l-21 -27h-35l-22 27zM237 189l31 16l31 -16l8 -33l-21 -28h-35l-22 28zM218 143l31 15l31 -15l8 -34l-22 -27h-34l-22 27zM199 97l31 15l31 -15l8 -34l-22 -27h-34l-22 27zM180 51l31 15l31 -15l8 -34l-22 -26h-34l-22 26zM161 4
l31 16l31 -16l8 -32l-22 -27h-34l-22 27zM142 -39l32 15l31 -15l8 -33l-22 -28h-35l-21 28zM116 -82l31 15l32 -15l7 -34l-21 -27h-35l-22 27zM76 -107l31 15l32 -15l7 -34l-21 -27h-35l-22 27zM28 -108l32 15l31 -15l8 -34l-22 -27h-35l-21 27zM-6 -90l31 15l31 -15l7 -33
l-21 -28h-35l-20 28zM144 64l31 15l31 -15l8 -34l-22 -27h-34l-22 27zM124 110l31 16l32 -16l7 -33l-21 -27h-35l-22 27zM105 157l31 15l31 -15l8 -34l-22 -27h-34l-22 27zM85 203l32 15l31 -15l8 -34l-22 -27h-35l-21 27zM66 249l31 15l31 -15l8 -33l-22 -28h-34l-22 28z
M47 293l32 15l31 -15l8 -33l-22 -28h-35l-21 28zM28 340l31 15l31 -15l8 -34l-22 -27h-34l-22 27zM23 374l32 16l31 -16l7 -33l-21 -28h-35l-21 28z" />
    <glyph glyph-name="OE" unicode="&#x152;" 
d="M285 94l32 16l31 -16l7 -33l-21 -28h-35l-21 28zM285 144l32 16l31 -16l7 -33l-21 -28h-35l-21 28zM285 194l32 16l31 -16l7 -33l-21 -28h-35l-21 28zM285 244l32 16l31 -16l7 -33l-21 -28h-35l-21 28zM285 294l32 16l31 -16l7 -33l-21 -28h-35l-21 28zM285 344l32 16
l31 -16l7 -33l-21 -28h-35l-21 28zM285 394l32 16l31 -16l7 -33l-21 -28h-35l-21 28zM285 444l32 16l31 -16l7 -33l-21 -28h-35l-21 28zM285 494l32 16l31 -16l7 -33l-21 -28h-35l-21 28zM335 494l32 16l31 -16l7 -33l-21 -28h-35l-21 28zM385 494l32 16l31 -16l7 -33
l-21 -28h-35l-21 28zM435 494l32 16l31 -16l7 -33l-21 -28h-35l-21 28zM485 494l32 16l31 -16l7 -33l-21 -28h-35l-21 28zM535 494l32 16l31 -16l7 -33l-21 -28h-35l-21 28zM585 494l32 16l31 -16l7 -33l-21 -28h-35l-21 28zM338 279l31 16l31 -16l8 -33l-22 -28h-34l-22 28
zM388 279l31 16l31 -16l8 -33l-22 -28h-34l-22 28zM438 279l31 16l31 -16l8 -33l-22 -28h-34l-22 28zM488 279l31 16l31 -16l8 -33l-22 -28h-34l-22 28zM525 269l32 16l31 -16l7 -33l-21 -28h-35l-21 28zM600 44l32 16l31 -16l7 -33l-21 -27h-35l-21 27zM550 44l32 16
l31 -16l7 -33l-21 -27h-35l-21 27zM500 44l32 16l31 -16l7 -33l-21 -27h-35l-21 27zM450 44l32 16l31 -16l7 -33l-21 -27h-35l-21 27zM400 44l32 16l31 -16l7 -33l-21 -27h-35l-21 27zM350 44l32 16l31 -16l7 -33l-21 -27h-35l-21 27zM300 44l32 16l31 -16l7 -33l-21 -27
h-35l-21 27zM148 504l32 16l31 -16l7 -33l-21 -28h-35l-21 28zM246 504l31 16l31 -16l8 -33l-22 -28h-34l-22 28zM262 40l31 15l31 -15l8 -34l-21 -26h-35l-22 26zM214 41l31 15l32 -15l7 -34l-21 -26h-35l-22 26zM164 52l32 15l31 -15l8 -33l-22 -27h-35l-21 27zM120 75
l31 16l32 -16l7 -33l-21 -28h-35l-22 28zM86 108l32 15l31 -15l7 -34l-21 -27h-35l-21 27zM60 150l31 15l32 -15l7 -33l-21 -28h-35l-22 28zM45 198l31 15l32 -15l7 -34l-21 -27h-35l-22 27zM39 247l31 15l31 -15l8 -34l-22 -27h-34l-22 27zM39 295l31 15l32 -15l7 -34
l-21 -27h-35l-22 27zM46 344l31 15l31 -15l8 -34l-22 -27h-34l-22 27zM61 390l31 16l32 -16l7 -33l-21 -27h-35l-22 27zM88 433l31 15l31 -15l8 -34l-22 -27h-34l-22 27zM123 468l31 15l31 -15l8 -34l-21 -27h-35l-22 27zM215 503l31 15l31 -15l8 -34l-22 -27h-34l-22 27z
M181 504l31 16l31 -16l8 -33l-22 -28h-34l-22 28zM148 504l32 16l31 -16l7 -33l-21 -28h-35l-21 28z" />
    <glyph glyph-name="oe" unicode="&#x153;" 
d="M575 214l31 16l31 -16l8 -33l-22 -28h-34l-22 28zM525 214l31 16l31 -16l8 -33l-22 -28h-34l-22 28zM475 214l31 16l31 -16l8 -33l-22 -28h-34l-22 28zM425 214l31 16l31 -16l8 -33l-22 -28h-34l-22 28zM375 214l31 16l31 -16l8 -33l-22 -28h-34l-22 28zM577 94l32 16
l31 -16l7 -33l-21 -28h-35l-21 28zM551 62l31 15l32 -15l7 -34l-21 -27h-35l-22 27zM506 44l32 15l31 -15l8 -34l-22 -26h-35l-21 26zM459 39l32 16l31 -16l8 -33l-22 -27h-35l-21 27zM409 46l31 15l32 -15l7 -34l-21 -26h-35l-22 26zM365 68l31 15l32 -15l7 -34l-21 -27
h-35l-22 27zM332 103l31 15l31 -15l8 -34l-22 -27h-35l-21 27zM310 148l31 15l32 -15l7 -34l-21 -27h-35l-22 27zM302 198l32 15l31 -15l8 -33l-22 -28h-35l-21 28zM316 292l31 15l32 -15l7 -34l-21 -27h-35l-22 27zM342 334l31 16l32 -16l7 -33l-21 -28h-35l-21 28z
M379 365l31 15l32 -15l7 -34l-21 -27h-35l-22 27zM427 382l32 15l31 -15l8 -34l-22 -27h-35l-21 27zM472 384l32 15l31 -15l8 -34l-22 -27h-35l-21 27zM522 370l31 15l32 -15l7 -34l-21 -27h-35l-22 27zM561 341l31 15l31 -15l8 -34l-22 -27h-34l-22 27zM589 302l31 15
l31 -15l8 -34l-22 -27h-34l-22 27zM319 258l31 15l31 -15l8 -34l-22 -27h-34l-22 27zM340 225l31 15l31 -15l8 -34l-22 -27h-34l-22 27zM580 232l31 15l31 -15l8 -34l-22 -27h-34l-22 27zM581 278l32 15l31 -15l8 -33l-22 -28h-35l-21 28zM172 384l31 16l32 -16l7 -33
l-21 -28h-35l-22 28zM214 383l31 15l32 -15l7 -34l-21 -27h-35l-22 27zM300 338l31 15l32 -15l7 -34l-21 -27h-35l-22 27zM292 73l31 15l32 -15l7 -34l-21 -27h-35l-22 27zM250 49l31 15l31 -15l8 -34l-22 -26h-34l-22 26zM199 40l31 15l31 -15l8 -34l-22 -26h-34l-22 26z
M152 43l32 15l31 -15l8 -34l-22 -26h-35l-21 26zM107 60l32 15l31 -15l8 -34l-22 -26h-35l-21 26zM71 93l31 15l31 -15l8 -34l-22 -27h-34l-22 27zM46 135l31 15l31 -15l8 -34l-22 -27h-34l-22 27zM35 182l31 16l31 -16l8 -33l-22 -28h-34l-22 28zM34 231l31 15l32 -15
l7 -34l-21 -27h-35l-22 27zM44 280l31 15l32 -15l7 -34l-21 -27h-35l-22 27zM68 323l31 15l31 -15l8 -34l-22 -27h-34l-22 27zM101 357l31 15l32 -15l7 -34l-21 -27h-35l-22 27zM118 384l32 16l31 -16l7 -33l-21 -28h-35l-21 28zM258 374l32 16l31 -16l7 -33l-21 -28h-35
l-21 28z" />
  </font>
</defs>
</svg>
